<svg width="16" height="16" viewBox="0 0 16 16" fill="none" xmlns="http://www.w3.org/2000/svg">
<g clip-path="url(#clip0_459_410)">
<path d="M8.00033 11.9993C5.79119 11.9993 4.00033 10.2085 4.00033 7.99935C4.00033 5.79021 5.79119 3.99935 8.00033 3.99935C10.2095 3.99935 12.0003 5.79021 12.0003 7.99935C12.0003 10.2085 10.2095 11.9993 8.00033 11.9993ZM8.00033 10.666C9.47306 10.666 10.667 9.47208 10.667 7.99935C10.667 6.52659 9.47306 5.33268 8.00033 5.33268C6.52757 5.33268 5.33366 6.52659 5.33366 7.99935C5.33366 9.47208 6.52757 10.666 8.00033 10.666ZM7.33366 0.666016H8.66699V2.66602H7.33366V0.666016ZM7.33366 13.3327H8.66699V15.3327H7.33366V13.3327ZM2.34347 3.2853L3.28628 2.3425L4.70049 3.75671L3.75769 4.69952L2.34347 3.2853ZM11.3001 12.242L12.243 11.2991L13.6572 12.7134L12.7144 13.6562L11.3001 12.242ZM12.7144 2.3425L13.6572 3.2853L12.243 4.69952L11.3001 3.75671L12.7144 2.3425ZM3.75769 11.2991L4.70049 12.242L3.28628 13.6562L2.34347 12.7134L3.75769 11.2991ZM15.3337 7.33268V8.66602H13.3337V7.33268H15.3337ZM2.66699 7.33268V8.66602H0.666992V7.33268H2.66699Z" fill="#7D7D82"/>
</g>
<defs>
<clipPath id="clip0_459_410">
<rect width="16" height="16" fill="white"/>
</clipPath>
</defs>
</svg>
