<svg width="56" height="57" viewBox="0 0 56 57" fill="none" xmlns="http://www.w3.org/2000/svg">
<path d="M27.947 45.0878C37.5012 45.0878 45.2464 37.335 45.2464 27.7713C45.2464 18.2077 37.5012 10.4548 27.947 10.4548C18.3929 10.4548 10.6477 18.2077 10.6477 27.7713C10.6477 37.335 18.3929 45.0878 27.947 45.0878Z" stroke="url(#paint0_linear_58_1537)" stroke-width="0.194081" stroke-linecap="round" stroke-linejoin="round" stroke-dasharray="0.2 2.52"/>
<path d="M28.0004 50.4298C40.502 50.4298 50.6365 40.2852 50.6365 27.7713C50.6365 15.2573 40.502 5.11279 28.0004 5.11279C15.4989 5.11279 5.36438 15.2573 5.36438 27.7713C5.36438 40.2852 15.4989 50.4298 28.0004 50.4298Z" stroke="url(#paint1_linear_58_1537)" stroke-width="0.253971" stroke-linecap="round" stroke-linejoin="round"/>
<path d="M28.0005 55.3881C43.2377 55.3881 55.5899 43.0237 55.5899 27.7715C55.5899 12.5192 43.2377 0.154785 28.0005 0.154785C12.7634 0.154785 0.411194 12.5192 0.411194 27.7715C0.411194 43.0237 12.7634 55.3881 28.0005 55.3881Z" stroke="url(#paint2_linear_58_1537)" stroke-width="0.309558" stroke-linecap="round" stroke-linejoin="round"/>
<path d="M26.5375 45.4577L26.2165 47.3008C26.1998 47.3963 26.0642 47.3991 26.0435 47.3047L25.6389 45.4628C25.631 45.427 25.602 45.3996 25.5658 45.3946L23.9383 45.155C23.8428 45.141 23.8356 45.0063 23.9288 44.9818L25.6182 44.5438C25.6511 44.5354 25.6763 44.508 25.683 44.4745L25.9838 42.8734C26.0017 42.7789 26.1356 42.7767 26.1568 42.87L26.5179 44.4594C26.5252 44.4929 26.5514 44.5186 26.5849 44.5259L28.1136 44.8661C28.2051 44.8862 28.2056 45.0175 28.1141 45.0387L26.6055 45.3874C26.5698 45.3952 26.5436 45.4231 26.5375 45.4577Z" fill="url(#paint3_linear_58_1537)"/>
<path d="M17.5725 47.9098L17.4112 48.8355C17.4028 48.8836 17.3347 48.8847 17.3241 48.8372L17.121 47.912C17.1171 47.8941 17.1025 47.8802 17.0841 47.8774L16.2665 47.7573C16.2185 47.75 16.2152 47.6824 16.262 47.6701L17.1104 47.45C17.1271 47.4455 17.1394 47.4321 17.1428 47.4154L17.294 46.6114C17.3029 46.564 17.3699 46.5628 17.3805 46.6098L17.5619 47.4081C17.5658 47.4249 17.5786 47.4377 17.5954 47.4416L18.3628 47.6126C18.4091 47.6226 18.4091 47.6886 18.3633 47.6992L17.6054 47.874C17.5892 47.878 17.5758 47.8919 17.5725 47.9098Z" fill="url(#paint4_linear_58_1537)"/>
<path d="M34.8557 6.44691L34.6944 7.37262C34.686 7.42066 34.6179 7.42234 34.6073 7.37429L34.4041 6.44914C34.4002 6.43126 34.3857 6.4173 34.3673 6.4145L33.5497 6.29438C33.5017 6.28712 33.4983 6.21953 33.5452 6.20724L34.3941 5.98712C34.4108 5.98265 34.4231 5.96924 34.4264 5.95248L34.5777 5.14856C34.5866 5.10107 34.6536 5.09995 34.6642 5.14688L34.8456 5.94522C34.8495 5.96198 34.8623 5.97483 34.8791 5.97874L35.647 6.1497C35.6934 6.15975 35.6934 6.22567 35.6476 6.23629L34.8897 6.41115C34.8724 6.41506 34.859 6.42903 34.8557 6.44691Z" fill="url(#paint5_linear_58_1537)"/>
<path d="M29.4338 5.42126L29.1664 6.95872C29.1525 7.03861 29.0392 7.04084 29.0219 6.96207L28.6842 5.42517C28.6775 5.395 28.6535 5.37266 28.6228 5.36819L27.2649 5.16819C27.1857 5.15645 27.1795 5.04416 27.2571 5.02405L28.6669 4.65868C28.6942 4.65142 28.7155 4.62907 28.7211 4.60114L28.9716 3.26536C28.9862 3.18658 29.0983 3.18436 29.1156 3.26257L29.417 4.58828C29.4232 4.61622 29.4449 4.63801 29.4728 4.64415L30.7481 4.92795C30.8246 4.94471 30.8252 5.05421 30.7487 5.07153L29.4901 5.3626C29.4611 5.36874 29.4388 5.39221 29.4338 5.42126Z" fill="url(#paint6_linear_58_1537)"/>
<path d="M8.67876 13.945C8.92278 13.5219 9.46278 13.3771 9.88494 13.6214C10.3071 13.8657 10.4523 14.4062 10.2082 14.8287C9.96422 15.2519 9.42426 15.3966 9.0021 15.1524C8.57939 14.9087 8.43474 14.3682 8.67876 13.945Z" fill="url(#paint7_linear_58_1537)"/>
<path d="M7.65599 16.3602C7.81401 16.0863 8.16357 15.9924 8.43719 16.1506C8.71081 16.3088 8.80462 16.6587 8.64659 16.9325C8.48856 17.2064 8.13901 17.3003 7.86539 17.1422C7.59177 16.984 7.49796 16.6335 7.65599 16.3602Z" fill="url(#paint8_linear_58_1537)"/>
<path d="M7.01781 18.0701C7.13743 17.8627 7.40238 17.7918 7.60976 17.9114C7.81713 18.031 7.88812 18.2959 7.7685 18.5033C7.64888 18.7107 7.38396 18.7817 7.17659 18.6621C6.96921 18.5424 6.89819 18.2775 7.01781 18.0701Z" fill="url(#paint9_linear_58_1537)"/>
<path d="M6.67804 19.6042C6.75965 19.4633 6.93962 19.4147 7.08047 19.4963C7.22133 19.5779 7.26996 19.7579 7.18835 19.8987C7.10674 20.0396 6.92677 20.0882 6.78591 20.0066C6.64506 19.9256 6.59643 19.745 6.67804 19.6042Z" fill="url(#paint10_linear_58_1537)"/>
<path d="M33.0279 56.1329C32.5527 56.2424 32.0786 55.9462 31.9686 55.4705C31.8592 54.9948 32.1551 54.5203 32.6303 54.4102C33.1055 54.3 33.5796 54.5968 33.6896 55.0725C33.7991 55.5482 33.5031 56.0228 33.0279 56.1329Z" fill="url(#paint11_linear_58_1537)"/>
<path d="M35.4889 55.234C35.1812 55.305 34.8741 55.1132 34.8032 54.8047C34.7323 54.4961 34.9238 54.1893 35.232 54.1183C35.5397 54.0473 35.8469 54.239 35.9178 54.5476C35.9881 54.855 35.7966 55.1624 35.4889 55.234Z" fill="url(#paint12_linear_58_1537)"/>
<path d="M37.175 54.5349C36.9419 54.5886 36.7094 54.4433 36.6552 54.2102C36.6015 53.9771 36.7469 53.7446 36.9799 53.6903C37.213 53.6367 37.4456 53.782 37.4998 54.0151C37.5535 54.2482 37.4081 54.4807 37.175 54.5349Z" fill="url(#paint13_linear_58_1537)"/>
<path d="M38.5273 53.7378C38.3685 53.7747 38.2104 53.6757 38.174 53.517C38.1377 53.3583 38.2361 53.2001 38.3948 53.1637C38.5536 53.1268 38.7118 53.2258 38.7481 53.3845C38.785 53.5427 38.686 53.7009 38.5273 53.7378Z" fill="url(#paint14_linear_58_1537)"/>
<path d="M47.0882 44.6712C48.599 43.7522 49.5657 42.2299 50.7656 40.941C52.0532 39.7399 53.5741 38.7723 54.4927 37.2599C56.354 34.1945 56.5025 30.0542 54.8767 26.5458C53.6885 23.9815 51.5715 21.8172 49.0768 20.4815C49.43 19.5122 49.6433 18.4948 49.6209 17.4646C49.5835 15.7646 48.9255 14.0545 47.6904 12.8869C46.4553 11.7193 44.6291 11.1567 42.9849 11.5858C41.6025 11.9467 40.4572 12.9495 39.6407 14.1227C38.9341 15.1389 38.4463 16.2847 37.9904 17.4384C37.3603 17.0607 36.7988 16.5903 36.3528 16.0054C36.1893 15.5249 35.6446 15.3361 34.9564 15.4886C34.5501 15.5786 34.1048 15.7803 33.6521 16.0361C32.4477 14.7579 31.197 13.5227 29.7754 12.4975C27.9124 11.1534 25.7124 10.1768 23.4163 10.1316C21.1202 10.0869 18.7365 11.0874 17.4734 13.0081C15.2376 16.4088 17.0962 21.1457 15.5809 24.9229C14.3781 27.9212 10.9017 29.8118 7.73436 29.19C7.24433 29.0939 6.65941 29.1939 6.32956 29.5693C5.99972 29.9447 5.95062 30.5403 6.21405 30.9649C6.57124 31.5409 7.32024 31.6928 7.97267 31.8738C8.62511 32.0554 9.35845 32.4481 9.40533 33.1241C9.45333 33.8107 8.70492 34.3275 8.01788 34.3314C7.33028 34.3353 6.69624 33.9945 6.06222 33.7286C5.4282 33.4621 4.69205 33.2677 4.06808 33.5554C3.21025 33.9515 2.97194 35.1856 3.46196 35.994C3.95143 36.803 4.96495 37.1823 5.90873 37.1331C6.85194 37.084 7.73826 36.6722 8.55589 36.1979C9.84514 35.4504 11.0339 34.5286 12.0793 33.466C12.5581 32.9794 13.0231 32.4509 13.6387 32.1559C14.2537 31.861 15.0775 31.8677 15.534 32.3749C15.9772 32.8677 15.9158 33.6666 15.5586 34.2247C15.2014 34.7828 14.6153 35.1482 14.0332 35.4633C11.1344 37.0315 7.81303 37.8091 4.52015 37.6896C3.59479 37.656 2.64823 37.5555 1.75859 37.813C0.868958 38.0706 0.0351405 38.8019 0.00109549 39.7282C-0.0452281 40.9757 1.38634 41.8427 2.62871 41.7382C3.72485 41.6461 4.82434 41.0511 5.72011 40.4405C6.11414 40.1723 6.33962 39.7298 6.76099 39.4605C7.49324 38.9935 8.39569 39.0181 9.22394 38.8611C10.1231 38.6907 11.0054 38.4337 11.856 38.0968C13.5371 37.4309 15.0953 36.4516 16.4142 35.213C18.6846 33.0805 20.2328 30.1911 20.7513 27.1184C20.9874 25.7206 21.0566 24.1899 21.9646 23.1016C22.7114 22.2072 23.9822 21.7876 25.1135 22.0619C25.6571 22.1938 26.1505 22.4888 26.5507 22.8798C26.3765 23.096 26.203 23.3122 26.0461 23.5491C25.2486 24.7547 24.9405 26.095 25.6839 26.3843C25.6928 26.3877 25.7062 26.3843 25.7152 26.3877C26.3816 26.857 26.8945 27.4866 27.3069 28.1855C26.1237 28.652 24.9455 29.1475 23.9041 29.8732C22.7315 30.69 21.7302 31.837 21.3697 33.2208C20.941 34.8661 21.503 36.6946 22.6695 37.9303C23.836 39.1667 25.5444 39.8254 27.2427 39.8628C28.3037 39.8863 29.3507 39.6594 30.3453 39.2846C31.6809 41.7667 33.8335 43.8712 36.383 45.0551C39.8896 46.683 44.0258 46.5344 47.0882 44.6712ZM41.6784 15.535C42.5954 14.4629 44.2262 13.8607 45.4557 14.5523C46.3476 15.054 46.8097 16.0937 46.9643 17.106C47.0888 17.9216 47.0357 18.7574 46.841 19.5591C46.6261 19.4937 46.4151 19.4127 46.198 19.3602C44.4344 18.9311 42.6316 18.9071 40.8602 18.5373C40.6754 18.4987 40.4913 18.4339 40.3065 18.3853C40.6029 17.3518 40.9863 16.3445 41.6784 15.535ZM26.8861 37.2041C25.8748 37.0493 24.8361 36.5868 24.3349 35.694C23.6445 34.4633 24.2456 32.8308 25.3167 31.9129C26.146 31.2017 27.1847 30.8174 28.2457 30.5174C28.2892 30.6872 28.3489 30.8559 28.3846 31.0252C28.7541 32.7984 28.7775 34.6029 29.2067 36.3683C29.2631 36.6002 29.3479 36.8259 29.4188 37.0549C28.5928 37.2678 27.7294 37.3331 26.8861 37.2041Z" fill="url(#paint15_linear_58_1537)"/>
<path d="M35.9964 15.666C37.0758 17.3939 39.0253 18.3062 40.9485 18.742C43.2122 19.2554 45.5809 19.2303 47.7938 19.9789C48.8939 20.3509 49.9336 20.9191 50.7329 21.7744C50.917 21.9716 51.2128 21.675 51.0286 21.4783C49.5831 19.9319 47.4651 19.3168 45.4369 19.0006C43.2195 18.6548 40.8854 18.5867 38.8344 17.5788C37.8437 17.0917 36.9479 16.4006 36.3575 15.4548C36.2151 15.2263 35.8529 15.4363 35.9964 15.666Z" fill="black"/>
<path d="M26.3372 26.6982C27.8603 28.5976 28.2694 31.0988 28.5903 33.4424C28.9168 35.8274 29.2104 38.3056 30.5264 40.3827C31.161 41.3844 32.0138 42.2554 33.0792 42.7928C33.3192 42.9141 33.5313 42.5526 33.2902 42.4308C31.3363 41.4448 30.2379 39.39 29.6937 37.3486C29.0413 34.9005 29.0312 32.3301 28.3431 29.8893C27.9887 28.6311 27.4545 27.4255 26.633 26.4009C26.4644 26.1914 26.1698 26.4898 26.3372 26.6982Z" fill="black"/>
<path d="M44.4144 12.446C43.8448 12.2118 43.1284 12.3923 42.7319 12.8618C42.6587 12.9485 42.647 13.0737 42.7319 13.1581C42.8067 13.233 42.9547 13.2447 43.0279 13.1581C43.0686 13.1095 43.1127 13.0642 43.1607 13.0223C43.1641 13.0189 43.2032 12.9865 43.1881 12.9982C43.1758 13.0083 43.206 12.9848 43.2088 12.9831C43.2345 12.9647 43.2607 12.9474 43.2875 12.9306C43.3143 12.9144 43.3422 12.8987 43.3702 12.8842C43.3858 12.8764 43.402 12.8685 43.4176 12.8607C43.4271 12.8562 43.4467 12.8479 43.4254 12.8563C43.4869 12.8305 43.5516 12.8104 43.6164 12.7942C43.6471 12.7864 43.6784 12.7808 43.7096 12.7746C43.7225 12.7724 43.7398 12.7696 43.7169 12.773C43.7342 12.7707 43.7521 12.7691 43.7694 12.7674C43.8325 12.7618 43.8962 12.7612 43.9593 12.7651C43.9732 12.7663 43.9872 12.7674 44.0012 12.7685C44.0134 12.7696 44.0486 12.7746 44.0185 12.7702C44.0497 12.7746 44.081 12.7808 44.1117 12.7881C44.1771 12.8031 44.2402 12.8244 44.3021 12.8495C44.4071 12.8926 44.5322 12.8031 44.5596 12.7031C44.5936 12.5835 44.5194 12.489 44.4144 12.446Z" fill="black"/>
<path d="M27.6264 38.2727C27.6415 38.2609 27.6426 38.2604 27.6264 38.2715C27.6169 38.2782 27.6068 38.285 27.5973 38.2917C27.5778 38.3045 27.5577 38.3168 27.537 38.328C27.5136 38.3408 27.4896 38.3515 27.4661 38.3638C27.4388 38.3777 27.4968 38.3531 27.4672 38.3632C27.4561 38.3671 27.4455 38.3716 27.4343 38.3755C27.3896 38.3912 27.3444 38.404 27.2986 38.4141C27.2869 38.4163 27.2757 38.4185 27.264 38.4208C27.2595 38.4213 27.2215 38.428 27.2483 38.4236C27.2751 38.4197 27.2372 38.4247 27.2321 38.4252C27.2176 38.4269 27.2026 38.428 27.188 38.4286C27.1411 38.4314 27.0937 38.4308 27.0468 38.4275C27.035 38.4264 27.0233 38.4252 27.0116 38.4241C26.9881 38.4219 26.9965 38.4208 27.0149 38.4247C26.992 38.4202 26.9686 38.4169 26.9457 38.4113C26.8965 38.4001 26.8502 38.3833 26.8022 38.3677C26.7732 38.3582 26.8312 38.3822 26.8033 38.3682C26.7927 38.3632 26.7821 38.3582 26.7715 38.3531C26.7474 38.3414 26.7245 38.3285 26.7016 38.3146C26.6073 38.2587 26.4677 38.29 26.4152 38.39C26.3616 38.4912 26.3895 38.617 26.49 38.6768C26.9423 38.9451 27.5147 38.8875 27.9235 38.5683C28.01 38.5007 28 38.342 27.9235 38.2721C27.8308 38.1877 27.7191 38.2 27.6264 38.2727Z" fill="black"/>
<path d="M35.7224 16.768C34.3918 19.8083 32.2168 22.4626 29.5005 24.3665C28.7292 24.9073 27.9165 25.3861 27.0704 25.7995C26.8282 25.9179 27.0403 26.2794 27.282 26.1615C30.3092 24.6805 32.9022 22.3486 34.725 19.515C35.2446 18.7077 35.6983 17.8591 36.0834 16.9798C36.1912 16.7351 35.8306 16.5217 35.7224 16.768Z" fill="black"/>
<path d="M33.7467 16.3652C32.7349 18.7859 30.854 20.8167 28.5535 22.0642C27.9083 22.4139 27.2318 22.6983 26.5309 22.9162C26.2747 22.9961 26.3841 23.4005 26.6419 23.3201C29.2522 22.5095 31.5405 20.777 33.063 18.5083C33.4928 17.868 33.8528 17.1876 34.1497 16.4764C34.1938 16.3714 34.1022 16.2468 34.0035 16.2189C33.884 16.1848 33.7897 16.2619 33.7467 16.3652Z" fill="black"/>
<path d="M31.2395 15.688C30.1367 14.2136 28.6582 13.036 26.9671 12.3063C25.2353 11.5594 23.11 11.1248 21.3062 11.8711C19.7898 12.4985 18.4816 14.2533 19.1351 15.9383C19.4309 16.7003 20.0666 17.3545 20.8669 17.5724C21.6645 17.7897 22.5413 17.4958 23.0274 16.8215C23.5543 16.0908 23.3656 14.9449 22.5296 14.5215C21.7248 14.1136 20.6203 14.7299 20.6632 15.6695C20.6755 15.9383 21.0941 15.9394 21.0818 15.6695C21.0506 14.9896 21.8944 14.5829 22.4352 14.9516C23.0129 15.3455 23.0469 16.1779 22.6066 16.6824C22.1344 17.2238 21.3614 17.3645 20.714 17.0751C20.0744 16.7891 19.5933 16.1757 19.437 15.4963C19.0871 13.9734 20.4143 12.5857 21.7594 12.1488C23.3656 11.627 25.1867 12.0075 26.7043 12.6466C28.3468 13.3382 29.8102 14.4717 30.8784 15.9003C31.0375 16.1126 31.4008 15.9042 31.2395 15.688Z" fill="black"/>
<path d="M25.0351 19.2612C23.3809 19.1696 21.6239 19.1232 20.1382 19.9752C19.4953 20.3439 18.9388 20.8741 18.6 21.5395C18.2406 22.2456 18.1139 23.0412 18.0871 23.8267C18.0319 25.4569 18.4672 27.2295 17.7048 28.7575C17.4124 29.3435 16.9357 29.9011 16.2917 30.1022C15.747 30.272 15.1118 30.1743 14.6503 29.8351C14.1508 29.4687 13.9716 28.8284 14.3489 28.3089C14.6609 27.8792 15.3518 27.5401 15.8056 27.9591C16.0032 28.1418 16.3001 27.8463 16.1014 27.663C15.1208 26.758 13.5156 27.9737 13.7389 29.1636C13.9934 30.5173 15.767 30.9122 16.8342 30.3184C18.3277 29.4871 18.6073 27.6044 18.5677 26.0597C18.5253 24.3809 18.2038 22.3769 19.4646 21.0283C20.88 19.5143 23.1325 19.5758 25.0335 19.6808C25.3041 19.6953 25.3036 19.2763 25.0351 19.2612Z" fill="black"/>
<path d="M7.22157 35.408C6.88502 35.2342 6.52058 35.2465 6.15613 35.304C5.82796 35.356 5.48024 35.4521 5.15374 35.3392C4.9584 35.2711 4.75581 35.0621 4.84678 34.837C4.88083 34.7521 4.94835 34.7241 5.01421 34.7325C5.05886 34.7381 5.09625 34.751 5.12918 34.7794C5.1409 34.7895 5.15151 34.8158 5.15207 34.8258C5.16602 35.094 5.58517 35.0957 5.57066 34.8258C5.55503 34.5275 5.30612 34.3314 5.01813 34.3146C4.71451 34.2973 4.46892 34.5281 4.42315 34.8214C4.37181 35.1471 4.53088 35.4566 4.80379 35.6325C5.1035 35.8258 5.47578 35.8298 5.81623 35.7834C6.19854 35.7309 6.64281 35.5811 7.01061 35.7705C7.24948 35.8929 7.46156 35.5314 7.22157 35.408Z" fill="black"/>
<path d="M8.04694 38.041C6.9854 38.1449 5.92333 38.2494 4.86179 38.3533C4.0888 38.4293 3.18074 38.4349 2.52049 38.9047C1.90322 39.3438 1.70675 40.1684 2.11809 40.8226C2.52105 41.464 3.3956 41.6221 4.02404 41.2137C4.38347 40.9802 4.68765 40.5243 4.54087 40.0818C4.41585 39.7053 3.87003 39.5159 3.59264 39.8472C3.42074 40.0528 3.71541 40.3506 3.88843 40.1433C3.95149 40.0679 4.06536 40.0897 4.12341 40.169C4.21326 40.2913 4.13399 40.4869 4.06478 40.598C3.92469 40.8232 3.67299 40.9629 3.41626 41.0075C2.86037 41.1048 2.37536 40.7092 2.32067 40.1528C2.26207 39.5578 2.73758 39.1774 3.25384 39.0137C3.90013 38.8092 4.60727 38.7969 5.27701 38.7315C6.20013 38.641 7.12382 38.5505 8.04694 38.46C8.3126 38.4338 8.31539 38.0142 8.04694 38.041Z" fill="black"/>
<path d="M11.5113 30.006C11.0068 30.4524 10.2701 30.5624 9.64833 30.3194C9.54284 30.2781 9.41894 30.3647 9.39104 30.4658C9.35867 30.5842 9.43179 30.682 9.53728 30.7233C10.3008 31.0217 11.1977 30.8412 11.8077 30.3021C11.8925 30.2272 11.8842 30.0825 11.8077 30.006C11.7234 29.9216 11.5962 29.9306 11.5113 30.006Z" fill="black"/>
<path d="M47.5654 19.9931C46.7394 20.1244 46.2745 20.9434 46.0831 21.687C45.8604 22.5524 45.9748 23.6094 45.3413 24.3206C44.8217 24.9038 44.0013 25.0396 43.269 25.1602C42.4927 25.2887 41.6678 25.3943 40.9964 25.839C39.2255 27.0122 39.4861 29.3843 38.7148 31.1184C38.3688 31.895 37.7063 32.6799 36.81 32.7799C35.9287 32.8782 35.1033 32.3771 34.2644 32.1961C33.862 32.1095 33.4328 32.0833 33.0399 32.2257C32.6286 32.3743 32.3177 32.6637 32.0615 33.0112C31.5765 33.6693 31.2567 34.6582 30.3526 34.8459C30.1561 34.8867 29.9736 34.8509 29.8056 34.7442C29.5773 34.5995 29.3669 34.9621 29.5947 35.1062C30.3849 35.6068 31.3092 34.9431 31.754 34.2844C32.2106 33.6079 32.5717 32.6229 33.5143 32.5486C34.3889 32.4805 35.2071 32.9989 36.0493 33.1542C36.4874 33.2347 36.9372 33.2341 37.3586 33.0749C37.7761 32.9174 38.1428 32.6481 38.4397 32.3162C39.8205 30.7715 39.3879 28.4642 40.5706 26.8245C41.6204 25.3692 43.5677 25.853 44.9975 25.1088C45.352 24.9245 45.6567 24.6513 45.8682 24.3116C46.1244 23.901 46.2299 23.4189 46.3013 22.9462C46.4213 22.1512 46.4698 21.1484 47.168 20.6099C47.3193 20.4931 47.4906 20.4278 47.6782 20.3976C47.9422 20.3546 47.8294 19.9507 47.5654 19.9931Z" fill="black"/>
<path d="M53.0151 23.9971C51.9977 23.6898 50.9947 24.311 50.4009 25.1055C49.7529 25.9725 49.4822 27.0496 48.8878 27.9485C48.606 28.3754 48.2477 28.7474 47.7844 28.9748C47.329 29.1983 46.8105 29.272 46.3116 29.329C45.3131 29.443 44.2778 29.5206 43.4987 30.2324C42.7274 30.938 42.3953 31.9844 42.1609 32.971C41.9075 34.0375 41.7155 35.1989 40.9453 36.0341C40.6238 36.3828 40.222 36.6548 39.7515 36.7465C39.2732 36.8398 38.7837 36.7034 38.3316 36.5548C37.4442 36.2626 36.4938 35.8381 35.5857 36.3062C34.7658 36.7286 34.3986 37.6487 33.773 38.2778C33.1116 38.9426 32.0986 39.2292 31.1822 39.0476C30.9522 39.0018 30.7284 38.9292 30.5175 38.8269C30.2764 38.7096 30.0637 39.0711 30.3059 39.189C31.1699 39.608 32.1834 39.6197 33.0658 39.2459C33.5 39.0621 33.8868 38.7867 34.2005 38.4342C34.5052 38.0917 34.7491 37.7023 35.036 37.3459C35.3156 36.999 35.6432 36.6766 36.0858 36.5599C36.5457 36.4386 37.0223 36.5604 37.4626 36.7018C38.3891 37.0001 39.3301 37.4264 40.2951 37.0157C41.2355 36.6152 41.8148 35.6906 42.1319 34.757C42.4946 33.6894 42.5789 32.5296 43.0845 31.5112C43.3022 31.0721 43.5941 30.6519 43.9976 30.3648C44.4213 30.0625 44.9247 29.9318 45.4326 29.8536C46.4271 29.7011 47.5165 29.7335 48.3677 29.1139C49.2316 28.4849 49.6368 27.4798 50.0716 26.5424C50.5036 25.6094 51.0879 24.5814 52.1846 24.3636C52.4257 24.3155 52.6691 24.3317 52.9035 24.4027C53.1624 24.4792 53.2724 24.0747 53.0151 23.9971Z" fill="black"/>
<path d="M48.7404 23.3801C48.7404 23.4047 48.7404 23.4293 48.7404 23.4539C48.7393 23.4829 48.7454 23.5098 48.7583 23.5349C48.7667 23.5606 48.7812 23.5835 48.8019 23.6025C48.8209 23.6227 48.8433 23.6372 48.8696 23.6456C48.8947 23.6584 48.9215 23.6646 48.9506 23.6635C48.969 23.6607 48.9875 23.6584 49.0065 23.6562C49.0423 23.6461 49.073 23.6283 49.0993 23.6025C49.1099 23.5886 49.1211 23.574 49.1323 23.5601C49.1513 23.5271 49.1608 23.4919 49.1608 23.4544C49.1608 23.4298 49.1608 23.4052 49.1608 23.3806C49.1619 23.3516 49.1557 23.3247 49.1429 23.2996C49.1345 23.2739 49.1199 23.251 49.0993 23.232C49.0803 23.2113 49.0579 23.1973 49.0316 23.1889C49.0065 23.1761 48.9797 23.1699 48.9512 23.171C48.9327 23.1733 48.9137 23.1761 48.8952 23.1783C48.86 23.1884 48.8287 23.2062 48.803 23.232C48.7918 23.2459 48.7812 23.2605 48.77 23.2744C48.7499 23.3069 48.7404 23.3421 48.7404 23.3801Z" fill="black"/>
<path d="M43.5623 28.5386C43.8318 28.5386 43.8323 28.1194 43.5623 28.1194C43.2924 28.1194 43.2924 28.5386 43.5623 28.5386Z" fill="black"/>
<path d="M39.3556 34.0297C39.331 34.0297 39.3064 34.0297 39.2818 34.0297C39.2528 34.0286 39.2259 34.0347 39.2013 34.0476C39.175 34.0559 39.1527 34.0705 39.1337 34.0906C39.113 34.1096 39.099 34.132 39.0906 34.1582C39.0778 34.1834 39.0716 34.2102 39.0728 34.2393C39.075 34.2577 39.0778 34.2762 39.08 34.2952C39.0901 34.3304 39.108 34.3617 39.1337 34.3874C39.1477 34.3986 39.1622 34.4092 39.1762 34.4204C39.2086 34.4394 39.2444 34.4489 39.2818 34.4489C39.3064 34.4489 39.331 34.4489 39.3556 34.4489C39.3847 34.45 39.4115 34.4439 39.4366 34.431C39.4629 34.4226 39.4853 34.4081 39.5043 34.3874C39.5244 34.3684 39.539 34.346 39.5479 34.3198C39.5608 34.2946 39.5669 34.2678 39.5658 34.2387C39.5635 34.2203 39.5607 34.2018 39.5585 34.1828C39.5484 34.1471 39.5306 34.1163 39.5048 34.0906C39.4909 34.0794 39.4763 34.0688 39.4624 34.0576C39.4288 34.0397 39.3936 34.0302 39.3556 34.0297Z" fill="black"/>
<path d="M32.4115 36.393C32.3903 36.4679 32.369 36.5428 32.3478 36.6177C32.3388 36.6456 32.3377 36.6736 32.3439 36.7015C32.345 36.7295 32.3534 36.7552 32.3685 36.7792C32.3819 36.8038 32.3998 36.8234 32.4227 36.8379C32.4428 36.8564 32.4669 36.8692 32.4942 36.8754C32.5127 36.8782 32.5311 36.8804 32.5501 36.8826C32.5881 36.8826 32.6234 36.8731 32.6558 36.8541C32.7016 36.8245 32.7368 36.7826 32.7519 36.7289C32.7732 36.654 32.7944 36.5791 32.8157 36.5042C32.8246 36.4763 32.8257 36.4483 32.8195 36.4204C32.8184 36.3924 32.8101 36.3667 32.795 36.3427C32.7816 36.3181 32.7637 36.2985 32.7407 36.284C32.7206 36.2655 32.6966 36.2532 32.6692 36.2465C32.6507 36.2437 32.6318 36.2415 32.6133 36.2393C32.5753 36.2393 32.5401 36.2488 32.5077 36.2678C32.4618 36.2974 32.4266 36.3387 32.4115 36.393Z" fill="black"/>
<path d="M51.7347 39.8751C51.1124 40.2645 50.5699 40.779 50.0798 41.3226C49.8237 41.6064 49.5814 41.903 49.3526 42.2086C49.164 42.4595 48.9954 42.7248 48.795 42.9667C47.9244 44.0176 46.7261 44.8332 45.4698 45.3506C44.7951 45.6282 44.0768 45.831 43.3451 45.864C43.0766 45.8763 43.0755 46.2953 43.3451 46.283C44.7225 46.221 46.0681 45.6455 47.21 44.8992C47.7826 44.5248 48.3246 44.0919 48.7962 43.5952C49.2711 43.0947 49.6272 42.503 50.0681 41.974C50.6117 41.322 51.2234 40.689 51.9462 40.2365C52.1739 40.0941 51.964 39.7315 51.7347 39.8751Z" fill="black"/>
<path d="M47.081 17.4857C47.2479 16.1103 46.3315 14.779 45.0528 14.3181C43.6983 13.8298 42.1534 14.2957 41.1924 15.3365C40.6622 15.9108 40.2988 16.6298 40.1314 17.3924C40.0739 17.655 40.4774 17.7673 40.5349 17.5036C40.7966 16.3114 41.5914 15.1913 42.7623 14.7555C43.9478 14.3142 45.3581 14.5745 46.1434 15.6153C46.548 16.1516 46.7434 16.817 46.6624 17.4857C46.6295 17.7528 47.0487 17.7505 47.081 17.4857Z" fill="black"/>
<path d="M26.7355 30.8809C25.5294 31.539 24.1476 32.3525 23.8384 33.8117C23.5498 35.1721 24.4824 36.4307 25.6729 36.9866C26.4185 37.3347 27.2378 37.4632 28.0538 37.5017C28.3228 37.5146 28.3223 37.0956 28.0538 37.0827C26.8215 37.0246 25.4563 36.7235 24.68 35.6738C24.3379 35.2112 24.1375 34.6385 24.2173 34.0592C24.3005 33.4514 24.6521 32.9067 25.0835 32.4854C25.6221 31.9603 26.2919 31.5988 26.9465 31.2418C27.1832 31.1133 26.9722 30.7519 26.7355 30.8809Z" fill="black"/>
<path d="M44.6762 40.656C44.7231 40.642 45.8315 40.299 46.2992 39.3415C46.5196 38.8901 46.5632 38.4197 46.6017 38.004C46.6413 37.5772 46.6759 37.2096 46.8863 36.98C47.1073 36.7621 47.4729 36.714 47.8971 36.6576C48.3107 36.6034 48.7789 36.5425 49.2215 36.3051C50.1597 35.8023 50.4599 34.6805 50.4722 34.633C50.5001 34.5207 50.4343 34.4067 50.3221 34.3771C50.2105 34.3481 50.0961 34.4151 50.067 34.5274C50.0643 34.5375 49.8019 35.5191 49.0233 35.9358C48.6488 36.1364 48.2392 36.1906 47.8429 36.2425C47.3624 36.3051 46.9081 36.3649 46.5872 36.6867C46.5861 36.6878 46.5866 36.6895 46.5855 36.6906C46.5844 36.6917 46.5827 36.6911 46.5816 36.6923C46.2724 37.0258 46.2305 37.4817 46.1853 37.9649C46.1485 38.3632 46.11 38.7744 45.9236 39.1571C45.5379 39.9476 44.5657 40.251 44.5562 40.2538C44.4658 40.2817 44.4072 40.3644 44.4072 40.4543C44.4072 40.4744 44.41 40.4946 44.4161 40.5147C44.4496 40.6264 44.5657 40.6895 44.6762 40.656Z" fill="black"/>
<path d="M32.5836 28.1606C32.6305 28.1466 33.7389 27.8036 34.2066 26.846C34.4271 26.3946 34.4706 25.9242 34.5092 25.5091C34.5488 25.0823 34.5834 24.7147 34.7938 24.4851C35.0148 24.2672 35.3804 24.2186 35.8045 24.1627C36.2181 24.1086 36.6863 24.0477 37.1289 23.8102C38.0671 23.3074 38.3674 22.1856 38.3797 22.1381C38.4076 22.0258 38.3417 21.9119 38.2295 21.8823C38.1179 21.8532 38.0035 21.9203 37.9745 22.0325C37.9717 22.0426 37.7094 23.0236 36.9308 23.4409C36.5563 23.6415 36.1467 23.6957 35.7504 23.7477C35.2699 23.8102 34.8156 23.87 34.4946 24.1918C34.4935 24.1929 34.4941 24.1946 34.4929 24.1957C34.4918 24.1968 34.4902 24.1963 34.4891 24.1974C34.1799 24.5309 34.138 24.9868 34.0928 25.47C34.0559 25.8684 34.0174 26.2795 33.831 26.6622C33.4454 27.4527 32.4731 27.7561 32.4636 27.7589C32.3732 27.7868 32.3146 27.8695 32.3146 27.9595C32.3146 27.9796 32.3174 27.9997 32.3236 28.0198C32.3565 28.131 32.4731 28.1935 32.5836 28.1606Z" fill="black"/>
<path d="M38.661 22.6355C38.794 22.6355 38.9013 22.7434 38.9013 22.8764C38.9013 23.0094 38.7935 23.1173 38.661 23.1173C38.528 23.1173 38.4201 23.0094 38.4201 22.8764C38.4201 22.7434 38.528 22.6355 38.661 22.6355Z" fill="black"/>
<path d="M35.3504 25.1189C35.4834 25.1189 35.5913 25.2268 35.5913 25.3598C35.5913 25.4928 35.4834 25.6007 35.3504 25.6007C35.2173 25.6007 35.1094 25.4928 35.1094 25.3598C35.1094 25.2262 35.2173 25.1189 35.3504 25.1189Z" fill="black"/>
<path d="M33.6553 28.0886C33.7883 28.0886 33.8956 28.1965 33.8956 28.3295C33.8956 28.4626 33.7878 28.5699 33.6553 28.5699C33.5223 28.5699 33.4144 28.462 33.4144 28.3295C33.4144 28.1971 33.5223 28.0886 33.6553 28.0886Z" fill="black"/>
<path d="M36.563 22.3953C36.696 22.3953 36.8039 22.5031 36.8039 22.6362C36.8039 22.7692 36.696 22.8771 36.563 22.8771C36.43 22.8771 36.3221 22.7692 36.3221 22.6362C36.3221 22.5026 36.43 22.3953 36.563 22.3953Z" fill="black"/>
<path d="M33.9455 23.6406C34.0786 23.6406 34.1864 23.7485 34.1864 23.881C34.1864 24.014 34.0786 24.1219 33.9455 24.1219C33.8125 24.1219 33.7046 24.014 33.7046 23.881C33.7046 23.7485 33.8125 23.6406 33.9455 23.6406Z" fill="black"/>
<path d="M32.9447 26.0685C33.0777 26.0685 33.1851 26.1764 33.1851 26.3094C33.1851 26.4424 33.0772 26.5503 32.9447 26.5503C32.8122 26.5503 32.7038 26.4424 32.7038 26.3094C32.7038 26.1764 32.8117 26.0685 32.9447 26.0685Z" fill="black"/>
<path d="M50.6745 35.0889C50.8075 35.0889 50.9154 35.1968 50.9154 35.3292C50.9154 35.4623 50.8075 35.5701 50.6745 35.5701C50.5414 35.5701 50.4335 35.4623 50.4335 35.3292C50.4341 35.1968 50.542 35.0889 50.6745 35.0889Z" fill="black"/>
<path d="M47.3637 37.5718C47.4967 37.5718 47.6046 37.6797 47.6046 37.8127C47.6046 37.9457 47.4967 38.053 47.3637 38.053C47.2307 38.053 47.1234 37.9452 47.1234 37.8127C47.1234 37.6797 47.2307 37.5718 47.3637 37.5718Z" fill="black"/>
<path d="M45.6687 40.5415C45.8017 40.5415 45.909 40.6494 45.909 40.7824C45.909 40.9154 45.8012 41.0233 45.6687 41.0233C45.5362 41.0233 45.4278 40.9154 45.4278 40.7824C45.4278 40.6494 45.5357 40.5415 45.6687 40.5415Z" fill="black"/>
<path d="M48.5764 34.8481C48.7095 34.8481 48.8173 34.956 48.8173 35.0891C48.8173 35.2221 48.7095 35.3294 48.5764 35.3294C48.4434 35.3294 48.3355 35.2215 48.3355 35.0891C48.3355 34.956 48.4434 34.8481 48.5764 34.8481Z" fill="black"/>
<path d="M45.9585 36.094C46.0915 36.094 46.1994 36.2019 46.1994 36.3349C46.1994 36.4679 46.0915 36.5758 45.9585 36.5758C45.8254 36.5758 45.7175 36.4679 45.7175 36.3349C45.7175 36.2019 45.8254 36.094 45.9585 36.094Z" fill="black"/>
<path d="M44.9578 38.522C45.0908 38.522 45.1982 38.6299 45.1982 38.7623C45.1982 38.8954 45.0903 39.0032 44.9578 39.0032C44.8253 39.0032 44.7169 38.8954 44.7169 38.7623C44.7169 38.6299 44.8248 38.522 44.9578 38.522Z" fill="black"/>
<defs>
<linearGradient id="paint0_linear_58_1537" x1="45.343" y1="27.7713" x2="10.5508" y2="27.7713" gradientUnits="userSpaceOnUse">
<stop stop-color="#C1AB75"/>
<stop offset="1" stop-color="#E6E1B3"/>
</linearGradient>
<linearGradient id="paint1_linear_58_1537" x1="50.7636" y1="27.7713" x2="5.23719" y2="27.7713" gradientUnits="userSpaceOnUse">
<stop stop-color="#C1AB75"/>
<stop offset="1" stop-color="#E6E1B3"/>
</linearGradient>
<linearGradient id="paint2_linear_58_1537" x1="55.7447" y1="27.7714" x2="0.256204" y2="27.7714" gradientUnits="userSpaceOnUse">
<stop stop-color="#C1AB75"/>
<stop offset="1" stop-color="#E6E1B3"/>
</linearGradient>
<linearGradient id="paint3_linear_58_1537" x1="25.9939" y1="46.5191" x2="26.1181" y2="39.8772" gradientUnits="userSpaceOnUse">
<stop stop-color="#C19566"/>
<stop offset="1" stop-color="#E6E1B3"/>
</linearGradient>
<linearGradient id="paint4_linear_58_1537" x1="17.2997" y1="48.4426" x2="17.3621" y2="45.1067" gradientUnits="userSpaceOnUse">
<stop stop-color="#C19566"/>
<stop offset="1" stop-color="#E6E1B3"/>
</linearGradient>
<linearGradient id="paint5_linear_58_1537" x1="34.5828" y1="6.97976" x2="34.6452" y2="3.64384" gradientUnits="userSpaceOnUse">
<stop stop-color="#C19566"/>
<stop offset="1" stop-color="#E6E1B3"/>
</linearGradient>
<linearGradient id="paint6_linear_58_1537" x1="28.9804" y1="6.30681" x2="29.0841" y2="0.765433" gradientUnits="userSpaceOnUse">
<stop stop-color="#C19566"/>
<stop offset="1" stop-color="#E6E1B3"/>
</linearGradient>
<linearGradient id="paint7_linear_58_1537" x1="9.829" y1="13.5685" x2="6.73952" y2="20.1157" gradientUnits="userSpaceOnUse">
<stop stop-color="#C19566"/>
<stop offset="1" stop-color="#E6E1B3"/>
</linearGradient>
<linearGradient id="paint8_linear_58_1537" x1="9.64288" y1="13.4793" x2="6.55342" y2="20.0265" gradientUnits="userSpaceOnUse">
<stop stop-color="#C19566"/>
<stop offset="1" stop-color="#E6E1B3"/>
</linearGradient>
<linearGradient id="paint9_linear_58_1537" x1="9.65736" y1="13.4836" x2="6.56989" y2="20.0331" gradientUnits="userSpaceOnUse">
<stop stop-color="#C19566"/>
<stop offset="1" stop-color="#E6E1B3"/>
</linearGradient>
<linearGradient id="paint10_linear_58_1537" x1="9.84627" y1="13.5715" x2="6.75869" y2="20.1209" gradientUnits="userSpaceOnUse">
<stop stop-color="#C19566"/>
<stop offset="1" stop-color="#E6E1B3"/>
</linearGradient>
<linearGradient id="paint11_linear_58_1537" x1="31.9678" y1="55.5473" x2="38.8583" y2="53.3432" gradientUnits="userSpaceOnUse">
<stop stop-color="#C19566"/>
<stop offset="1" stop-color="#E6E1B3"/>
</linearGradient>
<linearGradient id="paint12_linear_58_1537" x1="32.0291" y1="55.7435" x2="38.9193" y2="53.5396" gradientUnits="userSpaceOnUse">
<stop stop-color="#C19566"/>
<stop offset="1" stop-color="#E6E1B3"/>
</linearGradient>
<linearGradient id="paint13_linear_58_1537" x1="32.0201" y1="55.7319" x2="38.9163" y2="53.5237" gradientUnits="userSpaceOnUse">
<stop stop-color="#C19566"/>
<stop offset="1" stop-color="#E6E1B3"/>
</linearGradient>
<linearGradient id="paint14_linear_58_1537" x1="31.9539" y1="55.5341" x2="38.8502" y2="53.3261" gradientUnits="userSpaceOnUse">
<stop stop-color="#C19566"/>
<stop offset="1" stop-color="#E6E1B3"/>
</linearGradient>
<linearGradient id="paint15_linear_58_1537" x1="28" y1="10.1292" x2="28" y2="46.1798" gradientUnits="userSpaceOnUse">
<stop stop-color="#C1AB75"/>
<stop offset="1" stop-color="#E6E1B3"/>
</linearGradient>
</defs>
</svg>
