<svg width="32" height="32" viewBox="0 0 32 32" fill="none" xmlns="http://www.w3.org/2000/svg">
<g clip-path="url(#clip0_37_192)">
<path fill-rule="evenodd" clip-rule="evenodd" d="M14.6667 2.66675C12.8986 2.66675 11.2029 3.36913 9.9527 4.61937C8.70246 5.86961 8.00008 7.5653 8.00008 9.33341C8.00008 11.1015 8.70246 12.7972 9.9527 14.0475C11.2029 15.2977 12.8986 16.0001 14.6667 16.0001C16.4349 16.0001 18.1305 15.2977 19.3808 14.0475C20.631 12.7972 21.3334 11.1015 21.3334 9.33341C21.3334 7.5653 20.631 5.86961 19.3808 4.61937C18.1305 3.36913 16.4349 2.66675 14.6667 2.66675ZM10.6667 9.33341C10.6667 8.80813 10.7702 8.28798 10.9712 7.80268C11.1722 7.31738 11.4669 6.87642 11.8383 6.50499C12.2098 6.13355 12.6507 5.83891 13.136 5.6379C13.6213 5.43688 14.1415 5.33341 14.6667 5.33341C15.192 5.33341 15.7122 5.43688 16.1975 5.6379C16.6828 5.83891 17.1237 6.13355 17.4952 6.50499C17.8666 6.87642 18.1612 7.31738 18.3623 7.80268C18.5633 8.28798 18.6667 8.80813 18.6667 9.33341C18.6667 10.3943 18.2453 11.4117 17.4952 12.1618C16.745 12.912 15.7276 13.3334 14.6667 13.3334C13.6059 13.3334 12.5885 12.912 11.8383 12.1618C11.0882 11.4117 10.6667 10.3943 10.6667 9.33341ZM5.33341 24.6667C5.33341 24.4267 5.45341 24.0147 5.88408 23.4681C6.30541 22.9347 6.95608 22.3641 7.81875 21.8387C9.54275 20.7854 11.9694 20.0001 14.6667 20.0001C15.1667 20.0001 15.6587 20.0267 16.1401 20.0787C16.4919 20.1161 16.8442 20.0121 17.1194 19.7896C17.3946 19.5672 17.5701 19.2446 17.6074 18.8927C17.6447 18.5409 17.5407 18.1886 17.3183 17.9135C17.0959 17.6383 16.7733 17.4627 16.4214 17.4254C15.8494 17.3667 15.2627 17.3334 14.6667 17.3334C11.4734 17.3334 8.56675 18.2587 6.42941 19.5627C5.36275 20.2134 4.45075 20.9814 3.79208 21.8161C3.14408 22.6347 2.66675 23.6174 2.66675 24.6667C2.66675 25.7934 3.21475 26.6814 4.00408 27.3147C4.75075 27.9147 5.73608 28.3121 6.78275 28.5894C8.88675 29.1454 11.6947 29.3334 14.6667 29.3334L15.5801 29.3267C15.7552 29.3244 15.9281 29.2876 16.089 29.2184C16.2498 29.1492 16.3955 29.049 16.5176 28.9235C16.6398 28.798 16.736 28.6497 16.8008 28.487C16.8656 28.3244 16.8978 28.1505 16.8954 27.9754C16.8931 27.8003 16.8562 27.6274 16.787 27.4665C16.7178 27.3057 16.6176 27.16 16.4922 27.0379C16.3667 26.9157 16.2184 26.8195 16.0557 26.7547C15.893 26.6899 15.7192 26.6577 15.5441 26.6601L14.6667 26.6667C11.7467 26.6667 9.22275 26.4761 7.46675 26.0107C6.58275 25.7774 6.00541 25.5014 5.67341 25.2347C5.38275 25.0014 5.33341 24.8294 5.33341 24.6667ZM24.0001 18.6667C24.3537 18.6667 24.6928 18.8072 24.9429 19.0573C25.1929 19.3073 25.3334 19.6465 25.3334 20.0001V22.6667H28.0001C28.3537 22.6667 28.6928 22.8072 28.9429 23.0573C29.1929 23.3073 29.3334 23.6465 29.3334 24.0001C29.3334 24.3537 29.1929 24.6928 28.9429 24.9429C28.6928 25.1929 28.3537 25.3334 28.0001 25.3334H25.3334V28.0001C25.3334 28.3537 25.1929 28.6928 24.9429 28.9429C24.6928 29.1929 24.3537 29.3334 24.0001 29.3334C23.6465 29.3334 23.3073 29.1929 23.0573 28.9429C22.8072 28.6928 22.6667 28.3537 22.6667 28.0001V25.3334H20.0001C19.6465 25.3334 19.3073 25.1929 19.0573 24.9429C18.8072 24.6928 18.6667 24.3537 18.6667 24.0001C18.6667 23.6465 18.8072 23.3073 19.0573 23.0573C19.3073 22.8072 19.6465 22.6667 20.0001 22.6667H22.6667V20.0001C22.6667 19.6465 22.8072 19.3073 23.0573 19.0573C23.3073 18.8072 23.6465 18.6667 24.0001 18.6667Z" fill="#C2D1F3"/>
</g>
<defs>
<clipPath id="clip0_37_192">
<rect width="32" height="32" fill="white"/>
</clipPath>
</defs>
</svg>
