<svg width="66" height="57" viewBox="0 0 66 57" fill="none" xmlns="http://www.w3.org/2000/svg">
<path d="M32.4624 45.7138C42.4152 45.7138 50.4834 37.8533 50.4834 28.157C50.4834 18.4606 42.4152 10.6001 32.4624 10.6001C22.5097 10.6001 14.4414 18.4606 14.4414 28.157C14.4414 37.8533 22.5097 45.7138 32.4624 45.7138Z" stroke="url(#paint0_linear_58_689)" stroke-width="0.196775" stroke-linecap="round" stroke-linejoin="round" stroke-dasharray="0.2 2.56"/>
<path d="M32.5171 51.1298C45.5402 51.1298 56.0974 40.8445 56.0974 28.1568C56.0974 15.4692 45.5402 5.18384 32.5171 5.18384C19.4941 5.18384 8.93677 15.4692 8.93677 28.1568C8.93677 40.8445 19.4941 51.1298 32.5171 51.1298Z" stroke="url(#paint1_linear_58_689)" stroke-width="0.257496" stroke-linecap="round" stroke-linejoin="round"/>
<path d="M32.5178 56.157C48.3906 56.157 61.2581 43.621 61.2581 28.157C61.2581 12.693 48.3906 0.156982 32.5178 0.156982C16.645 0.156982 3.77759 12.693 3.77759 28.157C3.77759 43.621 16.645 56.157 32.5178 56.157Z" stroke="url(#paint2_linear_58_689)" stroke-width="0.313855" stroke-linecap="round" stroke-linejoin="round"/>
<path d="M36.5067 5.75423L36.173 7.62286C36.1556 7.71972 36.0143 7.72255 35.9928 7.62682L35.5713 5.75933C35.5631 5.72307 35.5323 5.69532 35.4945 5.68966L33.7992 5.44666C33.6998 5.4325 33.6922 5.29599 33.7893 5.27107L35.5492 4.82699C35.5835 4.8185 35.6097 4.79074 35.6166 4.75676L35.93 3.13339C35.9486 3.03766 36.0881 3.0354 36.1102 3.12999L36.4864 4.74146C36.4945 4.77545 36.5213 4.8015 36.5562 4.80887L38.1486 5.15382C38.244 5.17478 38.2445 5.30732 38.1492 5.32828L36.5777 5.68173C36.5405 5.69022 36.5131 5.71854 36.5067 5.75423Z" fill="url(#paint3_linear_58_689)"/>
<path d="M30.7608 5.5674L30.5928 6.50596C30.584 6.55467 30.5131 6.55638 30.5021 6.50766L30.2904 5.56966C30.2864 5.55154 30.2713 5.53738 30.2521 5.53455L29.4003 5.41277C29.3503 5.4054 29.3468 5.33686 29.3957 5.32497L30.2794 5.1018C30.2968 5.09727 30.3096 5.08367 30.3131 5.06668L30.4707 4.2516C30.48 4.20345 30.5498 4.20232 30.5614 4.2499L30.7503 5.05932C30.7544 5.07631 30.7678 5.08934 30.7852 5.0933L31.5846 5.26663C31.6329 5.27682 31.6329 5.34366 31.5852 5.35443L30.7957 5.53172C30.7776 5.53568 30.7637 5.54984 30.7608 5.5674Z" fill="url(#paint4_linear_58_689)"/>
<path d="M43.7313 48.7837L43.5633 49.7223C43.5546 49.771 43.4837 49.7727 43.4726 49.7245L43.261 48.7865C43.2569 48.7684 43.2418 48.7543 43.2226 48.7514L42.3709 48.6296C42.3209 48.6223 42.3174 48.5537 42.3662 48.5413L43.2499 48.3181C43.2674 48.3136 43.2808 48.3 43.2837 48.283L43.4412 47.4679C43.4505 47.4198 43.5209 47.4186 43.5319 47.4662L43.7209 48.2756C43.7249 48.2926 43.7383 48.3056 43.7558 48.3096L44.5558 48.4829C44.604 48.4931 44.604 48.56 44.5563 48.5707L43.7668 48.748C43.7482 48.7514 43.7342 48.7656 43.7313 48.7837Z" fill="url(#paint5_linear_58_689)"/>
<path d="M22.147 49.7035C21.6819 49.5053 21.4691 48.9774 21.6726 48.5242C21.8761 48.0711 22.4179 47.8638 22.8831 48.062C23.3482 48.2603 23.561 48.7882 23.3575 49.2413C23.154 49.695 22.6121 49.9018 22.147 49.7035Z" fill="url(#paint6_linear_58_689)"/>
<path d="M24.7628 50.4621C24.4616 50.3335 24.3238 49.992 24.4558 49.698C24.5878 49.4046 24.9383 49.2703 25.2401 49.3989C25.5412 49.5275 25.679 49.869 25.5471 50.163C25.4151 50.4564 25.0639 50.5907 24.7628 50.4621Z" fill="url(#paint7_linear_58_689)"/>
<path d="M26.605 50.9136C26.3771 50.8162 26.273 50.5573 26.3724 50.3353C26.4724 50.1133 26.7381 50.0119 26.966 50.1087C27.1939 50.2056 27.298 50.465 27.1986 50.6871C27.0992 50.9091 26.8335 51.0105 26.605 50.9136Z" fill="url(#paint8_linear_58_689)"/>
<path d="M28.2314 51.0833C28.0761 51.0171 28.0058 50.8415 28.0732 50.6902C28.1413 50.539 28.3215 50.4705 28.4767 50.5362C28.632 50.6024 28.7023 50.778 28.6348 50.9293C28.5674 51.0799 28.3866 51.149 28.2314 51.0833Z" fill="url(#paint9_linear_58_689)"/>
<path d="M63.191 17.1434C61.4601 12.5599 57.4142 8.76259 52.5118 7.74359C48.1112 6.82882 43.4153 8.57171 40.1513 11.5902C38.0501 13.5336 36.4914 15.9465 35.3455 18.5504C34.6803 18.4326 34.021 18.3323 33.3902 18.2666C32.1437 18.1363 30.8873 18.2326 29.6698 18.5034C28.5257 15.9171 26.9722 13.5217 24.8832 11.5902C21.6198 8.57171 16.9239 6.82882 12.5227 7.74359C7.62033 8.76259 3.57379 12.5599 1.84355 17.1434C0.112732 21.7269 -0.171566 26.8111 0.112738 31.6869C0.275529 34.4833 1.12611 37.6422 2.62263 40.0343C4.11914 42.4263 7.48195 44.6585 10.2087 43.7715C12.1297 43.1468 14.214 41.2475 14.7518 39.3455C15.2895 37.4434 15.5448 33.0225 12.011 29.5798C10.6785 28.2815 7.5523 26.7522 6.4616 28.2493C7.60114 28.9663 8.87615 30.5319 9.7151 31.5708C10.5953 32.6606 11.0727 34.165 10.5232 35.461C9.9994 36.6969 8.58835 37.4349 7.33893 36.8821C6.22671 36.3905 5.7866 35.0724 5.60346 33.8897C5.09067 30.5767 5.65054 27.0343 7.57672 24.2582C9.50231 21.4822 12.8878 19.5988 16.3192 19.8277C18.7372 19.9885 21.0419 21.3236 22.3937 23.2483C22.4303 23.3004 21.7204 24.2679 21.6425 24.3545C20.6843 23.7065 19.9535 22.9186 18.8349 22.4525C17.7681 22.0078 16.6012 21.7864 15.4407 21.8317C13.1093 21.9229 10.8459 23.0874 9.45522 24.9124C11.064 26.269 12.7105 27.6494 14.6802 28.4328C15.6616 28.823 16.7273 29.0417 17.789 29.0219C18.9401 29.0009 19.7489 28.4934 20.7948 28.2243C21.1064 28.9443 20.9547 30.132 21.1181 30.9483C21.3163 31.9406 21.6198 32.9109 21.9832 33.858C22.1221 34.2199 22.2774 34.5756 22.432 34.9313C23.3425 38.4607 24.8437 42.2977 27.2629 44.2179C27.3722 44.3045 27.4803 44.3929 27.5931 44.4716C27.5931 44.4716 28.7861 49.05 32.9914 49.05C37.1966 49.05 38.3897 44.4716 38.3897 44.4716C43.8089 40.7004 44.8496 27.4387 44.8525 27.4036L45.0449 27.352C45.0449 27.352 47.7217 28.1422 48.3705 28.2221C49.3467 28.3421 50.3548 28.2323 51.2705 27.8777C53.0938 27.1713 54.4967 26.0493 54.8653 24.1716C53.5828 22.5737 51.6223 21.5082 49.5531 21.2851C48.3641 21.1565 47.1473 21.3072 46.0228 21.7025C45.4606 21.8996 44.9199 22.1579 44.4182 22.474C44.2903 22.555 43.9019 22.9317 43.7589 22.9192C43.6688 22.9113 43.2629 22.4627 43.2891 22.4355C44.6699 20.9566 46.6525 19.9653 48.7135 19.8282C52.145 19.6 55.5304 21.4828 57.456 24.2588C59.3816 27.0348 59.9421 30.5773 59.4287 33.8903C59.2456 35.073 58.806 36.391 57.6938 36.8827C56.4438 37.4355 55.0333 36.6975 54.5095 35.4615C53.9601 34.165 54.4374 32.6611 55.3177 31.5713C56.1566 30.5325 57.4316 28.9669 58.5712 28.2498C57.4805 26.7528 54.3543 28.2821 53.0217 29.5803C49.488 33.0231 49.7438 37.444 50.2816 39.346C50.8194 41.2481 52.9043 43.1473 54.8246 43.7721C57.552 44.6591 60.9148 42.4268 62.4107 40.0348C63.9066 37.6428 64.7572 34.4844 64.9206 31.6874C65.2061 26.8111 64.9212 21.7269 63.191 17.1434Z" fill="url(#paint10_linear_58_689)"/>
<path d="M22.756 34.0575C21.2438 31.7844 20.8746 28.8945 21.6199 26.2986C22.3263 23.8375 24.0595 21.7372 26.2613 20.3772C28.6636 18.8926 31.5659 18.359 34.3735 18.7436C37.1904 19.1294 39.902 20.3976 41.8927 22.3891C43.9015 24.3977 45.0695 27.1867 44.7358 30.0075C44.6945 30.3576 44.6247 30.7031 44.5358 31.0441C44.4666 31.3092 44.8869 31.4225 44.9561 31.1568C45.7102 28.2726 44.827 25.2054 42.9462 22.9102C41.1102 20.67 38.3985 19.1424 35.5427 18.521C32.6409 17.8895 29.5409 18.1829 26.8926 19.5321C24.5037 20.7488 22.5345 22.7647 21.5357 25.2156C20.474 27.82 20.574 30.873 21.8583 33.3857C22.0141 33.691 22.1891 33.9866 22.3793 34.2727C22.5316 34.5004 22.9095 34.288 22.756 34.0575Z" fill="black"/>
<path d="M19.174 24.9267C17.6118 23.7225 15.4961 23.3107 13.5682 23.7876C13.024 23.9224 12.499 24.1314 12.0135 24.405C11.8786 24.4809 11.8647 24.699 12.0135 24.7721C13.7955 25.6432 15.7071 26.2453 17.6775 26.5461C17.9519 26.588 18.0705 26.1785 17.7932 26.1366C15.8606 25.842 13.9821 25.2603 12.2339 24.4056C12.2339 24.5279 12.2339 24.6503 12.2339 24.7726C13.8251 23.8765 15.8187 23.7893 17.5135 24.4605C17.9967 24.652 18.4571 24.9125 18.8658 25.2275C19.0833 25.3946 19.3938 25.096 19.174 24.9267Z" fill="black"/>
<path d="M45.9319 24.4242C47.9575 23.3594 50.6273 23.646 52.3616 25.1232C52.3936 25.0048 52.4256 24.8864 52.4575 24.7681C50.5773 25.1453 48.6546 25.2807 46.7383 25.1776C46.4581 25.1623 46.4587 25.5871 46.7383 25.6024C48.6936 25.7078 50.6558 25.5628 52.5738 25.1776C52.7296 25.1464 52.7901 24.925 52.6698 24.8224C51.2029 23.5729 49.1424 23.0971 47.2453 23.5004C46.7098 23.6143 46.193 23.8034 45.7116 24.0572C45.4651 24.1869 45.6848 24.554 45.9319 24.4242Z" fill="black"/>
<path d="M6.43269 28.7238C7.45595 29.4766 8.35421 30.3965 9.07398 31.4302C9.76701 32.4265 10.5164 33.6749 10.335 34.9273C10.2647 35.4122 10.0728 35.9089 9.75946 36.2946C9.43795 36.6894 9.00014 36.8781 8.48444 36.8662C7.95828 36.8543 7.4263 36.6549 7.0135 36.34C6.5949 36.0205 6.35711 35.5753 6.20246 35.0882C6.03502 34.5614 5.95013 34.012 5.88909 33.4642C5.8263 32.9001 5.78269 32.3348 5.78094 31.7672C5.77746 30.5375 5.94838 29.3106 6.29664 28.1291C6.96874 25.8492 8.31468 23.6753 10.2792 22.2389C12.1124 20.8981 14.4339 20.1487 16.7322 20.4042C17.0124 20.4354 17.2903 20.4852 17.5647 20.5469C17.838 20.6081 17.9543 20.1986 17.6804 20.1374C15.2479 19.5908 12.6728 20.1833 10.6025 21.5008C8.41119 22.8948 6.86757 25.0891 6.04373 27.4885C5.61641 28.734 5.38675 30.0447 5.34896 31.3566C5.33093 31.9881 5.36525 32.6169 5.42862 33.245C5.48734 33.8262 5.56177 34.4102 5.71467 34.9754C5.85944 35.5107 6.0792 36.0443 6.48269 36.4459C6.88037 36.8418 7.41991 37.1188 7.97515 37.2321C8.50655 37.3403 9.1048 37.3153 9.57515 37.0265C10.0525 36.7336 10.3641 36.2431 10.5635 35.7407C11.0624 34.4855 10.6368 33.1986 9.99376 32.0754C9.32747 30.9114 8.45422 29.855 7.42863 28.9719C7.17863 28.7567 6.91874 28.5533 6.65246 28.3574C6.42862 28.192 6.21118 28.5607 6.43269 28.7238Z" fill="black"/>
<path d="M57.6538 28.7441C56.666 29.5626 55.6614 30.4038 54.9747 31.4907C54.3334 32.5058 53.9962 33.7983 54.3584 34.9657C54.6637 35.9502 55.5276 36.7568 56.5759 36.9516C57.6887 37.1584 58.6643 36.5636 59.2143 35.6403C59.4974 35.1651 59.6637 34.6366 59.7567 34.0968C59.8637 33.4726 59.9335 32.8416 59.959 32.209C60.0102 30.9645 59.8945 29.7116 59.6056 28.4983C59.0718 26.257 57.9003 24.1329 56.2683 22.4653C55.6375 21.8207 54.9096 21.2662 54.0974 20.855C53.2265 20.4138 52.2817 20.1317 51.3235 19.938C51.0503 19.8825 50.7753 19.8343 50.4991 19.7913C50.2247 19.7482 50.1067 20.1572 50.3834 20.2008C52.1747 20.4834 53.9305 21.0034 55.3276 22.1776C56.0363 22.7735 56.6352 23.4815 57.1683 24.2286C57.8474 25.1791 58.4044 26.1992 58.7951 27.2941C59.5765 29.485 59.7689 31.9529 59.2904 34.23C59.0951 35.1606 58.5544 36.2221 57.5433 36.5064C56.6323 36.763 55.6206 36.2606 55.1061 35.5254C54.4549 34.5947 54.5677 33.3463 55.0032 32.3545C55.484 31.2608 56.3707 30.3981 57.2724 29.6232C57.5003 29.4272 57.7311 29.2358 57.9625 29.0443C58.1759 28.8671 57.866 28.568 57.6538 28.7441Z" fill="black"/>
<path d="M1.01754 20.7004C1.35707 18.4783 2.06173 16.3055 3.29545 14.3961C4.52627 12.4912 6.24663 10.9307 8.21699 9.7667C10.4211 8.4645 12.9618 7.66754 15.5531 7.69756C18.0048 7.72588 20.392 8.54606 22.4618 9.79842C24.4775 11.0179 26.245 12.6917 27.413 14.7138C27.5566 14.9625 27.6898 15.2157 27.8148 15.4734C27.9339 15.7204 28.3101 15.5051 28.1915 15.2587C27.1473 13.099 25.4345 11.2859 23.4403 9.91907C21.417 8.53303 19.024 7.55369 16.5502 7.32372C13.9095 7.07789 11.2461 7.71115 8.90768 8.89951C6.76174 9.98987 4.84371 11.5373 3.42451 13.4524C2.05358 15.3018 1.19485 17.4661 0.75299 19.6978C0.694268 19.9929 0.643692 20.2892 0.598343 20.5865C0.555901 20.855 0.976256 20.9706 1.01754 20.7004Z" fill="black"/>
<path d="M36.6391 15.5949C38.274 13.6724 40.0316 11.8129 42.1113 10.3379C44.1148 8.91675 46.4485 7.83602 48.9299 7.55224C51.2886 7.28262 53.6793 7.77598 55.7869 8.82329C57.9067 9.87627 59.705 11.4555 61.0736 13.3467C62.4492 15.2477 63.4026 17.4159 63.9846 19.6663C64.0579 19.9501 64.1253 20.2356 64.1875 20.5216C64.2456 20.789 64.666 20.6757 64.6079 20.4089C64.1032 18.0843 63.2253 15.8203 61.9154 13.8101C60.6084 11.8038 58.8695 10.0723 56.7631 8.86124C54.6944 7.67176 52.2939 6.98129 49.8816 7.05775C47.3229 7.13819 44.856 8.06655 42.724 9.41237C40.5211 10.8035 38.6543 12.6359 36.9554 14.5702C36.7449 14.8098 36.5368 15.0511 36.3304 15.2941C36.1531 15.5037 36.4601 15.8056 36.6391 15.5949Z" fill="black"/>
<path d="M37.5308 39.9601C38.0319 40.3487 38.2953 40.9536 38.4622 41.5404C38.6104 42.0627 38.7046 42.6195 38.6447 43.1615C38.5592 43.9307 38.1331 44.5946 37.4325 44.9645C36.7883 45.3049 36.0063 45.3927 35.2947 45.2324C34.4697 45.0466 33.7267 44.5532 33.2476 43.8735C33.0941 43.656 32.7267 43.8622 32.8813 44.082C33.8493 45.4556 35.7162 46.1166 37.3284 45.4663C38.1244 45.1452 38.7244 44.5317 38.9621 43.7178C39.154 43.0602 39.0936 42.3697 38.9418 41.7109C38.7709 40.9689 38.4592 40.1561 37.8296 39.6678C37.6191 39.5041 37.3174 39.7942 37.5308 39.9601Z" fill="#0A0A0A"/>
<path d="M33.2406 44.0393C33.6825 42.9682 34.9319 42.604 35.9081 42.1554C36.89 41.7039 37.8331 40.9506 37.8918 39.8138C37.9057 39.5481 37.4813 39.5487 37.4679 39.8138C37.408 40.9727 36.2435 41.5691 35.2871 41.9775C34.2894 42.4035 33.2627 42.8849 32.8313 43.93C32.7301 44.1764 33.14 44.2834 33.2406 44.0393Z" fill="#0A0A0A"/>
<path d="M37.8304 39.6676C36.2548 38.0499 35.6984 35.7893 35.5722 33.621C35.5065 32.4967 35.549 31.3689 35.6461 30.2474C35.7554 28.9865 36.0571 27.6775 36.9106 26.6846C37.7996 25.6503 39.3176 25.0425 40.6414 25.6616C40.8862 25.7761 41.1013 25.4203 40.8554 25.3048C39.6211 24.7282 38.1722 25.0352 37.1461 25.8695C36.0897 26.7282 35.5507 28.0248 35.335 29.3196C35.1327 30.5334 35.0914 31.7971 35.1228 33.0246C35.153 34.2124 35.2885 35.4092 35.6193 36.5551C35.9833 37.8159 36.6001 39.0043 37.5298 39.9593C37.7187 40.153 38.0182 39.8602 37.8304 39.6676Z" fill="#0A0A0A"/>
<path d="M35.5498 30.2357C37.5725 29.9882 39.569 28.9057 40.4789 27.0649C40.7126 26.5913 40.8597 26.0923 40.9225 25.5712C40.9539 25.3078 40.5301 25.3101 40.4987 25.5712C40.2864 27.3384 38.8713 28.7483 37.2301 29.3974C36.6934 29.6098 36.1254 29.7531 35.5504 29.8233C35.2829 29.8556 35.2795 30.2691 35.5498 30.2357Z" fill="#0A0A0A"/>
<path d="M28.2099 39.6677C27.6471 40.1882 27.3 40.8894 27.1157 41.6167C26.9546 42.254 26.8889 42.9354 27.0413 43.58C27.2308 44.3809 27.7756 45.0402 28.5372 45.3919C29.2913 45.7397 30.1628 45.8134 30.968 45.6038C31.8587 45.3721 32.6384 44.8199 33.1581 44.0818C33.3128 43.862 32.9459 43.6553 32.7919 43.8734C31.9535 45.0629 30.3529 45.6225 28.9494 45.1161C28.2378 44.8595 27.6942 44.3225 27.4854 43.6071C27.3232 43.0509 27.3616 42.4584 27.4831 41.8982C27.6401 41.1749 27.9517 40.4748 28.5087 39.9594C28.7081 39.7764 28.4081 39.4847 28.2099 39.6677Z" fill="#0A0A0A"/>
<path d="M33.2082 43.93C32.7768 42.8844 31.7501 42.4035 30.7524 41.9775C29.796 41.5691 28.6314 40.9727 28.5716 39.8138C28.5576 39.5493 28.1338 39.5476 28.1477 39.8138C28.2065 40.9506 29.1501 41.7039 30.1315 42.1554C31.1076 42.604 32.3571 42.9688 32.7989 44.0393C32.9001 44.2829 33.31 44.1769 33.2082 43.93Z" fill="#0A0A0A"/>
<path d="M28.5106 39.9599C30.2065 38.2188 30.7874 35.7922 30.9019 33.4591C30.9612 32.2515 30.9188 31.0246 30.7769 29.8238C30.6199 28.5006 30.2048 27.1729 29.2432 26.1891C28.2118 25.1333 26.5798 24.6546 25.1856 25.306C24.9397 25.421 25.1548 25.7773 25.3995 25.6629C26.5699 25.1157 27.9565 25.5326 28.8449 26.3833C29.774 27.2738 30.1903 28.5256 30.3455 29.7598C30.4874 30.8915 30.5286 32.0493 30.4897 33.1884C30.4519 34.3042 30.3147 35.4218 29.9984 36.4974C29.653 37.6716 29.0786 38.7784 28.2118 39.6688C28.0228 39.8603 28.3222 40.1531 28.5106 39.9599Z" fill="#0A0A0A"/>
<path d="M30.4908 29.8227C28.6332 29.5956 26.814 28.5851 25.9582 26.917C25.7431 26.4973 25.5983 26.0373 25.5419 25.5712C25.5105 25.3101 25.0861 25.3072 25.1181 25.5712C25.3536 27.5304 26.8484 29.0581 28.6739 29.7859C29.2565 30.0182 29.867 30.1598 30.4908 30.2362C30.7606 30.2691 30.7583 29.8556 30.4908 29.8227Z" fill="#0A0A0A"/>
<path d="M38.7168 41.1235C40.8093 40.339 42.4837 38.6816 43.2517 36.6289C43.3453 36.3786 42.936 36.2709 42.843 36.519C42.1302 38.4245 40.5476 39.9969 38.6046 40.7253C38.3523 40.8193 38.4616 41.2192 38.7168 41.1235Z" fill="#0A0A0A"/>
<path d="M27.5807 40.7253C25.637 39.9969 24.0551 38.4245 23.3423 36.519C23.2498 36.2715 22.8399 36.3786 22.9335 36.6289C23.7016 38.6816 25.376 40.339 27.4685 41.1235C27.7225 41.2186 27.833 40.8199 27.5807 40.7253Z" fill="#0A0A0A"/>
<path d="M28.6137 40.1804C28.891 39.482 29.7044 39.175 30.3951 39.0244C31.248 38.838 32.1335 38.7649 33.0061 38.7451C33.2963 38.7383 33.2974 38.2982 33.0061 38.305C32.0335 38.3277 31.0265 38.4064 30.0817 38.6454C29.2782 38.8488 28.491 39.2747 28.1782 40.0638C28.073 40.3277 28.5096 40.4421 28.6137 40.1804Z" fill="#0A0A0A"/>
<path d="M37.8333 40.0638C37.5199 39.2747 36.7333 38.8499 35.9298 38.6454C34.9856 38.4053 33.9775 38.3277 33.0054 38.305C32.7147 38.2982 32.7147 38.7383 33.0054 38.7451C33.8781 38.7649 34.7629 38.838 35.6164 39.0244C36.3071 39.175 37.1205 39.482 37.3978 40.1804C37.5013 40.4421 37.9386 40.3283 37.8333 40.0638Z" fill="#0A0A0A"/>
<path d="M3.91644 21.7658C3.91644 21.7658 4.16063 19.5908 5.29785 18.2268" stroke="black" stroke-width="0.424817" stroke-miterlimit="10" stroke-linecap="round" stroke-linejoin="round"/>
<path d="M5.29803 21.6256C5.29803 21.6256 5.51081 20.6932 6.05035 19.7473" stroke="black" stroke-width="0.424817" stroke-miterlimit="10" stroke-linecap="round" stroke-linejoin="round"/>
<path d="M2.99957 20.8092C2.99957 20.8092 3.21237 19.8768 3.75191 18.9309" stroke="black" stroke-width="0.424817" stroke-miterlimit="10" stroke-linecap="round" stroke-linejoin="round"/>
<path d="M2.88815 32.4878C2.88815 32.4878 2.44629 30.3422 3.10792 28.7075" stroke="black" stroke-width="0.424817" stroke-miterlimit="10" stroke-linecap="round" stroke-linejoin="round"/>
<path d="M4.16207 31.9475C4.16207 31.9475 4.07602 30.9959 4.29695 29.9355" stroke="black" stroke-width="0.424817" stroke-miterlimit="10" stroke-linecap="round" stroke-linejoin="round"/>
<path d="M1.71721 31.8456C1.71721 31.8456 1.63117 30.894 1.8521 29.8336" stroke="black" stroke-width="0.424817" stroke-miterlimit="10" stroke-linecap="round" stroke-linejoin="round"/>
<path d="M6.67525 40.8374C6.67525 40.8374 5.33921 40.0229 4.80258 38.9065" stroke="black" stroke-width="0.424817" stroke-miterlimit="10" stroke-linecap="round" stroke-linejoin="round"/>
<path d="M7.00756 39.9448C7.00756 39.9448 6.46803 39.529 6.01978 38.9082" stroke="black" stroke-width="0.424817" stroke-miterlimit="10" stroke-linecap="round" stroke-linejoin="round"/>
<path d="M5.77662 41.1098C5.77662 41.1098 5.23708 40.694 4.78882 40.0732" stroke="black" stroke-width="0.424817" stroke-miterlimit="10" stroke-linecap="round" stroke-linejoin="round"/>
<path d="M13.4849 37.9939C13.4849 37.9939 12.9407 39.4349 11.9291 40.1758" stroke="black" stroke-width="0.424817" stroke-miterlimit="10" stroke-linecap="round" stroke-linejoin="round"/>
<path d="M12.5196 37.8613C12.5196 37.8613 12.2126 38.4612 11.6807 39.0157" stroke="black" stroke-width="0.424817" stroke-miterlimit="10" stroke-linecap="round" stroke-linejoin="round"/>
<path d="M10.3295 15.276C10.3295 15.276 12.1435 13.9851 13.9435 13.8843" stroke="black" stroke-width="0.424817" stroke-miterlimit="10" stroke-linecap="round" stroke-linejoin="round"/>
<path d="M11.367 16.176C11.367 16.176 12.2175 15.7007 13.2978 15.4509" stroke="black" stroke-width="0.424817" stroke-miterlimit="10" stroke-linecap="round" stroke-linejoin="round"/>
<path d="M10.3296 13.5194C10.3296 13.5194 11.1801 13.0441 12.2604 12.7949" stroke="black" stroke-width="0.424817" stroke-miterlimit="10" stroke-linecap="round" stroke-linejoin="round"/>
<path d="M18.6236 14.7021C18.6236 14.7021 20.8294 15.1151 22.1329 16.3295" stroke="black" stroke-width="0.424817" stroke-miterlimit="10" stroke-linecap="round" stroke-linejoin="round"/>
<path d="M18.6555 16.0547C18.6555 16.0547 19.5921 16.3368 20.516 16.9372" stroke="black" stroke-width="0.424817" stroke-miterlimit="10" stroke-linecap="round" stroke-linejoin="round"/>
<path d="M19.9424 13.5046C19.9424 13.5046 20.879 13.7867 21.8029 14.3871" stroke="black" stroke-width="0.424817" stroke-miterlimit="10" stroke-linecap="round" stroke-linejoin="round"/>
<path d="M10.574 34.6694C10.574 34.6694 13.2398 33.4159 15.0485 35.3248" stroke="black" stroke-width="0.424817" stroke-miterlimit="10" stroke-linecap="round" stroke-linejoin="round"/>
<path d="M8.62875 37.0791C8.62875 37.0791 12.2183 40.9835 8.18573 43.9124" stroke="black" stroke-width="0.424817" stroke-miterlimit="10" stroke-linecap="round" stroke-linejoin="round"/>
<path d="M0.642944 35.1675C0.642944 35.1675 3.53366 36.775 5.78367 34.3518" stroke="black" stroke-width="0.424817" stroke-miterlimit="10" stroke-linecap="round" stroke-linejoin="round"/>
<path d="M0.212463 22.2021C0.212463 22.2021 2.47352 26.5449 7.22703 25.4461" stroke="black" stroke-width="0.424817" stroke-miterlimit="10" stroke-linecap="round" stroke-linejoin="round"/>
<path d="M11.6607 21.1486C11.6607 21.1486 4.81239 18.7266 7.14147 10.1985" stroke="black" stroke-width="0.424817" stroke-miterlimit="10" stroke-linecap="round" stroke-linejoin="round"/>
<path d="M16.3415 20.1579C16.3415 20.1579 13.7479 11.158 18.8124 7.96899" stroke="black" stroke-width="0.424817" stroke-miterlimit="10" stroke-linecap="round" stroke-linejoin="round"/>
<path d="M21.0288 21.7657C21.0288 21.7657 23.6294 16.4957 29.6695 18.5036" stroke="black" stroke-width="0.424817" stroke-miterlimit="10" stroke-linecap="round" stroke-linejoin="round"/>
<path d="M61.0636 21.7658C61.0636 21.7658 60.8194 19.5908 59.6822 18.2268" stroke="black" stroke-width="0.424817" stroke-miterlimit="10" stroke-linecap="round" stroke-linejoin="round"/>
<path d="M59.6832 21.6256C59.6832 21.6256 59.4704 20.6932 58.9309 19.7473" stroke="black" stroke-width="0.424817" stroke-miterlimit="10" stroke-linecap="round" stroke-linejoin="round"/>
<path d="M61.9818 20.8092C61.9818 20.8092 61.769 19.8768 61.2294 18.9309" stroke="black" stroke-width="0.424817" stroke-miterlimit="10" stroke-linecap="round" stroke-linejoin="round"/>
<path d="M62.0925 32.4878C62.0925 32.4878 62.5344 30.3422 61.8728 28.7075" stroke="black" stroke-width="0.424817" stroke-miterlimit="10" stroke-linecap="round" stroke-linejoin="round"/>
<path d="M60.819 31.9475C60.819 31.9475 60.905 30.9959 60.6841 29.9355" stroke="black" stroke-width="0.424817" stroke-miterlimit="10" stroke-linecap="round" stroke-linejoin="round"/>
<path d="M63.2638 31.8454C63.2638 31.8454 63.3498 30.8938 63.1289 29.8335" stroke="black" stroke-width="0.424817" stroke-miterlimit="10" stroke-linecap="round" stroke-linejoin="round"/>
<path d="M58.3045 40.8374C58.3045 40.8374 59.6405 40.0229 60.1772 38.9065" stroke="black" stroke-width="0.424817" stroke-miterlimit="10" stroke-linecap="round" stroke-linejoin="round"/>
<path d="M57.9727 39.9445C57.9727 39.9445 58.5123 39.5288 58.9605 38.908" stroke="black" stroke-width="0.424817" stroke-miterlimit="10" stroke-linecap="round" stroke-linejoin="round"/>
<path d="M59.2046 41.1098C59.2046 41.1098 59.7441 40.694 60.1924 40.0732" stroke="black" stroke-width="0.424817" stroke-miterlimit="10" stroke-linecap="round" stroke-linejoin="round"/>
<path d="M53.2942 39.2847C53.2942 39.2847 51.9581 38.4702 51.4215 37.3538" stroke="black" stroke-width="0.424817" stroke-miterlimit="10" stroke-linecap="round" stroke-linejoin="round"/>
<path d="M52.3938 39.5573C52.3938 39.5573 51.8543 39.1416 51.406 38.5208" stroke="black" stroke-width="0.424817" stroke-miterlimit="10" stroke-linecap="round" stroke-linejoin="round"/>
<path d="M54.6512 15.276C54.6512 15.276 52.8373 13.9851 51.0373 13.8843" stroke="black" stroke-width="0.424817" stroke-miterlimit="10" stroke-linecap="round" stroke-linejoin="round"/>
<path d="M53.6136 16.176C53.6136 16.176 52.763 15.7007 51.6828 15.4509" stroke="black" stroke-width="0.424817" stroke-miterlimit="10" stroke-linecap="round" stroke-linejoin="round"/>
<path d="M54.6501 13.5194C54.6501 13.5194 53.7995 13.0441 52.7192 12.7949" stroke="black" stroke-width="0.424817" stroke-miterlimit="10" stroke-linecap="round" stroke-linejoin="round"/>
<path d="M46.3569 14.7021C46.3569 14.7021 44.1511 15.1151 42.8481 16.3295" stroke="black" stroke-width="0.424817" stroke-miterlimit="10" stroke-linecap="round" stroke-linejoin="round"/>
<path d="M46.3258 16.0547C46.3258 16.0547 45.3892 16.3368 44.4653 16.9372" stroke="black" stroke-width="0.424817" stroke-miterlimit="10" stroke-linecap="round" stroke-linejoin="round"/>
<path d="M45.0374 13.5046C45.0374 13.5046 44.1008 13.7867 43.1769 14.3871" stroke="black" stroke-width="0.424817" stroke-miterlimit="10" stroke-linecap="round" stroke-linejoin="round"/>
<path d="M54.4069 34.6694C54.4069 34.6694 51.7412 33.4159 49.9325 35.3248" stroke="black" stroke-width="0.424817" stroke-miterlimit="10" stroke-linecap="round" stroke-linejoin="round"/>
<path d="M56.3515 37.0791C56.3515 37.0791 52.7619 40.9835 56.7945 43.9124" stroke="black" stroke-width="0.424817" stroke-miterlimit="10" stroke-linecap="round" stroke-linejoin="round"/>
<path d="M64.3383 35.1675C64.3383 35.1675 61.4476 36.775 59.1976 34.3518" stroke="black" stroke-width="0.424817" stroke-miterlimit="10" stroke-linecap="round" stroke-linejoin="round"/>
<path d="M64.7675 22.2021C64.7675 22.2021 62.5065 26.5449 57.753 25.4461" stroke="black" stroke-width="0.424817" stroke-miterlimit="10" stroke-linecap="round" stroke-linejoin="round"/>
<path d="M54.1016 21.0987C54.1016 21.0987 60.1673 18.726 57.8382 10.1985" stroke="black" stroke-width="0.424817" stroke-miterlimit="10" stroke-linecap="round" stroke-linejoin="round"/>
<path d="M48.8994 19.8736C48.8994 19.8736 51.2326 11.158 46.168 7.96851" stroke="black" stroke-width="0.424817" stroke-miterlimit="10" stroke-linecap="round" stroke-linejoin="round"/>
<path d="M43.9513 21.7657C43.9513 21.7657 41.3507 16.4957 35.3105 18.5036" stroke="black" stroke-width="0.424817" stroke-miterlimit="10" stroke-linecap="round" stroke-linejoin="round"/>
<defs>
<linearGradient id="paint0_linear_58_689" x1="50.5845" y1="28.157" x2="14.3409" y2="28.157" gradientUnits="userSpaceOnUse">
<stop stop-color="#C1AB75"/>
<stop offset="1" stop-color="#E6E1B3"/>
</linearGradient>
<linearGradient id="paint1_linear_58_689" x1="56.2297" y1="28.1568" x2="8.80415" y2="28.1568" gradientUnits="userSpaceOnUse">
<stop stop-color="#C1AB75"/>
<stop offset="1" stop-color="#E6E1B3"/>
</linearGradient>
<linearGradient id="paint2_linear_58_689" x1="61.4193" y1="28.157" x2="3.61602" y2="28.157" gradientUnits="userSpaceOnUse">
<stop stop-color="#C1AB75"/>
<stop offset="1" stop-color="#E6E1B3"/>
</linearGradient>
<linearGradient id="paint3_linear_58_689" x1="35.9406" y1="6.83009" x2="36.0632" y2="0.0958805" gradientUnits="userSpaceOnUse">
<stop stop-color="#C19566"/>
<stop offset="1" stop-color="#E6E1B3"/>
</linearGradient>
<linearGradient id="paint4_linear_58_689" x1="30.4763" y1="6.10782" x2="30.5379" y2="2.72554" gradientUnits="userSpaceOnUse">
<stop stop-color="#C19566"/>
<stop offset="1" stop-color="#E6E1B3"/>
</linearGradient>
<linearGradient id="paint5_linear_58_689" x1="43.4468" y1="49.3238" x2="43.5084" y2="45.9416" gradientUnits="userSpaceOnUse">
<stop stop-color="#C19566"/>
<stop offset="1" stop-color="#E6E1B3"/>
</linearGradient>
<linearGradient id="paint6_linear_58_689" x1="21.6239" y1="48.5865" x2="28.7118" y2="51.0701" gradientUnits="userSpaceOnUse">
<stop stop-color="#C19566"/>
<stop offset="1" stop-color="#E6E1B3"/>
</linearGradient>
<linearGradient id="paint7_linear_58_689" x1="21.5547" y1="48.7843" x2="28.6425" y2="51.268" gradientUnits="userSpaceOnUse">
<stop stop-color="#C19566"/>
<stop offset="1" stop-color="#E6E1B3"/>
</linearGradient>
<linearGradient id="paint8_linear_58_689" x1="21.5587" y1="48.7725" x2="28.6465" y2="51.2561" gradientUnits="userSpaceOnUse">
<stop stop-color="#C19566"/>
<stop offset="1" stop-color="#E6E1B3"/>
</linearGradient>
<linearGradient id="paint9_linear_58_689" x1="21.629" y1="48.5726" x2="28.7167" y2="51.0562" gradientUnits="userSpaceOnUse">
<stop stop-color="#C19566"/>
<stop offset="1" stop-color="#E6E1B3"/>
</linearGradient>
<linearGradient id="paint10_linear_58_689" x1="19.204" y1="11.7495" x2="47.1237" y2="46.5758" gradientUnits="userSpaceOnUse">
<stop stop-color="#C1AB75"/>
<stop offset="1" stop-color="#E6E1B3"/>
</linearGradient>
</defs>
</svg>
