<svg width="23" height="23" viewBox="0 0 23 23" fill="none" xmlns="http://www.w3.org/2000/svg">
<path d="M12.6665 5.66667C13.2734 5.5059 13.8652 5.29277 14.4352 5.02967C15.498 4.51867 16.1782 3.8455 16.695 2.77567C16.9365 2.27633 17.1407 1.693 17.3332 1C17.5257 1.69417 17.7298 2.2775 17.9713 2.7745C18.4882 3.8455 19.1683 4.51867 20.2312 5.02967C20.7282 5.26883 21.3103 5.473 21.9998 5.66667C21.3929 5.82781 20.8011 6.04133 20.2312 6.30483C19.1683 6.81583 18.4882 7.489 17.9713 8.55883C17.7058 9.12999 17.4922 9.72389 17.3332 10.3333C17.1407 9.64033 16.9365 9.05583 16.695 8.55883C16.1782 7.48783 15.498 6.81583 14.4352 6.30483C13.8659 6.03965 13.274 5.82607 12.6665 5.66667Z" stroke="#7DD3FC" stroke-width="2" stroke-linecap="round" stroke-linejoin="round"/>
<path d="M1 13.8332C1.65072 13.6529 2.29372 13.4459 2.92733 13.2125C5.893 12.1007 7.4225 10.6015 8.546 7.6055C8.781 6.96851 8.98809 6.32156 9.16667 5.6665C9.34525 6.32156 9.55233 6.96851 9.78733 7.6055C10.9108 10.6003 12.4415 12.1007 15.406 13.2125C15.9893 13.4303 16.6318 13.6372 17.3333 13.8332C16.6826 14.0134 16.0396 14.2205 15.406 14.4538C12.4403 15.5657 10.9097 17.0648 9.78733 20.0608C9.55233 20.6978 9.34525 21.3448 9.16667 21.9998C8.98809 21.3448 8.781 20.6978 8.546 20.0608C7.4225 17.0648 5.89183 15.5657 2.92733 14.4538C2.29372 14.2205 1.65072 14.0134 1 13.8332Z" stroke="#7DD3FC" stroke-width="2" stroke-linecap="round" stroke-linejoin="round"/>
</svg>
