<svg width="57" height="57" viewBox="0 0 57 57" fill="none" xmlns="http://www.w3.org/2000/svg">
<path d="M28.2108 45.5258C37.9072 45.5258 45.7677 37.6978 45.7677 28.0414C45.7677 18.385 37.9072 10.557 28.2108 10.557C18.5144 10.557 10.654 18.385 10.654 28.0414C10.654 37.6978 18.5144 45.5258 28.2108 45.5258Z" stroke="url(#paint0_linear_58_831)" stroke-width="0.196775" stroke-linecap="round" stroke-linejoin="round" stroke-dasharray="0.2 2.56"/>
<path d="M28.1568 50.9197C40.8444 50.9197 51.1298 40.6768 51.1298 28.0415C51.1298 15.4062 40.8444 5.16333 28.1568 5.16333C15.4691 5.16333 5.18378 15.4062 5.18378 28.0415C5.18378 40.6768 15.4691 50.9197 28.1568 50.9197Z" stroke="url(#paint1_linear_58_831)" stroke-width="0.257496" stroke-linecap="round" stroke-linejoin="round"/>
<path d="M28.1569 55.9259C43.6209 55.9259 56.1569 43.4416 56.1569 28.0414C56.1569 12.6413 43.6209 0.156982 28.1569 0.156982C12.6929 0.156982 0.156921 12.6413 0.156921 28.0414C0.156921 43.4416 12.6929 55.9259 28.1569 55.9259Z" stroke="url(#paint2_linear_58_831)" stroke-width="0.313855" stroke-linecap="round" stroke-linejoin="round"/>
<path d="M27.3282 50.6992L27.5202 49.6009C27.5304 49.5439 27.6114 49.5422 27.6239 49.5987L27.8663 50.6969C27.8708 50.7184 27.8884 50.7347 27.9105 50.7375L28.8853 50.8803C28.9425 50.8887 28.9465 50.9688 28.891 50.9835L27.8787 51.2447C27.8589 51.2497 27.8436 51.2661 27.8402 51.2858L27.6601 52.2403C27.6493 52.2967 27.5695 52.2978 27.5565 52.242L27.3401 51.2949C27.3355 51.2751 27.3197 51.2593 27.2999 51.2554L26.384 51.0529C26.329 51.0405 26.3285 50.9626 26.3834 50.9502L27.2874 50.7426C27.3084 50.7364 27.3242 50.7201 27.3282 50.6992Z" fill="url(#paint3_linear_58_831)"/>
<path d="M24.5681 5.1805L24.7318 4.24581C24.7403 4.1973 24.8094 4.19561 24.8202 4.24356L25.0264 5.17768C25.0303 5.19573 25.0451 5.20983 25.0637 5.21265L25.8936 5.33393C25.9423 5.34127 25.9457 5.40952 25.8981 5.42136L25.0371 5.64361C25.0201 5.64813 25.0077 5.66167 25.0043 5.67859L24.8508 6.49031C24.8417 6.53825 24.7737 6.53938 24.7624 6.492L24.5783 5.68592C24.5744 5.669 24.5613 5.65602 24.5443 5.65208L23.7655 5.47947C23.7185 5.46931 23.7185 5.40275 23.7649 5.39203L24.5341 5.21547C24.5517 5.21265 24.5653 5.19799 24.5681 5.1805Z" fill="url(#paint4_linear_58_831)"/>
<path d="M54.4592 15.8454C54.726 16.2606 54.6042 16.8122 54.1879 17.0779C53.771 17.3436 53.217 17.2223 52.9502 16.8077C52.6834 16.3926 52.8052 15.8409 53.2215 15.5752C53.6384 15.3095 54.1924 15.4302 54.4592 15.8454Z" fill="url(#paint5_linear_58_831)"/>
<path d="M52.7622 13.8066C52.935 14.0751 52.8563 14.4327 52.5866 14.6047C52.317 14.7768 51.9579 14.6984 51.7852 14.4293C51.6124 14.1608 51.6911 13.8032 51.9608 13.6311C52.2304 13.4591 52.5895 13.538 52.7622 13.8066Z" fill="url(#paint6_linear_58_831)"/>
<path d="M51.5203 12.4397C51.6512 12.6434 51.5917 12.9136 51.3872 13.0439C51.1827 13.1742 50.9114 13.115 50.7805 12.9113C50.6497 12.7077 50.7092 12.4375 50.9137 12.3072C51.1182 12.1769 51.39 12.2361 51.5203 12.4397Z" fill="url(#paint7_linear_58_831)"/>
<path d="M50.2978 11.4222C50.3867 11.5604 50.346 11.7443 50.2072 11.8329C50.0684 11.9214 49.8838 11.8808 49.7948 11.7426C49.7059 11.6044 49.7467 11.4205 49.8855 11.3319C50.0242 11.2434 50.2089 11.2834 50.2978 11.4222Z" fill="url(#paint8_linear_58_831)"/>
<path d="M16.4463 54.6918C15.9954 54.4893 15.7944 53.9613 15.9971 53.5123C16.2005 53.0633 16.7307 52.8631 17.1815 53.065C17.6324 53.2675 17.8335 53.7955 17.6307 54.2445C17.4279 54.6941 16.8977 54.8943 16.4463 54.6918Z" fill="url(#paint9_linear_58_831)"/>
<path d="M18.9863 55.4753C18.6941 55.3444 18.5638 55.002 18.6958 54.7109C18.8272 54.4199 19.171 54.2901 19.4627 54.4216C19.755 54.5524 19.8853 54.8948 19.7533 55.1853C19.6224 55.4764 19.2786 55.6061 18.9863 55.4753Z" fill="url(#paint10_linear_58_831)"/>
<path d="M20.7772 55.9444C20.5563 55.8451 20.4577 55.5862 20.5568 55.3662C20.6565 55.1462 20.9165 55.0481 21.1374 55.1468C21.3583 55.2461 21.4569 55.505 21.3577 55.725C21.2586 55.9455 20.9986 56.0437 20.7772 55.9444Z" fill="url(#paint11_linear_58_831)"/>
<path d="M22.3594 56.1311C22.2088 56.064 22.1419 55.8874 22.2099 55.7379C22.2778 55.5884 22.4546 55.5213 22.6047 55.589C22.7553 55.6567 22.8222 55.8327 22.7542 55.9822C22.6862 56.1317 22.5095 56.1982 22.3594 56.1311Z" fill="url(#paint12_linear_58_831)"/>
<path d="M53.1505 40.4271C52.3745 39.0344 50.8633 37.8582 49.3005 37.5203C48.5053 36.4209 47.3356 35.5951 46.0306 35.2115C45.6499 35.0993 45.2574 35.0367 44.862 35.0006C44.9804 34.8782 45.1277 34.7845 45.2331 34.6503C46.6486 34.723 48.0952 33.8431 48.8882 32.6732C49.9905 32.509 50.9607 31.6042 51.1612 30.5127C51.8681 29.8933 52.2244 29.0179 51.9395 28.1244C52.6113 26.4378 52.7161 24.5334 52.234 22.7836C52.1457 22.4632 52.0352 22.1417 51.8336 21.8766C51.6325 21.6114 51.2394 21.5257 50.9058 21.5189C50.8707 23.2879 50.4714 24.9559 49.9366 26.6431C49.1153 26.9996 48.3835 28.1949 48.5755 29.0664C47.4988 29.2458 46.5585 30.1669 46.5285 31.2534C45.4483 31.3346 44.4084 31.8552 43.6986 32.6703C42.8598 32.5242 41.988 32.6382 41.2007 32.9586C41.2828 32.2038 41.2449 31.4435 41.0902 30.6994C41.9585 29.5058 42.363 27.9106 41.9818 26.5517C42.4202 25.7767 42.2338 24.5199 41.651 23.8458C42.2808 23.8001 42.8824 23.4543 43.2375 22.9342C43.5927 22.4141 43.7473 21.4445 43.5587 20.8443C44.3007 21.1105 45.181 20.9464 45.7757 20.4308C46.3704 19.9152 46.593 19.0488 46.4305 18.2805C47.1884 17.2804 47.4987 15.9559 47.2637 14.7251C47.0292 13.4943 46.2509 12.3514 45.1775 11.6976C45.3718 10.7692 44.9617 9.79442 44.3177 9.09664C43.6731 8.39887 42.8184 7.93293 41.9648 7.51382C39.9047 6.50241 37.8016 5.7048 35.5863 5.10066C35.3257 6.0675 36.0915 7.01742 36.9332 7.56402C37.7755 8.11062 38.7702 8.47446 39.4125 9.245C40.12 10.0928 40.3114 11.2249 39.7869 12.1957C39.7648 11.4049 39.1412 10.7443 38.4416 10.3692C37.7416 9.99467 36.9502 9.8277 36.2162 9.52535C35.4821 9.22243 34.582 8.84055 34.3237 8.09201C34.0932 9.59022 34.4925 11.1747 35.4073 12.3864C36.3215 13.598 37.7025 14.5536 39.2114 14.7493C38.8965 15.4601 38.9282 16.3136 39.2952 16.9995C39.6617 17.6848 40.2027 18.1846 40.9702 18.3206C39.2952 19.2722 38.3085 21.1032 38.615 22.9991C36.718 23.3697 35.6027 24.4877 35.6027 24.4877C35.6027 24.4877 33.0436 22.7972 28.5287 22.7972C24.0137 22.7972 21.1697 24.6756 21.1697 24.6756C19.9802 23.4058 18.4922 23.1931 17.9977 23.1576C17.898 23.1046 17.8034 23.0425 17.6981 22.9985C18.0051 21.1026 17.0178 19.2716 15.3429 18.32C16.111 18.1835 16.6513 17.6843 17.0184 16.9989C17.3854 16.313 17.4171 15.4595 17.1016 14.7488C18.6111 14.553 19.9915 13.5975 20.9057 12.3858C21.8205 11.1742 22.2198 9.58965 21.9893 8.09144C21.7316 8.83999 20.8315 9.22187 20.0969 9.52479C19.3628 9.82714 18.5715 9.9941 17.8714 10.3687C17.1713 10.7438 16.5477 11.4038 16.5256 12.1952C16.0011 11.2244 16.1931 10.0917 16.9 9.24443C17.5423 8.47446 18.537 8.11006 19.3792 7.56346C20.2215 7.01686 20.9867 6.06694 20.7262 5.1001C18.5109 5.70423 16.4083 6.50185 14.3483 7.51326C13.4941 7.93237 12.6399 8.39831 11.9953 9.09608C11.3508 9.79385 10.9407 10.7686 11.1355 11.6971C10.0621 12.3509 9.28388 13.4937 9.04938 14.7245C8.81488 15.9554 9.12468 17.2798 9.88256 18.28C9.72 19.0482 9.9426 19.9141 10.5373 20.4303C11.1321 20.9458 12.0129 21.11 12.7543 20.8437C12.5657 21.4439 12.7204 22.4136 13.0755 22.9337C13.4306 23.4537 14.0322 23.799 14.6621 23.8452C14.0792 24.5193 13.8923 25.7761 14.3313 26.5511C13.9546 27.892 14.3443 29.463 15.1888 30.652C14.9696 31.3532 14.8456 32.1068 14.8014 32.8728C14.0968 32.6404 13.3462 32.5429 12.6139 32.6703C11.9041 31.8558 10.8642 31.3351 9.78403 31.2534C9.75401 30.1669 8.81374 29.2458 7.73697 29.0664C7.92955 28.1949 7.19716 26.9996 6.37584 26.6431C5.84114 24.9559 5.44181 23.2879 5.40669 21.5189C5.07307 21.5257 4.68054 21.6114 4.47889 21.8766C4.27781 22.1417 4.1668 22.4632 4.079 22.7836C3.59697 24.5334 3.70234 26.4378 4.37355 28.1244C4.08807 29.0179 4.44433 29.8933 5.1518 30.5127C5.35231 31.6042 6.32259 32.5084 7.42485 32.6732C8.21728 33.8431 9.66449 34.7225 11.08 34.6503C11.1859 34.7845 11.3326 34.8782 11.451 35.0006C11.0556 35.0372 10.6631 35.0999 10.2824 35.2115C8.97741 35.5951 7.80778 36.4209 7.01252 37.5203C5.44975 37.8588 3.93854 39.0349 3.16254 40.4271C2.69127 41.2726 2.79436 42.2175 3.13761 43.1217C3.48086 44.0259 4.2778 44.7468 5.21524 45.0001C5.58454 46.0928 6.38037 47.1702 7.42769 47.6603C8.12552 49.4575 9.66337 50.8339 11.5411 51.2976C11.6821 49.567 10.8381 47.7653 9.36429 46.8379C9.13999 45.4283 8.16858 44.2657 6.97456 43.5358C6.01843 42.9508 6.46931 42.9908 6.8828 42.0415C7.18981 41.3375 7.29967 40.5461 7.18015 39.7863C8.7146 39.7643 10.2621 39.3948 11.6742 38.7393C11.6583 38.7709 11.6351 38.7986 11.6192 38.8307C10.4518 39.3531 9.06522 40.6792 9.34673 41.9219C9.81176 43.9791 11.1055 45.8976 12.8416 47.1059C13.579 49.0362 15.5275 50.5502 17.5899 50.7685C17.3837 48.5883 16.0809 46.3974 14.1732 45.3092C14.1817 43.9131 13.3429 42.4888 12.0622 41.9219C12.7147 41.7138 13.1593 40.8428 13.0778 40.1648C14.4808 39.6492 15.6578 38.6113 16.4106 37.3263C16.4106 37.3263 16.6621 37.5835 17.1073 37.9863C16.6604 38.3264 16.2713 38.7523 15.9807 39.2329C15.4001 40.1924 14.7413 41.3967 14.8059 42.5148C14.8965 44.0812 15.9382 45.5682 17.3463 46.2716C17.8057 47.0963 18.687 47.7805 19.5928 48.0575C20.1258 49.7311 21.7072 50.91 23.4643 51.055C23.603 50.5614 23.4677 50.0239 23.2117 49.5794C22.9551 49.1354 22.5597 48.7135 22.1949 48.3514C22.1949 46.8481 21.1674 45.3008 19.7581 44.7615C19.7717 44.2138 19.5197 43.6858 19.1691 43.2639C18.8185 42.8419 18.3835 42.5452 17.9428 42.2175C18.6678 41.5885 19.1357 40.6961 19.2869 39.7536C21.3866 41.2794 24.3734 42.9604 27.3482 42.9604C31.0175 42.9604 34.5735 40.941 36.9848 39.0682C36.9791 40.2533 37.4719 41.4374 38.3708 42.2181C37.9302 42.5458 37.4946 42.8419 37.1445 43.2644C36.7945 43.6869 36.5419 44.2144 36.5555 44.7621C35.1462 45.3013 34.1187 46.8481 34.1187 48.3519C33.7545 48.7135 33.3586 49.1354 33.102 49.5799C32.8454 50.0244 32.7106 50.5626 32.8493 51.0556C34.6064 50.9112 36.1873 49.7317 36.7208 48.058C37.626 47.7811 38.5079 47.0974 38.9667 46.2721C40.3749 45.5693 41.4171 44.0818 41.5071 42.5153C41.5717 41.3973 40.9124 40.193 40.3323 39.2335C39.9307 38.569 39.3513 37.9919 38.6682 37.6365C38.9905 37.3449 39.2884 37.0318 39.5637 36.6979C40.2615 38.279 41.6079 39.5674 43.2353 40.1653C43.1537 40.8434 43.5984 41.7138 44.2509 41.9225C42.9702 42.4899 42.1313 43.9143 42.1398 45.3098C40.2315 46.3979 38.9293 48.5888 38.7231 50.769C40.7855 50.5507 42.7346 49.0367 43.4715 47.1064C45.2076 45.8981 46.5013 43.9797 46.9663 41.9225C47.2478 40.6792 45.8606 39.3531 44.6938 38.8313C44.6785 38.7997 44.6547 38.7715 44.6389 38.7399C46.051 39.3954 47.5984 39.7648 49.1329 39.7868C49.0134 40.5461 49.1232 41.3381 49.4302 42.0421C49.8443 42.9914 50.2952 42.9514 49.3385 43.5363C48.1445 44.2668 47.1725 45.4288 46.9487 46.8385C45.4749 47.7658 44.6304 49.5681 44.772 51.2981C46.6497 50.835 48.1875 49.4581 48.8854 47.6609C49.9327 47.1707 50.7285 46.0928 51.0978 45.0007C52.0347 44.7474 52.8316 44.0271 53.1749 43.1223C53.5187 42.2175 53.6218 41.2726 53.1505 40.4271Z" fill="url(#paint13_linear_58_831)"/>
<path d="M7.45895 37.6878C8.97017 35.8934 11.2778 34.8471 13.6301 34.9001C13.9037 34.9063 13.9037 34.4832 13.6301 34.477C11.7207 34.4336 9.83454 35.084 8.33466 36.2545C7.90361 36.5906 7.51048 36.9708 7.15873 37.3888C6.98371 37.5958 7.2828 37.8971 7.45895 37.6878Z" fill="black"/>
<path d="M9.81468 41.3774C10.5754 39.4668 12.1784 37.9128 14.1144 37.2026C14.3687 37.1095 14.2588 36.7 14.0017 36.7948C11.9133 37.5608 10.2253 39.2057 9.40515 41.2651C9.30432 41.5179 9.71499 41.6279 9.81468 41.3774Z" fill="black"/>
<path d="M6.91035 39.7895C7.28419 40.9836 7.08368 42.2957 6.37621 43.3285C6.22158 43.5542 6.58976 43.7657 6.74326 43.5423C7.5102 42.4232 7.72488 40.9707 7.31989 39.6772C7.23889 39.4177 6.82878 39.5283 6.91035 39.7895Z" fill="black"/>
<path d="M16.1089 38.8135C15.4037 39.7876 14.8639 40.9096 14.7523 42.1179C14.6555 43.1659 14.9449 44.2366 15.6065 45.0641C15.9656 45.5137 16.43 45.8555 16.967 46.0636C17.2219 46.1624 17.3323 45.7534 17.0797 45.6558C16.2193 45.3224 15.6116 44.535 15.3369 43.6764C15.018 42.6808 15.1618 41.6215 15.5453 40.6648C15.7792 40.081 16.1072 39.536 16.4759 39.0272C16.6357 38.8061 16.2675 38.5946 16.1089 38.8135Z" fill="black"/>
<path d="M40.2854 40.0011C40.9538 40.9161 41.7111 41.9873 41.4013 43.1797C41.0926 44.37 40.0453 45.149 39.101 45.8411C38.883 46.0007 39.0948 46.368 39.3151 46.2066C40.1359 45.6047 40.9866 44.9769 41.4913 44.0716C41.7321 43.64 41.8884 43.1572 41.8992 42.6613C41.9099 42.1729 41.7746 41.6985 41.5735 41.2573C41.3327 40.7294 40.9923 40.2544 40.6513 39.7873C40.4927 39.5696 40.124 39.7806 40.2854 40.0011Z" fill="black"/>
<path d="M49.221 37.6771C47.9069 36.1417 46.0264 35.101 44.0286 34.7777C43.4588 34.6858 42.8827 34.648 42.3055 34.6717C42.0331 34.683 42.0319 35.106 42.3055 35.0948C44.2501 35.0147 46.2053 35.647 47.7375 36.8423C48.1691 37.1791 48.5645 37.5604 48.9202 37.9761C49.0981 38.1837 49.3971 37.8836 49.221 37.6771Z" fill="black"/>
<path d="M42.3462 37.7331C43.3198 38.1923 44.259 38.7214 45.1528 39.321C45.8761 39.8061 46.7359 40.3781 46.8951 41.2992C46.9415 41.5672 47.3505 41.4532 47.3046 41.187C47.1375 40.2201 46.2902 39.5861 45.5289 39.0655C44.5869 38.4213 43.5934 37.8549 42.5608 37.3681C42.315 37.2519 42.0992 37.6169 42.3462 37.7331Z" fill="black"/>
<path d="M48.7944 29.5018C49.1178 30.1246 49.8315 30.4602 50.5191 30.3666C50.633 30.3513 50.6947 30.2058 50.6675 30.1065C50.6335 29.9847 50.5203 29.9429 50.4064 29.9587C50.4415 29.9542 50.3945 29.9593 50.3883 29.9599C50.3707 29.9616 50.3526 29.9627 50.335 29.9632C50.2993 29.9649 50.2637 29.9649 50.228 29.9638C50.1957 29.9627 50.164 29.9604 50.1317 29.957C50.1192 29.9559 50.0835 29.9503 50.1136 29.9554C50.096 29.9525 50.0785 29.9497 50.0609 29.9463C49.9941 29.9333 49.9283 29.9159 49.8643 29.8939C49.8473 29.8882 49.8303 29.882 49.8139 29.8758C49.8043 29.8719 49.7686 29.8572 49.7953 29.8685C49.7624 29.8544 49.7301 29.8386 49.6984 29.8217C49.4577 29.6953 49.2866 29.5289 49.162 29.2886C49.1093 29.1871 48.9666 29.1572 48.8714 29.2124C48.7672 29.2728 48.7417 29.4003 48.7944 29.5018Z" fill="black"/>
<path d="M47.3097 31.4762C47.2854 31.628 47.291 31.7808 47.3482 31.9252C47.4066 32.0725 47.4943 32.1988 47.6206 32.2958C47.8789 32.4944 48.2318 32.5153 48.5207 32.3714C48.6204 32.3218 48.6561 32.174 48.5972 32.0821C48.5315 31.9805 48.4131 31.9529 48.3066 32.0065C48.2987 32.0104 48.2902 32.0149 48.2817 32.0183C48.2902 32.0149 48.2987 32.0116 48.3072 32.0076C48.2947 32.0099 48.2805 32.0178 48.2681 32.0217C48.2415 32.0302 48.2148 32.0358 48.1882 32.0414C48.1469 32.0505 48.2358 32.0392 48.1899 32.0414C48.1786 32.042 48.1673 32.0431 48.1554 32.0437C48.1299 32.0448 48.1049 32.0443 48.0795 32.042C48.0704 32.0414 48.0614 32.0403 48.0517 32.0392C48.0614 32.0403 48.071 32.0414 48.0812 32.0431C48.0704 32.0386 48.0523 32.0381 48.0404 32.0352C48.0132 32.029 47.9871 32.0206 47.9611 32.0115C47.922 31.998 48.0007 32.0324 47.9611 32.0115C47.9509 32.0059 47.9407 32.0014 47.9305 31.9958C47.9186 31.989 47.9067 31.9822 47.8948 31.9749C47.8869 31.9698 47.854 31.9399 47.8772 31.9642C47.901 31.9884 47.8738 31.9608 47.8682 31.9557C47.858 31.9467 47.8489 31.9377 47.8393 31.9286C47.8297 31.919 47.8212 31.9095 47.8121 31.8999C47.8076 31.8948 47.8036 31.8897 47.7997 31.8846C47.7895 31.8722 47.794 31.8779 47.8127 31.9016C47.815 31.8965 47.7747 31.8429 47.7702 31.835C47.7645 31.8254 47.76 31.8158 47.7549 31.8057C47.7334 31.7622 47.7617 31.8265 47.7549 31.8079C47.747 31.7848 47.7385 31.7622 47.7322 31.7391C47.7288 31.7261 47.7255 31.7137 47.7232 31.7007C47.7198 31.6838 47.7209 31.6466 47.7226 31.7047C47.722 31.6782 47.7181 31.6522 47.7187 31.6257C47.7187 31.6144 47.7192 31.6037 47.7198 31.593C47.7232 31.5388 47.7124 31.633 47.7192 31.5902C47.7288 31.5321 47.7289 31.4796 47.6977 31.4272C47.6722 31.3832 47.6212 31.3414 47.5708 31.3301C47.4694 31.3053 47.329 31.3595 47.3097 31.4762Z" fill="black"/>
<path d="M44.1389 33.2261C44.1151 33.3773 44.1208 33.5296 44.1774 33.6735C44.2352 33.8201 44.3235 33.9459 44.4493 34.0429C44.7065 34.2409 45.0582 34.2618 45.3459 34.1191C45.4456 34.0694 45.4813 33.9211 45.4219 33.8297C45.3562 33.7282 45.2378 33.7011 45.1313 33.7536C45.1234 33.7575 45.1149 33.7614 45.1064 33.7654C45.1149 33.762 45.1233 33.7586 45.1318 33.7547C45.12 33.7569 45.1052 33.7648 45.0933 33.7682C45.0673 33.7767 45.0407 33.7818 45.0135 33.788C44.9721 33.797 45.061 33.7857 45.0157 33.7874C45.0044 33.788 44.9931 33.7891 44.9817 33.7897C44.9568 33.7908 44.9313 33.7902 44.9064 33.788C44.8973 33.7874 44.8883 33.7863 44.8792 33.7851C44.8889 33.7863 44.8991 33.7874 44.9087 33.7891C44.8979 33.7846 44.8798 33.784 44.8685 33.7812C44.8419 33.775 44.8158 33.7665 44.7897 33.7575C44.7506 33.744 44.8294 33.7789 44.7903 33.7575C44.7801 33.7524 44.7699 33.7473 44.7597 33.7417C44.7478 33.7349 44.7359 33.7282 44.7246 33.7208C44.7172 33.7163 44.6821 33.6864 44.7076 33.7101C44.7325 33.7338 44.7042 33.7067 44.6985 33.7017C44.6889 33.6932 44.6793 33.6842 44.6697 33.6746C44.66 33.665 44.6515 33.6554 44.643 33.6458C44.6385 33.6407 44.6345 33.6357 44.6306 33.6306C44.6204 33.6182 44.6249 33.6238 44.6436 33.6475C44.6459 33.6402 44.6062 33.5905 44.6011 33.5809C44.596 33.5714 44.5909 33.5618 44.5858 33.5516C44.5643 33.5082 44.5926 33.573 44.5858 33.5539C44.5779 33.5313 44.5694 33.5087 44.5632 33.485C44.5598 33.4726 44.5569 33.4597 44.5541 33.4467C44.5507 33.4298 44.5513 33.392 44.553 33.4512C44.5518 33.4247 44.5484 33.3993 44.5484 33.3728C44.5484 33.3621 44.549 33.3508 44.5496 33.3401C44.553 33.2859 44.5422 33.3807 44.549 33.3378C44.5581 33.2797 44.5586 33.2273 44.5275 33.1748C44.5014 33.1308 44.451 33.0891 44.4006 33.0778C44.2986 33.0552 44.1576 33.1094 44.1389 33.2261Z" fill="black"/>
<path d="M38.7545 42.0662C38.946 42.2151 39.1777 42.2974 39.4229 42.2828C39.6648 42.2687 39.8959 42.1767 40.0692 42.0064C40.1485 41.9285 40.1536 41.7841 40.0692 41.7074C39.9842 41.6296 39.8534 41.6245 39.769 41.7074C39.7543 41.7221 39.7379 41.7356 39.7226 41.7503C39.7039 41.7678 39.7588 41.7254 39.7271 41.7469C39.7197 41.752 39.7118 41.7576 39.7039 41.7627C39.6687 41.7858 39.6285 41.7999 39.594 41.8225C39.6331 41.7971 39.6161 41.8134 39.5991 41.8196C39.59 41.823 39.5815 41.8259 39.5724 41.8287C39.5526 41.8354 39.5322 41.8411 39.5118 41.8462C39.4898 41.8512 39.4643 41.8524 39.4433 41.8597C39.453 41.8563 39.4875 41.8552 39.4581 41.8574C39.4462 41.858 39.4348 41.8597 39.4229 41.8603C39.381 41.8625 39.3385 41.862 39.2966 41.858C39.2898 41.8574 39.2564 41.8535 39.2898 41.8574C39.3255 41.8614 39.2842 41.8557 39.2768 41.8546C39.2564 41.8507 39.236 41.8456 39.2156 41.84C39.1952 41.8343 39.1759 41.8275 39.1555 41.8208C39.1289 41.8123 39.1578 41.8208 39.1675 41.8264C39.1578 41.8208 39.1459 41.8168 39.1357 41.8118C39.117 41.8027 39.0984 41.7926 39.0808 41.7819C39.0661 41.7728 39.0077 41.7305 39.0547 41.7666C39.0083 41.7305 38.9664 41.7046 38.9046 41.7046C38.8525 41.7046 38.7902 41.7277 38.7545 41.7666C38.6849 41.8428 38.6611 41.9934 38.7545 42.0662Z" fill="black"/>
<path d="M37.4435 45.1928C37.5262 45.546 37.9318 45.7761 38.279 45.6729C38.3311 45.6577 38.3787 45.6227 38.4059 45.5759C38.4325 45.5307 38.4438 45.4636 38.4274 45.4128C38.3923 45.3057 38.2801 45.2312 38.1663 45.265C38.1442 45.2713 38.1227 45.2763 38.1 45.2792C38.1187 45.2769 38.1374 45.2741 38.1566 45.2718C38.1193 45.2763 38.0819 45.2758 38.0445 45.2707C38.0632 45.2735 38.0819 45.2758 38.1011 45.278C38.0587 45.2718 38.0173 45.26 37.9782 45.2436C37.9952 45.2509 38.0122 45.2577 38.0287 45.265C37.989 45.2476 37.9522 45.2261 37.9182 45.1996C37.9324 45.2109 37.9471 45.2216 37.9612 45.2329C37.9295 45.2081 37.9012 45.1799 37.8763 45.1477C37.8876 45.1618 37.8984 45.1765 37.9097 45.1906C37.887 45.1607 37.8683 45.1285 37.8536 45.0941C37.861 45.1111 37.8678 45.128 37.8752 45.1449C37.8667 45.124 37.8599 45.1026 37.8548 45.0806C37.8298 44.9728 37.6996 44.8984 37.5936 44.9328C37.4787 44.9689 37.4163 45.0772 37.4435 45.1928Z" fill="black"/>
<path d="M34.9731 48.1246C35.2394 48.5285 35.8579 48.6052 36.2057 48.2611C36.2844 48.1832 36.2901 48.0388 36.2057 47.9621C36.1207 47.8843 35.9893 47.8786 35.9055 47.9621C35.8975 47.97 35.8896 47.9774 35.8811 47.9847C35.8749 47.9903 35.8477 48.0118 35.8771 47.9892C35.9066 47.9666 35.8788 47.9875 35.872 47.992C35.863 47.9982 35.8539 48.0039 35.8443 48.0095C35.829 48.0185 35.8103 48.0247 35.7956 48.0343C35.8386 48.0067 35.8273 48.0219 35.8058 48.0293C35.7973 48.0321 35.7882 48.0349 35.7797 48.0377C35.7605 48.0439 35.7412 48.0484 35.7214 48.0524C35.7123 48.0541 35.7033 48.0552 35.6942 48.0575C35.6681 48.0625 35.7486 48.0524 35.7123 48.0546C35.671 48.0569 35.6313 48.0569 35.5905 48.0541C35.5543 48.0518 35.6342 48.062 35.6087 48.0569C35.5996 48.0552 35.5905 48.0541 35.5815 48.0518C35.5616 48.0479 35.5418 48.0428 35.5226 48.0371C35.5033 48.0315 35.4846 48.0225 35.4654 48.0168C35.4778 48.0202 35.5118 48.0383 35.4806 48.0225C35.4727 48.0185 35.4642 48.0146 35.4563 48.0101C35.4387 48.0005 35.4218 47.9898 35.4048 47.9785C35.3759 47.9599 35.4087 47.9796 35.4172 47.9886C35.4104 47.9813 35.3996 47.9745 35.3923 47.9678C35.3787 47.9554 35.3657 47.9424 35.3538 47.9288C35.339 47.9125 35.3351 47.8927 35.3594 47.9379C35.3543 47.9283 35.3464 47.9198 35.3407 47.9108C35.2801 47.8183 35.1498 47.7709 35.0502 47.8346C34.9567 47.8944 34.9074 48.0259 34.9731 48.1246Z" fill="black"/>
<path d="M42.4681 45.9872C42.5434 46.298 42.8204 46.5254 43.1359 46.5592C43.4355 46.5914 43.7567 46.4075 43.8807 46.1345C43.9266 46.034 43.913 45.9021 43.8048 45.8451C43.7119 45.796 43.5629 45.8135 43.5142 45.9212C43.5029 45.9455 43.4905 45.9692 43.4757 45.9923C43.4701 46.0013 43.4582 46.0132 43.4548 46.0222C43.4616 46.003 43.4769 45.9951 43.4553 46.0188C43.444 46.0312 43.4009 46.0594 43.3964 46.0741C43.3998 46.0611 43.4299 46.0498 43.3981 46.0718C43.3879 46.0786 43.3778 46.0854 43.367 46.0916C43.3562 46.0978 43.3455 46.1034 43.3347 46.1091C43.3041 46.1243 43.3194 46.1091 43.3386 46.1091C43.316 46.1096 43.2843 46.1283 43.2616 46.1333C43.2582 46.1345 43.2282 46.1435 43.2254 46.1407C43.2288 46.1446 43.2769 46.1361 43.231 46.139C43.2095 46.1407 43.1693 46.1311 43.15 46.1378C43.1648 46.1328 43.1942 46.1457 43.1568 46.1378C43.1449 46.1356 43.1336 46.1328 43.1217 46.1299C43.1098 46.1271 43.0985 46.1232 43.0872 46.1192C43.0532 46.1074 43.0798 46.1096 43.0911 46.122C43.077 46.1062 43.0402 46.0961 43.022 46.0842C43.0152 46.0797 42.996 46.0718 42.9926 46.0639C43.0147 46.0814 43.0192 46.0848 43.0073 46.0747C43.0033 46.0718 42.9999 46.0685 42.9965 46.0651C42.9767 46.0476 42.9586 46.0284 42.9404 46.0087C42.9144 45.9805 42.9563 46.0335 42.9427 46.012C42.9365 46.0019 42.9291 45.9923 42.9229 45.9822C42.911 45.963 42.9031 45.9359 42.8889 45.919C42.8997 45.9455 42.9025 45.9511 42.8969 45.9365C42.8946 45.9297 42.8917 45.9229 42.89 45.9162C42.8855 45.9026 42.8821 45.8885 42.8787 45.8744C42.8527 45.7667 42.7241 45.6922 42.6176 45.7266C42.5043 45.7633 42.4403 45.8722 42.4681 45.9872Z" fill="black"/>
<path d="M44.8048 41.9848C45.0121 42.0796 45.237 42.1033 45.4596 42.0486C45.6811 41.9944 45.864 41.8641 46.0011 41.6859C46.0323 41.6453 46.0351 41.5691 46.0226 41.5229C46.009 41.4738 45.9711 41.4208 45.9252 41.3965C45.8759 41.3706 45.8164 41.3576 45.7615 41.3751C45.7054 41.3931 45.6703 41.4258 45.6346 41.4721C45.6454 41.458 45.6612 41.4388 45.6403 41.4636C45.6346 41.4698 45.6289 41.476 45.6233 41.4822C45.6103 41.4958 45.5972 41.5093 45.5831 41.5217C45.5751 41.5285 45.5672 41.5353 45.5593 41.542C45.5463 41.5528 45.5236 41.5607 45.5678 41.5358C45.5514 41.5449 45.5366 41.5573 45.5208 41.5674C45.5049 41.5776 45.4885 41.5866 45.4715 41.5951C45.4624 41.6001 45.4528 41.6047 45.4432 41.6092C45.4364 41.612 45.4086 41.6244 45.4398 41.6114C45.4732 41.5973 45.4375 41.612 45.4301 41.6148C45.4222 41.6176 45.4143 41.6204 45.4063 41.6233C45.3865 41.63 45.3661 41.6357 45.3457 41.6408C45.3276 41.6453 45.3089 41.6492 45.2903 41.6526C45.2829 41.6537 45.2523 41.6582 45.2874 41.6532C45.3248 41.6481 45.2869 41.6526 45.2784 41.6537C45.241 41.6571 45.203 41.6571 45.1656 41.6549C45.1554 41.6543 45.1447 41.6526 45.1345 41.652C45.1084 41.6503 45.1906 41.6622 45.1475 41.6537C45.1288 41.6503 45.1107 41.647 45.0926 41.6424C45.0744 41.6379 45.0563 41.6329 45.0382 41.6267C45.0303 41.6238 45.0223 41.621 45.0144 41.6182C44.9714 41.603 45.0603 41.6391 45.0189 41.6199C44.9181 41.5736 44.7856 41.5877 44.7284 41.696C44.6791 41.7885 44.6972 41.9352 44.8048 41.9848Z" fill="black"/>
<path d="M49.9856 39.7224C50.2252 39.5453 50.4648 39.3676 50.7044 39.1905C50.7502 39.1566 50.7859 39.1211 50.8018 39.0641C50.8159 39.0133 50.8097 38.9462 50.7802 38.9011C50.7508 38.856 50.7072 38.8165 50.6534 38.8041C50.6012 38.7922 50.5344 38.7922 50.4897 38.8255C50.2501 39.0026 50.0105 39.1798 49.7709 39.3574C49.725 39.3913 49.6893 39.4268 49.6735 39.4838C49.6593 39.5346 49.6655 39.6017 49.695 39.6468C49.7244 39.6919 49.7675 39.7314 49.8219 39.7438C49.874 39.7557 49.9403 39.7557 49.9856 39.7224Z" fill="black"/>
<path d="M50.566 43.394C50.8764 43.7381 51.4729 43.7409 51.7929 43.4098C51.8699 43.3303 51.8784 43.1892 51.7929 43.1108C51.7096 43.0347 51.5748 43.0257 51.4927 43.1108C51.4785 43.1255 51.4638 43.1385 51.449 43.152C51.419 43.1796 51.4791 43.1323 51.4592 43.1447C51.4507 43.1498 51.4428 43.156 51.4349 43.1616C51.4185 43.1723 51.4009 43.1825 51.3834 43.1915C51.3743 43.196 51.3652 43.2 51.3567 43.2045C51.3341 43.2163 51.4037 43.1875 51.3686 43.1988C51.3301 43.2112 51.2922 43.222 51.2531 43.2299C51.2163 43.2377 51.2944 43.227 51.2678 43.2282C51.2576 43.2287 51.2474 43.2304 51.2378 43.231C51.2179 43.2327 51.1976 43.2327 51.1772 43.2327C51.1568 43.2321 51.1369 43.2304 51.1171 43.2293C51.0871 43.227 51.1318 43.2299 51.1375 43.2321C51.1279 43.2282 51.112 43.2276 51.1018 43.2259C51.082 43.222 51.0627 43.2169 51.0435 43.2107C51.0322 43.2073 50.9795 43.1864 51.0123 43.2011C51.0457 43.2157 51.0123 43.2011 51.005 43.1971C50.9959 43.1926 50.9874 43.1881 50.9783 43.1836C50.9608 43.174 50.9444 43.1633 50.9274 43.1526C50.8985 43.1345 50.9274 43.1492 50.9364 43.161C50.9308 43.1537 50.9206 43.1481 50.9138 43.1419C50.8974 43.1272 50.8821 43.1114 50.8673 43.095C50.7931 43.0127 50.6419 43.0138 50.5671 43.095C50.485 43.183 50.4867 43.3054 50.566 43.394Z" fill="black"/>
<path d="M47.777 46.0964C47.7572 46.238 47.7618 46.379 47.8167 46.5133C47.8688 46.6402 47.943 46.7558 48.0518 46.8416C48.1758 46.9391 48.3146 46.9939 48.4715 47.0119C48.6176 47.0288 48.757 46.9972 48.8901 46.9391C48.9354 46.9194 48.975 46.8579 48.9875 46.8128C49.0017 46.762 48.9949 46.6949 48.966 46.6498C48.9365 46.6046 48.8935 46.5646 48.8391 46.5527C48.7796 46.5392 48.7303 46.5499 48.6754 46.5742C48.7383 46.5465 48.6646 46.5764 48.6454 46.5815C48.6335 46.5849 48.6216 46.5877 48.6097 46.59C48.6012 46.5917 48.5638 46.5973 48.6018 46.5922C48.6414 46.5871 48.5955 46.5922 48.5876 46.5928C48.5774 46.5934 48.5672 46.5939 48.557 46.5939C48.5321 46.5939 48.5083 46.5911 48.4834 46.59C48.544 46.5922 48.5095 46.5934 48.4913 46.59C48.4794 46.5877 48.4675 46.5849 48.4556 46.5821C48.4341 46.5764 48.4126 46.5685 48.3916 46.5612C48.3673 46.5527 48.4358 46.5832 48.403 46.5657C48.3922 46.5601 48.3809 46.555 48.3707 46.5488C48.3599 46.5426 48.3497 46.5364 48.3389 46.5296C48.3202 46.5172 48.3106 46.4986 48.3424 46.5341C48.3282 46.5183 48.3084 46.5054 48.2931 46.4901C48.2846 46.4817 48.2767 46.4726 48.2687 46.4636C48.2461 46.4371 48.2698 46.4608 48.2755 46.4738C48.267 46.4535 48.2472 46.4337 48.2358 46.414C48.2302 46.4038 48.2245 46.3931 48.2189 46.3824C48.2172 46.379 48.2155 46.3751 48.2138 46.3717C48.2047 46.3514 48.207 46.357 48.2211 46.3892C48.2183 46.3688 48.2058 46.3468 48.2002 46.3265C48.1945 46.3057 48.1934 46.2825 48.1866 46.2622C48.203 46.3107 48.1906 46.2944 48.1889 46.2707C48.1883 46.2589 48.1877 46.247 48.1877 46.2352C48.1877 46.216 48.1962 46.1359 48.186 46.2081C48.1945 46.1494 48.1962 46.0986 48.1645 46.0451C48.1384 46.0011 48.088 45.9593 48.0376 45.948C47.9832 45.9356 47.9221 45.9385 47.8739 45.9695C47.832 45.9977 47.7844 46.0434 47.777 46.0964Z" fill="black"/>
<path d="M20.4089 48.3505C20.4526 48.4069 20.4894 48.447 20.55 48.487C20.5914 48.5147 20.6401 48.535 20.6882 48.5474C20.7369 48.5604 20.7896 48.5677 20.84 48.5643C20.9136 48.5598 20.9703 48.544 21.0371 48.5141C21.1255 48.4741 21.2053 48.3928 21.2484 48.3071C21.3039 48.1965 21.3198 48.0826 21.2954 47.9613C21.2852 47.9111 21.241 47.8598 21.198 47.835C21.1527 47.8085 21.0853 47.7972 21.0343 47.8135C20.9827 47.8299 20.9335 47.862 20.9074 47.9105C20.8796 47.963 20.874 48.0155 20.8859 48.0736C20.887 48.0803 20.8882 48.0871 20.8893 48.0939C20.8865 48.0753 20.8842 48.0567 20.8819 48.0375C20.8848 48.0606 20.8848 48.0826 20.8819 48.1057C20.8848 48.0871 20.887 48.0679 20.8893 48.0493C20.8853 48.077 20.8779 48.1029 20.8678 48.1283C20.8751 48.1114 20.8819 48.0944 20.8893 48.0775C20.8791 48.1006 20.8661 48.1221 20.8508 48.1424C20.8621 48.1283 20.8728 48.1136 20.8842 48.0995C20.87 48.1176 20.8542 48.1334 20.836 48.148C20.8502 48.1368 20.8649 48.126 20.8791 48.1147C20.861 48.1288 20.8411 48.1401 20.8202 48.1497C20.8372 48.1424 20.8542 48.1356 20.8712 48.1283C20.8496 48.1367 20.8281 48.143 20.8049 48.1463C20.8236 48.1441 20.8423 48.1413 20.8615 48.139C20.836 48.1424 20.8111 48.1424 20.7862 48.1396C20.8049 48.1424 20.8236 48.1446 20.8428 48.1469C20.8151 48.143 20.789 48.1362 20.763 48.126C20.78 48.1334 20.797 48.1401 20.814 48.1475C20.7907 48.1373 20.7692 48.1249 20.7488 48.1097C20.763 48.121 20.7777 48.1317 20.7919 48.143C20.7754 48.13 20.7613 48.1159 20.7477 48.1001C20.759 48.1142 20.7698 48.1289 20.7811 48.143C20.78 48.1413 20.7783 48.139 20.7771 48.1373C20.7635 48.1125 20.7454 48.0928 20.7222 48.0781C20.7018 48.0595 20.6774 48.0465 20.6497 48.0403C20.5987 48.0262 20.5313 48.0324 20.486 48.0617C20.4407 48.0911 20.4004 48.1345 20.3886 48.1881C20.3761 48.2388 20.375 48.3065 20.4089 48.3505Z" fill="black"/>
<path d="M17.9526 45.2234C18.1112 45.4863 18.4574 45.6042 18.7423 45.4846C19.0272 45.365 19.1841 45.0361 19.1053 44.7394C19.077 44.6323 18.9524 44.5567 18.8442 44.5916C18.7338 44.6272 18.6652 44.7372 18.6958 44.8517C18.7003 44.8686 18.7037 44.885 18.706 44.9025C18.7037 44.8838 18.7009 44.8652 18.6986 44.846C18.7026 44.8805 18.7026 44.9143 18.6992 44.9487C18.702 44.9301 18.7043 44.9115 18.7065 44.8923C18.7037 44.9126 18.6998 44.9329 18.6947 44.9527C18.6918 44.9628 18.689 44.9724 18.6856 44.982C18.6833 44.9882 18.6811 44.995 18.6782 45.0012C18.6828 44.9905 18.6873 44.9803 18.6913 44.9696C18.6901 44.9854 18.6697 45.0113 18.6618 45.0243C18.6561 45.0328 18.6493 45.0412 18.6443 45.0497C18.6731 44.9978 18.6624 45.0271 18.6482 45.0429C18.6414 45.0502 18.6341 45.0576 18.6267 45.0649C18.6205 45.0706 18.5893 45.0954 18.621 45.0717C18.6522 45.048 18.6205 45.0717 18.6131 45.0762C18.6046 45.0818 18.5955 45.0869 18.5865 45.092C18.5786 45.0959 18.5423 45.1123 18.5791 45.0971C18.6159 45.0818 18.5785 45.0965 18.5706 45.0988C18.5491 45.1055 18.5276 45.11 18.5049 45.1129C18.5236 45.1106 18.5429 45.1078 18.5616 45.1055C18.5236 45.11 18.4862 45.1095 18.4483 45.105C18.467 45.1078 18.4862 45.1106 18.5049 45.1129C18.476 45.1083 18.4472 45.1016 18.4194 45.092C18.3775 45.0773 18.4619 45.1129 18.4222 45.0937C18.4081 45.0869 18.3945 45.0796 18.3814 45.0711C18.3758 45.0677 18.3701 45.0638 18.3639 45.0598C18.3395 45.0446 18.3803 45.0706 18.382 45.0745C18.3786 45.0655 18.3582 45.0542 18.3508 45.0474C18.3423 45.0395 18.3095 45 18.3333 45.0305C18.3571 45.0615 18.3259 45.0181 18.3208 45.0096C18.2636 44.9149 18.1277 44.8714 18.0303 44.9335C17.9334 44.9955 17.8915 45.1219 17.9526 45.2234Z" fill="black"/>
<path d="M16.5005 42.2496C16.547 42.3675 16.6138 42.4718 16.7146 42.5508C16.8138 42.6287 16.927 42.6879 17.0516 42.7133C17.302 42.7646 17.5694 42.711 17.7535 42.5266C17.8316 42.4482 17.8384 42.3049 17.7535 42.2276C17.6691 42.1503 17.5365 42.1435 17.4533 42.2276C17.4459 42.2349 17.4385 42.2423 17.4306 42.249C17.4028 42.2739 17.4255 42.2507 17.4419 42.2417C17.4244 42.2513 17.4079 42.2648 17.3904 42.275C17.3813 42.2801 17.3722 42.284 17.3632 42.2891C17.3286 42.3071 17.4136 42.271 17.3762 42.2834C17.357 42.2902 17.3377 42.2964 17.3179 42.3015C17.2947 42.3071 17.2289 42.3094 17.3037 42.3066C17.2833 42.3071 17.2629 42.3105 17.242 42.3105C17.221 42.3111 17.2006 42.31 17.1797 42.3083C17.1604 42.3066 17.1332 42.2959 17.1949 42.3111C17.1848 42.3088 17.1746 42.3077 17.1644 42.3054C17.144 42.3015 17.1242 42.2959 17.1038 42.2902C17.0936 42.2868 17.084 42.284 17.0743 42.2801C17.0573 42.2739 17.0313 42.2552 17.0868 42.2857C17.0517 42.266 17.0154 42.2423 16.9797 42.2242C16.995 42.2315 17.0194 42.2564 16.9905 42.2321C16.9826 42.2253 16.9752 42.2186 16.9678 42.2118C16.9542 42.1988 16.9429 42.1842 16.9299 42.1712C16.9152 42.1565 16.9616 42.2186 16.9384 42.1819C16.9327 42.1734 16.927 42.165 16.9219 42.1565C16.9117 42.1396 16.8817 42.0674 16.9095 42.1373C16.8885 42.0843 16.863 42.0409 16.8121 42.011C16.7668 41.9845 16.6993 41.9732 16.6484 41.9896C16.5492 42.0217 16.4569 42.1396 16.5005 42.2496Z" fill="black"/>
<path d="M10.5321 42.0876C10.5123 42.3369 10.6703 42.5682 10.8765 42.6946C11.0861 42.8237 11.3642 42.8469 11.5795 42.7177C11.6746 42.6602 11.7182 42.5253 11.6559 42.4283C11.5942 42.333 11.4673 42.2912 11.3654 42.3527C11.354 42.3595 11.3427 42.3651 11.3308 42.3713C11.3234 42.3753 11.3008 42.3843 11.3364 42.3697C11.3744 42.3539 11.3455 42.3657 11.3381 42.368C11.3144 42.3764 11.2894 42.3815 11.264 42.3854C11.2826 42.3826 11.3019 42.3804 11.3206 42.3781C11.2781 42.3838 11.2362 42.3832 11.1937 42.3775C11.2124 42.3804 11.2311 42.3826 11.2504 42.3849C11.2249 42.3809 11.2 42.3759 11.175 42.3685C11.1626 42.3646 11.1507 42.3601 11.1382 42.3561C11.1303 42.3533 11.1082 42.3437 11.1433 42.3589C11.1801 42.3742 11.1535 42.3629 11.145 42.3589C11.1212 42.3477 11.0985 42.3347 11.077 42.3206C11.068 42.3149 11.03 42.2862 11.0634 42.3116C11.0969 42.3375 11.0589 42.307 11.0515 42.3003C11.0334 42.2839 11.017 42.2659 11.0005 42.2478C10.9773 42.2213 11.0147 42.2625 11.0153 42.267C11.0153 42.2636 11.0073 42.2563 11.0051 42.2534C10.9977 42.2427 10.9909 42.232 10.9847 42.2213C10.9785 42.2106 10.9728 42.1987 10.9672 42.1875C10.9524 42.1592 10.9847 42.2337 10.9768 42.2111C10.9751 42.2061 10.9728 42.2004 10.9711 42.1953C10.9626 42.17 10.9564 42.144 10.9524 42.1175C10.9553 42.1361 10.9575 42.1547 10.9598 42.1739C10.9564 42.1451 10.9558 42.1169 10.9581 42.0882C10.9672 41.9776 10.8539 41.8716 10.7457 41.8766C10.6216 41.8817 10.5418 41.9692 10.5321 42.0876Z" fill="black"/>
<path d="M12.6648 45.9104C12.756 45.9076 12.8472 45.9048 12.9384 45.9019C13.008 45.8997 13.0902 45.8647 13.1219 45.797C13.1819 45.6684 13.242 45.5392 13.302 45.4106C13.3264 45.3576 13.3394 45.3057 13.3235 45.2476C13.3099 45.1985 13.272 45.1455 13.2261 45.1212C13.1768 45.0953 13.1168 45.0823 13.0624 45.0998C13.0126 45.1156 12.9582 45.1477 12.9355 45.1968C12.8755 45.3254 12.8155 45.4546 12.7554 45.5832C12.8166 45.5482 12.8778 45.5133 12.9389 45.4783C12.8477 45.4811 12.7566 45.4839 12.6654 45.4868C12.6098 45.4885 12.5549 45.5093 12.5152 45.5488C12.4784 45.5855 12.4507 45.6458 12.4529 45.6983C12.4552 45.753 12.4733 45.81 12.5152 45.8478C12.5555 45.8861 12.6076 45.9126 12.6648 45.9104Z" fill="black"/>
<path d="M14.2659 47.8301C14.322 47.8786 14.3718 47.9074 14.4392 47.935C14.4868 47.9542 14.5344 47.961 14.5854 47.9666C14.6703 47.9762 14.7621 47.9621 14.8419 47.9316C14.9371 47.895 15.0283 47.8436 15.0951 47.7652C15.1269 47.728 15.1574 47.6885 15.1784 47.644C15.2101 47.5757 15.2231 47.521 15.2316 47.4465C15.2373 47.3963 15.2039 47.3315 15.1693 47.297C15.1325 47.2604 15.0719 47.2327 15.0192 47.235C14.9643 47.2372 14.9071 47.2553 14.8692 47.297C14.8289 47.341 14.8136 47.3879 14.8068 47.4465C14.8068 47.4488 14.8063 47.451 14.8063 47.4533C14.8091 47.4347 14.8114 47.4161 14.8136 47.3969C14.8102 47.424 14.8029 47.4493 14.7927 47.4747C14.8 47.4578 14.8068 47.4409 14.8142 47.424C14.8029 47.4505 14.7882 47.4747 14.77 47.4979C14.7814 47.4838 14.7921 47.4691 14.8034 47.455C14.7836 47.4798 14.7615 47.5012 14.7366 47.5204C14.7508 47.5091 14.7655 47.4984 14.7796 47.4871C14.7502 47.5091 14.719 47.5272 14.6851 47.5413C14.7021 47.534 14.719 47.5272 14.736 47.5199C14.702 47.5334 14.6669 47.5435 14.6307 47.5486C14.6494 47.5458 14.668 47.5435 14.6873 47.5413C14.6516 47.5458 14.6154 47.5464 14.5797 47.5419C14.5984 47.5441 14.6177 47.5469 14.6363 47.5492C14.6075 47.5447 14.5803 47.5373 14.5531 47.5261C14.5701 47.5334 14.5871 47.5402 14.6041 47.5475C14.5814 47.5373 14.5604 47.5249 14.5406 47.5103C14.5548 47.5215 14.5695 47.5323 14.5837 47.5435C14.578 47.5396 14.5729 47.5351 14.5678 47.5306C14.5247 47.4933 14.4761 47.4685 14.4177 47.4685C14.3656 47.4685 14.3033 47.4917 14.2676 47.5306C14.1923 47.6107 14.1764 47.7528 14.2659 47.8301Z" fill="black"/>
<path d="M5.83633 38.7292C5.65734 38.9227 5.60354 39.1895 5.66188 39.4428C5.72079 39.6972 5.89806 39.9003 6.14049 39.9951C6.24415 40.0357 6.37839 39.9505 6.40161 39.8473C6.42937 39.726 6.36425 39.6307 6.25323 39.5872C6.21585 39.5726 6.29682 39.6092 6.26454 39.5917C6.25491 39.5867 6.24529 39.5821 6.23622 39.5765C6.22716 39.5714 6.21811 39.5658 6.20905 39.5596C6.19262 39.5489 6.17732 39.528 6.21811 39.568C6.20281 39.5534 6.18582 39.5404 6.17109 39.5257C6.16486 39.5195 6.1592 39.5128 6.15297 39.5066C6.14731 39.5004 6.12181 39.4688 6.14616 39.4992C6.16995 39.5297 6.14561 39.4975 6.14108 39.4908C6.13485 39.4817 6.12917 39.4733 6.12407 39.4637C6.11388 39.4468 6.10481 39.4298 6.09631 39.4118C6.07988 39.3779 6.09688 39.4045 6.10084 39.4231C6.09914 39.4135 6.09293 39.4022 6.08954 39.3926C6.08274 39.3723 6.0765 39.3514 6.07197 39.3306C6.06971 39.3198 6.06745 39.3097 6.06575 39.299C6.06235 39.2798 6.06688 39.2488 6.06744 39.3125C6.06744 39.2928 6.06403 39.273 6.06347 39.2538C6.0629 39.2341 6.06346 39.2144 6.06516 39.1952C6.06799 39.1568 6.06742 39.1912 6.06233 39.2093C6.06516 39.1991 6.06573 39.1884 6.068 39.1777C6.07253 39.1568 6.07762 39.1365 6.08442 39.1168C6.08782 39.1072 6.09237 39.097 6.0952 39.0869C6.07934 39.1422 6.08217 39.1168 6.09123 39.0987C6.10086 39.0795 6.11162 39.0615 6.12352 39.044C6.12805 39.0367 6.14786 39.0096 6.12577 39.0395C6.10198 39.0716 6.13144 39.0344 6.13711 39.0282C6.21244 38.947 6.22377 38.8088 6.13711 38.7292C6.05441 38.6542 5.91676 38.6424 5.83633 38.7292Z" fill="black"/>
<path d="M5.1423 44.2098C5.24539 44.3915 5.47761 44.4879 5.67982 44.4298C5.79141 44.3977 5.88092 44.3243 5.94492 44.2296C5.97154 44.1906 5.99078 44.1444 6.00324 44.0993C6.01627 44.0519 6.02364 43.9988 6.01797 43.9492C6.01174 43.8917 5.99815 43.842 5.95567 43.7997C5.91886 43.7631 5.85824 43.7354 5.80556 43.7377C5.75062 43.7399 5.69344 43.758 5.65549 43.7997C5.6198 43.8386 5.58749 43.8945 5.59315 43.9492C5.59542 43.9695 5.59487 43.9893 5.5926 44.0096C5.59487 43.9909 5.5977 43.9723 5.59996 43.9532C5.59657 43.9757 5.59034 43.9972 5.58185 44.018C5.58921 44.0011 5.59599 43.9842 5.60335 43.9673C5.59316 43.9904 5.58072 44.0113 5.56543 44.031C5.57676 44.0169 5.58749 44.0022 5.59882 43.9881C5.58466 44.0056 5.56826 44.0214 5.5507 44.0355C5.56486 44.0248 5.57958 44.0135 5.59374 44.0022C5.57731 44.0141 5.55975 44.0242 5.54105 44.0327C5.55805 44.0254 5.57505 44.0186 5.59205 44.0113C5.57336 44.0186 5.55466 44.0237 5.53483 44.0271C5.55352 44.0248 5.5722 44.022 5.59146 44.0197C5.56767 44.0231 5.54389 44.0225 5.5201 44.0197C5.5388 44.0225 5.55804 44.0248 5.57673 44.0271C5.55294 44.0231 5.52971 44.0169 5.50762 44.0079C5.52462 44.0152 5.54162 44.022 5.55862 44.0293C5.53653 44.0197 5.51613 44.0073 5.49687 43.9926C5.51103 44.0039 5.52575 44.0146 5.53991 44.0259C5.52462 44.0135 5.51103 44 5.49857 43.9847C5.50989 43.9988 5.52067 44.0135 5.532 44.0276C5.52407 44.0175 5.51669 44.0067 5.51046 43.9949C5.4844 43.9492 5.43399 43.9114 5.38358 43.8979C5.3326 43.8838 5.2652 43.89 5.21988 43.9193C5.12076 43.9836 5.08396 44.1066 5.1423 44.2098Z" fill="black"/>
<path d="M7.49617 46.9767C7.69839 47.1307 8.02294 47.1329 8.22799 46.9823C8.34411 46.8971 8.42511 46.7871 8.47099 46.6512C8.51121 46.5322 8.51235 46.394 8.47497 46.2744C8.44212 46.1689 8.32543 46.0905 8.21385 46.1266C8.10736 46.161 8.03031 46.2738 8.06543 46.3866C8.07223 46.4081 8.07676 46.4289 8.08016 46.4509C8.07789 46.4323 8.07506 46.4137 8.0728 46.3945C8.07789 46.4323 8.0779 46.4696 8.07394 46.5073C8.0762 46.4887 8.07903 46.4701 8.0813 46.4509C8.07564 46.4921 8.06542 46.531 8.04956 46.5694C8.05693 46.5525 8.06374 46.5356 8.0711 46.5186C8.05581 46.5536 8.03713 46.5858 8.01447 46.6162C8.02524 46.6021 8.03654 46.5874 8.04787 46.5733C8.02635 46.601 8.00201 46.6252 7.97482 46.6467C7.98898 46.6354 8.0037 46.6247 8.01786 46.6134C7.99181 46.6331 7.96405 46.6495 7.93403 46.6625C7.95102 46.6551 7.968 46.6484 7.98443 46.641C7.94818 46.6563 7.91081 46.6664 7.87173 46.6721C7.89042 46.6698 7.9091 46.667 7.92836 46.6647C7.88927 46.6698 7.85018 46.6698 7.81053 46.6653C7.82923 46.6681 7.84794 46.6704 7.8672 46.6726C7.82811 46.667 7.79017 46.6574 7.75335 46.6427C7.77035 46.6501 7.78732 46.6568 7.80431 46.6642C7.77089 46.6501 7.74031 46.632 7.71142 46.61C7.67064 46.579 7.59473 46.5756 7.54772 46.5886C7.49844 46.6021 7.4452 46.6399 7.42084 46.6856C7.39479 46.7347 7.38178 46.7939 7.39934 46.8486C7.41633 46.9062 7.44973 46.9411 7.49617 46.9767Z" fill="black"/>
<path d="M4.85321 27.2883C4.99991 27.4761 5.25593 27.5703 5.49043 27.5624C5.75155 27.554 5.98778 27.4361 6.13845 27.2223C6.20245 27.1315 6.1577 26.9831 6.06197 26.9329C5.95322 26.8754 5.83993 26.9121 5.7714 27.0091C5.74647 27.0441 5.80537 26.9713 5.77648 27.0029C5.77025 27.0102 5.76402 27.0175 5.75722 27.0243C5.7425 27.0395 5.72721 27.0531 5.71135 27.0672C5.68019 27.0948 5.75327 27.0395 5.71816 27.0615C5.71023 27.0666 5.7023 27.0723 5.69437 27.0773C5.67625 27.0886 5.65753 27.0976 5.6394 27.1072C5.60258 27.127 5.68756 27.0897 5.64791 27.1038C5.63884 27.1072 5.6298 27.1106 5.62073 27.1134C5.60091 27.1202 5.5805 27.1258 5.55954 27.1304C5.54991 27.1326 5.54086 27.1343 5.53123 27.136C5.48478 27.1456 5.56407 27.1337 5.54198 27.1349C5.52102 27.136 5.4995 27.1388 5.47854 27.1388C5.45928 27.1394 5.44003 27.1388 5.42077 27.1371C5.40944 27.136 5.39756 27.1343 5.38623 27.1337C5.44797 27.136 5.41511 27.1377 5.39698 27.1343C5.37829 27.1304 5.3596 27.1258 5.34091 27.1208C5.33015 27.1174 5.31883 27.114 5.30807 27.11C5.28994 27.1038 5.26727 27.0841 5.31598 27.1146C5.28256 27.0937 5.24576 27.0768 5.21234 27.0548C5.19138 27.0407 5.24972 27.0875 5.22423 27.0632C5.21573 27.0553 5.20723 27.048 5.1993 27.0401C5.18288 27.0237 5.16759 27.0063 5.15343 26.9882C5.12227 26.9487 5.0509 26.9262 5.00332 26.9262C4.95121 26.9262 4.88889 26.9493 4.85321 26.9882C4.76768 27.0818 4.78014 27.1947 4.85321 27.2883Z" fill="black"/>
<path d="M6.31537 30.2024C6.46038 30.3028 6.66373 30.3208 6.8297 30.2672C6.92259 30.2373 7.00302 30.1916 7.07609 30.1279C7.15086 30.063 7.19956 29.9784 7.23412 29.887C7.25224 29.8385 7.23807 29.7675 7.21258 29.724C7.18709 29.68 7.13611 29.6383 7.0857 29.627C7.03132 29.6146 6.97015 29.6174 6.922 29.6484C6.87329 29.68 6.84497 29.7206 6.82458 29.7748C6.82288 29.7793 6.8212 29.7838 6.8195 29.7883C6.82686 29.7714 6.83364 29.7545 6.841 29.7376C6.82854 29.7669 6.81269 29.794 6.79343 29.8188C6.80476 29.8047 6.81553 29.7906 6.82686 29.7759C6.80704 29.8007 6.78492 29.8227 6.76 29.8419C6.77416 29.8306 6.78891 29.8199 6.80308 29.8086C6.77192 29.8323 6.73793 29.8521 6.70168 29.8673C6.71867 29.86 6.73564 29.8532 6.75264 29.8459C6.71582 29.8605 6.67787 29.8707 6.63879 29.8763C6.65748 29.8741 6.67676 29.8712 6.69545 29.869C6.65864 29.8735 6.62235 29.8735 6.5861 29.8696C6.6048 29.8718 6.62407 29.8746 6.64277 29.8769C6.60878 29.8724 6.57648 29.8639 6.54476 29.8504C6.56175 29.8577 6.57876 29.8645 6.59575 29.8718C6.57309 29.8617 6.55215 29.8504 6.53176 29.8363C6.48871 29.8064 6.41734 29.8013 6.36806 29.8148C6.31878 29.8284 6.26554 29.8662 6.24118 29.9119C6.21513 29.9609 6.20208 30.0202 6.21964 30.0749C6.23607 30.1307 6.26836 30.1696 6.31537 30.2024Z" fill="black"/>
<path d="M8.07247 32.3164C8.46896 32.3452 8.87455 32.0349 8.94139 31.6429C8.95102 31.5854 8.95044 31.5318 8.91985 31.4799C8.8938 31.4359 8.84339 31.3941 8.79298 31.3829C8.7386 31.3704 8.67743 31.3733 8.62928 31.4043C8.58566 31.4325 8.54092 31.4776 8.53186 31.5306C8.52449 31.5741 8.51258 31.6158 8.49559 31.6564C8.50295 31.6395 8.50977 31.6226 8.51713 31.6057C8.49617 31.6547 8.46955 31.7004 8.43727 31.7427C8.4486 31.7286 8.45934 31.714 8.47066 31.6999C8.43385 31.7473 8.39139 31.789 8.34437 31.8257C8.35853 31.8144 8.37325 31.8037 8.38742 31.7924C8.3421 31.8262 8.29339 31.8544 8.24128 31.877C8.25827 31.8697 8.27525 31.8629 8.29224 31.8556C8.24296 31.8759 8.19198 31.89 8.13874 31.8979C8.15743 31.895 8.17615 31.8928 8.1954 31.8905C8.15462 31.8956 8.11439 31.8967 8.07361 31.8939C7.96259 31.886 7.8561 31.9971 7.8612 32.1054C7.86573 32.2267 7.95352 32.308 8.07247 32.3164Z" fill="black"/>
<path d="M11.4715 33.9303C11.681 33.941 11.8951 33.8411 12.0334 33.6866C12.1093 33.602 12.1648 33.5089 12.2022 33.4011C12.2407 33.29 12.2412 33.1755 12.2231 33.0604C12.2158 33.0114 12.1665 32.9578 12.1257 32.9341C12.0804 32.9076 12.013 32.8963 11.962 32.9126C11.9105 32.929 11.8612 32.9612 11.8351 33.0097C11.8278 33.0266 11.8209 33.0435 11.8136 33.0604C11.8034 33.0977 11.8034 33.1355 11.8136 33.1727C11.8141 33.1755 11.8147 33.1783 11.8147 33.1812C11.8125 33.1625 11.8096 33.1434 11.8074 33.1247C11.813 33.1659 11.813 33.2071 11.8079 33.2483C11.8102 33.2297 11.813 33.2111 11.8153 33.1919C11.8091 33.2359 11.7972 33.2776 11.7807 33.3188C11.7881 33.3019 11.7949 33.2849 11.8023 33.268C11.7824 33.3143 11.7575 33.3571 11.7269 33.3972C11.7383 33.3831 11.749 33.3684 11.7603 33.3543C11.7292 33.3938 11.6941 33.4294 11.6539 33.4604C11.668 33.4491 11.6827 33.4384 11.6969 33.4271C11.6589 33.4553 11.6188 33.4796 11.5751 33.4982C11.5921 33.4908 11.6091 33.4841 11.6261 33.4767C11.5853 33.4937 11.5428 33.5049 11.4987 33.5111C11.5174 33.5083 11.536 33.5061 11.5553 33.5038C11.5275 33.5072 11.4998 33.5078 11.472 33.5066C11.361 33.501 11.2545 33.6082 11.2596 33.7182C11.2647 33.8383 11.3525 33.9241 11.4715 33.9303Z" fill="black"/>
<path d="M16.8081 12.4612C16.7401 11.8841 17.0607 11.3821 17.4963 11.0273C17.997 10.6183 18.6456 10.4451 19.2539 10.2629C20.3177 9.94423 21.5864 9.4563 21.8736 8.25028C21.9365 7.98573 21.527 7.87235 21.4641 8.13803C21.2454 9.0558 20.2933 9.49409 19.4714 9.75413C18.5351 10.0503 17.507 10.2765 16.8528 11.0696C16.5294 11.4616 16.3227 11.9479 16.3833 12.4617C16.415 12.7286 16.8398 12.7314 16.8081 12.4612Z" fill="black"/>
<path d="M35.4404 5.01596C35.3933 5.65507 35.5571 6.30151 35.8884 6.8498C36.2385 7.42855 36.7522 7.83638 37.3605 8.12125C37.9638 8.40329 38.5676 8.63344 39.0321 9.12927C39.4201 9.54387 39.6851 10.0645 39.8166 10.6139C39.9672 11.2457 39.9236 11.9051 39.6795 12.507C39.577 12.7592 39.9876 12.8692 40.089 12.6193C40.5285 11.5362 40.3444 10.2479 39.6953 9.28552C39.3526 8.77784 38.8927 8.37791 38.3433 8.10489C37.7027 7.78618 37.0246 7.57183 36.5369 7.02072C36.0521 6.47299 35.8119 5.74081 35.8652 5.01483C35.885 4.74463 35.4602 4.74576 35.4404 5.01596Z" fill="black"/>
<path d="M11.1594 11.2541C10.1727 11.6259 9.5196 12.5436 9.27037 13.5415C9.10837 14.1885 9.09706 14.8637 9.1503 15.5254C9.19562 16.0912 9.2534 16.6778 9.40237 17.2278C9.5434 17.749 9.80792 18.2595 10.3081 18.515C10.5511 18.6391 10.7657 18.2742 10.5222 18.1495C10.1415 17.9549 9.94726 17.5815 9.83171 17.186C9.6935 16.7145 9.64082 16.2141 9.59324 15.7273C9.48958 14.6702 9.52469 13.5511 10.12 12.6316C10.397 12.204 10.7901 11.8442 11.2721 11.662C11.5253 11.5666 11.4154 11.1577 11.1594 11.2541Z" fill="black"/>
<path d="M12.4241 20.7595C12.2151 21.4731 12.334 22.2831 12.7724 22.8901C13.2012 23.4829 13.8617 23.8519 14.5895 23.9252C14.7045 23.937 14.8008 23.8197 14.8019 23.7137C14.8031 23.5896 14.7034 23.5134 14.5895 23.5021C14.0084 23.4435 13.4459 23.1202 13.1134 22.6402C12.7566 22.1246 12.658 21.4714 12.8336 20.8718C12.9101 20.6101 12.5006 20.4984 12.4241 20.7595Z" fill="black"/>
<path d="M15.1581 18.4631C16.8517 19.519 17.8107 21.5509 17.579 23.5218C17.5473 23.7914 17.9727 23.7892 18.0038 23.5218C18.2525 21.4042 17.1831 19.2263 15.3728 18.0975C15.14 17.9526 14.9264 18.3187 15.1581 18.4631Z" fill="black"/>
<path d="M40.8839 17.8871C40.0875 18.476 39.4672 19.2624 39.0832 20.1734C38.8912 20.628 38.7632 21.1024 38.7009 21.5915C38.6437 22.0382 38.5791 22.6012 38.9354 22.9464C39.1313 23.1365 39.4321 22.8375 39.2356 22.6474C39.0832 22.4997 39.0809 22.2797 39.086 22.0805C39.0917 21.873 39.1115 21.6648 39.1466 21.4595C39.218 21.0398 39.3403 20.6252 39.5154 20.2371C39.8666 19.4581 40.4086 18.7632 41.0985 18.2532C41.3149 18.0919 41.1036 17.7247 40.8839 17.8871Z" fill="black"/>
<path d="M45.0073 11.7357C45.8802 12.4397 46.5067 13.4133 46.7627 14.5048C47.0385 15.6815 46.8528 16.9434 46.2756 18.0027C46.1453 18.2419 46.5118 18.4557 46.6426 18.2165C47.5987 16.4622 47.5183 14.2803 46.3945 12.6208C46.0926 12.1746 45.7278 11.7752 45.3087 11.4368C45.0974 11.267 44.7949 11.5643 45.0073 11.7357Z" fill="black"/>
<path d="M43.4376 20.9232C43.488 21.9746 42.8184 23.0193 41.8192 23.3849C41.5649 23.4779 41.6748 23.8869 41.932 23.7927C43.1039 23.3634 43.9224 22.1721 43.8624 20.9232C43.8499 20.6524 43.4245 20.6507 43.4376 20.9232Z" fill="black"/>
<path d="M39.1293 14.7537C40.0543 15.135 41.1232 15.1079 42.0283 14.6821C42.8388 14.3007 43.4642 13.612 43.8074 12.7929C43.8522 12.6869 43.7593 12.5617 43.659 12.5329C43.5372 12.4979 43.4415 12.5758 43.3979 12.6807C43.0971 13.3988 42.5182 13.986 41.8136 14.3171C41.007 14.6962 40.0583 14.6821 39.2421 14.3459C38.99 14.2415 38.8795 14.6505 39.1293 14.7537Z" fill="black"/>
<path d="M12.1908 12.6231C13.0206 13.3936 13.8946 14.2002 14.9946 14.5601C15.9666 14.8783 17.0927 14.8027 17.8975 14.1314C18.1071 13.9566 17.8058 13.6587 17.5973 13.8325C16.8819 14.4287 15.8448 14.4202 15.006 14.1173C14.0255 13.7636 13.2399 13.019 12.491 12.3235C12.2911 12.1385 11.9903 12.4369 12.1908 12.6231Z" fill="black"/>
<path d="M21.1967 24.7831C24.6898 23.2245 28.7041 22.8849 32.4226 23.7683C33.4666 24.0159 34.4873 24.3589 35.4655 24.7977C35.7124 24.9089 35.9288 24.5445 35.6796 24.4322C32.0805 22.8178 27.9677 22.4478 24.1285 23.3514C23.0478 23.6058 21.9953 23.9652 20.982 24.4175C20.7334 24.5287 20.9492 24.8936 21.1967 24.7831Z" fill="black"/>
<path d="M16.3816 28.4423C15.1909 29.5727 14.5022 31.1747 14.4982 32.8128C14.4977 33.0853 14.9225 33.0853 14.923 32.8128C14.927 31.2825 15.5705 29.7972 16.6818 28.7418C16.8806 28.5529 16.5798 28.2545 16.3816 28.4423Z" fill="black"/>
<path d="M39.5045 28.8869C40.566 29.9857 41.1653 31.476 41.163 33.0002C41.1625 33.2727 41.5873 33.2727 41.5878 33.0002C41.5901 31.3649 40.9427 29.7657 39.8047 28.5874C39.615 28.3911 39.3148 28.6906 39.5045 28.8869Z" fill="black"/>
<path d="M16.3158 37.3973C19.153 38.5334 22.3103 38.8143 25.3106 38.2406C26.1688 38.0764 27.0111 37.8401 27.829 37.5349C28.0827 37.4402 27.9728 37.0312 27.7162 37.1271C24.9045 38.1746 21.8 38.3895 18.8682 37.7425C18.0355 37.5586 17.2199 37.3065 16.4286 36.9895C16.1748 36.8879 16.0649 37.2969 16.3158 37.3973Z" fill="black"/>
<path d="M19.34 39.8234C21.1299 41.4068 23.3882 42.4391 25.7474 42.8221C26.4305 42.9332 27.1204 42.9924 27.8126 42.9964C28.0975 42.9981 28.0975 42.5575 27.8126 42.5558C25.4868 42.5429 23.1696 41.8891 21.1956 40.6611C20.6496 40.3215 20.1341 39.9379 19.6527 39.5126C19.4408 39.3242 19.1265 39.635 19.34 39.8234Z" fill="#0A0A0A"/>
<path d="M39.1174 36.9894C36.3323 38.1041 33.2329 38.3963 30.2869 37.8209C29.4503 37.6573 28.6284 37.4249 27.8298 37.1271C27.5732 37.0317 27.4627 37.4401 27.717 37.5349C30.5803 38.6016 33.7449 38.8092 36.73 38.1633C37.5836 37.9788 38.4202 37.7216 39.2307 37.3973C39.4805 37.2974 39.3712 36.8879 39.1174 36.9894Z" fill="black"/>
<path d="M36.065 39.512C34.3379 41.0402 32.155 42.0183 29.8819 42.3928C29.2283 42.5006 28.5672 42.5525 27.9051 42.5559C27.6207 42.5575 27.6201 42.9981 27.9051 42.9964C30.3152 42.9829 32.7271 42.3037 34.7701 41.0261C35.3383 40.6707 35.8763 40.2674 36.3776 39.8234C36.5912 39.635 36.2774 39.3242 36.065 39.512Z" fill="#0A0A0A"/>
<path d="M24.2884 23.4176C24.068 23.2298 23.8477 23.042 23.6274 22.8536C23.5838 22.8163 23.5362 22.7915 23.4773 22.7915C23.4251 22.7915 23.3628 22.8146 23.3271 22.8536C23.2541 22.9325 23.2371 23.0758 23.3271 23.1525C23.5475 23.3404 23.7678 23.5288 23.9882 23.7166C24.0318 23.7538 24.0794 23.7787 24.1383 23.7787C24.1904 23.7787 24.2527 23.7555 24.2884 23.7166C24.3614 23.6376 24.379 23.4949 24.2884 23.4176Z" fill="black"/>
<path d="M22.8928 22.1076C22.8401 22.116 22.7858 22.1409 22.7416 22.1696C22.6708 22.2153 22.617 22.2712 22.5722 22.3422C22.4975 22.4613 22.4827 22.6017 22.5076 22.7371C22.5484 22.9593 22.7671 23.1478 22.9868 23.1816C23.0661 23.194 23.1239 23.1974 23.2021 23.1867C23.2819 23.176 23.3409 23.1568 23.4156 23.1235C23.5244 23.075 23.6088 22.9921 23.6779 22.8973C23.8235 22.6959 23.8212 22.4184 23.7119 22.2035C23.6609 22.1025 23.5725 22.0201 23.4785 21.9592C23.3811 21.896 23.2723 21.8695 23.1585 21.8571C22.9636 21.8357 22.7495 21.922 22.6255 22.0726C22.5541 22.1595 22.4952 22.2559 22.4708 22.3671C22.4465 22.4782 22.4431 22.5944 22.4754 22.7049C22.5394 22.9221 22.715 23.0829 22.9291 23.15C23.1562 23.2216 23.4343 23.1568 23.5912 22.9734C23.6683 22.8838 23.7334 22.7783 23.7555 22.6598C23.777 22.5425 23.7827 22.415 23.7351 22.3022C23.7254 22.2616 23.7068 22.226 23.679 22.1961C23.6569 22.1623 23.6275 22.1352 23.5912 22.1155C23.5238 22.076 23.4247 22.0596 23.3494 22.0839C23.2735 22.1081 23.2004 22.155 23.1619 22.2277C23.1256 22.2965 23.0984 22.393 23.1301 22.4686C23.142 22.4962 23.1494 22.5244 23.1534 22.5538C23.1494 22.5261 23.146 22.4985 23.142 22.4708C23.1454 22.5007 23.1449 22.5295 23.1415 22.5594C23.1454 22.5318 23.1489 22.5041 23.1528 22.4765C23.1483 22.5092 23.1398 22.5402 23.1273 22.5713C23.1381 22.5464 23.1483 22.5216 23.159 22.4968C23.146 22.5273 23.1296 22.5555 23.1098 22.5814C23.1262 22.5605 23.1426 22.5391 23.159 22.5182C23.1403 22.5414 23.1199 22.5622 23.0962 22.5808C23.1171 22.5645 23.1386 22.5481 23.1596 22.5318C23.1381 22.5481 23.1154 22.5611 23.0905 22.5724C23.1154 22.5617 23.1403 22.5515 23.1653 22.5408C23.1403 22.5509 23.1149 22.5577 23.0877 22.5617C23.1154 22.5577 23.1432 22.5543 23.1709 22.5504C23.1381 22.5543 23.1058 22.5543 23.0735 22.5504C23.1013 22.5543 23.129 22.5577 23.1568 22.5617C23.1239 22.5566 23.0928 22.5481 23.0622 22.5352C23.0871 22.5459 23.112 22.556 23.137 22.5667C23.1064 22.5538 23.0786 22.5374 23.052 22.5171C23.0729 22.5335 23.0945 22.5498 23.1154 22.5662C23.0916 22.5476 23.0713 22.5267 23.0526 22.5036C23.069 22.5244 23.0854 22.5459 23.1018 22.5667C23.0854 22.5453 23.0724 22.5222 23.0611 22.4979C23.0718 22.5227 23.082 22.5476 23.0928 22.5724C23.0814 22.5447 23.0741 22.5165 23.0701 22.4866C23.0741 22.5143 23.0775 22.5419 23.0814 22.5696C23.078 22.5397 23.0786 22.5109 23.082 22.481C23.0781 22.5086 23.0746 22.5363 23.0707 22.5639C23.0758 22.5284 23.0854 22.494 23.0996 22.4607C23.0888 22.4855 23.0786 22.5103 23.0678 22.5352C23.0814 22.5053 23.0979 22.4771 23.1182 22.4511C23.1018 22.472 23.0854 22.4934 23.069 22.5143C23.0877 22.4912 23.1086 22.4703 23.1324 22.4522C23.1115 22.4686 23.0899 22.485 23.069 22.5013C23.0911 22.4855 23.1137 22.472 23.1386 22.4613C23.1137 22.472 23.0888 22.4821 23.0639 22.4928C23.0894 22.4827 23.1154 22.4759 23.1426 22.4714C23.1149 22.4754 23.0871 22.4787 23.0593 22.4827C23.0928 22.4782 23.1256 22.4782 23.159 22.4821C23.1313 22.4782 23.1035 22.4748 23.0758 22.4708C23.1092 22.4754 23.1409 22.4844 23.1726 22.4968C23.1477 22.4861 23.1228 22.4759 23.0978 22.4652C23.129 22.4782 23.1579 22.4945 23.1851 22.5143C23.1642 22.4979 23.1426 22.4816 23.1217 22.4652C23.1455 22.4838 23.167 22.5047 23.1862 22.5284C23.1698 22.5075 23.1534 22.4861 23.137 22.4652C23.1545 22.4878 23.1681 22.512 23.18 22.538C23.1692 22.5132 23.1591 22.4883 23.1483 22.4635C23.1602 22.4928 23.1687 22.5227 23.1732 22.5543C23.1693 22.5267 23.1658 22.4991 23.1619 22.4714C23.1664 22.5064 23.1658 22.5414 23.1613 22.5763C23.1653 22.5487 23.1687 22.5211 23.1726 22.4934C23.1675 22.525 23.159 22.5549 23.1471 22.5842C23.1579 22.5594 23.1681 22.5346 23.1789 22.5098C23.1675 22.5357 23.1539 22.5594 23.137 22.5825C23.1534 22.5617 23.1698 22.5402 23.1862 22.5194C23.1675 22.5431 23.1466 22.5645 23.1234 22.5831C23.1443 22.5667 23.1658 22.5504 23.1868 22.534C23.1602 22.5543 23.1313 22.5707 23.1007 22.5842C23.1256 22.5735 23.1505 22.5634 23.1755 22.5526C23.1443 22.5651 23.112 22.5741 23.0786 22.5786C23.1063 22.5746 23.1341 22.5713 23.1619 22.5673C23.1319 22.5707 23.1018 22.5713 23.0718 22.5679C23.0996 22.5718 23.1273 22.5752 23.1551 22.5792C23.1256 22.5752 23.0973 22.5673 23.0701 22.5566C23.095 22.5673 23.1199 22.5775 23.1449 22.5882C23.1177 22.5763 23.0928 22.5617 23.069 22.5436C23.0899 22.56 23.1115 22.5763 23.1324 22.5927C23.1149 22.5786 23.099 22.5628 23.0843 22.5453C23.1007 22.5662 23.1171 22.5876 23.1336 22.6085C23.12 22.5904 23.1086 22.5718 23.099 22.5515C23.1098 22.5763 23.12 22.6012 23.1307 22.626C23.1222 22.6057 23.116 22.5848 23.1132 22.5628C23.1171 22.5904 23.1205 22.6181 23.1245 22.6457C23.1228 22.6277 23.1228 22.6102 23.1251 22.5921C23.1211 22.6198 23.1177 22.6474 23.1137 22.675C23.1171 22.6542 23.1228 22.6344 23.1307 22.6147C23.12 22.6395 23.1098 22.6643 23.099 22.6891C23.1075 22.67 23.1183 22.6525 23.1313 22.6361C23.1149 22.657 23.0984 22.6784 23.082 22.6993C23.0933 22.6858 23.1058 22.6739 23.1199 22.6626C23.099 22.679 23.0775 22.6954 23.0565 22.7117C23.0684 22.7033 23.0809 22.6959 23.0945 22.6903C23.0695 22.701 23.0446 22.7111 23.0197 22.7219C23.0338 22.7162 23.0474 22.7128 23.0622 22.71C23.1352 22.6982 23.214 22.6271 23.2497 22.5662C23.2893 22.4991 23.3057 22.4003 23.2814 22.3253C23.257 22.2497 23.21 22.177 23.137 22.1386C23.112 22.1279 23.0871 22.1177 23.0622 22.107C23.0038 22.0929 22.9483 22.0929 22.8928 22.1076Z" fill="#0A0A0A"/>
<path d="M32.6503 23.6468C32.8706 23.459 33.091 23.2711 33.3113 23.0827C33.351 23.0489 33.3736 22.9829 33.3736 22.9332C33.3736 22.8813 33.3504 22.8193 33.3113 22.7838C33.2213 22.7014 33.1012 22.7065 33.0111 22.7838C32.7908 22.9716 32.5705 23.1594 32.3501 23.3478C32.3105 23.3817 32.2878 23.4471 32.2878 23.4973C32.2878 23.5492 32.311 23.6113 32.3501 23.6468C32.4402 23.7292 32.5597 23.7241 32.6503 23.6468Z" fill="black"/>
<path d="M33.5792 22.6403C33.5939 22.6426 33.6075 22.6465 33.6217 22.6522C33.5968 22.6415 33.5719 22.6313 33.5469 22.6206C33.5605 22.6268 33.5724 22.6336 33.5849 22.642C33.5639 22.6257 33.5424 22.6093 33.5214 22.593C33.5356 22.6037 33.548 22.6161 33.5594 22.6296C33.543 22.6087 33.5265 22.5873 33.5101 22.5664C33.5231 22.5834 33.5333 22.6003 33.5424 22.6195C33.5316 22.5946 33.5214 22.5698 33.5107 22.545C33.5186 22.5647 33.5243 22.5845 33.5277 22.6054C33.5237 22.5777 33.5203 22.5501 33.5163 22.5224C33.5186 22.5405 33.5186 22.558 33.5169 22.576C33.5209 22.5484 33.5243 22.5207 33.5282 22.4931C33.5254 22.5151 33.5192 22.536 33.5107 22.5563C33.5214 22.5315 33.5316 22.5066 33.5424 22.4818C33.5328 22.5021 33.5214 22.5207 33.5078 22.5388C33.5243 22.5179 33.5407 22.4965 33.5571 22.4756C33.5424 22.4931 33.5265 22.5089 33.509 22.523C33.5299 22.5066 33.5515 22.4903 33.5724 22.4739C33.5486 22.492 33.5237 22.5066 33.4965 22.5185C33.5214 22.5078 33.5463 22.4976 33.5713 22.4869C33.5435 22.4982 33.5158 22.5055 33.4863 22.5095C33.5141 22.5055 33.5418 22.5021 33.5696 22.4982C33.5396 22.5016 33.5095 22.5016 33.4795 22.4976C33.5073 22.5016 33.535 22.505 33.5628 22.5089C33.5293 22.5044 33.4976 22.4954 33.4659 22.483C33.4909 22.4937 33.5158 22.5038 33.5407 22.5145C33.5096 22.501 33.4812 22.4846 33.4546 22.4643C33.4755 22.4807 33.4971 22.4971 33.518 22.5134C33.4942 22.4942 33.4733 22.4734 33.4552 22.4497C33.4716 22.4705 33.488 22.492 33.5044 22.5129C33.4875 22.4897 33.4739 22.466 33.4625 22.4401C33.4733 22.4649 33.4835 22.4897 33.4942 22.5145C33.4823 22.4852 33.4739 22.4548 33.4688 22.4237C33.4727 22.4514 33.4761 22.479 33.4801 22.5066C33.4755 22.4717 33.475 22.4367 33.4795 22.4017C33.4756 22.4294 33.4721 22.457 33.4682 22.4846C33.4727 22.4531 33.4812 22.4232 33.4931 22.3938C33.4823 22.4186 33.4722 22.4435 33.4614 22.4683C33.4733 22.4423 33.4869 22.4187 33.5044 22.3955C33.488 22.4164 33.4716 22.4378 33.4552 22.4587C33.4744 22.435 33.4959 22.4141 33.5197 22.3955C33.4988 22.4119 33.4772 22.4282 33.4563 22.4446C33.4835 22.4249 33.5124 22.4085 33.5435 22.3955C33.5186 22.4062 33.4937 22.4164 33.4688 22.4271C33.4999 22.4147 33.5322 22.4062 33.5656 22.4012C33.5378 22.4051 33.5101 22.4085 33.4824 22.4124C33.5158 22.4085 33.5486 22.4085 33.5821 22.413C33.5543 22.4091 33.5265 22.4057 33.4988 22.4017C33.526 22.4062 33.552 22.413 33.5775 22.4232C33.5526 22.4124 33.5277 22.4023 33.5027 22.3916C33.5277 22.4023 33.5509 22.4158 33.5724 22.4316C33.5515 22.4153 33.5299 22.3989 33.509 22.3825C33.5328 22.4012 33.5537 22.4215 33.5724 22.4446C33.556 22.4237 33.5396 22.4023 33.5231 22.3814C33.5435 22.4074 33.56 22.4356 33.5736 22.4655C33.5628 22.4407 33.5526 22.4158 33.5418 22.391C33.556 22.4243 33.5656 22.4581 33.5707 22.4942C33.5668 22.4666 33.5633 22.439 33.5594 22.4113C33.5628 22.4412 33.5634 22.47 33.56 22.4999C33.5639 22.4722 33.5673 22.4446 33.5713 22.417C33.5673 22.4469 33.56 22.4751 33.5486 22.5027C33.5594 22.4779 33.5696 22.4531 33.5803 22.4282C33.5696 22.4531 33.556 22.4756 33.5396 22.4971C33.556 22.4762 33.5724 22.4548 33.5888 22.4339C33.5701 22.4576 33.5492 22.4779 33.526 22.4965C33.5469 22.4801 33.5685 22.4638 33.5894 22.4474C33.5628 22.4672 33.535 22.4835 33.5044 22.4971C33.5294 22.4863 33.5543 22.4762 33.5792 22.4655C33.5486 22.4779 33.5175 22.4869 33.4846 22.492C33.5124 22.488 33.5401 22.4846 33.5679 22.4807C33.535 22.4846 33.5027 22.4852 33.4705 22.4807C33.4982 22.4846 33.526 22.488 33.5537 22.492C33.5271 22.488 33.5016 22.4807 33.4761 22.4711C33.5011 22.4818 33.526 22.492 33.5509 22.5027C33.526 22.492 33.5033 22.4784 33.4818 22.4626C33.5028 22.479 33.5243 22.4954 33.5452 22.5117C33.5214 22.4931 33.501 22.4722 33.4824 22.4491C33.4988 22.47 33.5152 22.4914 33.5316 22.5123C33.5118 22.4858 33.4954 22.4576 33.4824 22.4277C33.4931 22.4525 33.5033 22.4773 33.5141 22.5021C33.5016 22.4717 33.4931 22.4401 33.4886 22.4074C33.4925 22.435 33.4959 22.4626 33.4999 22.4903C33.4965 22.461 33.4954 22.4316 33.4988 22.4017C33.4948 22.4294 33.492 22.457 33.488 22.4846C33.492 22.4553 33.4999 22.4265 33.5113 22.3995C33.5407 22.3301 33.5158 22.2201 33.4795 22.1586C33.4416 22.0937 33.3668 22.0317 33.292 22.0148C33.2116 21.9967 33.1215 22.0007 33.0502 22.0464C33.0292 22.0627 33.0077 22.0791 32.9867 22.0954C32.9476 22.1343 32.921 22.1806 32.9057 22.2331C32.8604 22.3408 32.8649 22.4604 32.8825 22.5732C32.887 22.6031 32.8944 22.6313 32.9046 22.6595C32.9244 22.712 32.9459 22.7667 32.9782 22.8129C33.0405 22.9021 33.1176 22.9867 33.2173 23.0352C33.3175 23.0843 33.4274 23.1164 33.5401 23.1091C33.7684 23.0939 33.9802 22.9816 34.1009 22.7842C34.1586 22.6894 34.1875 22.576 34.1892 22.4655C34.1915 22.351 34.1598 22.2455 34.1111 22.1434C34.0618 22.0401 33.9802 21.9589 33.8885 21.8929C33.795 21.8258 33.6851 21.7993 33.573 21.7874C33.3792 21.7677 33.1612 21.8551 33.0298 21.9973C32.9516 22.0819 32.8865 22.1891 32.8661 22.3036C32.844 22.4254 32.8406 22.5535 32.8853 22.6714C32.9063 22.7261 32.9284 22.7808 32.9629 22.8287C33.0162 22.9032 33.0649 22.95 33.1385 23.0047C33.2127 23.06 33.3051 23.0984 33.3963 23.1125C33.4937 23.1277 33.5656 23.1283 33.663 23.1113C33.7248 23.1006 33.7848 23.0747 33.8398 23.0459C33.9734 22.9754 34.068 22.8536 34.1196 22.7137C34.1706 22.5743 34.1445 22.417 34.0765 22.2889C34.0493 22.2376 34.0108 22.1885 33.9655 22.1518C33.901 22.0999 33.8318 22.052 33.7469 22.0385C33.6608 22.0244 33.5826 22.0244 33.505 22.07C33.4399 22.1078 33.3775 22.1823 33.3606 22.2568C33.3424 22.3369 33.3464 22.4265 33.3923 22.4976C33.4336 22.5608 33.5005 22.6279 33.5792 22.6403Z" fill="#0A0A0A"/>
<path d="M37.785 31.5996C36.9625 29.7844 35.9486 27.9116 34.161 26.8765C33.338 26.3999 32.3734 26.1156 31.4161 26.1991C30.9641 26.2385 30.4668 26.3463 30.2923 26.8195C30.1247 27.2748 30.3614 27.7424 30.6877 28.0588C31.5611 28.9067 32.8531 28.9873 34.003 28.923C34.2748 28.9078 34.2765 28.4847 34.003 28.5C33.0769 28.5513 32.0856 28.531 31.2864 27.9996C30.976 27.7932 30.5693 27.4226 30.6781 27.0046C30.7834 26.5996 31.3946 26.6091 31.7271 26.6074C33.4818 26.6007 34.9846 27.7717 35.956 29.1379C36.5468 29.9688 36.9982 30.8872 37.4174 31.8123C37.5307 32.061 37.8971 31.8461 37.785 31.5996Z" fill="black"/>
<path d="M18.3925 31.8135C19.1198 30.2081 19.9819 28.5209 21.4744 27.4898C22.1598 27.016 22.9613 26.6741 23.8007 26.6177C23.9984 26.6042 24.1972 26.6059 24.3943 26.6234C24.5914 26.6403 24.8441 26.6617 25.0032 26.7954C25.351 27.087 25.0293 27.571 24.7818 27.7995C23.9894 28.5294 22.8214 28.5582 21.8075 28.5018C21.5345 28.4865 21.5351 28.9096 21.8075 28.9248C22.8395 28.9818 23.9695 28.9344 24.8345 28.2993C25.2026 28.0291 25.5464 27.659 25.5714 27.1801C25.5974 26.6752 25.2298 26.3402 24.7591 26.2488C22.7902 25.8663 20.8927 27.1056 19.7372 28.5909C19.0241 29.5075 18.503 30.5483 18.0255 31.6008C17.9139 31.8457 18.2798 32.0611 18.3925 31.8135Z" fill="black"/>
<defs>
<linearGradient id="paint0_linear_58_831" x1="10.5558" y1="28.0412" x2="45.866" y2="28.0412" gradientUnits="userSpaceOnUse">
<stop stop-color="#C1AB75"/>
<stop offset="1" stop-color="#E6E1B3"/>
</linearGradient>
<linearGradient id="paint1_linear_58_831" x1="5.05469" y1="28.0413" x2="51.2587" y2="28.0413" gradientUnits="userSpaceOnUse">
<stop stop-color="#C1AB75"/>
<stop offset="1" stop-color="#E6E1B3"/>
</linearGradient>
<linearGradient id="paint2_linear_58_831" x1="-0.00037434" y1="28.0412" x2="56.3141" y2="28.0412" gradientUnits="userSpaceOnUse">
<stop stop-color="#C1AB75"/>
<stop offset="1" stop-color="#E6E1B3"/>
</linearGradient>
<linearGradient id="paint3_linear_58_831" x1="27.6538" y1="50.0666" x2="27.5801" y2="54.0257" gradientUnits="userSpaceOnUse">
<stop stop-color="#C19566"/>
<stop offset="1" stop-color="#E6E1B3"/>
</linearGradient>
<linearGradient id="paint4_linear_58_831" x1="24.8454" y1="4.64242" x2="24.7827" y2="8.01064" gradientUnits="userSpaceOnUse">
<stop stop-color="#C19566"/>
<stop offset="1" stop-color="#E6E1B3"/>
</linearGradient>
<linearGradient id="paint5_linear_58_831" x1="54.2615" y1="17.0523" x2="49.8296" y2="11.2283" gradientUnits="userSpaceOnUse">
<stop stop-color="#C19566"/>
<stop offset="1" stop-color="#E6E1B3"/>
</linearGradient>
<linearGradient id="paint6_linear_58_831" x1="54.4277" y1="16.9258" x2="49.9959" y2="11.1019" gradientUnits="userSpaceOnUse">
<stop stop-color="#C19566"/>
<stop offset="1" stop-color="#E6E1B3"/>
</linearGradient>
<linearGradient id="paint7_linear_58_831" x1="54.4179" y1="16.9334" x2="49.9862" y2="11.1094" gradientUnits="userSpaceOnUse">
<stop stop-color="#C19566"/>
<stop offset="1" stop-color="#E6E1B3"/>
</linearGradient>
<linearGradient id="paint8_linear_58_831" x1="54.2501" y1="17.0609" x2="49.8183" y2="11.2371" gradientUnits="userSpaceOnUse">
<stop stop-color="#C19566"/>
<stop offset="1" stop-color="#E6E1B3"/>
</linearGradient>
<linearGradient id="paint9_linear_58_831" x1="15.9495" y1="53.574" x2="22.8604" y2="56.0287" gradientUnits="userSpaceOnUse">
<stop stop-color="#C19566"/>
<stop offset="1" stop-color="#E6E1B3"/>
</linearGradient>
<linearGradient id="paint10_linear_58_831" x1="15.8798" y1="53.7701" x2="22.7911" y2="56.2249" gradientUnits="userSpaceOnUse">
<stop stop-color="#C19566"/>
<stop offset="1" stop-color="#E6E1B3"/>
</linearGradient>
<linearGradient id="paint11_linear_58_831" x1="15.8846" y1="53.7587" x2="22.7956" y2="56.2134" gradientUnits="userSpaceOnUse">
<stop stop-color="#C19566"/>
<stop offset="1" stop-color="#E6E1B3"/>
</linearGradient>
<linearGradient id="paint12_linear_58_831" x1="15.9544" y1="53.5605" x2="22.8656" y2="56.0153" gradientUnits="userSpaceOnUse">
<stop stop-color="#C19566"/>
<stop offset="1" stop-color="#E6E1B3"/>
</linearGradient>
<linearGradient id="paint13_linear_58_831" x1="2.84381" y1="28.1988" x2="53.4691" y2="28.1988" gradientUnits="userSpaceOnUse">
<stop stop-color="#C1AB75"/>
<stop offset="1" stop-color="#E6E1B3"/>
</linearGradient>
</defs>
</svg>
