<svg width="61" height="57" viewBox="0 0 61 57" fill="none" xmlns="http://www.w3.org/2000/svg">
<path d="M59.1157 15.8813C57.5903 12.707 54.6732 10.0488 51.1869 9.55091C49.0407 9.24447 46.8328 9.76388 44.8899 10.7262C42.9471 11.6886 41.245 13.0746 39.6686 14.5632C37.1424 16.9484 34.9084 19.6378 32.9962 22.5384C32.9962 22.5384 31.912 22.2943 30.4138 22.2943C28.9157 22.2943 27.8315 22.5384 27.8315 22.5384C25.9193 19.6372 23.6859 16.9484 21.1591 14.5632C19.5827 13.0746 17.8806 11.6886 15.9378 10.7262C13.9949 9.76388 11.787 9.24447 9.64084 9.55091C6.15393 10.0488 3.23742 12.707 1.71204 15.8813C0.186663 19.0561 -0.119772 22.6857 0.0365612 26.2043C0.128888 28.2808 0.393406 29.8827 0.787637 31.9235C0.797266 31.9694 0.806331 32.0181 0.815393 32.0657C1.03063 33.1617 1.62085 34.7216 2.01791 35.7916C5.13494 44.1917 11.4324 48.7146 11.4324 48.7146C7.52977 43.0254 3.0335 23.8503 8.34939 20.0666C8.94073 19.6457 9.6516 19.4118 10.5007 19.4118C12.2198 19.371 13.7752 20.3906 15.0961 21.4906C17.385 23.3966 19.3408 25.6889 20.9081 28.2219C20.8322 28.9889 20.9398 29.4986 20.9659 29.5338C17.9429 25.7908 12.5783 26.1856 9.54568 27.2788C10.755 31.3616 12.8088 36.4917 22.0761 34.9544C22.1667 37.1731 23.1699 39.3544 24.902 40.7438C24.5366 41.9407 24.6227 43.2695 25.1393 44.4097C25.6559 45.5494 26.595 46.2042 27.7358 46.7196C28.211 47.7295 29.298 48.4206 30.4144 48.4223C31.5308 48.4206 32.6178 47.7301 33.093 46.7196C34.2338 46.2047 35.1729 45.5499 35.6895 44.4097C36.2055 43.2695 36.2916 41.9407 35.9268 40.7438C37.659 39.3544 38.6621 37.1731 38.7527 34.9544C48.0206 36.4917 50.0744 31.3616 51.2837 27.2788C48.2511 26.1862 42.8865 25.7914 39.8635 29.5338C39.8895 29.4986 39.9977 28.9889 39.9218 28.2219C41.4891 25.6894 43.445 23.3971 45.7339 21.4906C47.0548 20.39 48.6102 19.371 50.3293 19.4118C51.1784 19.4118 51.8892 19.6457 52.4806 20.0666C57.7965 23.8503 53.3002 43.0254 49.3975 48.7146C49.3975 48.7146 55.695 44.1917 58.812 35.7916C59.2091 34.7216 59.7988 33.1617 60.0146 32.0657C60.0236 32.0187 60.0327 31.9694 60.0423 31.9235C60.4366 29.8827 60.7011 28.2808 60.7934 26.2043C60.9475 22.6857 60.641 19.0561 59.1157 15.8813Z" fill="url(#paint0_linear_58_1019)"/>
<path d="M50.3273 19.4113C51.101 19.4294 51.8272 19.6729 52.4785 20.066C51.8872 19.6446 51.1763 19.4113 50.3273 19.4113Z" fill="url(#paint1_linear_58_1019)"/>
<path d="M50.3273 19.4113C51.101 19.4294 51.8272 19.6729 52.4785 20.066C51.8872 19.6446 51.1763 19.4113 50.3273 19.4113Z" fill="url(#paint2_linear_58_1019)"/>
<path d="M24.496 18.3241C24.5248 19.5776 23.84 20.7314 23.1167 21.7074C22.4648 22.5876 21.5421 23.1818 20.4976 23.4893C20.2359 23.5664 20.3475 23.9764 20.6103 23.8988C21.4826 23.6417 22.2914 23.2033 22.9389 22.5581C23.2799 22.2188 23.5602 21.828 23.8248 21.4281C24.1125 20.9931 24.3714 20.5399 24.5713 20.0574C24.7996 19.5068 24.9338 18.9211 24.9202 18.323C24.9145 18.0511 24.4897 18.05 24.496 18.3241Z" fill="#0A0A0A"/>
<path d="M18.8975 12.6899C19.1438 13.9915 18.5961 15.305 18.0444 16.456C17.8394 16.8837 17.6253 17.3102 17.3472 17.6959C17.06 18.0941 16.7031 18.439 16.3508 18.7783C16.1531 18.9681 16.4539 19.2683 16.651 19.0785C17.2265 18.5257 17.7442 17.9531 18.1226 17.2462C18.6012 16.3523 19.0442 15.3894 19.2594 14.3942C19.3891 13.7938 19.422 13.1826 19.3075 12.5771C19.2566 12.3086 18.847 12.4225 18.8975 12.6899Z" fill="#0A0A0A"/>
<path d="M9.31344 9.72913C10.6955 11.3655 11.1101 13.523 10.8677 15.6114C10.7997 16.1971 10.678 16.776 10.5211 17.3441C10.448 17.6081 10.8581 17.7208 10.9306 17.4568C11.5095 15.3594 11.5746 13.0552 10.6513 11.0444C10.3823 10.4593 10.0288 9.92001 9.61364 9.42836C9.43692 9.21935 9.13785 9.52125 9.31344 9.72913Z" fill="#0A0A0A"/>
<path d="M0.477731 20.1861C1.13422 20.0054 1.82299 19.9261 2.49647 20.0603C3.31835 20.2235 4.03487 20.6647 4.64887 21.2226C4.85052 21.4062 5.15185 21.1065 4.94907 20.9224C4.28409 20.3181 3.50073 19.8281 2.60918 19.6508C1.85924 19.5019 1.09683 19.5749 0.364448 19.7766C0.101628 19.8491 0.213212 20.2592 0.477731 20.1861Z" fill="#0A0A0A"/>
<path d="M0.571774 30.0492C1.08892 29.6102 1.70462 29.2947 2.36394 29.1356C3.25152 28.9215 4.168 29.0172 5.03066 29.293C5.29178 29.3763 5.40336 28.9668 5.14338 28.8835C4.20878 28.5844 3.21074 28.4944 2.25065 28.726C1.51827 28.9028 0.843659 29.2624 0.271005 29.749C0.062561 29.9263 0.364464 30.2254 0.571774 30.0492Z" fill="#0A0A0A"/>
<path d="M3.82957 39.4309C4.02272 39.1534 4.36824 38.9455 4.69336 38.8294C4.86556 38.7682 5.04568 38.7223 5.22807 38.711C5.3929 38.7008 5.57019 38.7127 5.7033 38.7688C5.80865 38.8135 5.931 38.8005 5.99387 38.6923C6.04598 38.6034 6.02389 38.4465 5.91797 38.4017C5.49089 38.2216 5.01056 38.2669 4.58064 38.4199C4.1445 38.5751 3.73044 38.8322 3.46252 39.2168C3.39682 39.3109 3.44553 39.453 3.53899 39.5074C3.64435 39.5691 3.76386 39.5255 3.82957 39.4309Z" fill="#0A0A0A"/>
<path d="M20.5597 31.1622C18.9403 29.2046 16.4022 28.4637 13.9524 28.3159C13.156 28.2677 12.3573 28.274 11.5598 28.2949C11.2913 28.3017 11.2902 28.7197 11.5598 28.7129C14.051 28.6478 16.6831 28.7566 18.831 30.172C19.3702 30.5278 19.8523 30.9599 20.264 31.4578C20.4362 31.6651 20.7302 31.3678 20.5597 31.1622Z" fill="#0A0A0A"/>
<path d="M16.9711 32.8749C15.1058 32.1261 13.6399 30.5095 13.0027 28.6126C12.9172 28.3588 12.5139 28.4675 12.5994 28.7236C13.2876 30.7718 14.8504 32.471 16.8601 33.2776C17.1098 33.3779 17.218 32.974 16.9711 32.8749Z" fill="#0A0A0A"/>
<path d="M30.1596 44.9657C30.1058 45.5276 29.7195 46.0073 29.2414 46.282C28.7039 46.5913 28.0661 46.6174 27.4799 46.4412C26.1946 46.056 25.4464 44.8377 25.1564 43.5944C24.9581 42.747 24.9457 41.8719 24.9462 41.0058C24.9462 40.7288 24.5163 40.7283 24.5158 41.0058C24.5146 42.5895 24.6013 44.2939 25.601 45.6046C26.4552 46.7244 28.04 47.3911 29.3694 46.7018C30.0339 46.3574 30.5187 45.7156 30.5901 44.9645C30.6161 44.6898 30.1857 44.6921 30.1596 44.9657Z" fill="#0A0A0A"/>
<path d="M24.8733 41.1585C26.1987 39.6275 27.2766 37.841 27.7298 35.85C27.9586 34.8452 28.03 33.8018 27.898 32.7783C27.7745 31.8233 27.4811 30.874 26.8813 30.107C26.2469 29.2959 25.2511 28.7454 24.2055 28.798C23.9296 28.8116 23.9285 29.2421 24.2055 29.2285C25.0715 29.1855 25.8861 29.6075 26.4468 30.2532C27.0376 30.9335 27.3287 31.8295 27.4579 32.7081C27.7388 34.6197 27.2574 36.5807 26.3624 38.2709C25.8702 39.2004 25.2573 40.0602 24.5697 40.8549C24.3884 41.0628 24.6915 41.3687 24.8733 41.1585Z" fill="#0A0A0A"/>
<path d="M27.655 32.2575C25.9654 31.9986 24.6037 30.7214 24.329 29.0198C24.2848 28.7474 23.8702 28.8629 23.9138 29.1342C24.2095 30.9661 25.7196 32.3934 27.54 32.6727C27.8114 32.714 27.928 32.2994 27.655 32.2575Z" fill="#0A0A0A"/>
<path d="M27.5258 22.8373C26.9294 25.1302 25.25 27.0702 23.0001 27.8626C22.3425 28.0943 21.656 28.2274 20.9593 28.254C20.6834 28.2648 20.6817 28.6953 20.9593 28.6845C23.5309 28.5854 25.8804 27.1189 27.1526 24.8912C27.4998 24.2834 27.7649 23.6286 27.941 22.9517C28.0107 22.6838 27.5955 22.5694 27.5258 22.8373Z" fill="#0A0A0A"/>
<path d="M24.8803 40.7524C23.3952 39.2406 22.4702 37.2122 22.2793 35.1029C22.2544 34.8293 21.8239 34.8264 21.8488 35.1029C22.0499 37.3283 23.0066 39.4592 24.5756 41.0565C24.7704 41.2548 25.0752 40.95 24.8803 40.7524Z" fill="#0A0A0A"/>
<path d="M30.5672 44.793C30.0597 43.8556 29.2236 43.2144 28.2171 42.8909C27.8064 42.759 27.0616 42.4803 27.2632 41.9003C27.4405 41.3899 28.0375 41.1769 28.5071 41.0455C29.1313 40.8705 29.7646 40.7878 30.4126 40.785C30.6895 40.7838 30.6901 40.3534 30.4126 40.3545C29.7782 40.3568 29.1477 40.4315 28.5332 40.5924C27.9577 40.7431 27.3958 40.9492 27.0287 41.4437C26.677 41.9178 26.7739 42.5216 27.2281 42.8915C27.7028 43.2784 28.3559 43.3316 28.8792 43.6369C29.4389 43.9632 29.888 44.4418 30.1956 45.0099C30.3276 45.2535 30.6992 45.0365 30.5672 44.793Z" fill="#0A0A0A"/>
<path d="M35.9128 18.3242C35.8885 19.3834 36.3331 20.3713 36.891 21.2481C37.398 22.0462 37.9831 22.7655 38.7931 23.2714C39.236 23.5478 39.7226 23.7517 40.2227 23.899C40.4856 23.9766 40.5977 23.5665 40.3355 23.4894C39.2915 23.1819 38.3683 22.5877 37.7163 21.7075C36.9936 20.7309 36.3088 19.5777 36.3376 18.3242C36.3439 18.0506 35.9191 18.0506 35.9128 18.3242Z" fill="#0A0A0A"/>
<path d="M41.5258 12.5774C41.3213 13.6553 41.5961 14.7366 42.0033 15.7346C42.325 16.5225 42.6842 17.3433 43.2041 18.0241C43.4958 18.4064 43.8363 18.7457 44.1823 19.0788C44.3795 19.2685 44.6802 18.9683 44.4825 18.7786C44.1297 18.4399 43.7734 18.0943 43.4862 17.6961C43.2081 17.3104 42.994 16.8839 42.7889 16.4563C42.2372 15.3053 41.6889 13.9917 41.9359 12.6901C41.9863 12.4227 41.5768 12.3083 41.5258 12.5774Z" fill="#0A0A0A"/>
<path d="M51.2195 9.42835C49.7655 11.1503 49.2851 13.4046 49.5406 15.6114C49.6125 16.2356 49.7349 16.8519 49.902 17.4574C49.9745 17.7208 50.3846 17.6086 50.3115 17.3447C49.7655 15.3662 49.6743 13.1611 50.5483 11.2596C50.8015 10.7085 51.1277 10.193 51.5191 9.72969C51.6953 9.52125 51.3962 9.21934 51.2195 9.42835Z" fill="#0A0A0A"/>
<path d="M60.4686 19.7766C59.7362 19.5749 58.9738 19.5019 58.2238 19.6508C57.3323 19.8281 56.5489 20.3181 55.8839 20.9224C55.6811 21.1065 55.9825 21.4062 56.1841 21.2226C56.7981 20.6647 57.5152 20.2235 58.3365 20.0603C59.01 19.9267 59.6988 20.0054 60.3553 20.1861C60.6198 20.2586 60.7325 19.8491 60.4686 19.7766Z" fill="#0A0A0A"/>
<path d="M60.5625 29.7491C59.9893 29.2625 59.3153 28.9029 58.5829 28.7261C57.6228 28.4945 56.6247 28.5851 55.6901 28.8836C55.4307 28.9663 55.5417 29.377 55.8029 29.2931C56.6655 29.0173 57.582 28.9215 58.4696 29.1357C59.1295 29.2948 59.7446 29.6103 60.2617 30.0493C60.4691 30.2254 60.771 29.9264 60.5625 29.7491Z" fill="#0A0A0A"/>
<path d="M57.3713 39.2161C57.1034 38.8315 56.6893 38.5749 56.2532 38.4191C55.8239 38.2662 55.343 38.2209 54.9159 38.401C54.81 38.4458 54.7873 38.6015 54.84 38.6916C54.904 38.8009 55.0246 38.8128 55.1306 38.7681C55.2597 38.7137 55.4319 38.7006 55.5922 38.7097C55.7791 38.7199 55.9638 38.7664 56.1405 38.8292C56.4656 38.9448 56.8117 39.1538 57.0043 39.4308C57.07 39.5248 57.1901 39.5684 57.2949 39.5067C57.3883 39.4523 57.437 39.3107 57.3713 39.2161Z" fill="#0A0A0A"/>
<path d="M40.5693 31.4579C42.1434 29.5553 44.6017 28.8586 46.9818 28.7283C47.7448 28.6864 48.5094 28.6932 49.2736 28.713C49.5426 28.7198 49.5426 28.3018 49.2736 28.295C46.7031 28.2282 43.9786 28.3573 41.7679 29.8266C41.2088 30.1982 40.7019 30.644 40.2736 31.1617C40.1037 31.3679 40.3977 31.6652 40.5693 31.4579Z" fill="#0A0A0A"/>
<path d="M43.9736 33.2777C45.9833 32.4711 47.5455 30.7713 48.2343 28.7237C48.3203 28.4682 47.9165 28.3583 47.831 28.6126C47.1932 30.5096 45.7278 32.1262 43.8626 32.875C43.6162 32.9741 43.7238 33.3785 43.9736 33.2777Z" fill="#0A0A0A"/>
<path d="M30.2436 44.9658C30.3076 45.6348 30.6922 46.2035 31.2456 46.5739C31.8205 46.9579 32.5263 47.0571 33.1969 46.9245C34.6928 46.6288 35.6648 45.3063 36.0432 43.9044C36.2975 42.9624 36.3185 41.9762 36.3179 41.0065C36.3179 40.7296 35.8874 40.729 35.8874 41.0065C35.8885 42.4254 35.8353 43.931 35.0276 45.155C34.3586 46.1684 32.997 46.9138 31.7956 46.387C31.2235 46.1361 30.7347 45.607 30.6735 44.9664C30.648 44.6922 30.2175 44.69 30.2436 44.9658Z" fill="#0A0A0A"/>
<path d="M36.2644 40.8542C35.0296 39.4274 34.022 37.7689 33.5637 35.9247C33.3292 34.9816 33.242 34.0034 33.3366 33.0348C33.4233 32.1466 33.668 31.2477 34.1857 30.5102C34.7379 29.7235 35.651 29.1791 36.6286 29.2284C36.9056 29.242 36.9045 28.8121 36.6286 28.7979C35.7042 28.752 34.8048 29.1797 34.1766 29.8452C33.5161 30.5448 33.1536 31.4777 32.9905 32.414C32.6348 34.4571 33.101 36.5545 34.0435 38.379C34.5618 39.3821 35.2228 40.3059 35.9608 41.159C36.1421 41.368 36.4451 41.0627 36.2644 40.8542Z" fill="#0A0A0A"/>
<path d="M33.2927 32.6728C35.1137 32.3935 36.6233 30.9661 36.9189 29.1343C36.9625 28.8636 36.5479 28.7469 36.5043 29.0199C36.2296 30.7214 34.8685 31.9987 33.1783 32.2576C32.9058 32.2995 33.0214 32.7141 33.2927 32.6728Z" fill="#0A0A0A"/>
<path d="M32.8925 22.9519C33.528 25.3949 35.327 27.4363 37.719 28.278C38.4117 28.5215 39.1407 28.6564 39.8742 28.6847C40.1512 28.6954 40.1506 28.265 39.8742 28.2542C37.4522 28.1607 35.2494 26.7685 34.0525 24.6744C33.7229 24.0972 33.4748 23.4809 33.3077 22.8375C33.238 22.5696 32.8228 22.6834 32.8925 22.9519Z" fill="#0A0A0A"/>
<path d="M36.2574 41.0565C37.8264 39.4592 38.7831 37.3283 38.9842 35.1029C39.0091 34.827 38.5786 34.8287 38.5537 35.1029C38.3628 37.2122 37.4379 39.2406 35.9527 40.7524C35.759 40.95 36.0626 41.2548 36.2574 41.0565Z" fill="#0A0A0A"/>
<path d="M30.6374 45.0101C30.9098 44.5072 31.2939 44.0693 31.7708 43.7515C32.0042 43.5958 32.2551 43.4678 32.5202 43.3754C32.8272 43.2684 33.1529 43.1914 33.4316 43.018C33.9102 42.7201 34.1883 42.1554 33.9153 41.6207C33.6423 41.0854 33.0741 40.8158 32.5253 40.656C31.8393 40.4561 31.1347 40.3587 30.4204 40.3558C30.1435 40.3547 30.1435 40.7852 30.4204 40.7863C30.9891 40.7886 31.5488 40.8492 32.101 40.9868C32.608 41.1132 33.1704 41.2678 33.4786 41.7272C33.8246 42.2437 33.312 42.6504 32.8555 42.8124C32.3378 42.9959 31.8456 43.1574 31.3992 43.4893C30.9308 43.8376 30.5439 44.28 30.2658 44.7938C30.1344 45.0368 30.5054 45.2543 30.6374 45.0101Z" fill="#0A0A0A"/>
<path d="M30.4673 45.7137C40.1636 45.7137 48.0241 37.8532 48.0241 28.1568C48.0241 18.4604 40.1636 10.6 30.4673 10.6C20.7709 10.6 12.9104 18.4604 12.9104 28.1568C12.9104 37.8532 20.7709 45.7137 30.4673 45.7137Z" stroke="url(#paint3_linear_58_1019)" stroke-width="0.196775" stroke-linecap="round" stroke-linejoin="round" stroke-dasharray="0.2 2.56"/>
<path d="M30.4129 51.13C43.1005 51.13 53.3859 40.8446 53.3859 28.157C53.3859 15.4693 43.1005 5.18396 30.4129 5.18396C17.7252 5.18396 7.43988 15.4693 7.43988 28.157C7.43988 40.8446 17.7252 51.13 30.4129 51.13Z" stroke="url(#paint4_linear_58_1019)" stroke-width="0.257496" stroke-linecap="round" stroke-linejoin="round"/>
<path d="M30.413 56.157C45.8769 56.157 58.413 43.621 58.413 28.157C58.413 12.693 45.8769 0.156982 30.413 0.156982C14.949 0.156982 2.41296 12.693 2.41296 28.157C2.41296 43.621 14.949 56.157 30.413 56.157Z" stroke="url(#paint5_linear_58_1019)" stroke-width="0.313855" stroke-linecap="round" stroke-linejoin="round"/>
<path d="M45.0654 45.021L45.3911 43.1523C45.4081 43.0555 45.5457 43.0527 45.5667 43.1484L45.9773 45.0159C45.9852 45.0521 46.0147 45.0799 46.0521 45.085L47.7038 45.328C47.8006 45.3421 47.808 45.4786 47.7134 45.5036L45.9988 45.9476C45.9654 45.9561 45.9399 45.9839 45.9331 46.0179L45.6278 47.6412C45.6097 47.737 45.4738 47.7392 45.4522 47.6446L45.0863 46.0332C45.0784 45.9992 45.0523 45.9731 45.0184 45.9658L43.4669 45.6208C43.374 45.6004 43.3735 45.4673 43.4664 45.4458L44.9974 45.0923C45.032 45.085 45.0591 45.0567 45.0654 45.021Z" fill="url(#paint6_linear_58_1019)"/>
<path d="M19.4887 7.53004L19.6518 6.59147C19.6603 6.54276 19.7294 6.54106 19.7402 6.58977L19.9464 7.52777C19.9503 7.5459 19.9651 7.56006 19.9838 7.56289L20.8136 7.68467C20.8623 7.69203 20.8657 7.76057 20.8181 7.77303L19.9566 7.9962C19.9396 8.00073 19.9271 8.01432 19.9237 8.03132L19.7702 8.8464C19.7611 8.89454 19.6932 8.89568 19.6819 8.8481L19.4978 8.03868C19.4938 8.02169 19.4808 8.00866 19.4638 8.0047L18.6844 7.83137C18.6374 7.82118 18.6374 7.75434 18.6838 7.74358L19.453 7.56628C19.4723 7.56232 19.4859 7.54816 19.4887 7.53004Z" fill="url(#paint7_linear_58_1019)"/>
<path d="M40.5172 6.61033C40.9703 6.80858 41.1777 7.33648 40.9794 7.78962C40.7812 8.24276 40.2533 8.45008 39.7995 8.25183C39.3464 8.05358 39.1391 7.52567 39.3373 7.07196C39.5362 6.61883 40.0641 6.41208 40.5172 6.61033Z" fill="url(#paint8_linear_58_1019)"/>
<path d="M37.9692 5.8518C38.2626 5.98037 38.3968 6.32193 38.2682 6.6159C38.1397 6.90987 37.7981 7.04355 37.5041 6.91497C37.2107 6.78639 37.0765 6.44484 37.2051 6.15087C37.3336 5.85746 37.6758 5.72322 37.9692 5.8518Z" fill="url(#paint9_linear_58_1019)"/>
<path d="M36.1731 5.40036C36.3951 5.49722 36.4965 5.75608 36.3996 5.97868C36.3022 6.20072 36.0434 6.30211 35.8213 6.20525C35.5993 6.10839 35.4979 5.84954 35.5948 5.62693C35.6922 5.4049 35.951 5.3035 36.1731 5.40036Z" fill="url(#paint10_linear_58_1019)"/>
<path d="M34.5885 5.2303C34.7397 5.29657 34.8088 5.47216 34.7426 5.62339C34.6763 5.77463 34.5007 5.84373 34.3495 5.77745C34.1982 5.71118 34.1297 5.53559 34.1954 5.38436C34.2617 5.23369 34.4378 5.16459 34.5885 5.2303Z" fill="url(#paint11_linear_58_1019)"/>
<path d="M9.57872 39.5431C9.32722 39.1172 9.46883 38.5678 9.89478 38.3163C10.3207 38.0648 10.8702 38.2064 11.1217 38.6323C11.3731 39.0583 11.2315 39.6077 10.8056 39.8592C10.3791 40.1107 9.83021 39.9691 9.57872 39.5431Z" fill="url(#paint12_linear_58_1019)"/>
<path d="M11.2005 41.6502C11.0379 41.3744 11.1291 41.0187 11.4055 40.8556C11.6813 40.6924 12.0371 40.7842 12.2002 41.0606C12.3633 41.3364 12.2716 41.6921 11.9957 41.8553C11.7193 42.0178 11.3636 41.9266 11.2005 41.6502Z" fill="url(#paint13_linear_58_1019)"/>
<path d="M12.3918 43.0673C12.2684 42.8583 12.338 42.5892 12.547 42.4658C12.7561 42.3423 13.0251 42.412 13.1486 42.621C13.2715 42.83 13.2024 43.099 12.9934 43.2225C12.7844 43.3454 12.5153 43.2763 12.3918 43.0673Z" fill="url(#paint14_linear_58_1019)"/>
<path d="M13.5766 44.1327C13.4928 43.9906 13.5398 43.8076 13.682 43.7238C13.8242 43.64 14.0071 43.687 14.0909 43.8291C14.1748 43.9713 14.1278 44.1543 13.9856 44.2381C13.8434 44.3219 13.6605 44.2749 13.5766 44.1327Z" fill="url(#paint15_linear_58_1019)"/>
<path d="M48.3294 42.0361L48.4931 41.0976C48.5016 41.0489 48.5707 41.0472 48.5815 41.0959L48.7876 42.0339C48.7916 42.052 48.8063 42.0662 48.825 42.0684L49.6548 42.1902C49.7036 42.1976 49.7069 42.2661 49.6594 42.2786L48.7984 42.5017C48.7814 42.5063 48.7689 42.5199 48.7655 42.5369L48.6121 43.3519C48.603 43.4001 48.535 43.4012 48.5237 43.3536L48.3396 42.5442C48.3356 42.5272 48.3226 42.5142 48.3056 42.5102L47.5268 42.3369C47.4798 42.3267 47.4798 42.2599 47.5262 42.2491L48.2954 42.0718C48.313 42.0679 48.3266 42.0537 48.3294 42.0361Z" fill="url(#paint16_linear_58_1019)"/>
<defs>
<linearGradient id="paint0_linear_58_1019" x1="-57.6144" y1="29.0886" x2="60.8276" y2="29.0886" gradientUnits="userSpaceOnUse">
<stop stop-color="#C1AB75"/>
<stop offset="1" stop-color="#E6E1B3"/>
</linearGradient>
<linearGradient id="paint1_linear_58_1019" x1="12.3745" y1="19.7385" x2="69.6032" y2="19.7385" gradientUnits="userSpaceOnUse">
<stop stop-color="#C1AB75"/>
<stop offset="1" stop-color="#E6E1B3"/>
</linearGradient>
<linearGradient id="paint2_linear_58_1019" x1="1.60699" y1="19.7385" x2="60.8277" y2="19.7385" gradientUnits="userSpaceOnUse">
<stop stop-color="#C1AB75"/>
<stop offset="1" stop-color="#E6E1B3"/>
</linearGradient>
<linearGradient id="paint3_linear_58_1019" x1="12.8124" y1="28.1568" x2="48.1226" y2="28.1568" gradientUnits="userSpaceOnUse">
<stop stop-color="#C1AB75"/>
<stop offset="1" stop-color="#E6E1B3"/>
</linearGradient>
<linearGradient id="paint4_linear_58_1019" x1="7.31096" y1="28.157" x2="53.515" y2="28.157" gradientUnits="userSpaceOnUse">
<stop stop-color="#C1AB75"/>
<stop offset="1" stop-color="#E6E1B3"/>
</linearGradient>
<linearGradient id="paint5_linear_58_1019" x1="2.25584" y1="28.157" x2="58.5703" y2="28.157" gradientUnits="userSpaceOnUse">
<stop stop-color="#C1AB75"/>
<stop offset="1" stop-color="#E6E1B3"/>
</linearGradient>
<linearGradient id="paint6_linear_58_1019" x1="45.6168" y1="43.9451" x2="45.491" y2="50.6793" gradientUnits="userSpaceOnUse">
<stop stop-color="#C19566"/>
<stop offset="1" stop-color="#E6E1B3"/>
</linearGradient>
<linearGradient id="paint7_linear_58_1019" x1="19.7659" y1="6.98984" x2="19.7026" y2="10.3721" gradientUnits="userSpaceOnUse">
<stop stop-color="#C19566"/>
<stop offset="1" stop-color="#E6E1B3"/>
</linearGradient>
<linearGradient id="paint8_linear_58_1019" x1="41.0268" y1="7.72737" x2="34.0827" y2="5.35673" gradientUnits="userSpaceOnUse">
<stop stop-color="#C19566"/>
<stop offset="1" stop-color="#E6E1B3"/>
</linearGradient>
<linearGradient id="paint9_linear_58_1019" x1="41.0946" y1="7.52954" x2="34.1506" y2="5.15895" gradientUnits="userSpaceOnUse">
<stop stop-color="#C19566"/>
<stop offset="1" stop-color="#E6E1B3"/>
</linearGradient>
<linearGradient id="paint10_linear_58_1019" x1="41.0898" y1="7.54145" x2="34.1461" y2="5.17092" gradientUnits="userSpaceOnUse">
<stop stop-color="#C19566"/>
<stop offset="1" stop-color="#E6E1B3"/>
</linearGradient>
<linearGradient id="paint11_linear_58_1019" x1="41.0214" y1="7.741" x2="34.0775" y2="5.37046" gradientUnits="userSpaceOnUse">
<stop stop-color="#C19566"/>
<stop offset="1" stop-color="#E6E1B3"/>
</linearGradient>
<linearGradient id="paint12_linear_58_1019" x1="9.81989" y1="38.3394" x2="14.0605" y2="44.3274" gradientUnits="userSpaceOnUse">
<stop stop-color="#C19566"/>
<stop offset="1" stop-color="#E6E1B3"/>
</linearGradient>
<linearGradient id="paint13_linear_58_1019" x1="9.64993" y1="38.4603" x2="13.8904" y2="44.4482" gradientUnits="userSpaceOnUse">
<stop stop-color="#C19566"/>
<stop offset="1" stop-color="#E6E1B3"/>
</linearGradient>
<linearGradient id="paint14_linear_58_1019" x1="9.66041" y1="38.4529" x2="13.9009" y2="44.4408" gradientUnits="userSpaceOnUse">
<stop stop-color="#C19566"/>
<stop offset="1" stop-color="#E6E1B3"/>
</linearGradient>
<linearGradient id="paint15_linear_58_1019" x1="9.83243" y1="38.3312" x2="14.0728" y2="44.319" gradientUnits="userSpaceOnUse">
<stop stop-color="#C19566"/>
<stop offset="1" stop-color="#E6E1B3"/>
</linearGradient>
<linearGradient id="paint16_linear_58_1019" x1="48.6067" y1="41.4956" x2="48.5435" y2="44.8778" gradientUnits="userSpaceOnUse">
<stop stop-color="#C19566"/>
<stop offset="1" stop-color="#E6E1B3"/>
</linearGradient>
</defs>
</svg>
