<svg width="40" height="40" viewBox="0 0 40 40" fill="none" xmlns="http://www.w3.org/2000/svg">
<path d="M0 20C0 8.95431 8.95431 0 20 0C31.0457 0 40 8.95431 40 20C40 31.0457 31.0457 40 20 40C8.95431 40 0 31.0457 0 20Z" fill="#C2D1F3" fill-opacity="0.08"/>
<path d="M20 0.25C30.9076 0.25 39.75 9.09238 39.75 20C39.75 30.9076 30.9076 39.75 20 39.75C9.09238 39.75 0.25 30.9076 0.25 20C0.25 9.09238 9.09238 0.25 20 0.25Z" stroke="#C2D1F3" stroke-opacity="0.16" stroke-width="0.5"/>
<g clip-path="url(#clip0_22_121)">
<path d="M21 15C21.5202 14.8622 22.0274 14.6795 22.516 14.454C23.427 14.016 24.01 13.439 24.453 12.522C24.66 12.094 24.835 11.594 25 11C25.165 11.595 25.34 12.095 25.547 12.521C25.99 13.439 26.573 14.016 27.484 14.454C27.91 14.659 28.409 14.834 29 15C28.4798 15.1381 27.9726 15.3211 27.484 15.547C26.573 15.985 25.99 16.562 25.547 17.479C25.3194 17.9686 25.1363 18.4776 25 19C24.835 18.406 24.66 17.905 24.453 17.479C24.01 16.561 23.427 15.985 22.516 15.547C22.028 15.3197 21.5207 15.1366 21 15Z" stroke="#DDC560" stroke-width="2" stroke-linecap="round" stroke-linejoin="round"/>
<path d="M11 22C11.5578 21.8455 12.1089 21.668 12.652 21.468C15.194 20.515 16.505 19.23 17.468 16.662C17.6694 16.116 17.8469 15.5615 18 15C18.1531 15.5615 18.3306 16.116 18.532 16.662C19.495 19.229 20.807 20.515 23.348 21.468C23.848 21.6547 24.3987 21.832 25 22C24.4422 22.1545 23.8911 22.332 23.348 22.532C20.806 23.485 19.494 24.77 18.532 27.338C18.3306 27.884 18.1531 28.4385 18 29C17.8469 28.4385 17.6694 27.884 17.468 27.338C16.505 24.77 15.193 23.485 12.652 22.532C12.1089 22.332 11.5578 22.1545 11 22Z" stroke="#DDC560" stroke-width="2" stroke-linecap="round" stroke-linejoin="round"/>
</g>
<defs>
<clipPath id="clip0_22_121">
<rect width="24" height="24" fill="white" transform="translate(8 8)"/>
</clipPath>
</defs>
</svg>
