<svg width="40" height="40" viewBox="0 0 40 40" fill="none" xmlns="http://www.w3.org/2000/svg">
<rect width="40" height="40" rx="20" fill="#FBBF24" fill-opacity="0.08"/>
<rect x="0.25" y="0.25" width="39.5" height="39.5" rx="19.75" stroke="#FBBF24" stroke-opacity="0.16" stroke-width="0.5"/>
<g clip-path="url(#clip0_41_1649)">
<path d="M12.0001 19C12.255 19.0003 12.5001 19.0979 12.6855 19.2728C12.8708 19.4478 12.9823 19.687 12.9973 19.9414C13.0122 20.1958 12.9294 20.4464 12.7658 20.6418C12.6023 20.8373 12.3702 20.9629 12.1171 20.993L12.0001 21H11.0001C10.7452 20.9997 10.5001 20.9021 10.3147 20.7272C10.1294 20.5522 10.0179 20.313 10.0029 20.0586C9.988 19.8042 10.0708 19.5536 10.2344 19.3582C10.398 19.1627 10.63 19.0371 10.8831 19.007L11.0001 19H12.0001Z" fill="#FBBF24"/>
<path d="M20 10C20.2449 10 20.4813 10.09 20.6644 10.2527C20.8474 10.4155 20.9643 10.6397 20.993 10.883L21 11V12C20.9997 12.2549 20.9021 12.5 20.7272 12.6854C20.5522 12.8707 20.313 12.9822 20.0586 12.9972C19.8042 13.0121 19.5536 12.9293 19.3582 12.7657C19.1627 12.6021 19.0371 12.3701 19.007 12.117L19 12V11C19 10.7348 19.1054 10.4804 19.2929 10.2929C19.4804 10.1054 19.7348 10 20 10Z" fill="#FBBF24"/>
<path d="M29.0001 19C29.255 19.0003 29.5001 19.0979 29.6855 19.2728C29.8708 19.4478 29.9823 19.687 29.9973 19.9414C30.0122 20.1958 29.9294 20.4464 29.7658 20.6418C29.6023 20.8373 29.3702 20.9629 29.1171 20.993L29.0001 21H28.0001C27.7452 20.9997 27.5001 20.9021 27.3147 20.7272C27.1294 20.5522 27.0179 20.313 27.0029 20.0586C26.988 19.8042 27.0708 19.5536 27.2344 19.3582C27.398 19.1627 27.63 19.0371 27.8831 19.007L28.0001 19H29.0001Z" fill="#FBBF24"/>
<path d="M12.8929 12.893C13.0651 12.7208 13.2942 12.6174 13.5372 12.6021C13.7802 12.5868 14.0205 12.6607 14.2129 12.81L14.3069 12.893L15.0069 13.593C15.1862 13.7729 15.2904 14.0144 15.2981 14.2683C15.3059 14.5223 15.2167 14.7697 15.0486 14.9602C14.8806 15.1508 14.6463 15.2703 14.3934 15.2944C14.1405 15.3185 13.8879 15.2454 13.6869 15.09L13.5929 15.007L12.8929 14.307C12.7054 14.1194 12.6001 13.8651 12.6001 13.6C12.6001 13.3348 12.7054 13.0805 12.8929 12.893Z" fill="#FBBF24"/>
<path d="M25.6931 12.893C25.873 12.7137 26.1145 12.6095 26.3685 12.6018C26.6224 12.594 26.8698 12.6832 27.0604 12.8513C27.2509 13.0193 27.3704 13.2536 27.3945 13.5065C27.4186 13.7594 27.3455 14.012 27.1901 14.213L27.1071 14.307L26.4071 15.007C26.2271 15.1864 25.9856 15.2905 25.7317 15.2982C25.4777 15.306 25.2304 15.2168 25.0398 15.0488C24.8492 14.8807 24.7298 14.6465 24.7057 14.3935C24.6816 14.1406 24.7547 13.888 24.9101 13.687L24.9931 13.593L25.6931 12.893Z" fill="#FBBF24"/>
<path d="M22 26C22.2652 26 22.5196 26.1054 22.7071 26.2929C22.8946 26.4804 23 26.7348 23 27C23 27.7956 22.6839 28.5587 22.1213 29.1213C21.5587 29.6839 20.7956 30 20 30C19.2044 30 18.4413 29.6839 17.8787 29.1213C17.3161 28.5587 17 27.7956 17 27C17 26.7551 17.09 26.5187 17.2527 26.3356C17.4155 26.1526 17.6397 26.0357 17.883 26.007L18 26H22Z" fill="#FBBF24"/>
<path d="M20 14C21.2593 14 22.4867 14.3962 23.5083 15.1325C24.5299 15.8689 25.2939 16.908 25.6921 18.1026C26.0903 19.2973 26.1026 20.587 25.7271 21.789C25.3516 22.991 24.6074 24.0444 23.6 24.8C23.4622 24.9035 23.2999 24.9697 23.129 24.992L23 25H17C16.7836 25 16.5731 24.9298 16.4 24.8C15.3926 24.0444 14.6484 22.991 14.2729 21.789C13.8974 20.587 13.9097 19.2973 14.3079 18.1026C14.7061 16.908 15.4701 15.8689 16.4917 15.1325C17.5133 14.3962 18.7407 14 20 14Z" fill="#FBBF24"/>
</g>
<defs>
<clipPath id="clip0_41_1649">
<rect width="24" height="24" fill="white" transform="translate(8 8)"/>
</clipPath>
</defs>
</svg>
