<svg width="48" height="48" viewBox="0 0 48 48" fill="none" xmlns="http://www.w3.org/2000/svg">
<rect x="0.5" y="0.5" width="47" height="47" rx="15.5" fill="#FBBF24" fill-opacity="0.08"/>
<rect x="0.5" y="0.5" width="47" height="47" rx="15.5" stroke="#FBBF24"/>
<path d="M25.1667 18.1667C25.7735 18.0059 26.3653 17.7928 26.9353 17.5297C27.9982 17.0187 28.6783 16.3455 29.1952 15.2757C29.4367 14.7763 29.6408 14.193 29.8333 13.5C30.0258 14.1942 30.23 14.7775 30.4715 15.2745C30.9883 16.3455 31.6685 17.0187 32.7313 17.5297C33.2283 17.7688 33.8105 17.973 34.5 18.1667C33.8931 18.3278 33.3013 18.5413 32.7313 18.8048C31.6685 19.3158 30.9883 19.989 30.4715 21.0588C30.206 21.63 29.9924 22.2239 29.8333 22.8333C29.6408 22.1403 29.4367 21.5558 29.1952 21.0588C28.6783 19.9878 27.9982 19.3158 26.9353 18.8048C26.3661 18.5396 25.7741 18.3261 25.1667 18.1667Z" stroke="#FBBF24" stroke-width="2" stroke-linecap="round" stroke-linejoin="round"/>
<path d="M13.5 26.3333C14.1507 26.1531 14.7937 25.946 15.4273 25.7126C18.393 24.6008 19.9225 23.1016 21.046 20.1056C21.281 19.4686 21.4881 18.8217 21.6667 18.1666C21.8452 18.8217 22.0523 19.4686 22.2873 20.1056C23.4108 23.1005 24.9415 24.6008 27.906 25.7126C28.4893 25.9304 29.1318 26.1373 29.8333 26.3333C29.1826 26.5135 28.5396 26.7206 27.906 26.954C24.9403 28.0658 23.4097 29.565 22.2873 32.561C22.0523 33.198 21.8452 33.8449 21.6667 34.5C21.4881 33.8449 21.281 33.198 21.046 32.561C19.9225 29.565 18.3918 28.0658 15.4273 26.954C14.7937 26.7206 14.1507 26.5135 13.5 26.3333Z" stroke="#FBBF24" stroke-width="2" stroke-linecap="round" stroke-linejoin="round"/>
</svg>
