<svg width="56" height="56" viewBox="0 0 56 56" fill="none" xmlns="http://www.w3.org/2000/svg">
<path d="M28.0557 43.2519C36.4764 43.2519 43.3027 36.4257 43.3027 28.005C43.3027 19.5843 36.4764 12.7581 28.0557 12.7581C19.6351 12.7581 12.8088 19.5843 12.8088 28.005C12.8088 36.4257 19.6351 43.2519 28.0557 43.2519Z" stroke="url(#paint0_linear_58_1643)" stroke-width="0.170886" stroke-linecap="round" stroke-linejoin="round" stroke-dasharray="0.17 2.22"/>
<path d="M47.6932 31.2942C49.5134 20.4268 42.1792 10.1415 31.3118 8.32124C20.4444 6.50101 10.1591 13.8352 8.33885 24.7026C6.51862 35.57 13.8528 45.8553 24.7202 47.6756C35.5876 49.4958 45.873 42.1616 47.6932 31.2942Z" stroke="url(#paint1_linear_58_1643)" stroke-width="0.223618" stroke-linecap="round" stroke-linejoin="round"/>
<path d="M51.9804 32.0194C54.2003 18.7753 45.2634 6.2393 32.0193 4.01942C18.7752 1.79953 6.23918 10.7364 4.0193 23.9805C1.79942 37.2246 10.7363 49.7606 23.9804 51.9805C37.2245 54.2004 49.7605 45.2635 51.9804 32.0194Z" stroke="url(#paint2_linear_58_1643)" stroke-width="0.272562" stroke-linecap="round" stroke-linejoin="round"/>
<path d="M47.022 32.551L47.3043 30.9282C47.3191 30.8441 47.4386 30.8417 47.4568 30.9248L47.8134 32.5466C47.8203 32.5781 47.8459 32.6022 47.8784 32.6066L49.3127 32.8176C49.3969 32.8299 49.4032 32.9485 49.3211 32.9701L47.8321 33.3558C47.8031 33.3631 47.781 33.3872 47.7751 33.4168L47.5099 34.8265C47.4942 34.9097 47.3761 34.9116 47.3574 34.8295L47.0397 33.43C47.0328 33.4005 47.0101 33.3779 46.9806 33.3715L45.6333 33.0719C45.5526 33.0542 45.5522 32.9386 45.6328 32.9199L46.9624 32.613C46.9934 32.6061 47.0165 32.5815 47.022 32.551Z" fill="url(#paint3_linear_58_1643)"/>
<path d="M13.7668 13.6359L13.909 12.8209C13.9164 12.7786 13.9764 12.7771 13.9857 12.8189L14.1648 13.6335C14.1682 13.6492 14.181 13.6615 14.1972 13.6635L14.9179 13.7692C14.9602 13.7756 14.9631 13.8352 14.9218 13.8455L14.1741 14.0393C14.1594 14.0432 14.1481 14.055 14.1456 14.0698L14.0123 14.7776C14.0044 14.8195 13.9454 14.8204 13.936 14.7791L13.7762 14.0762C13.7727 14.0614 13.7614 14.0501 13.7467 14.0467L13.0698 13.8962C13.029 13.8873 13.029 13.8293 13.0693 13.8199L13.7373 13.6659C13.7526 13.664 13.7644 13.6517 13.7668 13.6359Z" fill="url(#paint4_linear_58_1643)"/>
<path d="M47.2483 24.1967L47.3904 23.3816C47.3978 23.3393 47.4578 23.3378 47.4672 23.3801L47.6462 24.1947C47.6497 24.2104 47.6625 24.2227 47.6787 24.2247L48.3993 24.3305C48.4416 24.3369 48.4446 24.3964 48.4033 24.4072L47.6556 24.601C47.6408 24.605 47.6295 24.6168 47.627 24.6315L47.4937 25.3394C47.4859 25.3812 47.4263 25.3822 47.417 25.3408L47.2571 24.6379C47.2537 24.6232 47.2424 24.6118 47.2276 24.6084L46.5508 24.4579C46.5099 24.449 46.5099 24.391 46.5503 24.3816L47.2183 24.2277C47.234 24.2247 47.2453 24.2124 47.2483 24.1967Z" fill="url(#paint5_linear_58_1643)"/>
<path d="M39.743 10.6649C40.1198 10.871 40.258 11.3442 40.0514 11.721C39.8448 12.0978 39.3721 12.236 38.9953 12.0294C38.6185 11.8228 38.4803 11.3501 38.6869 10.9733C38.8935 10.5965 39.3662 10.4583 39.743 10.6649Z" fill="url(#paint6_linear_58_1643)"/>
<path d="M37.5978 9.81187C37.8418 9.94567 37.9313 10.2516 37.7976 10.4956C37.6638 10.7396 37.3578 10.8291 37.1138 10.6953C36.8698 10.5615 36.7803 10.2556 36.9141 10.0116C37.0479 9.7676 37.3539 9.67807 37.5978 9.81187Z" fill="url(#paint7_linear_58_1643)"/>
<path d="M36.0793 9.28312C36.2643 9.38445 36.3317 9.61613 36.2308 9.8006C36.1295 9.98506 35.8978 10.0529 35.7133 9.95161C35.5284 9.85028 35.461 9.6186 35.5623 9.43413C35.6627 9.24967 35.8944 9.18178 36.0793 9.28312Z" fill="url(#paint8_linear_58_1643)"/>
<path d="M34.7222 9.01362C34.8476 9.08249 34.8939 9.2399 34.825 9.36583C34.7562 9.49126 34.5987 9.53751 34.4728 9.46864C34.3474 9.39978 34.3011 9.24237 34.37 9.11644C34.4389 8.991 34.5963 8.94476 34.7222 9.01362Z" fill="url(#paint9_linear_58_1643)"/>
<path d="M7.63457 31.7134C7.54356 31.2933 7.80968 30.8791 8.22977 30.7881C8.64985 30.6971 9.06403 30.9632 9.15503 31.3833C9.24603 31.8034 8.97991 32.2175 8.55983 32.3086C8.14024 32.3996 7.72606 32.1329 7.63457 31.7134Z" fill="url(#paint10_linear_58_1643)"/>
<path d="M8.39749 33.8926C8.33847 33.6205 8.51113 33.3525 8.78315 33.2934C9.05517 33.2344 9.32325 33.4071 9.38228 33.6786C9.44131 33.9506 9.26865 34.2187 8.99712 34.2777C8.7251 34.3372 8.45652 34.1646 8.39749 33.8926Z" fill="url(#paint11_linear_58_1643)"/>
<path d="M8.9937 35.3859C8.94894 35.1803 9.07978 34.9771 9.2854 34.9324C9.49101 34.8876 9.69417 35.0184 9.73893 35.2241C9.78369 35.4297 9.65285 35.6328 9.44723 35.6776C9.24113 35.7223 9.03847 35.5915 8.9937 35.3859Z" fill="url(#paint12_linear_58_1643)"/>
<path d="M9.68015 36.5872C9.64965 36.4471 9.73869 36.3093 9.87839 36.2788C10.0186 36.2483 10.1563 36.3373 10.1868 36.477C10.2173 36.6172 10.1283 36.755 9.98857 36.7855C9.84887 36.816 9.71065 36.7274 9.68015 36.5872Z" fill="url(#paint13_linear_58_1643)"/>
<path d="M41.1882 42.4294C40.9137 40.6157 40.0854 38.8897 38.8423 37.5409C38.525 37.1965 38.1655 36.8665 37.7198 36.7228C37.2741 36.5787 36.7291 36.7169 36.4473 37.0903C36.3184 36.8925 36.0459 36.8281 35.8152 36.8807C35.5845 36.9334 35.3877 37.079 35.2052 37.229C34.3562 37.9255 33.6597 38.7992 33.1466 39.7702C33.1294 39.6516 33.3242 39.145 33.3409 39.083C33.4078 38.8385 33.4678 38.6717 33.4654 38.0146C33.4983 37.2787 33.3591 36.9309 33.3232 36.4292C33.9937 36.4375 34.6858 36.3505 35.1782 36.0258C35.1782 36.0258 37.0744 36.6687 38.4586 35.8856C38.4586 35.8856 41.2113 37.2861 42.7146 35.5989C42.7146 35.5989 41.8129 33.1669 38.6397 33.9918C38.6397 33.9918 36.3066 33.0557 35.0537 34.2574C35.0537 34.2574 34.248 34.0336 33.0295 34.4414L33.0241 34.2796C33.5146 33.6337 33.6759 32.9687 33.6641 32.3626C35.4069 32.46 36.309 31.7768 36.309 31.7768C38.2092 32.7079 40.35 30.6479 40.35 30.6479C44.1858 30.3547 44.1003 27.0826 44.1003 27.0826C41.7116 25.6713 39.317 28.4565 39.317 28.4565C37.4571 28.0782 35.6656 29.6119 35.6656 29.6119C34.8117 29.3743 33.7748 29.698 32.9194 30.1014C33.396 29.5381 33.6439 28.998 33.7462 28.5022C35.2844 27.8864 35.8098 26.9483 35.8098 26.9483C37.9244 27.0339 39.0514 24.2851 39.0514 24.2851C42.443 22.4695 41.0446 19.5098 41.0446 19.5098C38.2899 19.1822 37.222 22.6968 37.222 22.6968C35.3675 23.1011 34.3473 25.2276 34.3473 25.2276C33.8702 25.297 33.4117 25.5449 32.9917 25.8676C32.9833 25.8587 32.9754 25.8504 32.9754 25.8504H32.94C33.0556 25.3545 33.06 24.8326 32.94 24.3378C32.7752 23.6585 32.3847 23.0357 31.8445 22.5915C32.1249 22.501 32.3301 22.2802 32.4796 22.0214C32.5553 21.8901 32.6213 21.7518 32.6655 21.6097C33.002 20.5354 32.6542 19.2781 31.8126 18.5299C32.1653 18.0537 32.2941 17.4187 32.1549 16.8427C32.0595 16.4482 31.8401 16.0861 31.5406 15.8131C31.4648 15.7443 31.1933 15.6051 31.1274 15.5082C31.12 15.4978 31.1042 15.4855 31.1028 15.4762C31.0885 15.3955 31.3433 15.0763 31.3841 14.9843C31.7009 14.272 31.7196 13.3807 31.3261 12.6935C31.6143 12.1327 31.7167 11.478 31.5627 10.8666C31.4092 10.2547 31.0265 9.70325 30.5071 9.34564C30.5376 8.63927 30.1568 7.90338 29.6895 7.37311C29.2222 6.84285 28.5454 6.50146 27.841 6.44194C27.5862 5.61211 27.0052 4.90967 26.228 4.52304C25.4503 4.13641 24.5133 4.08475 23.6982 4.38285C23.1104 3.40101 22.0818 2.56282 20.9416 2.46543C19.8014 2.36803 18.6267 2.84861 17.881 3.71681C15.8888 5.62784 11.9172 3.98786 11.9172 3.98786C13.3383 8.43317 18.2937 6.10106 18.2937 6.10106C18.8692 6.33422 20.3665 6.66428 21.0272 6.65199C21.5166 6.64313 21.9844 6.49557 22.4045 6.24962C22.6986 6.07745 22.6573 6.03072 22.9131 6.22157C23.0759 6.34356 23.1994 6.53442 23.3671 6.66182C24.0504 7.17979 24.9702 7.43313 25.8207 7.43313C26.0711 8.50154 26.7411 9.34268 27.6988 9.87885C27.2655 10.8459 27.7362 11.8558 28.4622 12.6276C28.3963 12.5573 27.8606 13.4535 27.8267 13.5425C27.6885 13.9031 27.6516 14.2907 27.7298 14.6695C27.7657 14.8416 27.8956 15.0182 27.8129 15.1643C27.7633 15.2524 27.417 15.3704 27.3196 15.4496C27.0057 15.7054 26.776 16.0699 26.6963 16.4683C26.5709 17.098 26.8237 17.7881 27.3264 18.1871C26.379 18.3725 25.5856 19.1822 25.4198 20.133C25.2541 21.0843 25.7263 22.1144 26.5551 22.6097C26.0244 22.9393 25.6569 23.5192 25.5856 24.1395C25.5143 24.7603 25.7406 25.4082 26.1833 25.8494C26.1833 25.8494 26.1729 25.8602 26.1567 25.8779C25.7317 25.5493 25.2669 25.297 24.7833 25.2266C24.7833 25.2266 23.7631 23.1002 21.9087 22.6958C21.9087 22.6958 20.8412 19.1812 18.0861 19.5088C18.0861 19.5088 16.6876 22.4681 20.0793 24.2842C20.0793 24.2842 21.2067 27.0329 23.3209 26.9473C23.3209 26.9473 23.8512 27.9001 25.4159 28.5155C25.5212 29.0133 25.7706 29.5549 26.2536 30.1196C25.3908 29.7069 24.3332 29.3694 23.465 29.611C23.465 29.611 21.6735 28.0767 19.8136 28.4555C19.8136 28.4555 17.4186 25.6703 15.0304 27.0816C15.0304 27.0816 14.9448 30.3537 18.7807 30.6469C18.7807 30.6469 20.9214 32.7075 22.8216 31.7758C22.8216 31.7758 23.7449 32.8973 25.5271 32.8801C25.6077 33.4173 25.8375 33.981 26.3264 34.5226C24.982 34.0051 24.0765 34.257 24.0765 34.257C22.8236 33.0552 20.4905 33.9913 20.4905 33.9913C17.3173 33.1659 16.4156 35.5984 16.4156 35.5984C17.9188 37.2861 20.6715 35.8851 20.6715 35.8851C22.0557 36.6687 23.952 36.0253 23.952 36.0253C24.4513 36.3544 25.1557 36.4444 25.8345 36.4331C25.7814 37.1887 25.9078 38.0347 26.5119 38.7091C26.1065 38.1607 25.6353 37.6609 25.108 37.228C24.925 37.078 24.7282 36.9324 24.498 36.8798C24.2673 36.8271 23.9953 36.8916 23.8659 37.0893C23.5836 36.7155 23.039 36.5777 22.5934 36.7219C22.1477 36.866 21.7881 37.1956 21.4709 37.5399C20.2278 38.8887 19.3995 40.6148 19.125 42.4284C17.9823 42.5907 17.1323 43.7521 16.8937 44.8815C16.6552 46.0109 16.9857 47.2008 17.5632 48.2008C18.1407 49.2004 18.9499 50.0425 19.7492 50.8753C20.549 51.7081 21.3558 52.5532 21.9259 53.5567C21.5678 51.5959 21.371 49.5772 21.0129 47.6165C20.8835 46.9072 20.7891 46.0739 21.2948 45.5598C21.0665 46.5928 21.5264 47.5688 21.9165 48.5521C22.3819 49.7267 22.8477 50.9014 23.313 52.076C24.6239 48.7218 23.6318 44.5947 20.9686 42.1701C22.1394 41.2129 22.9392 39.8538 23.5359 38.4642C23.7671 39.6905 24.016 40.9015 24.5634 42.0231C24.866 42.6429 25.2246 43.2523 25.746 43.7039C26.0682 43.9828 26.4656 44.1791 26.8793 44.2676C26.9369 44.4772 27.0018 44.6542 27.0815 44.7634C27.7647 45.7 29.8046 45.6543 30.2434 44.5809C30.3428 45.2947 32.0118 45.579 32.9681 45.2003C33.2779 45.0773 33.4462 44.7221 33.5264 44.2484C33.9061 44.1496 34.2681 43.9617 34.5657 43.7039C35.0876 43.2528 35.4458 42.6429 35.7483 42.0231C36.2958 40.9015 36.5442 39.6905 36.7759 38.4642C37.3725 39.8538 38.1724 41.2129 39.3431 42.1701C36.6799 44.5947 35.6878 48.7218 36.9987 52.076C37.464 50.9014 37.9298 49.7267 38.3952 48.5521C38.7848 47.5688 39.2447 46.5928 39.017 45.5598C39.5226 46.0739 39.4282 46.9072 39.2988 47.6165C38.9407 49.5772 38.7439 51.5959 38.3858 53.5567C38.9564 52.5532 39.7632 51.7076 40.5625 50.8753C41.3623 50.0425 42.1715 49.2009 42.7485 48.2008C43.326 47.2013 43.6566 46.0114 43.418 44.8815C43.1814 43.7531 42.3314 42.5917 41.1882 42.4294Z" fill="url(#paint14_linear_58_1643)"/>
<path d="M29.9498 18.7708C29.9498 18.7708 28.8568 18.0502 27.0166 18.1417" stroke="black" stroke-width="0.368925" stroke-miterlimit="10" stroke-linecap="round" stroke-linejoin="round"/>
<path d="M30.2776 15.4358C30.2776 15.4358 28.9066 14.726 27.6272 15.1539" stroke="black" stroke-width="0.368925" stroke-miterlimit="10" stroke-linecap="round" stroke-linejoin="round"/>
<path d="M29.9496 12.6811C29.9496 12.6811 29.0716 12.4081 28.1935 12.7357" stroke="black" stroke-width="0.368925" stroke-miterlimit="10" stroke-linecap="round" stroke-linejoin="round"/>
<path d="M29.2753 9.50626C29.2753 9.50626 28.4833 9.42214 27.5133 9.83239" stroke="black" stroke-width="0.368925" stroke-miterlimit="10" stroke-linecap="round" stroke-linejoin="round"/>
<path d="M26.7477 6.7533C26.7477 6.7533 25.9769 6.86054 25.6355 7.37999" stroke="black" stroke-width="0.368925" stroke-miterlimit="10" stroke-linecap="round" stroke-linejoin="round"/>
<path d="M22.5486 6.05427C22.5486 6.05427 22.5486 5.22296 23.3184 4.79944" stroke="black" stroke-width="0.368925" stroke-miterlimit="10" stroke-linecap="round" stroke-linejoin="round"/>
<path d="M18.1078 6.04751C18.1078 6.04751 17.5111 5.28212 17.7251 4.51721" stroke="black" stroke-width="0.368925" stroke-miterlimit="10" stroke-linecap="round" stroke-linejoin="round"/>
<path d="M29.5879 22.4074C29.5879 22.4074 28.0094 21.7335 26.3694 22.5717" stroke="black" stroke-width="0.368925" stroke-miterlimit="10" stroke-linecap="round" stroke-linejoin="round"/>
<path d="M21.3286 23.3109C21.3286 23.3109 20.7044 24.1929 19.8942 24.2323" stroke="black" stroke-width="0.368925" stroke-miterlimit="10" stroke-linecap="round" stroke-linejoin="round"/>
<path d="M23.1359 26.8952C23.1359 26.8952 23.8285 26.7255 24.1748 26.0786" stroke="black" stroke-width="0.368925" stroke-miterlimit="10" stroke-linecap="round" stroke-linejoin="round"/>
<path d="M18.5952 30.5946C18.5952 30.5946 19.2603 30.3373 19.4649 29.5035" stroke="black" stroke-width="0.368925" stroke-miterlimit="10" stroke-linecap="round" stroke-linejoin="round"/>
<path d="M22.6357 31.7237C22.6357 31.7237 23.195 31.3622 23.3042 30.6652" stroke="black" stroke-width="0.368925" stroke-miterlimit="10" stroke-linecap="round" stroke-linejoin="round"/>
<path d="M20.4864 35.8328C20.4864 35.8328 20.6399 35.3793 20.4214 34.696" stroke="black" stroke-width="0.368925" stroke-miterlimit="10" stroke-linecap="round" stroke-linejoin="round"/>
<path d="M23.7675 35.973C23.7675 35.973 24.0509 35.4855 23.9608 34.696" stroke="black" stroke-width="0.368925" stroke-miterlimit="10" stroke-linecap="round" stroke-linejoin="round"/>
<path d="M37.6013 23.3109C37.6013 23.3109 38.2255 24.1929 39.0357 24.2323" stroke="black" stroke-width="0.368925" stroke-miterlimit="10" stroke-linecap="round" stroke-linejoin="round"/>
<path d="M35.7943 26.8952C35.7943 26.8952 35.1017 26.7255 34.7554 26.0786" stroke="black" stroke-width="0.368925" stroke-miterlimit="10" stroke-linecap="round" stroke-linejoin="round"/>
<path d="M40.3346 30.5946C40.3346 30.5946 39.6696 30.3373 39.4649 29.5035" stroke="black" stroke-width="0.368925" stroke-miterlimit="10" stroke-linecap="round" stroke-linejoin="round"/>
<path d="M36.2936 31.7237C36.2936 31.7237 35.7343 31.3622 35.6251 30.6652" stroke="black" stroke-width="0.368925" stroke-miterlimit="10" stroke-linecap="round" stroke-linejoin="round"/>
<path d="M38.4431 35.8328C38.4431 35.8328 38.2896 35.3793 38.508 34.696" stroke="black" stroke-width="0.368925" stroke-miterlimit="10" stroke-linecap="round" stroke-linejoin="round"/>
<path d="M35.1623 35.973C35.1623 35.973 34.879 35.4855 34.969 34.696" stroke="black" stroke-width="0.368925" stroke-miterlimit="10" stroke-linecap="round" stroke-linejoin="round"/>
<path d="M21.2232 44.8159C21.2232 44.8159 20.7028 46.419 21.4367 47.758C22.1706 49.0974 23.1544 52.1216 23.1544 52.1216" stroke="black" stroke-width="0.368925" stroke-miterlimit="10" stroke-linecap="round" stroke-linejoin="round"/>
<path d="M21.345 50.7645C21.3376 50.9145 21.741 53.5044 21.741 53.5044C21.741 53.5044 20.2018 51.2485 19.4777 50.733C18.7542 50.2175 16.606 47.877 16.6459 45.9458" stroke="black" stroke-width="0.368925" stroke-miterlimit="10" stroke-linecap="round" stroke-linejoin="round"/>
<path d="M38.8915 44.8159C38.8915 44.8159 39.4124 46.419 38.678 47.758C37.9441 49.0974 36.9603 52.1216 36.9603 52.1216" stroke="black" stroke-width="0.368925" stroke-miterlimit="10" stroke-linecap="round" stroke-linejoin="round"/>
<path d="M38.7459 50.7645C38.7533 50.9145 38.3499 53.5044 38.3499 53.5044C38.3499 53.5044 39.8896 51.2485 40.6131 50.733C41.3367 50.2175 43.4849 47.877 43.445 45.9458" stroke="black" stroke-width="0.368925" stroke-miterlimit="10" stroke-linecap="round" stroke-linejoin="round"/>
<path d="M23.3205 38.7072C23.3205 38.7072 23.2196 38.4101 23.4922 37.6885" stroke="black" stroke-width="0.368925" stroke-miterlimit="10" stroke-linecap="round" stroke-linejoin="round"/>
<path d="M36.5914 38.412C36.5914 38.412 36.6632 37.866 36.372 37.5109" stroke="black" stroke-width="0.368925" stroke-miterlimit="10" stroke-linecap="round" stroke-linejoin="round"/>
<path d="M28.4689 45.094C28.7405 45.094 28.9608 44.8738 28.9608 44.6021C28.9608 44.3305 28.7405 44.1102 28.4689 44.1102C28.1972 44.1102 27.977 44.3305 27.977 44.6021C27.977 44.8738 28.1972 45.094 28.4689 45.094Z" fill="black"/>
<path d="M31.2563 45.094C31.528 45.094 31.7482 44.8738 31.7482 44.6021C31.7482 44.3305 31.528 44.1102 31.2563 44.1102C30.9847 44.1102 30.7644 44.3305 30.7644 44.6021C30.7644 44.8738 30.9847 45.094 31.2563 45.094Z" fill="black"/>
<path d="M28.2628 44.6019C28.0173 44.6157 27.4025 44.6019 27.4025 44.6019C27.4025 44.6019 28.8098 45.9817 28.5092 46.7747" stroke="black" stroke-width="0.368925" stroke-miterlimit="10" stroke-linecap="round" stroke-linejoin="round"/>
<path d="M31.4625 44.6019C31.7079 44.6157 32.3228 44.6019 32.3228 44.6019C32.3228 44.6019 30.9155 45.9817 31.216 46.7747" stroke="black" stroke-width="0.368925" stroke-miterlimit="10" stroke-linecap="round" stroke-linejoin="round"/>
<path d="M25.7533 36.3805C25.7533 36.3805 27.4021 34.4684 32.026 35.6303" stroke="black" stroke-width="0.368925" stroke-miterlimit="10" stroke-linecap="round" stroke-linejoin="round"/>
<path d="M32.0268 29.2577C32.0268 29.2577 28.4689 28.1647 26.1722 29.9744" stroke="black" stroke-width="0.368925" stroke-miterlimit="10" stroke-linecap="round" stroke-linejoin="round"/>
<path d="M26.1838 25.8498C26.1838 25.8498 27.9793 24.232 31.1614 25.2403" stroke="black" stroke-width="0.368925" stroke-miterlimit="10" stroke-linecap="round" stroke-linejoin="round"/>
<path d="M29.4849 35.2645V37.0555" stroke="black" stroke-width="0.368925" stroke-miterlimit="10" stroke-linecap="round" stroke-linejoin="round"/>
<path d="M28.644 35.3728V36.3807" stroke="black" stroke-width="0.368925" stroke-miterlimit="10" stroke-linecap="round" stroke-linejoin="round"/>
<path d="M30.3263 35.3728V36.3807" stroke="black" stroke-width="0.368925" stroke-miterlimit="10" stroke-linecap="round" stroke-linejoin="round"/>
<path d="M29.0901 29.0797L29.1781 30.8688" stroke="black" stroke-width="0.368925" stroke-miterlimit="10" stroke-linecap="round" stroke-linejoin="round"/>
<path d="M28.2556 29.229L28.3053 30.2354" stroke="black" stroke-width="0.368925" stroke-miterlimit="10" stroke-linecap="round" stroke-linejoin="round"/>
<path d="M29.9358 29.1462L29.9849 30.1527" stroke="black" stroke-width="0.368925" stroke-miterlimit="10" stroke-linecap="round" stroke-linejoin="round"/>
<path d="M26.3654 26.1627C26.3654 26.0796 26.4327 26.0117 26.5164 26.0117C26.5995 26.0117 26.6674 26.0791 26.6674 26.1627C26.6674 26.2459 26.6 26.3138 26.5164 26.3138C26.4327 26.3138 26.3654 26.2459 26.3654 26.1627Z" fill="black"/>
<path d="M27.555 25.9709C27.6384 25.9709 27.706 25.9032 27.706 25.8198C27.706 25.7364 27.6384 25.6688 27.555 25.6688C27.4716 25.6688 27.404 25.7364 27.404 25.8198C27.404 25.9032 27.4716 25.9709 27.555 25.9709Z" fill="black"/>
<path d="M28.4434 25.5307C28.437 25.4476 28.4995 25.3752 28.5826 25.3693C28.6658 25.363 28.7381 25.4254 28.744 25.5086C28.7499 25.5917 28.6879 25.664 28.6048 25.6699C28.5221 25.6758 28.4498 25.6133 28.4434 25.5307Z" fill="black"/>
<path d="M29.4824 25.4963C29.4765 25.4132 29.5385 25.3409 29.6216 25.335C29.7047 25.3291 29.777 25.3911 29.7834 25.4742C29.7893 25.5573 29.7273 25.6296 29.6442 25.6355C29.5611 25.6419 29.4888 25.5794 29.4824 25.4963Z" fill="black"/>
<path d="M30.5214 25.6191C30.5151 25.536 30.5775 25.4637 30.6607 25.4578C30.7438 25.4519 30.8161 25.5139 30.822 25.597C30.8284 25.6801 30.7659 25.7524 30.6828 25.7583C30.5997 25.7647 30.5273 25.7022 30.5214 25.6191Z" fill="black"/>
<path d="M23.3056 26.1437C23.2997 26.0606 23.3617 25.9883 23.4448 25.9824C23.528 25.976 23.6003 26.0385 23.6067 26.1216C23.6126 26.2047 23.5506 26.277 23.4675 26.2829C23.3838 26.2888 23.3115 26.2264 23.3056 26.1437Z" fill="black"/>
<path d="M20.2028 23.4063C20.1964 23.3232 20.2589 23.2509 20.342 23.245C20.4252 23.2386 20.4975 23.301 20.5034 23.3842C20.5093 23.4673 20.4473 23.5396 20.3642 23.5455C20.281 23.5514 20.2087 23.4894 20.2028 23.4063Z" fill="black"/>
<path d="M18.5953 29.8947C18.5889 29.8116 18.6514 29.7393 18.7345 29.7334C18.8176 29.727 18.8899 29.7894 18.8959 29.8726C18.9018 29.9557 18.8398 30.028 18.7566 30.0339C18.674 30.0398 18.6017 29.9773 18.5953 29.8947Z" fill="black"/>
<path d="M22.4857 31.0831C22.4798 30.9999 22.5418 30.9276 22.6249 30.9217C22.7081 30.9153 22.7804 30.9778 22.7863 31.0609C22.7927 31.1441 22.7302 31.2164 22.6471 31.2228C22.564 31.2287 22.4916 31.1662 22.4857 31.0831Z" fill="black"/>
<path d="M23.2472 35.3842C23.2409 35.3011 23.3033 35.2288 23.3865 35.2229C23.4696 35.2165 23.5419 35.2789 23.5478 35.3621C23.5542 35.4452 23.4917 35.5175 23.4086 35.5234C23.3255 35.5293 23.2531 35.4673 23.2472 35.3842Z" fill="black"/>
<path d="M19.7435 35.4927C19.7371 35.4096 19.7995 35.3373 19.8827 35.3314C19.9658 35.325 20.0381 35.3875 20.044 35.4706C20.0499 35.5537 19.9879 35.626 19.9048 35.6319C19.8217 35.6383 19.7494 35.5759 19.7435 35.4927Z" fill="black"/>
<path d="M35.668 26.1437C35.6739 26.0606 35.6119 25.9883 35.5288 25.9824C35.4457 25.976 35.3734 26.0385 35.3675 26.1216C35.3611 26.2047 35.4235 26.277 35.5067 26.2829C35.5898 26.2888 35.6621 26.2264 35.668 26.1437Z" fill="black"/>
<path d="M38.7709 23.4063C38.7768 23.3232 38.7148 23.2509 38.6317 23.245C38.5485 23.2386 38.4762 23.301 38.4703 23.3842C38.4639 23.4673 38.5264 23.5396 38.6095 23.5455C38.6922 23.5514 38.7645 23.4894 38.7709 23.4063Z" fill="black"/>
<path d="M40.3784 29.8947C40.3848 29.8116 40.3223 29.7393 40.2392 29.7334C40.1561 29.727 40.0837 29.7894 40.0778 29.8726C40.0714 29.9557 40.1339 30.028 40.2171 30.0339C40.2997 30.0398 40.372 29.9773 40.3784 29.8947Z" fill="black"/>
<path d="M36.4874 31.0831C36.4938 30.9999 36.4313 30.9276 36.3482 30.9217C36.265 30.9153 36.1927 30.9778 36.1868 31.0609C36.1809 31.1441 36.2429 31.2164 36.326 31.2228C36.4092 31.2287 36.4815 31.1662 36.4874 31.0831Z" fill="black"/>
<path d="M35.7269 35.3842C35.7328 35.3011 35.6708 35.2288 35.5877 35.2229C35.5045 35.2165 35.4322 35.2789 35.4263 35.3621C35.4199 35.4452 35.4824 35.5175 35.5655 35.5234C35.6482 35.5293 35.7205 35.4673 35.7269 35.3842Z" fill="black"/>
<path d="M39.2307 35.4927C39.2371 35.4096 39.1746 35.3373 39.0915 35.3314C39.0083 35.325 38.936 35.3875 38.9296 35.4706C38.9237 35.5537 38.9857 35.626 39.0688 35.6319C39.152 35.6383 39.2243 35.5759 39.2307 35.4927Z" fill="black"/>
<path d="M26.404 22.981C26.4168 22.8989 26.4935 22.8423 26.5756 22.8546C26.6578 22.8674 26.7144 22.9441 26.7021 23.0263C26.6893 23.1084 26.6125 23.165 26.5304 23.1527C26.4477 23.1404 26.3912 23.0632 26.404 22.981Z" fill="black"/>
<path d="M27.4829 22.7283C27.4957 22.6462 27.5725 22.5896 27.6551 22.6019C27.7373 22.6147 27.7938 22.6914 27.7815 22.7736C27.7687 22.8557 27.692 22.9123 27.6094 22.9C27.5267 22.8877 27.4702 22.811 27.4829 22.7283Z" fill="black"/>
<path d="M28.87 22.7394C28.8764 22.6563 28.9492 22.5943 29.0318 22.6007C29.1149 22.6071 29.1769 22.6799 29.1705 22.7625C29.1641 22.8452 29.0913 22.9076 29.0087 22.9012C28.9255 22.8948 28.8636 22.8225 28.87 22.7394Z" fill="black"/>
<path d="M26.9282 18.6008C26.9548 18.5216 27.0404 18.4793 27.1191 18.5059C27.1983 18.5324 27.2406 18.618 27.214 18.6967C27.1874 18.7759 27.1018 18.8182 27.0231 18.7917C26.9444 18.7651 26.9016 18.6795 26.9282 18.6008Z" fill="black"/>
<path d="M28.111 18.7232C28.1375 18.644 28.2231 18.6017 28.3018 18.6283C28.3805 18.6549 28.4233 18.74 28.3968 18.8191C28.3702 18.8979 28.2846 18.9406 28.2059 18.9141C28.1272 18.8875 28.0844 18.8019 28.111 18.7232Z" fill="black"/>
<path d="M29.2916 18.9337C29.3123 18.853 29.3945 18.8043 29.4751 18.8249C29.5558 18.8456 29.6045 18.9277 29.5838 19.0084C29.5632 19.0891 29.481 19.1378 29.4004 19.1171C29.3197 19.0965 29.271 19.0143 29.2916 18.9337Z" fill="black"/>
<path d="M27.6939 15.6006C27.7205 15.5214 27.8061 15.479 27.8848 15.5056C27.9635 15.5322 28.0063 15.6178 27.9797 15.6965C27.9532 15.7757 27.8676 15.818 27.7889 15.7914C27.7102 15.7653 27.6674 15.6798 27.6939 15.6006Z" fill="black"/>
<path d="M28.8772 15.7234C28.9037 15.6447 28.9893 15.6019 29.068 15.6285C29.1472 15.655 29.1895 15.7406 29.163 15.8193C29.1364 15.898 29.0508 15.9409 28.9721 15.9143C28.8934 15.8877 28.8506 15.8021 28.8772 15.7234Z" fill="black"/>
<path d="M30.057 15.9341C30.0777 15.8535 30.1598 15.8048 30.2405 15.8254C30.3211 15.8461 30.3698 15.9282 30.3492 16.0089C30.3285 16.0896 30.2464 16.1383 30.1657 16.1176C30.085 16.097 30.0363 16.0148 30.057 15.9341Z" fill="black"/>
<path d="M28.3297 13.0827C28.3484 13.0015 28.4291 12.9508 28.5103 12.969C28.5914 12.9877 28.6421 13.0684 28.6239 13.1496C28.6052 13.2307 28.5245 13.2814 28.4434 13.2632C28.3617 13.2445 28.3111 13.1638 28.3297 13.0827Z" fill="black"/>
<path d="M29.5196 13.0877C29.5383 13.0065 29.619 12.9558 29.7001 12.974C29.7813 12.9927 29.832 13.0734 29.8138 13.1546C29.7951 13.2357 29.7144 13.2864 29.6332 13.2682C29.5516 13.2495 29.5009 13.1688 29.5196 13.0877Z" fill="black"/>
<path d="M27.7458 10.2059C27.7458 10.1228 27.8132 10.0549 27.8968 10.0549C27.9799 10.0549 28.0478 10.1223 28.0478 10.2059C28.0478 10.2891 27.9804 10.357 27.8968 10.357C27.8137 10.3565 27.7458 10.2891 27.7458 10.2059Z" fill="black"/>
<path d="M28.9068 9.94582C28.9068 9.86269 28.9742 9.7948 29.0574 9.7948C29.1405 9.7948 29.2084 9.86219 29.2084 9.94582C29.2084 10.0294 29.141 10.0963 29.0574 10.0963C28.9742 10.0968 28.9068 10.0294 28.9068 9.94582Z" fill="black"/>
<path d="M25.9948 7.69216C25.9736 7.61149 26.0213 7.52934 26.102 7.5077C26.1827 7.48654 26.2653 7.53427 26.2865 7.61494C26.3076 7.69561 26.2599 7.77776 26.1792 7.7994C26.0985 7.82055 26.0159 7.77283 25.9948 7.69216Z" fill="black"/>
<path d="M26.7532 7.256C26.732 7.17533 26.7797 7.09318 26.8604 7.07154C26.9411 7.05039 27.0237 7.09811 27.0449 7.17878C27.066 7.25945 27.0183 7.3416 26.9376 7.36324C26.857 7.3844 26.7743 7.33618 26.7532 7.256Z" fill="black"/>
<path d="M22.9256 6.05766C22.871 5.9947 22.8774 5.89977 22.9404 5.84517C23.0033 5.79057 23.0983 5.79696 23.1534 5.85993C23.208 5.92289 23.2016 6.01781 23.1386 6.07242C23.0756 6.12702 22.9807 6.12013 22.9256 6.05766Z" fill="black"/>
<path d="M23.4142 5.33099C23.3596 5.26803 23.366 5.17309 23.4289 5.11849C23.4919 5.06388 23.5868 5.07028 23.6414 5.13324C23.696 5.19621 23.6896 5.29115 23.6267 5.34575C23.5637 5.40035 23.4688 5.39395 23.4142 5.33099Z" fill="black"/>
<path d="M18.5271 5.81528C18.4444 5.80396 18.3869 5.72821 18.3977 5.64557C18.409 5.56293 18.4848 5.50538 18.5674 5.5162C18.65 5.52751 18.7076 5.60327 18.6968 5.68591C18.6855 5.76854 18.6097 5.82659 18.5271 5.81528Z" fill="black"/>
<path d="M18.4136 4.94748C18.331 4.93616 18.2734 4.86041 18.2842 4.77777C18.2955 4.69513 18.3713 4.63758 18.4539 4.6484C18.5366 4.65972 18.5941 4.73547 18.5833 4.81811C18.572 4.90075 18.4962 4.95879 18.4136 4.94748Z" fill="black"/>
<path d="M28.6104 39.8969C28.6104 39.4139 29.0019 39.0223 29.485 39.0223C29.968 39.0223 30.3595 39.4139 30.3595 39.8969C30.3595 40.38 29.968 40.7715 29.485 40.7715C29.0019 40.7715 28.6104 40.38 28.6104 39.8969Z" stroke="black" stroke-width="0.368925" stroke-miterlimit="10" stroke-linecap="round" stroke-linejoin="round"/>
<defs>
<linearGradient id="paint0_linear_58_1643" x1="12.7237" y1="28.0051" x2="43.3882" y2="28.0051" gradientUnits="userSpaceOnUse">
<stop stop-color="#C1AB75"/>
<stop offset="1" stop-color="#E6E1B3"/>
</linearGradient>
<linearGradient id="paint1_linear_58_1643" x1="24.7018" y1="47.786" x2="31.3304" y2="8.21063" gradientUnits="userSpaceOnUse">
<stop stop-color="#C1AB75"/>
<stop offset="1" stop-color="#E6E1B3"/>
</linearGradient>
<linearGradient id="paint2_linear_58_1643" x1="23.9579" y1="52.1151" x2="32.0419" y2="3.88466" gradientUnits="userSpaceOnUse">
<stop stop-color="#C1AB75"/>
<stop offset="1" stop-color="#E6E1B3"/>
</linearGradient>
<linearGradient id="paint3_linear_58_1643" x1="47.5012" y1="31.6165" x2="47.3919" y2="37.4647" gradientUnits="userSpaceOnUse">
<stop stop-color="#C19566"/>
<stop offset="1" stop-color="#E6E1B3"/>
</linearGradient>
<linearGradient id="paint4_linear_58_1643" x1="14.0077" y1="13.1668" x2="13.9528" y2="16.104" gradientUnits="userSpaceOnUse">
<stop stop-color="#C19566"/>
<stop offset="1" stop-color="#E6E1B3"/>
</linearGradient>
<linearGradient id="paint5_linear_58_1643" x1="47.4889" y1="23.7274" x2="47.434" y2="26.6646" gradientUnits="userSpaceOnUse">
<stop stop-color="#C19566"/>
<stop offset="1" stop-color="#E6E1B3"/>
</linearGradient>
<linearGradient id="paint6_linear_58_1643" x1="40.0976" y1="11.6705" x2="34.2741" y2="9.08377" gradientUnits="userSpaceOnUse">
<stop stop-color="#C19566"/>
<stop offset="1" stop-color="#E6E1B3"/>
</linearGradient>
<linearGradient id="paint7_linear_58_1643" x1="40.1718" y1="11.5045" x2="34.3483" y2="8.91778" gradientUnits="userSpaceOnUse">
<stop stop-color="#C19566"/>
<stop offset="1" stop-color="#E6E1B3"/>
</linearGradient>
<linearGradient id="paint8_linear_58_1643" x1="40.1666" y1="11.5144" x2="34.3434" y2="8.92786" gradientUnits="userSpaceOnUse">
<stop stop-color="#C19566"/>
<stop offset="1" stop-color="#E6E1B3"/>
</linearGradient>
<linearGradient id="paint9_linear_58_1643" x1="40.0925" y1="11.682" x2="34.269" y2="9.0953" gradientUnits="userSpaceOnUse">
<stop stop-color="#C19566"/>
<stop offset="1" stop-color="#E6E1B3"/>
</linearGradient>
<linearGradient id="paint10_linear_58_1643" x1="8.16185" y1="30.7864" x2="10.0261" y2="36.8796" gradientUnits="userSpaceOnUse">
<stop stop-color="#C19566"/>
<stop offset="1" stop-color="#E6E1B3"/>
</linearGradient>
<linearGradient id="paint11_linear_58_1643" x1="7.9884" y1="30.8395" x2="9.85268" y2="36.9328" gradientUnits="userSpaceOnUse">
<stop stop-color="#C19566"/>
<stop offset="1" stop-color="#E6E1B3"/>
</linearGradient>
<linearGradient id="paint12_linear_58_1643" x1="7.9989" y1="30.8361" x2="9.86325" y2="36.9296" gradientUnits="userSpaceOnUse">
<stop stop-color="#C19566"/>
<stop offset="1" stop-color="#E6E1B3"/>
</linearGradient>
<linearGradient id="paint13_linear_58_1643" x1="8.17441" y1="30.7828" x2="10.0387" y2="36.876" gradientUnits="userSpaceOnUse">
<stop stop-color="#C19566"/>
<stop offset="1" stop-color="#E6E1B3"/>
</linearGradient>
<linearGradient id="paint14_linear_58_1643" x1="11.9173" y1="28.005" x2="44.1013" y2="28.005" gradientUnits="userSpaceOnUse">
<stop stop-color="#C1AB75"/>
<stop offset="1" stop-color="#E6E1B3"/>
</linearGradient>
</defs>
</svg>
