<svg width="80" height="80" viewBox="0 0 80 80" fill="none" xmlns="http://www.w3.org/2000/svg">
<rect width="80" height="80" rx="40" fill="#C2D1F3" fill-opacity="0.08"/>
<rect x="0.25" y="0.25" width="79.5" height="79.5" rx="39.75" stroke="#C2D1F3" stroke-opacity="0.16" stroke-width="0.5"/>
<g clip-path="url(#clip0_79_667)">
<path d="M49.9998 40.7629L39.9997 50.6669L29.9998 40.7629C29.3402 40.1211 28.8206 39.3496 28.4738 38.4971C28.127 37.6446 27.9605 36.7295 27.9847 35.8095C28.009 34.8895 28.2234 33.9844 28.6146 33.1514C29.0058 32.3183 29.5653 31.5752 30.2577 30.969C30.9502 30.3628 31.7607 29.9065 32.6382 29.6289C33.5156 29.3513 34.4411 29.2583 35.3562 29.356C36.2714 29.4536 37.1564 29.7396 37.9556 30.1961C38.7548 30.6526 39.4507 31.2696 39.9997 32.0082C40.5511 31.2749 41.2479 30.6633 42.0466 30.2117C42.8452 29.7601 43.7284 29.4782 44.641 29.3836C45.5536 29.289 46.4759 29.3838 47.3501 29.6621C48.2244 29.9403 49.0318 30.3961 49.7218 31.0007C50.4119 31.6054 50.9697 32.3459 51.3603 33.1761C51.751 34.0062 51.9661 34.9081 51.9922 35.8252C52.0183 36.7423 51.8548 37.6549 51.5119 38.5059C51.1691 39.3569 50.6543 40.128 49.9998 40.7709" stroke="#C2D1F3" stroke-width="2.66667" stroke-linecap="round" stroke-linejoin="round"/>
</g>
<defs>
<clipPath id="clip0_79_667">
<rect width="32" height="32" fill="white" transform="translate(24 24)"/>
</clipPath>
</defs>
</svg>
