<svg width="57" height="57" viewBox="0 0 57 57" fill="none" xmlns="http://www.w3.org/2000/svg">
<path d="M49.9293 21.1446C48.705 18.4781 46.1245 16.3769 43.3097 15.7525C44.9613 14.9034 46.765 14.4245 48.5873 14.7401C46.5563 12.2776 43.4007 10.8258 40.2512 10.7801C41.0721 9.48004 42.2206 8.27359 43.7087 7.99317C41.1059 6.86032 38.2229 6.40875 35.4282 6.85754C35.8147 6.30283 36.2415 5.91926 36.8732 5.70518C33.595 4.78139 29.4578 5.84401 27.0953 8.34552C24.7329 5.84401 20.5962 4.78139 17.3174 5.70518C17.9492 5.91926 18.376 6.30339 18.7625 6.85754C15.9683 6.40875 13.0848 6.85977 10.482 7.99317C11.9706 8.27303 13.1186 9.47948 13.9395 10.7801C10.7899 10.8258 7.63439 12.2776 5.60283 14.7401C7.42562 14.4251 9.22933 14.9034 10.881 15.7525C8.0661 16.3769 5.48618 18.4781 4.26135 21.1446C5.14168 20.8664 5.98548 20.9891 6.90669 20.9635C7.88513 20.9361 8.91154 21.0711 9.71828 21.6386C7.39509 23.3908 6.1719 26.3919 6.57418 29.3154C7.55098 28.4842 8.61774 28.1703 9.884 28.0632C8.87067 30.4521 8.9666 33.3389 10.0039 35.7172C10.4863 34.7009 11.6032 34.0809 12.64 33.6912C11.9913 36.4275 12.4356 39.6771 13.8692 42.0811C14.0567 40.8306 14.81 39.5378 15.7846 38.7584C15.4243 40.8925 15.9852 43.1883 17.1735 44.9812C17.3692 43.6466 18.007 42.3699 18.5526 41.1411C18.6066 43.4776 19.7202 45.8961 21.4209 47.4571C21.3435 45.9284 22.1213 44.296 23.1963 43.2306C23.3941 46.0839 24.8942 48.8207 27.0942 50.5863C29.2942 48.8207 30.7943 46.0839 30.9922 43.2306C32.0671 44.2955 32.845 45.9284 32.7676 47.4571C34.4683 45.8966 35.5824 43.4776 35.6359 41.1411C36.1815 42.3699 36.8192 43.6466 37.0149 44.9812C38.2032 43.1888 38.7641 40.8931 38.4038 38.7584C39.3785 39.5372 40.1318 40.8306 40.3193 42.0811C41.7529 39.6777 42.1972 36.4275 41.5485 33.6912C42.5853 34.0809 43.7022 34.7009 44.1846 35.7172C45.2219 33.3389 45.3178 30.4527 44.3045 28.0632C45.5707 28.1703 46.638 28.4842 47.6143 29.3154C48.0166 26.3924 46.7928 23.3908 44.4702 21.6386C45.2769 21.0711 46.3028 20.9361 47.2818 20.9635C48.2052 20.9891 49.049 20.8659 49.9293 21.1446Z" fill="url(#paint0_linear_58_407)"/>
<path d="M34.8078 10.8335C35.3709 9.63771 36.7788 9.10194 37.9601 9.68676C38.1961 9.80328 38.4032 9.44315 38.1666 9.32551C37.4771 8.98432 36.6627 8.923 35.9443 9.2129C35.2956 9.47493 34.7582 9.97946 34.4551 10.6228C34.3412 10.8637 34.6939 11.0761 34.8078 10.8335Z" fill="black"/>
<path d="M39.4958 25.0561C40.2541 24.6976 41.2025 24.9685 41.7089 25.6325C41.777 25.7217 41.9269 25.7056 41.9978 25.6325C42.0839 25.5444 42.0659 25.4263 41.9978 25.3371C41.3715 24.5159 40.2023 24.2633 39.2892 24.6954C39.1889 24.7428 39.1639 24.8905 39.2162 24.9814C39.2762 25.0862 39.395 25.1035 39.4958 25.0561Z" fill="black"/>
<path d="M39.2523 28.349C39.999 28.3479 40.6886 29.0264 40.7104 29.7885C40.718 30.0572 41.1268 30.0583 41.1192 29.7885C41.0909 28.7939 40.2274 27.9292 39.2523 27.9309C38.989 27.9315 38.989 28.3496 39.2523 28.349Z" fill="black"/>
<path d="M36.9908 33.2734C37.7442 33.5321 38.2909 34.2441 38.3966 35.0435C38.4113 35.1556 38.552 35.2164 38.6479 35.1896C38.7662 35.1561 38.8054 35.0446 38.7907 34.9326C38.6654 33.9876 37.9769 33.172 37.0993 32.8709C36.8497 32.7845 36.7423 33.1882 36.9908 33.2734Z" fill="black"/>
<path d="M35.6559 37.0848C35.6914 37.091 35.7263 37.0988 35.7611 37.1094C35.778 37.1144 35.7955 37.12 35.8124 37.1261C35.8167 37.1278 35.8713 37.1501 35.8298 37.1317C35.8931 37.1595 35.9508 37.1958 36.0081 37.2342C36.0152 37.2393 36.0228 37.2448 36.0299 37.2504C36.0146 37.2381 36.0124 37.2365 36.0239 37.2459C36.0381 37.2577 36.0517 37.2694 36.0648 37.2811C36.0893 37.3034 36.1127 37.3268 36.1356 37.3513C36.1602 37.3781 36.1841 37.4059 36.2059 37.4349C36.1792 37.3998 36.2147 37.4489 36.2168 37.4517C36.2272 37.4667 36.237 37.4823 36.2468 37.4979C36.2659 37.5292 36.2839 37.5609 36.3002 37.5938C36.3073 37.6078 36.3133 37.6211 36.3199 37.6351C36.3237 37.6434 36.3275 37.6518 36.3308 37.6602C36.3231 37.6412 36.322 37.639 36.327 37.6529C36.3509 37.7187 36.3711 37.7856 36.3842 37.8547C36.3869 37.8709 36.3924 37.9088 36.388 37.8709C36.3902 37.8887 36.3918 37.9071 36.3929 37.9255C36.3951 37.9618 36.3962 37.9986 36.3945 38.0348C36.394 38.0532 36.3918 38.071 36.3913 38.0894C36.3891 38.1352 36.3989 38.0571 36.3891 38.1062C36.382 38.1424 36.3749 38.1781 36.3651 38.2138C36.3362 38.3191 36.4005 38.4462 36.5079 38.4708C36.6164 38.4959 36.7281 38.4373 36.7592 38.3247C36.9522 37.625 36.4725 36.8083 35.765 36.6818C35.6598 36.6628 35.5398 36.7107 35.5137 36.8278C35.4908 36.9293 35.5437 37.0642 35.6559 37.0848Z" fill="black"/>
<path d="M30.2582 9.99113C30.5754 9.17662 31.3729 8.56949 32.2254 8.48753C32.3355 8.47694 32.4299 8.39889 32.4299 8.27847C32.4299 8.17366 32.3361 8.05881 32.2254 8.06941C31.1745 8.17031 30.2544 8.87779 29.8641 9.88018C29.8232 9.98499 29.9088 10.1099 30.0069 10.1372C30.1236 10.1701 30.2173 10.0965 30.2582 9.99113Z" fill="black"/>
<path d="M24.7841 9.76906C24.3126 8.9434 23.4547 8.40319 22.5258 8.3257C22.4157 8.31678 22.3214 8.42828 22.3214 8.53476C22.3214 8.65518 22.4152 8.73435 22.5258 8.74382C23.3097 8.80905 24.0363 9.28795 24.4309 9.97981C24.5639 10.2123 24.9172 10.0021 24.7841 9.76906Z" fill="black"/>
<path d="M16.306 9.66172C16.4662 9.66004 16.639 9.69907 16.7759 9.76708C16.8565 9.80722 16.9345 9.85572 17.0064 9.91091C16.9874 9.89586 17.0359 9.93545 17.0413 9.94047C17.0577 9.95496 17.074 9.96945 17.0898 9.98506C17.1242 10.018 17.1574 10.0525 17.189 10.0882C17.4153 10.3463 17.533 10.6803 17.491 11.0387C17.4779 11.1508 17.5946 11.2478 17.6954 11.2478C17.817 11.2478 17.8868 11.1514 17.8998 11.0387C18.0072 10.1211 17.2005 9.23523 16.306 9.24359C16.0432 9.24638 16.0422 9.6645 16.306 9.66172Z" fill="black"/>
<path d="M10.5274 19.9872C11.1264 19.5758 12.0275 19.7988 12.3676 20.4605C12.4902 20.6986 12.8429 20.4879 12.7208 20.2492C12.2847 19.4007 11.1008 19.0907 10.3213 19.626C10.1033 19.7754 10.3077 20.1377 10.5274 19.9872Z" fill="black"/>
<path d="M10.14 26.0046C10.914 25.0262 12.2636 24.6493 13.416 25.0926C13.6623 25.1873 13.7692 24.7837 13.5244 24.6895C12.2511 24.1989 10.7069 24.6265 9.85105 25.7092C9.68644 25.9165 9.97424 26.2142 10.14 26.0046Z" fill="black"/>
<path d="M11.921 31.459C12.6029 30.5202 13.638 29.8885 14.7609 29.6873C15.0193 29.641 14.9097 29.2379 14.6524 29.2842C13.4194 29.505 12.3129 30.2236 11.5683 31.2483C11.5018 31.3397 11.5541 31.4808 11.6413 31.5343C11.7449 31.5973 11.8556 31.5493 11.921 31.459Z" fill="black"/>
<path d="M14.9347 36.0774C14.884 35.1871 15.4264 34.2923 16.2506 33.9768C16.3542 33.9372 16.4245 33.8352 16.3934 33.7198C16.3662 33.6183 16.2457 33.5341 16.1421 33.5737C15.1533 33.9522 14.4643 34.9909 14.5259 36.0774C14.5412 36.3445 14.95 36.3467 14.9347 36.0774Z" fill="black"/>
<path d="M17.928 37.4097C17.4794 38.1016 17.3186 38.949 17.4548 39.7646C17.4734 39.8761 17.6075 39.9386 17.7061 39.9107C17.8211 39.8783 17.8675 39.7652 17.8489 39.6537C17.7312 38.9479 17.8958 38.2153 18.2812 37.621C18.4267 37.3958 18.0724 37.1862 17.928 37.4097Z" fill="black"/>
<path d="M20.8669 41.6484C20.4897 42.2114 20.4963 43.0181 20.8877 43.5729C20.952 43.6643 21.0654 43.7089 21.1673 43.6476C21.2556 43.5946 21.3057 43.4536 21.2409 43.3616C20.9253 42.9139 20.916 42.314 21.2202 41.8597C21.2829 41.7665 21.2371 41.6277 21.1466 41.5737C21.0452 41.5129 20.9296 41.5547 20.8669 41.6484Z" fill="black"/>
<path d="M26.4728 42.9263C26.4853 44.2849 26.7704 45.6196 27.3008 46.8639C27.406 47.1098 27.7581 46.8974 27.654 46.6526C27.1531 45.4785 26.8936 44.2063 26.8816 42.9263C26.8789 42.657 26.4701 42.6565 26.4728 42.9263Z" fill="black"/>
<path d="M32.4145 41.0258C32.9972 41.4863 33.1684 42.3744 32.7754 43.0178C32.6353 43.2464 32.989 43.4565 33.1286 43.2291C33.6094 42.4424 33.4257 41.3012 32.7039 40.7304C32.6167 40.6612 32.5001 40.6434 32.4151 40.7304C32.3442 40.8023 32.3267 40.9567 32.4145 41.0258Z" fill="black"/>
<path d="M27.1276 8.45545C29.1925 6.5867 31.9381 5.5581 34.6903 5.55699C35.4638 5.55643 36.234 5.63783 36.9906 5.80285C36.9742 5.67574 36.9579 5.54808 36.9415 5.42096C36.3768 5.77944 35.8121 6.13734 35.2474 6.49582C35.0479 6.62237 35.1787 6.92901 35.4049 6.87772C37.54 6.39604 39.8 6.61402 41.8212 7.46086C42.3946 7.70115 42.9452 7.9983 43.4679 8.33837C43.6909 8.48333 43.8958 8.1215 43.6745 7.97711C41.7634 6.73555 39.4773 6.1184 37.2157 6.21652C36.5703 6.2444 35.9271 6.33191 35.2964 6.47407C35.3487 6.60118 35.4016 6.72887 35.454 6.85598C36.0187 6.4975 36.5834 6.13958 37.1481 5.78111C37.2893 5.69135 37.2778 5.43825 37.099 5.39922C34.2945 4.78764 31.3025 5.28213 28.8076 6.7216C28.1034 7.12802 27.4433 7.61195 26.8382 8.15997C26.6414 8.33837 26.9314 8.63329 27.1276 8.45545Z" fill="black"/>
<path d="M39.7971 11.03C42.3138 11.0328 44.801 11.8356 46.8795 13.284C47.4644 13.6915 48.0116 14.152 48.5186 14.6565C48.5665 14.5378 48.615 14.4185 48.663 14.2998C46.5333 14.084 44.3579 14.5774 42.5122 15.6835C42.2854 15.8195 42.4909 16.1808 42.7188 16.0447C44.5072 14.9727 46.6009 14.5094 48.663 14.7179C48.844 14.7363 48.9268 14.4793 48.8075 14.3611C46.9492 12.513 44.5394 11.2619 41.9862 10.8081C41.2628 10.6799 40.5307 10.613 39.7965 10.6124C39.5343 10.6113 39.5338 11.0295 39.7971 11.03Z" fill="black"/>
<path d="M44.9979 16.6754C46.7754 16.9196 48.3655 18.1361 49.1978 19.745C49.4366 20.2066 49.6061 20.6989 49.708 21.2101C49.792 21.1243 49.8754 21.039 49.9593 20.9531C48.2205 20.4993 46.3759 20.5462 44.6621 21.092C44.4119 21.1717 44.5187 21.5753 44.7706 21.495C46.4162 20.9704 48.1796 20.9202 49.8503 21.3562C50.0084 21.3975 50.1326 21.2542 50.1016 21.0992C49.7151 19.1658 48.3328 17.4883 46.5699 16.705C46.0652 16.4809 45.543 16.3326 44.9973 16.2579C44.8872 16.2428 44.794 16.3649 44.7929 16.4669C44.7918 16.5918 44.8889 16.6604 44.9979 16.6754Z" fill="black"/>
<path d="M45.2734 22.8088C46.8182 24.5622 47.6048 26.9438 47.4358 29.2948C47.5628 29.2597 47.6898 29.2246 47.8168 29.1894C47.2101 28.1865 46.1532 27.5381 45.0047 27.4528C44.7419 27.4333 44.7436 27.8514 45.0047 27.8709C46.0055 27.9456 46.9365 28.5294 47.4636 29.4007C47.5748 29.5842 47.8299 29.4983 47.8446 29.2954C47.9814 27.3898 47.5072 25.4486 46.526 23.824C46.2447 23.3585 45.9204 22.9198 45.5623 22.5134C45.3862 22.3127 45.0979 22.6092 45.2734 22.8088Z" fill="black"/>
<path d="M25.9944 7.33843C24.0425 5.82202 21.5754 5.02703 19.1274 5.08445C18.428 5.10062 17.7297 5.18813 17.0467 5.342C16.8565 5.38493 16.8707 5.62467 16.9982 5.72391C17.4049 6.04057 17.811 6.35722 18.2176 6.67388C18.4269 6.83667 18.6308 6.47375 18.4242 6.31263C18.0175 5.99597 17.6115 5.6793 17.2048 5.36264C17.1885 5.49031 17.1721 5.61742 17.1558 5.74453C19.4708 5.2227 21.9515 5.54439 24.0763 6.61535C24.6797 6.91919 25.2531 7.28268 25.7884 7.69914C25.9972 7.86193 26.201 7.49899 25.9944 7.33843Z" fill="black"/>
<path d="M13.458 6.8191C12.3498 7.11848 11.2422 7.41841 10.134 7.71779C9.95032 7.76741 9.92797 8.0863 10.134 8.12086C11.5883 8.36616 12.8753 9.30165 13.5714 10.6319C13.6302 10.527 13.6891 10.4222 13.748 10.3174C11.2536 10.4189 8.82035 11.3404 6.84874 12.9031C6.28784 13.3474 5.76782 13.8419 5.29468 14.3827C5.15404 14.5433 5.29249 14.7713 5.49363 14.7323C7.24011 14.3917 9.11851 14.8655 10.5069 16.0034C10.7102 16.1701 11.0013 15.8763 10.7958 15.7079C9.28477 14.4686 7.28864 13.9579 5.38517 14.3292C5.45167 14.4457 5.51762 14.5622 5.58412 14.6788C7.19597 12.8368 9.36707 11.5473 11.7246 11.0059C12.3907 10.8532 13.0666 10.7634 13.7485 10.7355C13.9061 10.7289 13.9998 10.5638 13.9251 10.4211C13.1844 9.00562 11.7933 7.97926 10.2436 7.71779C10.2436 7.85215 10.2436 7.9865 10.2436 8.12086C11.3518 7.82148 12.4594 7.52155 13.5676 7.22217C13.821 7.1536 13.7131 6.75053 13.458 6.8191Z" fill="black"/>
<path d="M9.38145 21.2626C7.66986 22.8822 6.58021 25.1233 6.29076 27.4843C6.209 28.1489 6.19591 28.8201 6.24988 29.4875C6.26296 29.6469 6.47719 29.7896 6.59874 29.6352C7.41693 28.5977 8.54201 27.8562 9.80663 27.5317C10.0617 27.4665 9.9538 27.0629 9.69815 27.1287C8.37194 27.4687 7.16837 28.2509 6.30984 29.3397C6.42595 29.3888 6.54259 29.4384 6.6587 29.4875C6.47391 27.2017 7.11276 24.8892 8.40899 23.0204C8.77802 22.4886 9.20266 22.0002 9.67035 21.5575C9.86386 21.3752 9.57442 21.0798 9.38145 21.2626Z" fill="black"/>
<path d="M9.13128 29.9831C8.9345 31.994 9.08167 34.0311 9.55863 35.9918C9.59951 36.1608 9.85189 36.2031 9.93202 36.042C10.4493 35.0017 11.4212 34.2619 12.543 34.0501C12.8014 34.001 12.6918 33.5979 12.4345 33.647C11.2184 33.8767 10.1392 34.704 9.57881 35.8307C9.70309 35.8474 9.82791 35.8642 9.9522 35.8809C9.48342 33.9542 9.34604 31.9583 9.53955 29.9831C9.56626 29.7155 9.1569 29.7177 9.13128 29.9831Z" fill="black"/>
<path d="M12.1126 37.2304C11.936 39.098 12.4075 41.0103 13.4263 42.5707C13.5195 42.714 13.755 42.704 13.7997 42.5206C14.1273 41.1792 14.8681 39.98 15.906 39.0958C15.792 39.0278 15.6781 38.9604 15.5642 38.8923C14.9755 40.712 15.1952 42.7642 16.1006 44.4361C16.36 44.915 16.6783 45.3599 17.0436 45.7602C17.1548 45.8823 17.4159 45.7964 17.3924 45.6125C17.2136 44.1858 17.7484 42.733 18.8102 41.788C18.6941 41.7389 18.5775 41.6893 18.4614 41.6403C18.2984 43.4839 18.9018 45.3549 20.0514 46.7765C20.3795 47.1824 20.7535 47.5403 21.1628 47.8586C21.3722 48.0214 21.576 47.6585 21.3694 47.4974C19.6295 46.1426 18.6734 43.8597 18.8702 41.6397C18.8876 41.4446 18.6423 41.3844 18.5213 41.492C17.3891 42.4999 16.7928 44.0882 16.9842 45.6125C17.1003 45.5634 17.2169 45.5138 17.333 45.4647C16.1262 44.1418 15.5304 42.3003 15.6617 40.5018C15.6988 39.9917 15.8013 39.4894 15.9588 39.0038C16.0286 38.7886 15.761 38.6777 15.6171 38.8003C14.5291 39.7275 13.749 41.0053 13.4056 42.4096C13.5299 42.3929 13.6547 42.3762 13.779 42.3594C12.7957 40.8531 12.3509 39.0328 12.5215 37.2299C12.5471 36.9628 12.1383 36.9645 12.1126 37.2304Z" fill="black"/>
<path d="M26.9574 50.8904C28.8326 49.4386 30.3223 47.4946 31.2419 45.2791C31.503 44.6497 31.7194 44.003 31.8862 43.3407C31.7548 43.3407 31.6234 43.3407 31.4921 43.3407C31.8747 44.7094 32.2574 46.0775 32.64 47.4461C32.6896 47.624 32.9197 47.6457 33.0134 47.4963C34.2339 45.5523 35.1022 43.3836 35.565 41.1224C35.4511 41.1531 35.3372 41.1837 35.2232 41.2144C36.2366 42.4437 36.7533 44.0526 36.6716 45.656C36.6579 45.9247 37.0668 45.9241 37.0804 45.656C37.1681 43.9389 36.5947 42.2313 35.5121 40.9189C35.4151 40.8013 35.2009 40.8637 35.1704 41.0109C34.7141 43.2403 33.8632 45.3683 32.6602 47.285C32.7845 47.3017 32.9093 47.3185 33.0336 47.3352C32.6509 45.9665 32.2683 44.5984 31.8856 43.2297C31.8311 43.0346 31.5428 43.0268 31.4915 43.2297C30.9246 45.4798 29.7767 47.5615 28.1915 49.2257C27.7435 49.6957 27.2627 50.1333 26.7508 50.5297C26.5443 50.6897 26.7476 51.0532 26.9574 50.8904Z" fill="black"/>
<path d="M38.2779 38.6492C39.2858 39.6309 39.8996 40.9924 39.9628 42.4162C39.971 42.603 40.2577 42.7268 40.3438 42.5216C41.2569 40.3384 41.7267 37.9729 41.7028 35.5969C41.6957 34.9239 41.6483 34.2516 41.5632 33.5843C41.4771 33.6517 41.391 33.7186 41.3043 33.7861C42.4027 34.2104 43.3718 34.968 44.0597 35.942C44.1644 36.0897 44.3732 36.0696 44.4331 35.8923C45.0109 34.1919 45.1439 32.3606 44.8349 30.5894C44.7885 30.3251 44.3944 30.4372 44.4408 30.7003C44.7367 32.3974 44.5923 34.1535 44.039 35.7808C44.1639 35.7641 44.2881 35.7474 44.4124 35.7307C43.6575 34.6619 42.6191 33.8485 41.4128 33.3825C41.2988 33.3384 41.1375 33.4549 41.1538 33.5843C41.4477 35.8845 41.2738 38.2344 40.6371 40.4616C40.4572 41.0899 40.2425 41.7082 39.9906 42.3103C40.1176 42.3454 40.2446 42.3805 40.3716 42.4157C40.3035 40.8837 39.6537 39.4113 38.5668 38.3531C38.3766 38.1681 38.0871 38.4635 38.2779 38.6492Z" fill="black"/>
<path d="M35.8416 29.5829C37.1656 29.7044 38.4133 30.4509 39.1677 31.5698C39.316 31.7901 39.6709 31.581 39.521 31.3591C38.6783 30.1092 37.3199 29.3008 35.8421 29.1653C35.5794 29.1408 35.581 29.5589 35.8416 29.5829Z" fill="black"/>
<path d="M38.2897 22.5907C39.5277 22.2066 40.8855 22.4068 41.968 23.1298C42.1888 23.2776 42.3943 22.9158 42.1746 22.7686C41.0054 21.9881 39.5168 21.7729 38.1813 22.1877C37.93 22.2651 38.0374 22.6688 38.2897 22.5907Z" fill="black"/>
<path d="M20.7085 10.2194C20.2648 9.17574 19.0171 8.6004 17.9563 8.92431C17.705 9.00124 17.8119 9.40487 18.0648 9.32738C18.9669 9.05197 19.9819 9.55205 20.3553 10.4301C20.3994 10.5338 20.5477 10.5572 20.6349 10.5054C20.7396 10.4429 20.7527 10.3231 20.7085 10.2194Z" fill="black"/>
<path d="M14.8185 26.2435C13.8428 26.4508 12.9456 27.0139 12.3258 27.8123C12.2571 27.9004 12.2413 28.0219 12.3258 28.1077C12.3972 28.1808 12.546 28.1964 12.6147 28.1077C13.1963 27.359 14.0117 26.8417 14.927 26.6465C15.1848 26.5913 15.0758 26.1883 14.8185 26.2435Z" fill="black"/>
<path d="M24.8739 41.934C24.162 42.7145 24.2966 44.0408 25.1235 44.6758C25.2119 44.7438 25.3519 44.6903 25.4032 44.6011C25.4642 44.494 25.4184 44.3831 25.3301 44.3151C24.7158 43.8434 24.6455 42.7976 25.1628 42.23C25.3421 42.0327 25.0538 41.7366 24.8739 41.934Z" fill="black"/>
<path d="M28.5963 42.2366C29.0787 42.4942 29.3022 43.0996 29.1212 43.6175C29.0841 43.724 29.1632 43.8461 29.264 43.8746C29.3774 43.9063 29.4782 43.8355 29.5153 43.7285C29.7546 43.0439 29.4314 42.2115 28.8023 41.8753C28.7042 41.8229 28.5799 41.8497 28.5227 41.9501C28.4693 42.0443 28.4981 42.1836 28.5963 42.2366Z" fill="black"/>
<path d="M26.6317 35.262C28.3837 34.5613 29.7388 32.974 30.1509 31.0914C30.2081 30.8293 29.814 30.7173 29.7568 30.9804C29.3779 32.712 28.1433 34.2111 26.5227 34.859C26.2807 34.956 26.3864 35.3602 26.6317 35.262Z" fill="black"/>
<path d="M26.245 35.2341C26.9629 36.8487 28.5552 38.0462 30.3387 37.8884C32.0677 37.7351 33.4812 36.2293 33.3324 34.4163C33.2484 33.3916 32.7736 32.4756 32.2689 31.607C31.7728 30.7541 31.2801 29.9005 30.9258 28.974C30.2542 27.2184 30.0422 25.1227 31.0495 23.4491C31.9713 21.9165 33.8197 21.0496 35.5514 21.4321C35.8082 21.4889 35.9177 21.0859 35.6599 21.029C34.1315 20.6912 32.5169 21.2124 31.406 22.328C30.1207 23.6186 29.7604 25.5219 30.04 27.2925C30.1921 28.2548 30.53 29.1775 30.947 30.0499C31.3771 30.9486 31.9353 31.7715 32.3784 32.6618C32.8031 33.5137 33.1083 34.5178 32.8265 35.4672C32.5997 36.2304 32.0301 36.8587 31.3319 37.1988C30.4352 37.6353 29.3314 37.5534 28.4603 37.094C27.6203 36.6508 26.9864 35.8959 26.5983 35.0229C26.4893 34.7781 26.1371 34.9905 26.245 35.2341Z" fill="black"/>
<path d="M26.331 39.1956C27.4784 39.2586 28.8744 38.8767 29.4794 37.7851C29.6092 37.551 29.2565 37.3397 29.1262 37.5739C28.592 38.5372 27.3334 38.8321 26.331 38.7769C26.0677 38.763 26.0688 39.1811 26.331 39.1956Z" fill="black"/>
<path d="M30.2505 25.3942C31.3592 25.3234 32.463 24.8585 33.2518 24.0473C33.9539 23.3248 34.457 22.2962 34.5447 21.2776C34.5676 21.0095 34.1588 21.0112 34.1359 21.2776C34.058 22.183 33.5848 23.1124 32.9629 23.7518C32.2521 24.4833 31.2513 24.9126 30.2505 24.9761C29.9894 24.9928 29.9872 25.4115 30.2505 25.3942Z" fill="black"/>
<path d="M26.5067 30.2994C25.295 30.2905 24.0783 30.4594 22.9216 30.834C22.672 30.9149 22.7783 31.3191 23.0301 31.2371C24.1546 30.8731 25.3282 30.7092 26.5067 30.7175C26.7694 30.7192 26.77 30.3011 26.5067 30.2994Z" fill="black"/>
<path d="M30.1318 30.924C29.3174 29.1266 29.2858 26.9696 30.3994 25.2949C30.5477 25.0719 30.1939 24.8623 30.0462 25.0836C28.8475 26.8866 28.9053 29.2075 29.7786 31.1347C29.8898 31.3795 30.2419 31.1671 30.1318 30.924Z" fill="black"/>
<path d="M26.3849 34.8589C24.7644 34.2111 23.5303 32.7119 23.1514 30.9803C23.0942 30.7177 22.6996 30.8287 22.7573 31.0913C23.1694 32.974 24.5245 34.5612 26.2765 35.262C26.5218 35.3601 26.6281 34.9559 26.3849 34.8589Z" fill="black"/>
<path d="M26.3106 35.0227C25.9672 35.7954 25.4319 36.4805 24.7238 36.9332C23.9738 37.4127 23.0444 37.6072 22.1761 37.406C21.3851 37.2226 20.6923 36.7058 20.296 35.9793C19.8403 35.1448 19.927 34.1797 20.2453 33.3117C20.5909 32.369 21.1829 31.5411 21.6522 30.6613C22.1085 29.8061 22.5004 28.9046 22.7343 27.958C23.1692 26.1946 23.0155 24.2227 21.8828 22.7582C20.7981 21.3561 18.9638 20.6492 17.2501 21.0277C16.9928 21.0846 17.1018 21.4876 17.3585 21.4308C18.8968 21.0912 20.5152 21.7341 21.5154 22.9555C22.7201 24.4262 22.7511 26.5102 22.2251 28.2663C21.9373 29.228 21.4931 30.1306 20.9965 30.9953C20.5026 31.8549 19.9521 32.7046 19.7013 33.6797C19.4708 34.5761 19.5313 35.525 20.0202 36.3211C20.4487 37.0191 21.1284 37.5403 21.9035 37.7645C22.8667 38.0432 23.9302 37.8793 24.7952 37.3753C25.6243 36.8925 26.2714 36.1154 26.6644 35.2317C26.7712 34.9909 26.4191 34.7779 26.3106 35.0227Z" fill="black"/>
<path d="M26.5771 38.7773C25.5747 38.8325 24.3161 38.5376 23.7819 37.5742C23.6522 37.3401 23.2989 37.5508 23.4287 37.7855C24.0337 38.8765 25.4297 39.259 26.5771 39.196C26.8388 39.1809 26.8404 38.7628 26.5771 38.7773Z" fill="black"/>
<path d="M22.6581 24.9764C21.6573 24.9123 20.6565 24.483 19.9457 23.7521C19.3237 23.1127 18.8506 22.1833 18.7727 21.2779C18.7498 21.012 18.3409 21.0098 18.3638 21.2779C18.4516 22.2965 18.9542 23.3256 19.6568 24.0476C20.4455 24.8587 21.5494 25.3237 22.6581 25.3945C22.9208 25.4112 22.9197 24.9931 22.6581 24.9764Z" fill="black"/>
<path d="M26.4014 30.7175C27.5793 30.7092 28.7535 30.8731 29.878 31.2371C30.1293 31.3185 30.2372 30.9149 29.9865 30.834C28.8304 30.4594 27.6131 30.2905 26.4014 30.2994C26.1381 30.3011 26.1376 30.7192 26.4014 30.7175Z" fill="black"/>
<path d="M23.1292 31.1351C24.0024 29.2078 24.0607 26.8869 22.8615 25.084C22.7144 24.8626 22.3601 25.0717 22.5083 25.2953C23.6219 26.97 23.5898 29.127 22.776 30.9244C22.6664 31.1669 23.0185 31.3793 23.1292 31.1351Z" fill="black"/>
<path d="M33.5417 14.7375C34.9382 13.71 36.676 13.2578 38.3827 13.4742C38.6432 13.5071 38.641 13.0889 38.3827 13.056C36.6149 12.8319 34.7812 13.3125 33.3351 14.3762C33.1242 14.5317 33.3275 14.8947 33.5417 14.7375Z" fill="black"/>
<path d="M38.2632 13.3591C38.6137 15.0205 38.4028 16.7861 37.6691 18.3114C37.5535 18.5523 37.9056 18.7641 38.0223 18.5227C38.8067 16.892 39.0324 15.0249 38.6579 13.2482C38.6017 12.985 38.2076 13.096 38.2632 13.3591Z" fill="black"/>
<path d="M34.822 15.6302C35.5502 15.158 36.3744 14.8463 37.2307 14.7365C37.3403 14.7226 37.4351 14.6506 37.4351 14.5274C37.4351 14.4254 37.3408 14.3044 37.2307 14.3184C36.3002 14.4371 35.4085 14.7549 34.6154 15.2689C34.3941 15.4127 34.5985 15.7751 34.822 15.6302Z" fill="black"/>
<path d="M37.07 14.6065C37.0896 14.6795 37.107 14.7537 37.1207 14.8284C37.1278 14.8657 37.1338 14.9031 37.1398 14.941C37.1408 14.9499 37.1425 14.9583 37.1436 14.9672C37.1403 14.9404 37.1398 14.9393 37.143 14.9639C37.1447 14.9812 37.1469 14.9984 37.1485 15.0163C37.1638 15.1674 37.1665 15.3195 37.1578 15.4717C37.1518 15.581 37.2564 15.6858 37.3622 15.6808C37.4783 15.6752 37.56 15.5888 37.5666 15.4717C37.5851 15.1445 37.5491 14.8122 37.4641 14.4961C37.4357 14.3907 37.3175 14.3155 37.2128 14.3501C37.1071 14.3841 37.0395 14.4933 37.07 14.6065Z" fill="black"/>
<path d="M19.9034 14.3759C18.4572 13.3122 16.6241 12.8311 14.8558 13.0557C14.598 13.0886 14.5947 13.5068 14.8558 13.4739C16.5625 13.2575 18.3002 13.7097 19.6968 14.7372C19.911 14.8944 20.1154 14.532 19.9034 14.3759Z" fill="black"/>
<path d="M14.5809 13.2476C14.2065 15.0249 14.4321 16.8915 15.2165 18.5222C15.3326 18.7635 15.6853 18.5517 15.5697 18.3109C14.8361 16.7855 14.6251 15.0199 14.9756 13.3586C15.0307 13.0965 14.6365 12.9845 14.5809 13.2476Z" fill="black"/>
<path d="M18.6236 15.2691C17.8305 14.7551 16.9387 14.4374 16.0082 14.3186C15.8987 14.3047 15.8038 14.4245 15.8038 14.5277C15.8038 14.6526 15.8981 14.7228 16.0082 14.7367C16.8651 14.846 17.6888 15.1582 18.417 15.6304C18.64 15.7748 18.8455 15.413 18.6236 15.2691Z" fill="black"/>
<path d="M15.7743 14.4948C15.6893 14.8109 15.6533 15.1432 15.6719 15.4705C15.6779 15.5792 15.7613 15.6846 15.8763 15.6795C15.9815 15.6745 16.0872 15.5875 16.0807 15.4705C16.072 15.3188 16.0747 15.1666 16.09 15.015C16.0916 14.9977 16.0938 14.9799 16.0954 14.9626C16.1009 14.9124 16.09 14.9944 16.097 14.9486C16.1036 14.908 16.1096 14.8678 16.1172 14.8277C16.1314 14.753 16.1483 14.6794 16.1685 14.6058C16.1968 14.5004 16.1336 14.3739 16.0256 14.3488C15.9177 14.3237 15.8049 14.3822 15.7743 14.4948Z" fill="black"/>
<path d="M32.9004 32.7742C32.6927 31.522 33.6145 30.4706 34.4447 29.6906C35.3021 28.8856 36.2402 28.1151 36.6539 26.9617C36.7444 26.7086 36.3498 26.5993 36.2598 26.8507C35.8325 28.0432 34.7532 28.797 33.8952 29.646C33.0389 30.4935 32.2948 31.6079 32.5069 32.8857C32.5499 33.1499 32.944 33.0379 32.9004 32.7742Z" fill="black"/>
<path d="M20.4101 32.8852C20.6216 31.6074 19.8781 30.4924 19.0212 29.6456C18.1633 28.7965 17.0834 28.0427 16.6566 26.8502C16.5667 26.5999 16.1715 26.7081 16.2625 26.9612C16.6763 28.1152 17.6144 28.8857 18.4718 29.6902C19.302 30.4695 20.2237 31.5216 20.0161 32.7737C19.9719 33.0374 20.366 33.1506 20.4101 32.8852Z" fill="black"/>
<path d="M27.1488 45.7217C36.48 45.7217 44.0445 37.985 44.0445 28.4413C44.0445 18.8977 36.48 11.161 27.1488 11.161C17.8175 11.161 10.2531 18.8977 10.2531 28.4413C10.2531 37.985 17.8175 45.7217 27.1488 45.7217Z" stroke="url(#paint1_linear_58_407)" stroke-width="0.189366" stroke-linecap="round" stroke-linejoin="round" stroke-dasharray="0.19 2.46"/>
<path d="M27.0963 51.0526C39.3062 51.0526 49.2042 40.9292 49.2042 28.4414C49.2042 15.9536 39.3062 5.8302 27.0963 5.8302C14.8865 5.8302 4.9884 15.9536 4.9884 28.4414C4.9884 40.9292 14.8865 51.0526 27.0963 51.0526Z" stroke="url(#paint2_linear_58_407)" stroke-width="0.2478" stroke-linecap="round" stroke-linejoin="round"/>
<path d="M27.0966 56.0002C41.9783 56.0002 54.0422 43.6616 54.0422 28.4412C54.0422 13.2208 41.9783 0.882202 27.0966 0.882202C12.215 0.882202 0.151001 13.2208 0.151001 28.4412C0.151001 43.6616 12.215 56.0002 27.0966 56.0002Z" stroke="url(#paint3_linear_58_407)" stroke-width="0.302036" stroke-linecap="round" stroke-linejoin="round"/>
<path d="M53.5386 28.5951L53.8515 26.7559C53.8678 26.6606 54.0003 26.6578 54.0204 26.752L54.4156 28.5901C54.4233 28.6258 54.4516 28.6531 54.4876 28.6581L56.0771 28.8973C56.1703 28.9112 56.1774 29.0456 56.0863 29.0701L54.4363 29.5072C54.4042 29.5155 54.3796 29.5429 54.3731 29.5763L54.0793 31.1741C54.0619 31.2683 53.931 31.2706 53.9103 31.1775L53.5582 29.5914C53.5506 29.5579 53.5255 29.5323 53.4928 29.525L51.9998 29.1855C51.9098 29.1654 51.9098 29.0344 51.9992 29.0132L53.4726 28.6654C53.507 28.6581 53.5326 28.6302 53.5386 28.5951Z" fill="url(#paint4_linear_58_407)"/>
<path d="M20.4144 54.6232L20.5719 53.6994C20.5801 53.6515 20.6466 53.6498 20.6569 53.6977L20.8554 54.6209C20.8592 54.6388 20.8733 54.6527 20.8913 54.655L21.6899 54.7748C21.7368 54.7821 21.74 54.8495 21.6943 54.8612L20.8657 55.0809C20.8494 55.0853 20.8374 55.0987 20.8341 55.1155L20.6864 55.9177C20.6777 55.9651 20.6122 55.9662 20.6019 55.9194L20.4247 55.1227C20.4209 55.106 20.4084 55.0932 20.392 55.0893L19.6425 54.9187C19.5973 54.9086 19.5973 54.8428 19.642 54.8323L20.3822 54.6577C20.3986 54.6544 20.4117 54.6405 20.4144 54.6232Z" fill="url(#paint5_linear_58_407)"/>
<path d="M47.6971 36.6974L47.8541 35.7737C47.8623 35.7257 47.9288 35.7246 47.9392 35.772L48.1376 36.6952C48.1414 36.713 48.1556 36.727 48.1736 36.7298L48.9721 36.8496C49.019 36.8569 49.0223 36.9243 48.9765 36.9366L48.1479 37.1563C48.1316 37.1607 48.1196 37.1741 48.1163 37.1908L47.9691 37.9931C47.9604 38.0405 47.895 38.0416 47.8841 37.9947L47.707 37.1981C47.7031 37.1813 47.6906 37.1685 47.6743 37.1646L46.9247 36.994C46.8795 36.984 46.8795 36.9182 46.9242 36.9076L47.6644 36.7331C47.6813 36.7292 47.6944 36.7153 47.6971 36.6974Z" fill="url(#paint6_linear_58_407)"/>
<path d="M27.1009 1.76283C27.5768 1.76283 27.9627 1.36821 27.9627 0.881424C27.9627 0.394635 27.5768 0 27.1009 0C26.6249 0 26.2391 0.394635 26.2391 0.881424C26.2391 1.36821 26.6249 1.76283 27.1009 1.76283Z" fill="url(#paint7_linear_58_407)"/>
<path d="M24.5616 0.320679C24.8701 0.320679 25.1198 0.576565 25.1198 0.891554C25.1198 1.20654 24.8701 1.46245 24.5616 1.46245C24.2531 1.46245 24.0034 1.2071 24.0034 0.891554C24.0034 0.576007 24.2531 0.320679 24.5616 0.320679Z" fill="url(#paint8_linear_58_407)"/>
<path d="M22.8048 0.621094C23.0381 0.621094 23.2272 0.814544 23.2272 1.05315C23.2272 1.29177 23.0381 1.48522 22.8048 1.48522C22.5715 1.48522 22.3823 1.29177 22.3823 1.05315C22.3823 0.814544 22.5709 0.621094 22.8048 0.621094Z" fill="url(#paint9_linear_58_407)"/>
<path d="M21.342 1.09229C21.5006 1.09229 21.6292 1.22386 21.6292 1.38609C21.6292 1.54833 21.5006 1.67988 21.342 1.67988C21.1833 1.67988 21.0547 1.54833 21.0547 1.38609C21.0547 1.22386 21.1833 1.09229 21.342 1.09229Z" fill="url(#paint10_linear_58_407)"/>
<path d="M6.42044 38.7161C6.18769 38.2913 6.3354 37.7539 6.75076 37.5158C7.16613 37.2778 7.6916 37.4289 7.92436 37.8537C8.15711 38.2785 8.00938 38.8159 7.59402 39.054C7.17866 39.2921 6.6532 39.1404 6.42044 38.7161Z" fill="url(#paint11_linear_58_407)"/>
<path d="M7.9354 40.8244C7.78441 40.5496 7.88035 40.2011 8.14962 40.0473C8.41835 39.8928 8.75903 39.991 8.90947 40.2664C9.06046 40.5412 8.96453 40.8897 8.6958 41.0435C8.42652 41.1974 8.08639 41.0998 7.9354 40.8244Z" fill="url(#paint12_linear_58_407)"/>
<path d="M9.0516 42.2451C8.93768 42.0372 9.01017 41.7735 9.21349 41.657C9.41736 41.5404 9.67464 41.6146 9.78856 41.8225C9.90249 42.0305 9.82999 42.2942 9.62667 42.4107C9.42281 42.5272 9.16553 42.4531 9.0516 42.2451Z" fill="url(#paint13_linear_58_407)"/>
<path d="M10.1686 43.3194C10.0912 43.1778 10.1403 42.9988 10.2787 42.9191C10.4172 42.8399 10.5922 42.8901 10.6701 43.0317C10.7475 43.1733 10.6985 43.3523 10.56 43.432C10.4215 43.5112 10.246 43.461 10.1686 43.3194Z" fill="url(#paint14_linear_58_407)"/>
<defs>
<linearGradient id="paint0_linear_58_407" x1="4.26326" y1="27.9807" x2="49.9296" y2="27.9807" gradientUnits="userSpaceOnUse">
<stop stop-color="#C1AB75"/>
<stop offset="1" stop-color="#E6E1B3"/>
</linearGradient>
<linearGradient id="paint1_linear_58_407" x1="10.1586" y1="28.4412" x2="44.1391" y2="28.4412" gradientUnits="userSpaceOnUse">
<stop stop-color="#C1AB75"/>
<stop offset="1" stop-color="#E6E1B3"/>
</linearGradient>
<linearGradient id="paint2_linear_58_407" x1="4.86423" y1="28.4412" x2="49.3283" y2="28.4412" gradientUnits="userSpaceOnUse">
<stop stop-color="#C1AB75"/>
<stop offset="1" stop-color="#E6E1B3"/>
</linearGradient>
<linearGradient id="paint3_linear_58_407" x1="-0.00031706" y1="28.4411" x2="54.1935" y2="28.4411" gradientUnits="userSpaceOnUse">
<stop stop-color="#C1AB75"/>
<stop offset="1" stop-color="#E6E1B3"/>
</linearGradient>
<linearGradient id="paint4_linear_58_407" x1="54.0694" y1="27.5363" x2="53.9427" y2="34.1642" gradientUnits="userSpaceOnUse">
<stop stop-color="#C19566"/>
<stop offset="1" stop-color="#E6E1B3"/>
</linearGradient>
<linearGradient id="paint5_linear_58_407" x1="20.6811" y1="54.0911" x2="20.6175" y2="57.4199" gradientUnits="userSpaceOnUse">
<stop stop-color="#C19566"/>
<stop offset="1" stop-color="#E6E1B3"/>
</linearGradient>
<linearGradient id="paint6_linear_58_407" x1="47.964" y1="36.1656" x2="47.9003" y2="39.4945" gradientUnits="userSpaceOnUse">
<stop stop-color="#C19566"/>
<stop offset="1" stop-color="#E6E1B3"/>
</linearGradient>
<linearGradient id="paint7_linear_58_407" x1="27.9805" y1="0.806593" x2="20.9416" y2="1.37967" gradientUnits="userSpaceOnUse">
<stop stop-color="#C19566"/>
<stop offset="1" stop-color="#E6E1B3"/>
</linearGradient>
<linearGradient id="paint8_linear_58_407" x1="27.9641" y1="0.601653" x2="20.9253" y2="1.17474" gradientUnits="userSpaceOnUse">
<stop stop-color="#C19566"/>
<stop offset="1" stop-color="#E6E1B3"/>
</linearGradient>
<linearGradient id="paint9_linear_58_407" x1="27.965" y1="0.613925" x2="20.9264" y2="1.18697" gradientUnits="userSpaceOnUse">
<stop stop-color="#C19566"/>
<stop offset="1" stop-color="#E6E1B3"/>
</linearGradient>
<linearGradient id="paint10_linear_58_407" x1="27.9816" y1="0.82094" x2="20.9428" y2="1.39401" gradientUnits="userSpaceOnUse">
<stop stop-color="#C19566"/>
<stop offset="1" stop-color="#E6E1B3"/>
</linearGradient>
<linearGradient id="paint11_linear_58_407" x1="6.67818" y1="37.5366" x2="10.7535" y2="43.4361" gradientUnits="userSpaceOnUse">
<stop stop-color="#C19566"/>
<stop offset="1" stop-color="#E6E1B3"/>
</linearGradient>
<linearGradient id="paint12_linear_58_407" x1="6.51165" y1="37.6514" x2="10.5871" y2="43.5511" gradientUnits="userSpaceOnUse">
<stop stop-color="#C19566"/>
<stop offset="1" stop-color="#E6E1B3"/>
</linearGradient>
<linearGradient id="paint13_linear_58_407" x1="6.52162" y1="37.6447" x2="10.597" y2="43.5442" gradientUnits="userSpaceOnUse">
<stop stop-color="#C19566"/>
<stop offset="1" stop-color="#E6E1B3"/>
</linearGradient>
<linearGradient id="paint14_linear_58_407" x1="6.69024" y1="37.5286" x2="10.7655" y2="43.4279" gradientUnits="userSpaceOnUse">
<stop stop-color="#C19566"/>
<stop offset="1" stop-color="#E6E1B3"/>
</linearGradient>
</defs>
</svg>
