<svg width="57" height="57" viewBox="0 0 57 57" fill="none" xmlns="http://www.w3.org/2000/svg">
<path d="M28.0195 45.7213C37.651 45.7213 45.4588 37.9846 45.4588 28.441C45.4588 18.8973 37.651 11.1606 28.0195 11.1606C18.3881 11.1606 10.5802 18.8973 10.5802 28.441C10.5802 37.9846 18.3881 45.7213 28.0195 45.7213Z" stroke="url(#paint0_linear_58_1760)" stroke-width="0.193676" stroke-linecap="round" stroke-linejoin="round" stroke-dasharray="0.2 2.52"/>
<path d="M27.9665 51.0524C40.5692 51.0524 50.7857 40.9291 50.7857 28.4413C50.7857 15.9535 40.5692 5.83008 27.9665 5.83008C15.3638 5.83008 5.14737 15.9535 5.14737 28.4413C5.14737 40.9291 15.3638 51.0524 27.9665 51.0524Z" stroke="url(#paint1_linear_58_1760)" stroke-width="0.25344" stroke-linecap="round" stroke-linejoin="round"/>
<path d="M27.9669 56C43.3274 56 55.7795 43.6614 55.7795 28.441C55.7795 13.2206 43.3274 0.881958 27.9669 0.881958C12.6065 0.881958 0.154449 13.2206 0.154449 28.441C0.154449 43.6614 12.6065 56 27.9669 56Z" stroke="url(#paint2_linear_58_1760)" stroke-width="0.308912" stroke-linecap="round" stroke-linejoin="round"/>
<path d="M53.4588 39.5551L53.7817 37.7159C53.7986 37.6205 53.9353 37.6178 53.9561 37.712L54.364 39.5501C54.3719 39.5857 54.4012 39.6131 54.4378 39.6181L56.0784 39.8572C56.1746 39.8712 56.1819 40.0055 56.088 40.0301L54.3848 40.4672C54.3517 40.4755 54.3264 40.5028 54.3196 40.5363L54.0163 42.1341C53.9983 42.2283 53.8633 42.2305 53.8419 42.1374L53.4779 40.5513C53.47 40.5179 53.4441 40.4922 53.4104 40.485L51.8694 40.1455C51.7765 40.1254 51.7765 39.9944 51.8688 39.9732L53.3896 39.6253C53.4261 39.6175 53.4526 39.5896 53.4588 39.5551Z" fill="url(#paint3_linear_58_1760)"/>
<path d="M21.0698 54.6232L21.2324 53.6994C21.2408 53.6515 21.3095 53.6498 21.3202 53.6977L21.525 54.6209C21.5289 54.6388 21.5435 54.6527 21.5621 54.655L22.3864 54.7748C22.4348 54.7821 22.4381 54.8495 22.3909 54.8612L21.5357 55.0809C21.5188 55.0853 21.5064 55.0987 21.503 55.1155L21.3511 55.9177C21.3421 55.9651 21.274 55.9662 21.2633 55.9194L21.0805 55.1227C21.0766 55.106 21.0636 55.0932 21.0468 55.0893L20.2731 54.9187C20.2264 54.9086 20.2264 54.8428 20.2726 54.8323L21.0366 54.6577C21.0529 54.6544 21.0664 54.6405 21.0698 54.6232Z" fill="url(#paint4_linear_58_1760)"/>
<path d="M47.4293 47.6566L47.5919 46.7328C47.6003 46.6849 47.669 46.6832 47.6797 46.7312L47.8845 47.6544C47.8884 47.6722 47.903 47.6862 47.9216 47.689L48.7459 47.8088C48.7942 47.8161 48.7976 47.8835 48.7504 47.8952L47.8951 48.1149C47.8783 48.1194 47.8659 48.1327 47.8625 48.1495L47.7101 48.9517C47.701 48.9991 47.6335 49.0002 47.6223 48.9534L47.4394 48.1567C47.4355 48.14 47.4225 48.1272 47.4057 48.1233L46.632 47.9527C46.5853 47.9426 46.5854 47.8768 46.6315 47.8662L47.3955 47.6918C47.4124 47.6884 47.4259 47.6745 47.4293 47.6566Z" fill="url(#paint5_linear_58_1760)"/>
<path d="M27.9711 1.76283C28.4623 1.76283 28.8606 1.36821 28.8606 0.881424C28.8606 0.394635 28.4623 0 27.9711 0C27.4798 0 27.0815 0.394635 27.0815 0.881424C27.0815 1.36821 27.4798 1.76283 27.9711 1.76283Z" fill="url(#paint6_linear_58_1760)"/>
<path d="M25.3505 0.320801C25.669 0.320801 25.9266 0.576687 25.9266 0.891676C25.9266 1.20666 25.6684 1.46257 25.3505 1.46257C25.0321 1.46257 24.7744 1.20722 24.7744 0.891676C24.7744 0.576129 25.0321 0.320801 25.3505 0.320801Z" fill="url(#paint7_linear_58_1760)"/>
<path d="M23.5365 0.621094C23.7773 0.621094 23.9725 0.814544 23.9725 1.05315C23.9725 1.29177 23.7773 1.48522 23.5365 1.48522C23.2957 1.48522 23.1004 1.29177 23.1004 1.05315C23.1004 0.814544 23.2957 0.621094 23.5365 0.621094Z" fill="url(#paint8_linear_58_1760)"/>
<path d="M22.0272 1.09241C22.1909 1.09241 22.3237 1.22398 22.3237 1.38622C22.3237 1.54845 22.1909 1.68001 22.0272 1.68001C21.8635 1.68001 21.7307 1.54845 21.7307 1.38622C21.7307 1.22398 21.8635 1.09241 22.0272 1.09241Z" fill="url(#paint9_linear_58_1760)"/>
<path d="M6.62519 38.7159C6.38495 38.2911 6.53743 37.7537 6.96615 37.5156C7.39488 37.2776 7.93723 37.4286 8.17747 37.8534C8.41771 38.2783 8.26527 38.8157 7.83654 39.0538C7.40782 39.2918 6.86543 39.1402 6.62519 38.7159Z" fill="url(#paint10_linear_58_1760)"/>
<path d="M8.18901 40.8244C8.03316 40.5496 8.13219 40.2011 8.41013 40.0473C8.6875 39.8928 9.03917 39.991 9.19446 40.2664C9.35031 40.5412 9.25127 40.8897 8.97389 41.0435C8.69595 41.1974 8.3443 41.0998 8.18901 40.8244Z" fill="url(#paint11_linear_58_1760)"/>
<path d="M9.34069 42.2449C9.2231 42.0369 9.29793 41.7732 9.50779 41.6567C9.71765 41.5402 9.98381 41.6144 10.1014 41.8223C10.219 42.0302 10.1442 42.2939 9.9343 42.4105C9.72443 42.527 9.45828 42.4528 9.34069 42.2449Z" fill="url(#paint12_linear_58_1760)"/>
<path d="M10.4942 43.3192C10.4143 43.1775 10.465 42.9986 10.6079 42.9189C10.7508 42.8397 10.9314 42.8899 11.0118 43.0315C11.0917 43.1731 11.0411 43.352 10.8982 43.4318C10.7553 43.5109 10.5747 43.4608 10.4942 43.3192Z" fill="url(#paint13_linear_58_1760)"/>
<path d="M49.3994 29.4955C47.7435 26.7448 46.0883 23.9946 44.4325 21.2439C45.1453 21.2869 45.8587 21.2439 46.5569 21.0655C49.1028 20.416 51.0771 17.9948 51.1823 15.3913C51.2875 12.7883 49.5158 10.2177 47.0307 9.36858C46.0146 9.02126 44.8758 8.94822 43.8715 9.32788C42.8672 9.70754 42.0289 10.5839 41.8562 11.6348C41.6835 12.6857 42.1853 13.8169 43.1986 14.172C42.7766 13.2087 43.3095 11.9861 44.2558 11.5122C45.2016 11.0383 46.4185 11.273 47.2175 11.9632C48.0164 12.6534 48.4153 13.7294 48.4114 14.7797C48.4091 15.4147 48.2589 16.0737 47.8488 16.5615C47.4386 17.0493 46.4073 17.5566 45.9482 17.114C45.3788 16.5648 44.5861 16.2504 43.7911 16.2576C42.9966 16.2654 42.0936 16.5654 41.5355 17.1257C41.0724 16.2125 40.215 15.5039 39.2248 15.2168C38.2345 14.9297 36.972 15.0846 36.0853 15.6065C36.3565 14.6883 35.9981 13.6507 35.2965 12.9934C34.5949 12.3362 33.599 12.039 32.6341 12.068C31.3052 12.1082 30.0556 12.8418 29.2313 13.8754C29.9239 12.1945 29.1295 10.1268 27.8641 8.81274C26.5993 10.1262 25.8043 12.194 26.4969 13.8754C25.6727 12.8418 24.4231 12.1082 23.0942 12.068C22.1292 12.039 21.1328 12.3362 20.4318 12.9934C19.7302 13.6507 19.3718 14.6888 19.643 15.6065C18.7557 15.0846 17.4937 14.9297 16.5035 15.2168C15.5138 15.5039 14.6558 16.2125 14.1928 17.1257C13.6347 16.5654 12.7322 16.2654 11.9372 16.2576C11.1428 16.2498 10.3495 16.5648 9.78007 17.114C9.32097 17.5566 8.28967 17.0493 7.87951 16.5615C7.46936 16.0737 7.31913 15.4147 7.31688 14.7797C7.31351 13.7294 7.71184 12.6534 8.51134 11.9632C9.31084 11.273 10.5272 11.0389 11.473 11.5122C12.4194 11.9861 12.9522 13.2087 12.5302 14.172C13.5435 13.8169 14.0454 12.6857 13.8726 11.6348C13.6993 10.5839 12.861 9.70754 11.8573 9.32788C10.853 8.94822 9.71423 9.02181 8.69811 9.36858C6.21298 10.2182 4.44072 12.7883 4.54593 15.3913C4.65115 17.9943 6.62539 20.416 9.17129 21.0655C10.1964 21.327 11.253 21.3136 12.2945 21.1285C10.4361 23.9172 8.57718 26.7063 6.71881 29.4955H3.53207C3.53207 32.3884 6.53258 37.0218 14.1928 37.0218C21.853 37.0218 24.8535 32.3884 24.8535 29.4955H21.7033C19.7685 26.281 17.8336 23.067 15.8987 19.8524C17.7666 18.9091 19.5029 17.7138 21.4169 16.8653C22.9732 16.1757 24.7218 15.7403 26.3928 15.9209C26.668 18.9409 26.911 21.9681 26.8058 24.9976C26.6888 28.3616 26.1324 31.7467 24.7731 34.8314C24.4338 35.6013 24.036 36.4013 24.1226 37.237C24.1992 37.9763 24.6431 38.6191 24.9463 39.2986C25.2496 39.9782 25.3919 40.8379 24.9188 41.4149H24.7596C24.7596 41.4149 18.1655 41.1222 15.6804 47.1343H15.8396H16.9564H27.8366H38.8759H39.9927C37.5082 41.1222 30.9136 41.4149 30.9136 41.4149C30.441 40.8379 30.5828 39.9782 30.886 39.2986C31.1893 38.6191 31.6332 37.9763 31.7103 37.237C31.7969 36.4007 31.3992 35.6013 31.0599 34.8314C29.7006 31.7467 29.1441 28.3616 29.0271 24.9976C28.9213 21.9631 29.1661 18.9303 29.4412 15.9047C31.079 15.7542 32.7866 16.1907 34.3091 16.8659C36.3306 17.7618 38.149 19.0535 40.1385 20.0169C40.287 20.0888 40.4406 20.1546 40.5925 20.2226C38.5327 23.3139 36.4724 26.4053 34.4126 29.4961H31.4543C31.4543 32.389 34.4548 37.0224 42.115 37.0224C49.7752 37.0224 52.7757 32.389 52.7757 29.4961H49.3994V29.4955ZM20.7491 29.4955H14.1933H7.7006C9.62142 26.6132 11.5422 23.731 13.4631 20.8487C14.0426 20.6753 14.6103 20.4579 15.16 20.2109C17.0234 23.3056 18.8862 26.4008 20.7491 29.4955ZM42.1167 29.4955H35.3961C37.3855 26.5107 39.3744 23.5258 41.3639 20.5404C42.0289 20.7946 42.7125 20.9986 43.4057 21.1241C45.0851 23.9144 46.7646 26.7047 48.4446 29.495H42.1167V29.4955Z" fill="url(#paint14_linear_58_1760)"/>
<path d="M11.7527 18.5702C12.0245 18.5702 12.0245 18.1521 11.7527 18.1521C11.481 18.1521 11.4804 18.5702 11.7527 18.5702Z" fill="black"/>
<path d="M16.8179 17.0055C17.0897 17.0055 17.0897 16.5874 16.8179 16.5874C16.5462 16.5874 16.5456 17.0055 16.8179 17.0055Z" fill="black"/>
<path d="M22.6075 14.1379C22.8793 14.1379 22.8793 13.7197 22.6075 13.7197C22.3358 13.7197 22.3352 14.1379 22.6075 14.1379Z" fill="black"/>
<path d="M32.8686 14.2685C33.1404 14.2685 33.1404 13.8503 32.8686 13.8503C32.5974 13.8503 32.5969 14.2685 32.8686 14.2685Z" fill="black"/>
<path d="M38.5784 17.0578C38.5784 17.0795 38.5784 17.1012 38.5784 17.123C38.5773 17.152 38.5835 17.1787 38.5964 17.2038C38.6048 17.2295 38.6195 17.2523 38.6403 17.2713C38.6594 17.2913 38.6819 17.3058 38.7084 17.3142C38.7337 17.327 38.7607 17.3332 38.7894 17.332C38.808 17.3293 38.8271 17.327 38.8456 17.3248C38.8817 17.3148 38.9126 17.2969 38.9385 17.2713C38.9498 17.2573 38.9604 17.2428 38.9717 17.2289C38.9908 17.196 39.0004 17.1609 39.0004 17.1235C39.0004 17.1018 39.0004 17.0801 39.0004 17.0583C39.0015 17.0293 38.9953 17.0026 38.9824 16.9775C38.9739 16.9513 38.9593 16.929 38.9385 16.91C38.9194 16.8894 38.8968 16.8755 38.8704 16.8671C38.8451 16.8543 38.8181 16.8481 38.7888 16.8492C38.7703 16.8515 38.7517 16.8543 38.7326 16.8565C38.6966 16.8665 38.6656 16.8844 38.6397 16.91C38.6285 16.924 38.6178 16.9384 38.6065 16.9524C38.588 16.9847 38.5784 17.0198 38.5784 17.0578Z" fill="black"/>
<path d="M43.8547 18.9613C44.1264 18.9613 44.1264 18.5432 43.8547 18.5432C43.5829 18.5432 43.5829 18.9613 43.8547 18.9613Z" fill="black"/>
<path d="M27.7241 11.8427C27.7241 11.8644 27.7241 11.8862 27.7241 11.9079C27.723 11.9369 27.7292 11.9637 27.7421 11.9882C27.7505 12.0138 27.7652 12.0367 27.7854 12.0556C27.8046 12.0763 27.827 12.0902 27.8535 12.0991C27.8788 12.1119 27.9058 12.1181 27.9345 12.117C27.9531 12.1147 27.9717 12.1119 27.9908 12.1097C28.0262 12.0997 28.0577 12.0818 28.0836 12.0562C28.0949 12.0422 28.1056 12.0278 28.1168 12.0138C28.1359 11.9809 28.1455 11.9458 28.1455 11.9085C28.1455 11.8867 28.1455 11.865 28.1455 11.8432C28.1466 11.8142 28.1404 11.7875 28.1275 11.7629C28.1191 11.7373 28.1044 11.7145 28.0836 11.6955C28.0645 11.6749 28.042 11.6609 28.0155 11.652C27.9902 11.6392 27.9632 11.633 27.934 11.6342C27.9154 11.6369 27.8968 11.6392 27.8777 11.6414C27.8423 11.6514 27.8107 11.6693 27.7843 11.6949C27.7736 11.7089 27.7623 11.7234 27.7511 11.7373C27.7342 11.7702 27.7241 11.8053 27.7241 11.8427Z" fill="black"/>
<path d="M7.23974 20.2427C9.81265 21.7708 13.0028 21.1547 15.6044 20.042C17.0818 19.4098 18.48 18.6153 19.9254 17.9168C21.3438 17.231 22.8105 16.6841 24.3589 16.3675C27.3538 15.7559 30.5124 15.9482 33.4088 16.9194C34.9442 17.434 36.3514 18.2067 37.7461 19.0139C39.1505 19.8268 40.5604 20.6502 42.1031 21.1821C43.5114 21.6676 45.0491 21.9023 46.5215 21.5851C47.7677 21.3164 48.9593 20.663 49.742 19.6512C49.9344 19.402 50.097 19.1355 50.2298 18.8511C50.3434 18.6086 49.9794 18.3962 49.8652 18.6398C49.3267 19.7911 48.269 20.5967 47.0717 20.9998C45.6707 21.4708 44.1702 21.3605 42.767 20.954C39.6844 20.0615 37.1869 17.9067 34.21 16.7644C31.4356 15.6996 28.3845 15.3673 25.4391 15.7637C23.9364 15.9661 22.4685 16.3613 21.0698 16.9428C19.6165 17.5471 18.242 18.3148 16.8331 19.0111C14.2771 20.2744 11.2203 21.3794 8.38636 20.333C8.0606 20.2126 7.75006 20.0592 7.45186 19.882C7.2195 19.7426 7.00681 20.1038 7.23974 20.2427Z" fill="black"/>
<path d="M19.5118 15.4657C19.6739 14.271 20.421 13.2034 21.4788 12.6108C22.5517 12.0098 23.8677 12.0137 24.9677 12.55C25.5882 12.8527 26.125 13.3049 26.5014 13.8819C26.6482 14.1071 27.014 13.8975 26.866 13.6706C26.1244 12.5333 24.8315 11.8163 23.4722 11.7377C22.1275 11.6597 20.8289 12.2891 19.9979 13.3277C19.5287 13.9142 19.2069 14.6105 19.1062 15.3548C19.091 15.4674 19.1337 15.5778 19.2536 15.6118C19.3503 15.6397 19.4967 15.5772 19.5118 15.4657Z" fill="black"/>
<path d="M29.4771 13.9117C30.1443 12.94 31.3067 12.3412 32.4877 12.3067C33.6788 12.2721 34.808 12.8569 35.5102 13.8047C35.9029 14.3349 36.1651 14.9592 36.2292 15.616C36.2551 15.8814 36.6776 15.8841 36.6512 15.616C36.5229 14.3075 35.7436 13.1134 34.6066 12.4382C33.4431 11.7475 32.0123 11.733 30.7931 12.2905C30.1151 12.6005 29.5322 13.0894 29.1131 13.7004C28.9595 13.924 29.3252 14.133 29.4771 13.9117Z" fill="black"/>
<path d="M41.8135 17.4434C42.1573 16.7281 42.9877 16.4404 43.7461 16.49C44.7273 16.5541 45.5938 17.1713 46.3753 17.7065C46.5992 17.8598 46.8102 17.4974 46.5879 17.3452C45.7131 16.7459 44.7521 16.0992 43.6499 16.0669C42.7823 16.0412 41.8382 16.4209 41.4483 17.2315C41.333 17.474 41.6965 17.6864 41.8135 17.4434Z" fill="black"/>
<path d="M12.6545 13.9116C13.0945 12.9883 12.6691 11.8427 11.783 11.3476C10.7787 10.7868 9.52343 11.065 8.68455 11.7858C8.19787 12.2034 7.85131 12.7514 7.60826 13.3368C7.5053 13.5854 7.91318 13.6936 8.01502 13.4477C8.36441 12.6059 9.02437 11.8221 9.93302 11.5611C10.7995 11.3125 11.801 11.5662 12.2331 12.3996C12.4395 12.7971 12.4862 13.2894 12.2904 13.6997C12.1745 13.9422 12.538 14.1546 12.6545 13.9116Z" fill="black"/>
<path d="M30.8596 41.2133C29.9459 41.5829 28.9501 41.7373 27.966 41.7379C26.9944 41.7385 25.9861 41.5941 25.105 41.1698C24.862 41.0527 24.6476 41.4134 24.8918 41.5311C25.8258 41.9804 26.879 42.1505 27.9109 42.156C28.9467 42.1616 30.0095 42.0055 30.9721 41.6164C31.2203 41.516 31.1117 41.1113 30.8596 41.2133Z" fill="black"/>
<path d="M43.1986 14.1719C43.1986 14.1719 42.4131 12.107 44.7205 11.3409C47.0273 10.5749 48.5824 13.4589 48.4102 14.6631" stroke="black" stroke-width="0.386461" stroke-miterlimit="10" stroke-linecap="round" stroke-linejoin="round"/>
<path d="M9.78143 17.1139C9.78143 17.1139 11.7422 15.0668 14.1936 17.1256" stroke="black" stroke-width="0.386461" stroke-miterlimit="10" stroke-linecap="round" stroke-linejoin="round"/>
<path d="M26.89 11.8425C26.89 11.2705 27.3581 10.8066 27.9354 10.8066C28.5127 10.8066 28.9808 11.2705 28.9808 11.8425C28.9808 12.4145 28.5127 12.8783 27.9354 12.8783C27.3581 12.8783 26.89 12.415 26.89 11.8425Z" stroke="black" stroke-width="0.386461" stroke-miterlimit="10" stroke-linecap="round" stroke-linejoin="round"/>
<path d="M3.53244 29.4956C3.53244 29.4956 3.8492 37.0219 14.1932 37.0219C24.5371 37.0219 24.8539 29.4956 24.8539 29.4956" stroke="black" stroke-width="0.386461" stroke-miterlimit="10" stroke-linecap="round" stroke-linejoin="round"/>
<path d="M5.55826 29.4956C5.55826 29.4956 5.81483 35.5919 14.1935 35.5919C22.5722 35.5919 22.8288 29.4956 22.8288 29.4956" stroke="black" stroke-width="0.386461" stroke-miterlimit="10" stroke-linecap="round" stroke-linejoin="round"/>
<path d="M8.01669 29.4956C8.01669 29.4956 8.20013 33.8558 14.1933 33.8558C20.1864 33.8558 20.3698 29.4956 20.3698 29.4956" stroke="black" stroke-width="0.386461" stroke-miterlimit="10" stroke-linecap="round" stroke-linejoin="round"/>
<path d="M10.4372 29.4956C10.4372 29.4956 10.5486 32.1471 14.1927 32.1471C17.8369 32.1471 17.9483 29.4956 17.9483 29.4956" stroke="black" stroke-width="0.386461" stroke-miterlimit="10" stroke-linecap="round" stroke-linejoin="round"/>
<path d="M13.8743 30.4746C13.8743 30.3001 14.0172 30.1584 14.1933 30.1584C14.3694 30.1584 14.5123 30.3001 14.5123 30.4746C14.5123 30.6491 14.3694 30.7907 14.1933 30.7907C14.0172 30.7907 13.8743 30.6491 13.8743 30.4746Z" fill="black"/>
<path d="M13.8743 33.0246C13.8743 32.8501 14.0172 32.7085 14.1933 32.7085C14.3694 32.7085 14.5123 32.8501 14.5123 33.0246C14.5123 33.1991 14.3694 33.3407 14.1933 33.3407C14.0172 33.3407 13.8743 33.1991 13.8743 33.0246Z" fill="black"/>
<path d="M16.2299 32.7089C16.2299 32.5344 16.3728 32.3928 16.5489 32.3928C16.725 32.3928 16.8679 32.5344 16.8679 32.7089C16.8679 32.8834 16.725 33.025 16.5489 33.025C16.3722 33.0245 16.2299 32.8829 16.2299 32.7089Z" fill="black"/>
<path d="M18.3128 30.8212C18.3128 30.6467 18.4557 30.5051 18.6318 30.5051C18.8079 30.5051 18.9508 30.6467 18.9508 30.8212C18.9508 30.9957 18.8079 31.1373 18.6318 31.1373C18.4557 31.1373 18.3128 30.9957 18.3128 30.8212Z" fill="black"/>
<path d="M14.5124 33.0246C14.5124 32.8501 14.3695 32.7085 14.1934 32.7085C14.0173 32.7085 13.8744 32.8501 13.8744 33.0246C13.8744 33.1991 14.0173 33.3407 14.1934 33.3407C14.3695 33.3407 14.5124 33.1991 14.5124 33.0246Z" fill="black"/>
<path d="M12.1579 32.7089C12.1579 32.5344 12.015 32.3928 11.8389 32.3928C11.6628 32.3928 11.5199 32.5344 11.5199 32.7089C11.5199 32.8834 11.6628 33.025 11.8389 33.025C12.015 33.025 12.1579 32.8829 12.1579 32.7089Z" fill="black"/>
<path d="M9.75438 31.1373C9.93057 31.1373 10.0734 30.9958 10.0734 30.8212C10.0734 30.6467 9.93057 30.5051 9.75438 30.5051C9.5782 30.5051 9.43536 30.6467 9.43536 30.8212C9.43536 30.9958 9.5782 31.1373 9.75438 31.1373Z" fill="black"/>
<path d="M14.5125 34.7958C14.5125 34.6214 14.3696 34.4797 14.1935 34.4797C14.0174 34.4797 13.8745 34.6214 13.8745 34.7958C13.8745 34.9703 14.0174 35.1119 14.1935 35.1119C14.3696 35.1114 14.5125 34.9703 14.5125 34.7958Z" fill="black"/>
<path d="M11.2518 34.3085C11.2518 34.134 11.1089 33.9924 10.9328 33.9924C10.7567 33.9924 10.6138 34.134 10.6138 34.3085C10.6138 34.483 10.7567 34.6246 10.9328 34.6246C11.1089 34.6246 11.2518 34.483 11.2518 34.3085Z" fill="black"/>
<path d="M8.43262 32.5441C8.43262 32.3696 8.28974 32.228 8.11364 32.228C7.93753 32.228 7.79462 32.3696 7.79462 32.5441C7.79462 32.7186 7.93753 32.8602 8.11364 32.8602C8.2903 32.8602 8.43262 32.7186 8.43262 32.5441Z" fill="black"/>
<path d="M7.02607 30.2541C7.02607 30.0796 6.88319 29.938 6.70708 29.938C6.53098 29.938 6.38806 30.0796 6.38806 30.2541C6.38806 30.4286 6.53098 30.5702 6.70708 30.5702C6.88375 30.5696 7.02607 30.4286 7.02607 30.2541Z" fill="black"/>
<path d="M13.8744 34.7958C13.8744 34.6214 14.0173 34.4797 14.1934 34.4797C14.3695 34.4797 14.5124 34.6214 14.5124 34.7958C14.5124 34.9703 14.3695 35.1119 14.1934 35.1119C14.0173 35.1114 13.8744 34.9703 13.8744 34.7958Z" fill="black"/>
<path d="M17.1367 34.3085C17.1367 34.134 17.2796 33.9924 17.4557 33.9924C17.6318 33.9924 17.7747 34.134 17.7747 34.3085C17.7747 34.483 17.6318 34.6246 17.4557 34.6246C17.279 34.6246 17.1367 34.483 17.1367 34.3085Z" fill="black"/>
<path d="M19.9548 32.5441C19.9548 32.3696 20.0978 32.228 20.2739 32.228C20.45 32.228 20.5928 32.3696 20.5928 32.5441C20.5928 32.7186 20.45 32.8602 20.2739 32.8602C20.0978 32.8602 19.9548 32.7186 19.9548 32.5441Z" fill="black"/>
<path d="M21.3607 30.2541C21.3607 30.0796 21.5036 29.938 21.6797 29.938C21.8558 29.938 21.9987 30.0796 21.9987 30.2541C21.9987 30.4286 21.8558 30.5702 21.6797 30.5702C21.5036 30.5696 21.3607 30.4286 21.3607 30.2541Z" fill="black"/>
<path d="M14.5122 36.3623C14.5122 36.1878 14.3692 36.0461 14.1931 36.0461C14.017 36.0461 13.8741 36.1878 13.8741 36.3623C13.8741 36.5368 14.017 36.6784 14.1931 36.6784C14.3692 36.6784 14.5122 36.5368 14.5122 36.3623Z" fill="black"/>
<path d="M10.7882 35.852C10.7882 35.6775 10.6453 35.5359 10.4692 35.5359C10.2931 35.5359 10.1502 35.6775 10.1502 35.852C10.1502 36.0265 10.2931 36.1681 10.4692 36.1681C10.6453 36.1675 10.7882 36.0265 10.7882 35.852Z" fill="black"/>
<path d="M7.43195 34.3508C7.43195 34.1763 7.28907 34.0347 7.11297 34.0347C6.93686 34.0347 6.79395 34.1763 6.79395 34.3508C6.79395 34.5253 6.93686 34.6669 7.11297 34.6669C7.28963 34.6663 7.43195 34.5253 7.43195 34.3508Z" fill="black"/>
<path d="M5.12974 30.5698C5.12974 30.3953 4.98682 30.2537 4.81072 30.2537C4.63461 30.2537 4.49173 30.3953 4.49173 30.5698C4.49173 30.7443 4.63461 30.8859 4.81072 30.8859C4.98682 30.8859 5.12974 30.7443 5.12974 30.5698Z" fill="black"/>
<path d="M13.874 36.3623C13.874 36.1878 14.0169 36.0461 14.193 36.0461C14.3691 36.0461 14.5121 36.1878 14.5121 36.3623C14.5121 36.5368 14.3691 36.6784 14.193 36.6784C14.0169 36.6784 13.874 36.5368 13.874 36.3623Z" fill="black"/>
<path d="M17.5981 35.852C17.5981 35.6775 17.741 35.5359 17.9171 35.5359C18.0932 35.5359 18.2361 35.6775 18.2361 35.852C18.2361 36.0265 18.0932 36.1681 17.9171 36.1681C17.741 36.1675 17.5981 36.0265 17.5981 35.852Z" fill="black"/>
<path d="M20.9538 34.3508C20.9538 34.1763 21.0967 34.0347 21.2728 34.0347C21.4489 34.0347 21.5918 34.1763 21.5918 34.3508C21.5918 34.5253 21.4489 34.6669 21.2728 34.6669C21.0967 34.6663 20.9538 34.5253 20.9538 34.3508Z" fill="black"/>
<path d="M23.2566 30.5698C23.2566 30.3953 23.3995 30.2537 23.5756 30.2537C23.7517 30.2537 23.8946 30.3953 23.8946 30.5698C23.8946 30.7443 23.7517 30.8859 23.5756 30.8859C23.3995 30.8859 23.2566 30.7443 23.2566 30.5698Z" fill="black"/>
<path d="M52.777 29.4956C52.777 29.4956 52.4602 37.0219 42.1163 37.0219C31.7723 37.0219 31.4556 29.4956 31.4556 29.4956" stroke="black" stroke-width="0.386461" stroke-miterlimit="10" stroke-linecap="round" stroke-linejoin="round"/>
<path d="M50.752 29.4956C50.752 29.4956 50.4955 35.5919 42.1168 35.5919C33.7381 35.5919 33.4815 29.4956 33.4815 29.4956" stroke="black" stroke-width="0.386461" stroke-miterlimit="10" stroke-linecap="round" stroke-linejoin="round"/>
<path d="M48.293 29.4956C48.293 29.4956 48.1097 33.8558 42.1165 33.8558C36.1234 33.8558 35.9399 29.4956 35.9399 29.4956" stroke="black" stroke-width="0.386461" stroke-miterlimit="10" stroke-linecap="round" stroke-linejoin="round"/>
<path d="M45.872 29.4956C45.872 29.4956 45.7606 32.1471 42.1165 32.1471C38.4723 32.1471 38.3609 29.4956 38.3609 29.4956" stroke="black" stroke-width="0.386461" stroke-miterlimit="10" stroke-linecap="round" stroke-linejoin="round"/>
<path d="M42.4351 30.4746C42.4351 30.3001 42.2922 30.1584 42.1161 30.1584C41.94 30.1584 41.7971 30.3001 41.7971 30.4746C41.7971 30.6491 41.94 30.7907 42.1161 30.7907C42.2928 30.7907 42.4351 30.6491 42.4351 30.4746Z" fill="black"/>
<path d="M42.4358 33.0246C42.4358 32.8501 42.2929 32.7085 42.1168 32.7085C41.9407 32.7085 41.7978 32.8501 41.7978 33.0246C41.7978 33.1991 41.9407 33.3407 42.1168 33.3407C42.2935 33.3407 42.4358 33.1991 42.4358 33.0246Z" fill="black"/>
<path d="M40.0809 32.7089C40.0809 32.5344 39.938 32.3928 39.7619 32.3928C39.5858 32.3928 39.4429 32.5344 39.4429 32.7089C39.4429 32.8834 39.5858 33.025 39.7619 33.025C39.9386 33.0245 40.0809 32.8829 40.0809 32.7089Z" fill="black"/>
<path d="M37.9967 30.8212C37.9967 30.6467 37.8538 30.5051 37.6777 30.5051C37.5016 30.5051 37.3587 30.6467 37.3587 30.8212C37.3587 30.9957 37.5016 31.1373 37.6777 31.1373C37.8544 31.1373 37.9967 30.9957 37.9967 30.8212Z" fill="black"/>
<path d="M41.7985 33.0246C41.7985 32.8501 41.9414 32.7085 42.1175 32.7085C42.2936 32.7085 42.4365 32.8501 42.4365 33.0246C42.4365 33.1991 42.2936 33.3407 42.1175 33.3407C41.9414 33.3407 41.7985 33.1991 41.7985 33.0246Z" fill="black"/>
<path d="M44.153 32.7089C44.153 32.5344 44.2959 32.3928 44.472 32.3928C44.6481 32.3928 44.791 32.5344 44.791 32.7089C44.791 32.8834 44.6481 33.025 44.472 33.025C44.2959 33.025 44.153 32.8829 44.153 32.7089Z" fill="black"/>
<path d="M46.5559 31.1373C46.732 31.1373 46.8749 30.9958 46.8749 30.8212C46.8749 30.6467 46.732 30.5051 46.5559 30.5051C46.3797 30.5051 46.2369 30.6467 46.2369 30.8212C46.2369 30.9958 46.3797 31.1373 46.5559 31.1373Z" fill="black"/>
<path d="M41.798 34.7958C41.798 34.6214 41.941 34.4797 42.1171 34.4797C42.2932 34.4797 42.4361 34.6214 42.4361 34.7958C42.4361 34.9703 42.2932 35.1119 42.1171 35.1119C41.941 35.1114 41.798 34.9703 41.798 34.7958Z" fill="black"/>
<path d="M45.0587 34.3085C45.0587 34.134 45.2016 33.9924 45.3777 33.9924C45.5538 33.9924 45.6967 34.134 45.6967 34.3085C45.6967 34.483 45.5538 34.6246 45.3777 34.6246C45.2016 34.6246 45.0587 34.483 45.0587 34.3085Z" fill="black"/>
<path d="M47.8779 32.5441C47.8779 32.3696 48.0208 32.228 48.1969 32.228C48.373 32.228 48.5159 32.3696 48.5159 32.5441C48.5159 32.7186 48.373 32.8602 48.1969 32.8602C48.0202 32.8602 47.8779 32.7186 47.8779 32.5441Z" fill="black"/>
<path d="M49.2842 30.2541C49.2842 30.0796 49.4271 29.938 49.6032 29.938C49.7793 29.938 49.9222 30.0796 49.9222 30.2541C49.9222 30.4286 49.7793 30.5702 49.6032 30.5702C49.4266 30.5696 49.2842 30.4286 49.2842 30.2541Z" fill="black"/>
<path d="M42.4354 34.7958C42.4354 34.6214 42.2925 34.4797 42.1164 34.4797C41.9403 34.4797 41.7974 34.6214 41.7974 34.7958C41.7974 34.9703 41.9403 35.1119 42.1164 35.1119C42.2931 35.1114 42.4354 34.9703 42.4354 34.7958Z" fill="black"/>
<path d="M39.1743 34.3085C39.1743 34.134 39.0313 33.9924 38.8552 33.9924C38.6791 33.9924 38.5362 34.134 38.5362 34.3085C38.5362 34.483 38.6791 34.6246 38.8552 34.6246C39.0313 34.6246 39.1743 34.483 39.1743 34.3085Z" fill="black"/>
<path d="M36.3561 32.5441C36.3561 32.3696 36.2132 32.228 36.0371 32.228C35.861 32.228 35.7181 32.3696 35.7181 32.5441C35.7181 32.7186 35.861 32.8602 36.0371 32.8602C36.2132 32.8602 36.3561 32.7186 36.3561 32.5441Z" fill="black"/>
<path d="M34.9494 30.2541C34.9494 30.0796 34.8065 29.938 34.6304 29.938C34.4543 29.938 34.3114 30.0796 34.3114 30.2541C34.3114 30.4286 34.4543 30.5702 34.6304 30.5702C34.8065 30.5696 34.9494 30.4286 34.9494 30.2541Z" fill="black"/>
<path d="M41.7979 36.3623C41.7979 36.1878 41.9409 36.0461 42.117 36.0461C42.2931 36.0461 42.436 36.1878 42.436 36.3623C42.436 36.5368 42.2931 36.6784 42.117 36.6784C41.9409 36.6784 41.7979 36.5368 41.7979 36.3623Z" fill="black"/>
<path d="M45.5223 35.852C45.5223 35.6775 45.6653 35.5359 45.8414 35.5359C46.0175 35.5359 46.1603 35.6775 46.1603 35.852C46.1603 36.0265 46.0175 36.1681 45.8414 36.1681C45.6653 36.1675 45.5223 36.0265 45.5223 35.852Z" fill="black"/>
<path d="M48.8776 34.3508C48.8776 34.1763 49.0205 34.0347 49.1966 34.0347C49.3727 34.0347 49.5157 34.1763 49.5157 34.3508C49.5157 34.5253 49.3727 34.6669 49.1966 34.6669C49.0205 34.6663 48.8776 34.5253 48.8776 34.3508Z" fill="black"/>
<path d="M51.1808 30.5698C51.1808 30.3953 51.3238 30.2537 51.4999 30.2537C51.676 30.2537 51.8189 30.3953 51.8189 30.5698C51.8189 30.7443 51.676 30.8859 51.4999 30.8859C51.3238 30.8859 51.1808 30.7443 51.1808 30.5698Z" fill="black"/>
<path d="M42.4353 36.3623C42.4353 36.1878 42.2924 36.0461 42.1163 36.0461C41.9402 36.0461 41.7973 36.1878 41.7973 36.3623C41.7973 36.5368 41.9402 36.6784 42.1163 36.6784C42.293 36.6784 42.4353 36.5368 42.4353 36.3623Z" fill="black"/>
<path d="M38.7115 35.852C38.7115 35.6775 38.5685 35.5359 38.3924 35.5359C38.2163 35.5359 38.0734 35.6775 38.0734 35.852C38.0734 36.0265 38.2163 36.1681 38.3924 36.1681C38.5691 36.1675 38.7115 36.0265 38.7115 35.852Z" fill="black"/>
<path d="M35.3561 34.3508C35.3561 34.1763 35.2133 34.0347 35.0372 34.0347C34.8611 34.0347 34.7181 34.1763 34.7181 34.3508C34.7181 34.5253 34.8611 34.6669 35.0372 34.6669C35.2133 34.6663 35.3561 34.5253 35.3561 34.3508Z" fill="black"/>
<path d="M33.0533 30.5698C33.0533 30.3953 32.9104 30.2537 32.7343 30.2537C32.5582 30.2537 32.4153 30.3953 32.4153 30.5698C32.4153 30.7443 32.5582 30.8859 32.7343 30.8859C32.9104 30.8859 33.0533 30.7443 33.0533 30.5698Z" fill="black"/>
<path d="M27.8643 34.0347L25.8517 37.7633H27.9172" stroke="black" stroke-width="0.386461" stroke-miterlimit="10" stroke-linecap="round" stroke-linejoin="round"/>
<path d="M27.8386 37.7634H29.9046L27.892 34.0348V14.8645" stroke="black" stroke-width="0.386461" stroke-miterlimit="10" stroke-linecap="round" stroke-linejoin="round"/>
<path d="M15.8411 47.1336C15.8411 47.1336 16.258 43.8828 21.2727 41.9795" stroke="black" stroke-width="0.386461" stroke-miterlimit="10" stroke-linecap="round" stroke-linejoin="round"/>
<path d="M39.9946 47.1337C39.9946 47.1337 38.6477 43.627 34.6305 42.0576" stroke="black" stroke-width="0.386461" stroke-miterlimit="10" stroke-linecap="round" stroke-linejoin="round"/>
<path d="M25.2205 43.5654H30.6155" stroke="black" stroke-width="0.386461" stroke-miterlimit="10" stroke-linecap="round" stroke-linejoin="round"/>
<path d="M25.2205 45.7126H30.6155" stroke="black" stroke-width="0.386461" stroke-miterlimit="10" stroke-linecap="round" stroke-linejoin="round"/>
<path d="M26.3184 44.6394H29.5181" stroke="black" stroke-width="0.386461" stroke-miterlimit="10" stroke-linecap="round" stroke-linejoin="round"/>
<defs>
<linearGradient id="paint0_linear_58_1760" x1="10.4829" y1="28.4408" x2="45.5566" y2="28.4408" gradientUnits="userSpaceOnUse">
<stop stop-color="#C1AB75"/>
<stop offset="1" stop-color="#E6E1B3"/>
</linearGradient>
<linearGradient id="paint1_linear_58_1760" x1="5.01943" y1="28.4411" x2="50.914" y2="28.4411" gradientUnits="userSpaceOnUse">
<stop stop-color="#C1AB75"/>
<stop offset="1" stop-color="#E6E1B3"/>
</linearGradient>
<linearGradient id="paint2_linear_58_1760" x1="-0.00151171" y1="28.4408" x2="55.9358" y2="28.4408" gradientUnits="userSpaceOnUse">
<stop stop-color="#C1AB75"/>
<stop offset="1" stop-color="#E6E1B3"/>
</linearGradient>
<linearGradient id="paint3_linear_58_1760" x1="54.0068" y1="38.4959" x2="53.884" y2="45.124" gradientUnits="userSpaceOnUse">
<stop stop-color="#C19566"/>
<stop offset="1" stop-color="#E6E1B3"/>
</linearGradient>
<linearGradient id="paint4_linear_58_1760" x1="21.3448" y1="54.0911" x2="21.2832" y2="57.42" gradientUnits="userSpaceOnUse">
<stop stop-color="#C19566"/>
<stop offset="1" stop-color="#E6E1B3"/>
</linearGradient>
<linearGradient id="paint5_linear_58_1760" x1="47.7042" y1="47.1251" x2="47.6425" y2="50.454" gradientUnits="userSpaceOnUse">
<stop stop-color="#C19566"/>
<stop offset="1" stop-color="#E6E1B3"/>
</linearGradient>
<linearGradient id="paint6_linear_58_1760" x1="28.8793" y1="0.806611" x2="21.6169" y2="1.41691" gradientUnits="userSpaceOnUse">
<stop stop-color="#C19566"/>
<stop offset="1" stop-color="#E6E1B3"/>
</linearGradient>
<linearGradient id="paint7_linear_58_1760" x1="28.8622" y1="0.60177" x2="21.6" y2="1.21204" gradientUnits="userSpaceOnUse">
<stop stop-color="#C19566"/>
<stop offset="1" stop-color="#E6E1B3"/>
</linearGradient>
<linearGradient id="paint8_linear_58_1760" x1="28.8631" y1="0.613905" x2="21.6009" y2="1.22419" gradientUnits="userSpaceOnUse">
<stop stop-color="#C19566"/>
<stop offset="1" stop-color="#E6E1B3"/>
</linearGradient>
<linearGradient id="paint9_linear_58_1760" x1="28.8806" y1="0.821073" x2="21.6185" y2="1.43138" gradientUnits="userSpaceOnUse">
<stop stop-color="#C19566"/>
<stop offset="1" stop-color="#E6E1B3"/>
</linearGradient>
<linearGradient id="paint10_linear_58_1760" x1="6.89142" y1="37.5364" x2="10.9196" y2="43.5552" gradientUnits="userSpaceOnUse">
<stop stop-color="#C19566"/>
<stop offset="1" stop-color="#E6E1B3"/>
</linearGradient>
<linearGradient id="paint11_linear_58_1760" x1="6.71901" y1="37.6513" x2="10.7474" y2="43.6706" gradientUnits="userSpaceOnUse">
<stop stop-color="#C19566"/>
<stop offset="1" stop-color="#E6E1B3"/>
</linearGradient>
<linearGradient id="paint12_linear_58_1760" x1="6.72942" y1="37.6444" x2="10.7576" y2="43.6635" gradientUnits="userSpaceOnUse">
<stop stop-color="#C19566"/>
<stop offset="1" stop-color="#E6E1B3"/>
</linearGradient>
<linearGradient id="paint13_linear_58_1760" x1="6.90407" y1="37.5283" x2="10.9322" y2="43.547" gradientUnits="userSpaceOnUse">
<stop stop-color="#C19566"/>
<stop offset="1" stop-color="#E6E1B3"/>
</linearGradient>
<linearGradient id="paint14_linear_58_1760" x1="0.666711" y1="27.9734" x2="55.2864" y2="27.9734" gradientUnits="userSpaceOnUse">
<stop stop-color="#C1AB75"/>
<stop offset="1" stop-color="#E6E1B3"/>
</linearGradient>
</defs>
</svg>
