<svg width="40" height="40" viewBox="0 0 40 40" fill="none" xmlns="http://www.w3.org/2000/svg">
<rect width="40" height="40" rx="20" fill="#FF6B6B" fill-opacity="0.08"/>
<rect x="0.25" y="0.25" width="39.5" height="39.5" rx="19.75" stroke="#FF6B6B" stroke-opacity="0.16" stroke-width="0.5"/>
<g clip-path="url(#clip0_22_74)">
<path d="M27.5004 20.5722L20.0004 28.0002L12.5004 20.5722C12.0057 20.0908 11.616 19.5122 11.3559 18.8728C11.0958 18.2334 10.971 17.5471 10.9891 16.8571C11.0073 16.1671 11.1682 15.4883 11.4616 14.8635C11.7549 14.2387 12.1745 13.6814 12.6939 13.2268C13.2132 12.7721 13.8211 12.4299 14.4792 12.2217C15.1373 12.0134 15.8314 11.9438 16.5178 12.017C17.2041 12.0902 17.8679 12.3047 18.4673 12.6471C19.0666 12.9894 19.5886 13.4522 20.0004 14.0062C20.4139 13.4562 20.9365 12.9975 21.5355 12.6588C22.1345 12.3201 22.7969 12.1086 23.4813 12.0377C24.1658 11.9668 24.8575 12.0379 25.5132 12.2466C26.1689 12.4553 26.7744 12.7971 27.2919 13.2505C27.8095 13.704 28.2278 14.2595 28.5208 14.8821C28.8138 15.5047 28.9751 16.1811 28.9947 16.8689C29.0143 17.5567 28.8917 18.2412 28.6345 18.8794C28.3774 19.5177 27.9913 20.096 27.5004 20.5782" stroke="#FF6B6B" stroke-width="2" stroke-linecap="round" stroke-linejoin="round"/>
</g>
<defs>
<clipPath id="clip0_22_74">
<rect width="24" height="24" fill="white" transform="translate(8.00009 8)"/>
</clipPath>
</defs>
</svg>
