<svg width="40" height="40" viewBox="0 0 40 40" fill="none" xmlns="http://www.w3.org/2000/svg">
<rect width="40" height="40" rx="20" fill="#6EE7B7" fill-opacity="0.08"/>
<rect x="0.25" y="0.25" width="39.5" height="39.5" rx="19.75" stroke="#6EE7B7" stroke-opacity="0.16" stroke-width="0.5"/>
<g clip-path="url(#clip0_22_82)">
<path d="M11 17C11 16.4696 11.2107 15.9609 11.5858 15.5858C11.9609 15.2107 12.4696 15 13 15H27C27.5304 15 28.0391 15.2107 28.4142 15.5858C28.7893 15.9609 29 16.4696 29 17V26C29 26.5304 28.7893 27.0391 28.4142 27.4142C28.0391 27.7893 27.5304 28 27 28H13C12.4696 28 11.9609 27.7893 11.5858 27.4142C11.2107 27.0391 11 26.5304 11 26V17Z" stroke="#6EE7B7" stroke-width="2" stroke-linecap="round" stroke-linejoin="round"/>
<path d="M16 15V13C16 12.4696 16.2107 11.9609 16.5858 11.5858C16.9609 11.2107 17.4696 11 18 11H22C22.5304 11 23.0391 11.2107 23.4142 11.5858C23.7893 11.9609 24 12.4696 24 13V15" stroke="#6EE7B7" stroke-width="2" stroke-linecap="round" stroke-linejoin="round"/>
<path d="M20 20V20.01" stroke="#6EE7B7" stroke-width="2" stroke-linecap="round" stroke-linejoin="round"/>
<path d="M11 21C13.7916 22.4067 16.874 23.1394 20 23.1394C23.126 23.1394 26.2084 22.4067 29 21" stroke="#6EE7B7" stroke-width="2" stroke-linecap="round" stroke-linejoin="round"/>
</g>
<defs>
<clipPath id="clip0_22_82">
<rect width="24" height="24" fill="white" transform="translate(8 8)"/>
</clipPath>
</defs>
</svg>
