<svg width="57" height="57" viewBox="0 0 57 57" fill="none" xmlns="http://www.w3.org/2000/svg">
<path d="M28.2088 45.7213C37.9052 45.7213 45.7657 37.9847 45.7657 28.441C45.7657 18.8973 37.9052 11.1606 28.2088 11.1606C18.5124 11.1606 10.652 18.8973 10.652 28.441C10.652 37.9847 18.5124 45.7213 28.2088 45.7213Z" stroke="url(#paint0_linear_58_330)" stroke-width="0.193676" stroke-linecap="round" stroke-linejoin="round" stroke-dasharray="0.2 2.52"/>
<path d="M28.1545 51.0524C40.8421 51.0524 51.1275 40.9291 51.1275 28.4413C51.1275 15.9535 40.8421 5.83008 28.1545 5.83008C15.4669 5.83008 5.18152 15.9535 5.18152 28.4413C5.18152 40.9291 15.4669 51.0524 28.1545 51.0524Z" stroke="url(#paint1_linear_58_330)" stroke-width="0.25344" stroke-linecap="round" stroke-linejoin="round"/>
<path d="M28.1545 56C43.6184 56 56.1545 43.6614 56.1545 28.441C56.1545 13.2206 43.6184 0.881958 28.1545 0.881958C12.6905 0.881958 0.15448 13.2206 0.15448 28.441C0.15448 43.6614 12.6905 56 28.1545 56Z" stroke="url(#paint2_linear_58_330)" stroke-width="0.308912" stroke-linecap="round" stroke-linejoin="round"/>
<path d="M49.6874 19.4547L50.0126 17.6155C50.0295 17.5202 50.1672 17.5174 50.1881 17.6116L50.5988 19.4497C50.6067 19.4854 50.6362 19.5127 50.673 19.5177L52.3247 19.7569C52.4216 19.7708 52.4289 19.9052 52.3343 19.9297L50.6198 20.3668C50.5863 20.3752 50.5608 20.4025 50.5541 20.4359L50.2487 22.0337C50.2306 22.1279 50.0947 22.1302 50.0732 22.0371L49.7067 20.451C49.6988 20.4175 49.6727 20.3919 49.6387 20.3847L48.0873 20.0451C47.9944 20.0251 47.9938 19.8941 48.0867 19.8729L49.6178 19.525C49.6546 19.5172 49.6812 19.4893 49.6874 19.4547Z" fill="url(#paint3_linear_58_330)"/>
<path d="M11.7548 12.1559L11.9185 11.2321C11.927 11.1842 11.9961 11.1825 12.0069 11.2304L12.2131 12.1537C12.217 12.1715 12.2317 12.1854 12.2504 12.1882L13.0802 12.3081C13.129 12.3154 13.1324 12.3828 13.0848 12.3945L12.2233 12.6142C12.2063 12.6186 12.1932 12.632 12.1904 12.6487L12.0369 13.451C12.0278 13.4984 11.9599 13.4995 11.9491 13.4526L11.765 12.656C11.7611 12.6393 11.748 12.6264 11.731 12.6225L10.9522 12.4519C10.9052 12.4419 10.9052 12.3761 10.9516 12.3655L11.7208 12.191C11.7378 12.1871 11.7514 12.1732 11.7548 12.1559Z" fill="url(#paint4_linear_58_330)"/>
<path d="M50.6619 31.9714L50.8251 31.0476C50.8335 30.9996 50.9026 30.9985 50.9134 31.0459L51.1196 31.9691C51.1236 31.987 51.1383 32.0009 51.157 32.0031L51.9868 32.123C52.0355 32.1303 52.0389 32.1977 51.9913 32.21L51.1303 32.4296C51.1133 32.4341 51.1009 32.4475 51.0975 32.4642L50.9446 33.2664C50.9355 33.3138 50.8675 33.3149 50.8562 33.2681L50.6721 32.4714C50.6681 32.4547 50.6551 32.4419 50.6381 32.438L49.8587 32.2674C49.8123 32.2574 49.8117 32.1916 49.8582 32.181L50.6274 32.0065C50.6455 32.0031 50.6591 31.9892 50.6619 31.9714Z" fill="url(#paint5_linear_58_330)"/>
<path d="M28.159 1.76283C28.6536 1.76283 29.0545 1.36821 29.0545 0.881424C29.0545 0.394635 28.6536 0 28.159 0C27.6644 0 27.2635 0.394635 27.2635 0.881424C27.2635 1.36821 27.6644 1.76283 28.159 1.76283Z" fill="url(#paint6_linear_58_330)"/>
<path d="M25.5208 0.320801C25.8414 0.320801 26.1008 0.576687 26.1008 0.891676C26.1008 1.20666 25.8409 1.46257 25.5208 1.46257C25.2002 1.46257 24.9408 1.20722 24.9408 0.891676C24.9408 0.576129 25.2002 0.320801 25.5208 0.320801Z" fill="url(#paint7_linear_58_330)"/>
<path d="M23.6945 0.621094C23.937 0.621094 24.1335 0.814544 24.1335 1.05315C24.1335 1.29177 23.937 1.48522 23.6945 1.48522C23.4521 1.48522 23.2556 1.29177 23.2556 1.05315C23.2556 0.814544 23.4521 0.621094 23.6945 0.621094Z" fill="url(#paint8_linear_58_330)"/>
<path d="M22.1747 1.09241C22.3395 1.09241 22.4732 1.22398 22.4732 1.38622C22.4732 1.54845 22.3395 1.68001 22.1747 1.68001C22.0098 1.68001 21.8762 1.54845 21.8762 1.38622C21.8762 1.22398 22.0098 1.09241 22.1747 1.09241Z" fill="url(#paint9_linear_58_330)"/>
<path d="M5.09529 28.3451C5.58987 28.3451 5.9908 27.9505 5.9908 27.4637C5.9908 26.9769 5.58987 26.5823 5.09529 26.5823C4.60071 26.5823 4.19977 26.9769 4.19977 27.4637C4.19977 27.9505 4.60071 28.3451 5.09529 28.3451Z" fill="url(#paint10_linear_58_330)"/>
<path d="M4.52594 30.0611C4.52594 29.7456 4.78593 29.4902 5.10596 29.4902C5.42655 29.4902 5.68598 29.7461 5.68598 30.0611C5.68598 30.3767 5.42599 30.632 5.10596 30.632C4.78536 30.6326 4.52594 30.3767 4.52594 30.0611Z" fill="url(#paint11_linear_58_330)"/>
<path d="M4.83105 31.8586C4.83105 31.62 5.02761 31.4265 5.27004 31.4265C5.51247 31.4265 5.70901 31.62 5.70901 31.8586C5.70901 32.0972 5.51247 32.2906 5.27004 32.2906C5.02761 32.2906 4.83105 32.0972 4.83105 31.8586Z" fill="url(#paint12_linear_58_330)"/>
<path d="M5.30975 33.3546C5.30975 33.1923 5.44343 33.0608 5.60825 33.0608C5.77308 33.0608 5.90676 33.1923 5.90676 33.3546C5.90676 33.5168 5.77308 33.6484 5.60825 33.6484C5.44343 33.6484 5.30975 33.5168 5.30975 33.3546Z" fill="url(#paint13_linear_58_330)"/>
<path d="M45.9283 6.60707C45.2905 6.88137 44.6352 7.16681 44.1497 7.65741C43.389 8.42676 43.231 9.49773 43.1477 10.5224C43.0973 11.139 42.7467 13.0239 42.5479 14.0614C42.4233 14.198 42.3049 14.3296 42.178 14.4667C40.4952 16.2903 38.7931 18.1117 37.1006 19.9342C36.7052 16.2218 33.386 12.7753 29.6164 12.3533C27.5054 12.1169 25.3966 12.6777 23.2804 12.8673C21.1643 13.0568 18.8 12.773 17.3608 11.2349C17.9867 11.9636 18.1849 12.9855 17.8915 13.8947C17.5981 14.8046 16.9388 15.5656 16.1707 16.1482C13.5986 18.0978 9.64325 18.0069 7.16684 15.9413C8.25154 16.1415 9.23316 14.6161 9.11421 13.5363C8.99526 12.4564 7.86355 11.6352 6.76299 11.7099C5.66243 11.7846 4.7029 12.6415 4.37437 13.6779C4.04585 14.7143 4.29224 15.8772 4.88246 16.7943C5.1685 17.2386 5.53044 17.6272 5.93714 17.969C7.78594 28.2108 9.17198 38.4873 9.95874 48.8624C9.96271 48.9159 9.9644 48.9706 9.97743 49.0257C9.54298 49.4918 9.10458 49.9579 8.67409 50.4251L8.46735 50.6213L9.68857 51.8846L9.69479 51.9175C9.69479 51.9175 9.69988 51.8952 9.70611 51.8651C10.3207 51.1861 11.0706 50.3493 11.9208 49.3965C21.3223 49.8325 30.6944 50.6353 40.0573 51.5641C40.3241 51.8272 40.6073 52.0731 40.9274 52.2726C41.8597 52.8536 43.0407 53.0961 44.0942 52.7727C45.1472 52.4494 46.0178 51.5055 46.0937 50.4217C46.1696 49.3385 45.3347 48.2241 44.2381 48.1075C43.1409 47.9905 41.5912 48.9572 41.7945 50.0248C39.696 47.5874 39.6031 43.6938 41.5844 41.1627C42.1763 40.4068 42.9495 39.7573 43.8739 39.469C44.7983 39.1803 45.836 39.3754 46.5763 39.9914C45.0135 38.5748 44.7252 36.2478 44.9178 34.165C45.1098 32.0821 45.6802 30.0066 45.4401 27.9293C45.0011 24.1271 41.3352 20.7766 37.4575 20.5279C39.351 18.396 41.1415 16.3862 42.7235 14.6228C43.3052 14.3485 44.5576 13.7699 45.2458 13.543C46.2829 13.2012 47.3931 12.8912 48.1668 12.0817C48.646 11.58 48.9388 10.9372 49.2221 10.3078C50.1748 8.19373 51.1269 6.08024 52.0797 3.96619C50.0298 4.84537 47.9793 5.72622 45.9283 6.60707ZM10.6849 48.2681C9.91002 38.3312 8.63048 28.4439 6.88703 18.6279C7.04393 18.7199 7.19913 18.8153 7.36113 18.8967C9.30792 19.8745 11.6229 20.1193 13.7357 19.5718C15.4361 19.1314 16.9597 18.2143 18.5253 17.4265C20.0909 16.6388 21.7913 15.9586 23.5472 16.0551C25.3026 16.1509 27.1089 17.2225 27.5326 18.9017C28.8529 18.1212 30.7051 18.6341 31.8125 19.6883C32.857 20.6823 33.4132 22.056 33.8629 23.4219C29.77 27.8156 25.6662 32.2081 21.5596 36.6001C21.0516 37.1432 20.4478 37.5925 19.7771 37.9225C18.1152 38.7398 16.4567 39.5454 14.7756 40.4268C14.0931 40.7847 13.3856 41.1638 12.9381 41.7849C12.4431 42.4717 12.3388 43.3727 12.4703 44.205C12.5649 44.8055 12.8073 45.2353 13.0622 45.7175C12.272 46.5672 11.4796 47.4179 10.6849 48.2681ZM37.9899 25.7679C39.061 26.8572 39.5821 28.6808 38.7891 29.9803C40.4952 30.3979 41.5839 32.1752 41.6813 33.9029C41.7793 35.6306 41.0877 37.3048 40.2873 38.8452C39.4869 40.3861 38.5552 41.8858 38.1077 43.5594C37.5515 45.6395 37.8001 47.918 38.7936 49.8336C38.9449 50.1257 39.121 50.4061 39.3102 50.6776C30.4259 49.8023 21.5325 49.0508 12.613 48.6199C13.1959 47.9654 13.8042 47.2808 14.4641 46.537C15.8008 46.7718 17.1818 46.8141 18.2529 46.0582C19.1728 45.4087 19.6338 44.3154 20.0507 43.2796C20.5871 41.946 21.1235 40.613 21.6599 39.2795C22.0915 38.2074 22.7033 37.2162 23.4713 36.3454C27.0874 32.2477 30.917 27.9081 34.5081 23.8528C35.791 24.2799 37.0553 24.8168 37.9899 25.7679Z" fill="url(#paint14_linear_58_330)"/>
<path d="M43.0411 12.9632C43.1425 11.2461 43.2625 9.31544 44.4265 7.92894C45.6206 6.50619 47.4971 6.05294 49.1845 5.45585C50.1927 5.0985 51.2021 4.70991 52.1339 4.18419C52.3712 4.05039 52.1571 3.68914 51.9192 3.82294C51.0622 4.30629 50.1401 4.66922 49.214 5.00149C48.3156 5.32373 47.3929 5.58576 46.5172 5.96654C45.6715 6.33393 44.857 6.82174 44.2368 7.50579C43.6233 8.1826 43.2365 9.01775 43.0093 9.89079C42.7482 10.8932 42.6769 11.9335 42.6162 12.9632C42.5998 13.2319 43.0252 13.2308 43.0411 12.9632Z" fill="black"/>
<path d="M17.3555 11.3575C18.311 12.4218 19.8353 12.7368 21.2032 12.9068C22.0013 13.006 22.7977 13.0546 23.6025 13.0228C24.4992 12.9871 25.3919 12.8862 26.2851 12.8031C28.0342 12.6409 29.8723 12.535 31.5557 13.127C33.0216 13.6427 34.0814 14.7984 34.9435 16.0288C35.4363 16.7318 35.8475 17.485 36.1805 18.2739C36.3176 18.5989 36.4451 18.9217 36.5249 19.2651C36.5946 19.5639 36.6529 19.8689 36.7742 20.1527C36.8874 20.4175 37.0579 20.5864 37.3462 20.6589C37.6498 20.7353 37.9659 20.7135 38.2729 20.7643C39.0449 20.8908 39.8107 21.1495 40.5154 21.4818C41.9648 22.1647 43.2166 23.2178 44.0997 24.5413C44.9844 25.8676 45.5078 27.4281 45.5764 29.0147C45.6562 30.8684 45.0813 32.6625 44.861 34.4877C44.665 36.1078 44.7754 37.8762 45.7842 39.2404C46.0006 39.5331 46.2487 39.7968 46.5348 40.0243C46.7455 40.1915 47.0479 39.8977 46.835 39.7288C45.5339 38.6969 45.147 37.0037 45.2076 35.4305C45.2796 33.5561 45.8947 31.7498 45.995 29.8777C46.1677 26.6654 44.5613 23.5066 41.8317 21.7343C41.1753 21.3078 40.4627 20.9655 39.7201 20.7107C39.3395 20.5803 38.9498 20.4738 38.555 20.3935C38.2395 20.3294 37.9217 20.3311 37.6051 20.2842C37.4986 20.2686 37.353 20.2502 37.2709 20.1733C37.1888 20.0964 37.1497 19.9653 37.1151 19.8617C37.016 19.5639 36.9645 19.2534 36.8846 18.9501C36.7877 18.5833 36.6223 18.2287 36.4688 17.882C36.2995 17.4984 36.1126 17.1221 35.9058 16.7569C35.5082 16.0545 35.0318 15.3871 34.5073 14.7705C34.031 14.2114 33.4895 13.7024 32.8664 13.3032C31.4186 12.3755 29.6185 12.2138 27.9328 12.2729C26.1582 12.3348 24.395 12.6693 22.6158 12.6119C21.8863 12.5885 21.1471 12.5037 20.43 12.3699C19.7259 12.2384 19.0185 12.0427 18.4016 11.6742C18.1218 11.5069 17.8726 11.304 17.6557 11.0626C17.4744 10.8602 17.1748 11.1568 17.3555 11.3575Z" fill="black"/>
<path d="M6.88421 17.406C5.80574 16.945 5.09374 15.8255 5.36676 14.662C5.49704 14.1051 5.84708 13.5548 6.39028 13.3106C6.84059 13.1082 7.58374 13.2281 7.64661 13.8113C7.67153 14.0415 7.56165 14.3264 7.30845 14.3788C7.08075 14.4256 6.83776 14.2935 6.79471 14.0649C6.74486 13.8007 6.33534 13.9127 6.38519 14.1759C6.51433 14.8633 7.48688 15.001 7.88394 14.4702C8.33878 13.8631 7.93605 13.0709 7.26258 12.8551C6.48601 12.6065 5.72078 13.1071 5.30842 13.7299C4.87737 14.3799 4.76805 15.2379 5.00651 15.976C5.2648 16.7755 5.89127 17.4345 6.66953 17.7673C6.91819 17.8727 7.13457 17.5125 6.88421 17.406Z" fill="black"/>
<path d="M38.963 46.3548C39.0525 47.3421 39.3267 48.3016 39.781 49.1869C40.2109 50.0242 40.8039 50.8566 41.606 51.3845C42.3599 51.8813 43.4253 52.0669 44.2291 51.5657C44.9156 51.137 45.3081 50.1703 44.8658 49.4417C44.6301 49.0536 44.1351 48.7593 43.6746 48.9366C43.2543 49.0982 43.022 49.5704 43.218 49.9802C43.3347 50.2233 43.7006 50.0114 43.5851 49.7689C43.4587 49.5052 43.8077 49.2683 44.0422 49.3101C44.3673 49.3681 44.5808 49.6992 44.6205 50.0014C44.7066 50.6637 44.1787 51.2441 43.5539 51.3946C41.9555 51.7804 40.7309 50.1346 40.1208 48.9232C39.7175 48.122 39.4683 47.2451 39.3879 46.3553C39.3635 46.0888 38.9387 46.0866 38.963 46.3548Z" fill="black"/>
<path d="M9.71233 50.7691C10.2006 50.254 10.6832 49.7333 11.1646 49.2126C11.8534 48.4678 12.5399 47.7202 13.2253 46.972C14.0608 46.0599 14.8951 45.1462 15.7289 44.2324C16.6663 43.2044 17.6032 42.1758 18.5395 41.1467C19.5307 40.0573 20.522 38.9679 21.5126 37.878C22.5141 36.7764 23.5161 35.6748 24.5181 34.5737C25.4719 33.5251 26.4263 32.4764 27.3819 31.4283C28.2451 30.4811 29.1089 29.5344 29.9739 28.5889C30.7006 27.7945 31.4284 27.0006 32.1585 26.2084C32.6938 25.628 33.2296 25.0482 33.77 24.4729C33.8669 24.3697 33.9643 24.2666 34.0617 24.164C34.2481 23.9672 33.9485 23.6712 33.7615 23.8686C33.2733 24.3837 32.7907 24.9044 32.3092 25.4251C31.6205 26.1699 30.9339 26.9175 30.2486 27.6657C29.4131 28.5778 28.5788 29.4915 27.745 30.4053C26.8075 31.4333 25.8707 32.4619 24.9344 33.4905C23.9431 34.5799 22.9519 35.6692 21.9612 36.7591C20.9598 37.8608 19.9578 38.9618 18.9558 40.0634C18.0014 41.1121 17.0469 42.1608 16.092 43.2089C15.2287 44.1561 14.3649 45.1027 13.5 46.0482C12.7733 46.8427 12.0454 47.6365 11.3153 48.4288C10.78 49.0091 10.2442 49.5889 9.70382 50.1643C9.60696 50.2674 9.50955 50.3705 9.41212 50.4731C9.2252 50.6705 9.52541 50.9665 9.71233 50.7691Z" fill="black"/>
<path d="M27.5893 19.103C28.725 18.8237 29.9621 18.7735 30.9964 19.3906C31.4869 19.6833 31.8902 20.1054 32.2402 20.548C32.6248 21.0336 32.9505 21.571 33.2077 22.1319C33.479 22.7228 33.6772 23.3651 33.6976 24.0162C33.701 24.1188 33.7928 24.2392 33.91 24.2253C35.0763 24.0848 36.1389 24.4834 37.031 25.2126C37.4842 25.5828 37.9198 25.9982 38.2217 26.4999C38.5094 26.9783 38.6833 27.5213 38.7292 28.0754C38.783 28.7204 38.6765 29.3593 38.4465 29.9642C38.3502 30.2168 38.7609 30.3255 38.856 30.0752C39.2967 28.9184 39.2797 27.6071 38.7054 26.4971C38.4097 25.9268 37.9628 25.4574 37.4774 25.0387C37.0203 24.6445 36.5173 24.3045 35.9543 24.0742C35.3068 23.8094 34.605 23.723 33.91 23.8066C33.9808 23.8763 34.0517 23.946 34.1225 24.0157C34.0822 22.729 33.4597 21.4623 32.6911 20.4454C32.3195 19.9532 31.8975 19.4871 31.3815 19.1375C30.8865 18.8025 30.3127 18.5995 29.7191 18.5215C28.968 18.4228 28.2073 18.5187 27.476 18.6988C27.2115 18.7651 27.3237 19.1682 27.5893 19.103Z" fill="black"/>
<path d="M15.6719 17.786C17.3797 17.1593 18.2831 15.5504 19.0314 14.0201C18.9345 14.0451 18.8376 14.0702 18.7408 14.0948C19.2772 14.4042 19.8 14.7325 20.3993 14.9132C21.2246 15.1618 22.0917 15.0977 22.9114 14.8591C23.173 14.7827 23.0615 14.3791 22.7986 14.456C22.0334 14.679 21.2398 14.7381 20.4718 14.4973C19.9246 14.3261 19.4471 14.0173 18.9555 13.7335C18.8626 13.68 18.7147 13.7067 18.6649 13.8088C17.9738 15.2215 17.1457 16.8003 15.5592 17.3824C15.3049 17.476 15.4147 17.8802 15.6719 17.786Z" fill="black"/>
<path d="M43.0083 32.7429C42.7098 33.5836 42.6956 34.5386 42.7676 35.4167C42.839 36.2886 42.997 37.2369 43.4717 37.9935C43.5141 37.8909 43.5561 37.7889 43.5985 37.6863C43.0298 37.8508 42.4419 37.9929 41.9463 38.3285C41.2734 38.7846 40.8882 39.4915 40.6605 40.248C40.5829 40.5067 40.9924 40.6171 41.07 40.359C41.2722 39.6877 41.6092 39.0388 42.2221 38.6485C42.6753 38.3603 43.1998 38.2365 43.7112 38.0888C43.8398 38.0514 43.9118 37.8987 43.8381 37.7816C43.3952 37.0753 43.2502 36.1816 43.1879 35.3671C43.1244 34.5375 43.1352 33.6472 43.4173 32.8533C43.5079 32.5996 43.0978 32.4898 43.0083 32.7429Z" fill="black"/>
<path d="M34.2517 20.5002C34.5252 20.5002 34.5252 20.082 34.2517 20.082C33.9787 20.082 33.9781 20.5002 34.2517 20.5002Z" fill="black"/>
<path d="M35.5778 21.8048C35.8514 21.8048 35.8514 21.3867 35.5778 21.3867C35.3048 21.3867 35.3042 21.8048 35.5778 21.8048Z" fill="black"/>
<path d="M37.1124 23.1095C37.386 23.1095 37.386 22.6914 37.1124 22.6914C36.8388 22.6914 36.8388 23.1095 37.1124 23.1095Z" fill="black"/>
<path d="M13.3515 44.4126C13.3515 44.4126 12.8293 41.4873 16.6628 40.1794" stroke="black" stroke-width="0.418127" stroke-miterlimit="10" stroke-linecap="round" stroke-linejoin="round"/>
<path d="M14.9037 46.0226C14.9037 46.0226 18.5328 46.7245 19.6237 42.7808" stroke="black" stroke-width="0.418127" stroke-miterlimit="10" stroke-linecap="round" stroke-linejoin="round"/>
<path d="M14.4845 43.6687L15.9946 44.9905" stroke="black" stroke-width="0.418127" stroke-miterlimit="10" stroke-linecap="round" stroke-linejoin="round"/>
<path d="M47.5402 7.51929L49.0509 8.84113" stroke="black" stroke-width="0.418127" stroke-miterlimit="10" stroke-linecap="round" stroke-linejoin="round"/>
<path d="M45.5866 9.50562L47.0967 10.8269" stroke="black" stroke-width="0.418127" stroke-miterlimit="10" stroke-linecap="round" stroke-linejoin="round"/>
<path d="M46.7832 8.6438L47.9279 9.64451" stroke="black" stroke-width="0.418127" stroke-miterlimit="10" stroke-linecap="round" stroke-linejoin="round"/>
<path d="M16.509 41.5222L18.0191 42.8435" stroke="black" stroke-width="0.418127" stroke-miterlimit="10" stroke-linecap="round" stroke-linejoin="round"/>
<path d="M15.6895 43.0159L16.6626 43.8677" stroke="black" stroke-width="0.418127" stroke-miterlimit="10" stroke-linecap="round" stroke-linejoin="round"/>
<path d="M28.3192 16.0457C28.3192 16.0457 31.0567 17.13 32.0955 18.3688" stroke="black" stroke-width="0.386461" stroke-miterlimit="10" stroke-linecap="round" stroke-linejoin="round"/>
<path d="M29.5541 15.4646C29.5541 15.4646 31.2817 16.1487 31.9364 16.9303" stroke="black" stroke-width="0.386461" stroke-miterlimit="10" stroke-linecap="round" stroke-linejoin="round"/>
<path d="M29.5193 14.1514C29.5193 14.1514 32.2569 15.2351 33.2957 16.4745" stroke="black" stroke-width="0.386461" stroke-miterlimit="10" stroke-linecap="round" stroke-linejoin="round"/>
<path d="M38.8538 24.5034C38.8538 24.5034 41.0492 26.4441 41.5941 27.9583" stroke="black" stroke-width="0.386461" stroke-miterlimit="10" stroke-linecap="round" stroke-linejoin="round"/>
<path d="M40.2145 24.3745C40.2145 24.3745 41.5994 25.5993 41.9438 26.5543" stroke="black" stroke-width="0.386461" stroke-miterlimit="10" stroke-linecap="round" stroke-linejoin="round"/>
<path d="M40.6397 23.1277C40.6397 23.1277 42.8352 25.0683 43.3801 26.5825" stroke="black" stroke-width="0.386461" stroke-miterlimit="10" stroke-linecap="round" stroke-linejoin="round"/>
<path d="M37.1089 20.3089L50.2114 6.07861" stroke="black" stroke-width="0.386461" stroke-miterlimit="10" stroke-linecap="round" stroke-linejoin="round"/>
<defs>
<linearGradient id="paint0_linear_58_330" x1="10.5535" y1="28.4408" x2="45.8637" y2="28.4408" gradientUnits="userSpaceOnUse">
<stop stop-color="#C1AB75"/>
<stop offset="1" stop-color="#E6E1B3"/>
</linearGradient>
<linearGradient id="paint1_linear_58_330" x1="5.05277" y1="28.4411" x2="51.2568" y2="28.4411" gradientUnits="userSpaceOnUse">
<stop stop-color="#C1AB75"/>
<stop offset="1" stop-color="#E6E1B3"/>
</linearGradient>
<linearGradient id="paint2_linear_58_330" x1="-0.0024759" y1="28.4408" x2="56.3119" y2="28.4408" gradientUnits="userSpaceOnUse">
<stop stop-color="#C1AB75"/>
<stop offset="1" stop-color="#E6E1B3"/>
</linearGradient>
<linearGradient id="paint3_linear_58_330" x1="50.2393" y1="18.3956" x2="50.1173" y2="25.0237" gradientUnits="userSpaceOnUse">
<stop stop-color="#C19566"/>
<stop offset="1" stop-color="#E6E1B3"/>
</linearGradient>
<linearGradient id="paint4_linear_58_330" x1="12.0317" y1="11.6239" x2="11.9704" y2="14.9528" gradientUnits="userSpaceOnUse">
<stop stop-color="#C19566"/>
<stop offset="1" stop-color="#E6E1B3"/>
</linearGradient>
<linearGradient id="paint5_linear_58_330" x1="50.9391" y1="31.4396" x2="50.8779" y2="34.7686" gradientUnits="userSpaceOnUse">
<stop stop-color="#C19566"/>
<stop offset="1" stop-color="#E6E1B3"/>
</linearGradient>
<linearGradient id="paint6_linear_58_330" x1="29.0734" y1="0.806596" x2="21.7629" y2="1.42507" gradientUnits="userSpaceOnUse">
<stop stop-color="#C19566"/>
<stop offset="1" stop-color="#E6E1B3"/>
</linearGradient>
<linearGradient id="paint7_linear_58_330" x1="29.0562" y1="0.601779" x2="21.7457" y2="1.22024" gradientUnits="userSpaceOnUse">
<stop stop-color="#C19566"/>
<stop offset="1" stop-color="#E6E1B3"/>
</linearGradient>
<linearGradient id="paint8_linear_58_330" x1="29.0571" y1="0.613941" x2="21.7466" y2="1.23237" gradientUnits="userSpaceOnUse">
<stop stop-color="#C19566"/>
<stop offset="1" stop-color="#E6E1B3"/>
</linearGradient>
<linearGradient id="paint9_linear_58_330" x1="29.0742" y1="0.821037" x2="21.764" y2="1.43952" gradientUnits="userSpaceOnUse">
<stop stop-color="#C19566"/>
<stop offset="1" stop-color="#E6E1B3"/>
</linearGradient>
<linearGradient id="paint10_linear_58_330" x1="5.0194" y1="26.5642" x2="5.60939" y2="33.7628" gradientUnits="userSpaceOnUse">
<stop stop-color="#C19566"/>
<stop offset="1" stop-color="#E6E1B3"/>
</linearGradient>
<linearGradient id="paint11_linear_58_330" x1="4.81155" y1="26.5813" x2="5.40151" y2="33.7798" gradientUnits="userSpaceOnUse">
<stop stop-color="#C19566"/>
<stop offset="1" stop-color="#E6E1B3"/>
</linearGradient>
<linearGradient id="paint12_linear_58_330" x1="4.82387" y1="26.5804" x2="5.41384" y2="33.7789" gradientUnits="userSpaceOnUse">
<stop stop-color="#C19566"/>
<stop offset="1" stop-color="#E6E1B3"/>
</linearGradient>
<linearGradient id="paint13_linear_58_330" x1="5.03361" y1="26.5637" x2="5.62353" y2="33.7619" gradientUnits="userSpaceOnUse">
<stop stop-color="#C19566"/>
<stop offset="1" stop-color="#E6E1B3"/>
</linearGradient>
<linearGradient id="paint14_linear_58_330" x1="4.22892" y1="28.4409" x2="52.0806" y2="28.4409" gradientUnits="userSpaceOnUse">
<stop stop-color="#C1AB75"/>
<stop offset="1" stop-color="#E6E1B3"/>
</linearGradient>
</defs>
</svg>
