<svg width="56" height="57" viewBox="0 0 56 57" fill="none" xmlns="http://www.w3.org/2000/svg">
<path d="M27.9542 45.71C37.4255 45.71 45.1036 37.8496 45.1036 28.1532C45.1036 18.4568 37.4255 10.5963 27.9542 10.5963C18.4828 10.5963 10.8047 18.4568 10.8047 28.1532C10.8047 37.8496 18.4828 45.71 27.9542 45.71Z" stroke="url(#paint0_linear_58_601)" stroke-width="0.192209" stroke-linecap="round" stroke-linejoin="round" stroke-dasharray="0.19 2.5"/>
<path d="M27.9009 51.1264C40.2941 51.1264 50.3408 40.841 50.3408 28.1534C50.3408 15.4658 40.2941 5.18042 27.9009 5.18042C15.5076 5.18042 5.46094 15.4658 5.46094 28.1534C5.46094 40.841 15.5076 51.1264 27.9009 51.1264Z" stroke="url(#paint1_linear_58_601)" stroke-width="0.251521" stroke-linecap="round" stroke-linejoin="round"/>
<path d="M27.9006 56.1533C43.0057 56.1533 55.2509 43.6173 55.2509 28.1533C55.2509 12.6893 43.0057 0.15332 27.9006 0.15332C12.7954 0.15332 0.550293 12.6893 0.550293 28.1533C0.550293 43.6173 12.7954 56.1533 27.9006 56.1533Z" stroke="url(#paint2_linear_58_601)" stroke-width="0.306572" stroke-linecap="round" stroke-linejoin="round"/>
<path d="M42.2125 45.0172L42.5301 43.1486C42.5467 43.0517 42.6812 43.0489 42.7016 43.1446L43.1028 45.0121C43.1105 45.0483 43.1393 45.0761 43.1758 45.0812L44.7892 45.3242C44.8838 45.3384 44.891 45.4749 44.7986 45.4992L43.1238 45.9433C43.0912 45.9518 43.0657 45.9795 43.0596 46.0135L42.7614 47.6369C42.7437 47.7326 42.6109 47.7349 42.5899 47.6403L42.2319 46.0288C42.2247 45.9948 42.1987 45.9688 42.1655 45.9614L40.6501 45.6165C40.5588 45.5955 40.5588 45.463 40.6495 45.442L42.145 45.0886C42.1805 45.0812 42.2065 45.0529 42.2125 45.0172Z" fill="url(#paint3_linear_58_601)"/>
<path d="M45.4011 42.0325L45.5604 41.0939C45.5687 41.0452 45.6362 41.0435 45.6468 41.0922L45.8481 42.0302C45.852 42.0483 45.8664 42.0625 45.8847 42.0653L46.6952 42.1871C46.7428 42.1945 46.7461 42.263 46.6996 42.2755L45.8587 42.4986C45.8421 42.5032 45.8293 42.5168 45.8266 42.5338L45.6772 43.3488C45.6683 43.397 45.6014 43.3981 45.5909 43.3505L45.4111 42.5411C45.4072 42.5241 45.3944 42.5111 45.3778 42.5071L44.6165 42.3338C44.5706 42.3236 44.5706 42.2568 44.616 42.246L45.3673 42.0687C45.3845 42.0642 45.3978 42.05 45.4011 42.0325Z" fill="url(#paint4_linear_58_601)"/>
<path d="M17.2301 7.52625L17.39 6.58769C17.3983 6.53898 17.4658 6.53728 17.4763 6.58599L17.6777 7.52399C17.6816 7.54211 17.696 7.55627 17.7143 7.5591L18.5248 7.68088C18.5724 7.68825 18.5757 7.75678 18.5292 7.76868L17.6883 7.99185C17.6717 7.99638 17.6595 8.00998 17.6562 8.02697L17.5062 8.84205C17.4974 8.8902 17.431 8.89133 17.4199 8.84375L17.2401 8.03433C17.2362 8.01734 17.2235 8.00431 17.2069 8.00035L16.4461 7.82702C16.4002 7.81683 16.4002 7.74999 16.4456 7.73923L17.1969 7.56194C17.2141 7.55854 17.2274 7.54438 17.2301 7.52625Z" fill="url(#paint5_linear_58_601)"/>
<path d="M37.7698 6.60629C38.2124 6.80454 38.4149 7.33245 38.2213 7.78615C38.0276 8.23929 37.512 8.4466 37.0694 8.24835C36.6267 8.0501 36.4242 7.5222 36.6179 7.06849C36.8115 6.61479 37.3272 6.40804 37.7698 6.60629Z" fill="url(#paint6_linear_58_601)"/>
<path d="M35.2818 5.84801C35.5684 5.97602 35.6996 6.31814 35.574 6.61212C35.4484 6.90552 35.1148 7.03976 34.8276 6.91119C34.541 6.78261 34.4099 6.44106 34.5355 6.14708C34.6605 5.85367 34.9947 5.71943 35.2818 5.84801Z" fill="url(#paint7_linear_58_601)"/>
<path d="M33.527 5.39658C33.7439 5.494 33.8429 5.75286 33.7483 5.97489C33.6537 6.19693 33.4009 6.29832 33.1834 6.20146C32.9666 6.10461 32.8675 5.84575 32.9621 5.62315C33.0567 5.40111 33.3096 5.29972 33.527 5.39658Z" fill="url(#paint8_linear_58_601)"/>
<path d="M31.9801 5.22675C32.1278 5.29303 32.1953 5.46862 32.1306 5.61985C32.0659 5.77109 31.8943 5.84019 31.7466 5.77392C31.5989 5.70765 31.532 5.53206 31.5961 5.38082C31.6603 5.23015 31.8324 5.16105 31.9801 5.22675Z" fill="url(#paint9_linear_58_601)"/>
<path d="M7.55031 39.5396C7.30466 39.1136 7.44298 38.5642 7.85904 38.3127C8.27511 38.0612 8.8118 38.2028 9.05746 38.6288C9.30311 39.0547 9.16479 39.6042 8.74872 39.8557C8.3321 40.1072 7.79597 39.9655 7.55031 39.5396Z" fill="url(#paint10_linear_58_601)"/>
<path d="M9.13358 41.6466C8.97424 41.3707 9.06387 41.015 9.33387 40.8519C9.60332 40.6893 9.95079 40.7805 10.1101 41.0564C10.2689 41.3322 10.1798 41.6879 9.90984 41.8511C9.63984 42.0142 9.29238 41.923 9.13358 41.6466Z" fill="url(#paint11_linear_58_601)"/>
<path d="M10.298 43.0639C10.1773 42.8549 10.2454 42.5858 10.4496 42.4623C10.6537 42.3389 10.9165 42.4085 11.0371 42.6175C11.1577 42.8265 11.0897 43.0956 10.8855 43.2191C10.6814 43.342 10.418 43.2729 10.298 43.0639Z" fill="url(#paint12_linear_58_601)"/>
<path d="M11.4546 44.1292C11.3728 43.987 11.4187 43.8041 11.5576 43.7203C11.6964 43.6364 11.8751 43.6834 11.957 43.8256C12.0389 43.9678 11.993 44.1507 11.8541 44.2346C11.7152 44.3184 11.5365 44.2714 11.4546 44.1292Z" fill="url(#paint13_linear_58_601)"/>
<path d="M48.5166 27.8106C49.8345 27.7076 55.8874 27.0856 55.7696 21.0119C55.7424 19.6224 55.2932 18.2806 54.6071 17.0815C51.485 11.6257 46.2675 7.66807 40.4808 5.5083C43.0463 8.35798 45.4083 11.3997 47.5417 14.6005C48.2704 15.6937 48.9897 16.8453 48.9598 18.246C48.9509 18.6737 48.8486 19.103 48.6417 19.4752C47.768 21.0447 45.9151 20.8737 44.367 20.6108C41.651 20.1498 38.9343 19.6887 36.2183 19.2282C36.1834 19.1948 36.1536 19.1568 36.1182 19.1245C34.1186 17.291 30.1676 16.3196 27.9031 17.7952C25.1095 16.715 21.8895 17.4315 19.4672 19.2429C16.7794 19.6989 14.0921 20.1549 11.4042 20.6114C9.85617 20.8742 8.00379 21.0453 7.12961 19.4752C6.92268 19.1036 6.82032 18.6742 6.81147 18.246C6.78159 16.8458 7.50086 15.6943 8.22953 14.6011C10.363 11.3997 12.7249 8.35854 15.2905 5.50887C9.50374 7.66807 4.2863 11.6257 1.16414 17.0815C0.478071 18.2806 0.0288083 19.6224 0.00169762 21.0119C-0.116151 27.0856 5.93674 27.707 7.25465 27.8106C9.19888 27.963 10.9898 28.0146 12.7366 27.98C10.2656 28.3578 7.88483 29.3621 5.89856 30.9152C8.70867 33.0285 12.3653 33.9365 15.82 33.4562C16.8021 36.6146 18.6766 39.4631 20.9262 41.8676C19.8954 42.6153 19.4168 44.2347 19.7018 45.495C19.9867 46.7547 21.0629 47.7873 22.3099 47.9951C22.2928 48.2472 22.3066 48.5078 22.347 48.7706C22.4793 49.631 23.1598 50.2897 24.0024 50.4098C26.5586 50.7752 29.2221 50.9043 31.8153 50.7043C32.8854 50.6216 33.7357 49.6621 33.6019 48.5723L33.5991 48.5514C34.7615 48.1147 35.9206 46.813 36.2736 45.598C36.6266 44.3831 36.3871 43.0033 35.6468 41.9871C37.4848 39.5951 38.6688 36.6027 39.2387 33.4947C42.6015 33.8799 46.1248 32.9657 48.8513 30.9158C46.7135 29.2443 44.1158 28.2258 41.4435 27.9222C43.7009 28.0355 45.9782 28.01 48.5166 27.8106Z" fill="url(#paint14_linear_58_601)"/>
<path d="M39.577 27.8304C39.5764 27.8193 39.5748 27.8088 39.5742 27.7977C39.7264 27.8099 39.8774 27.8176 40.029 27.8287C39.878 27.8271 39.7275 27.8282 39.577 27.8304Z" fill="url(#paint15_linear_58_601)"/>
<path d="M13.4316 29.2215C11.6871 29.32 9.9896 29.9527 8.60308 31.0431C8.47362 31.1445 8.46033 31.3863 8.65288 31.4311C9.77216 31.6928 10.8914 31.9545 12.0107 32.2161C12.9878 32.4444 14.0258 32.739 14.9918 32.3124C15.2364 32.2043 15.025 31.8383 14.7821 31.9454C13.8836 32.3419 12.818 31.9692 11.9194 31.759C10.8677 31.5132 9.81532 31.2674 8.76298 31.0216C8.77958 31.1513 8.79618 31.2804 8.81277 31.4096C10.1423 30.3645 11.7573 29.7409 13.4321 29.6463C13.6971 29.631 13.6988 29.2062 13.4316 29.2215Z" fill="black"/>
<path d="M40.8122 29.7931C42.4521 29.8593 44.0395 30.4461 45.3524 31.4521C45.369 31.3224 45.3856 31.1933 45.4022 31.0641C43.635 31.5365 41.8258 31.8209 40.0011 31.9115C39.7355 31.9245 39.7338 32.3493 40.0011 32.3363C41.8612 32.244 43.7103 31.9557 45.5123 31.4736C45.7004 31.4232 45.6965 31.1887 45.5621 31.0856C44.1922 30.0355 42.5213 29.4379 40.8127 29.3682C40.545 29.3575 40.5455 29.7823 40.8122 29.7931Z" fill="black"/>
<path d="M19.5237 19.3268C19.2813 22.4903 17.3764 25.3275 14.5912 26.709C13.816 27.0936 12.9866 27.3547 12.1368 27.4946C11.874 27.5377 11.9858 27.9472 12.2469 27.9042C13.8177 27.6453 15.3049 26.9588 16.547 25.9432C17.7935 24.9242 18.7457 23.5682 19.33 22.0513C19.6658 21.1796 19.8667 20.2597 19.9381 19.3263C19.9591 19.0544 19.5441 19.0561 19.5237 19.3268Z" fill="black"/>
<path d="M35.3271 19.4584C35.1129 22.4582 36.448 25.3974 38.8094 27.1782C39.4352 27.65 40.1212 28.0261 40.8466 28.3099C41.0961 28.4079 41.204 27.9973 40.9567 27.9004C38.4188 26.9069 36.5067 24.6304 35.9141 21.9184C35.7376 21.1112 35.6828 20.2831 35.742 19.4584C35.7619 19.186 35.3464 19.1871 35.3271 19.4584Z" fill="black"/>
<path d="M11.6683 9.85549C10.1429 11.6125 8.76745 13.5066 7.56959 15.5129C7.03015 16.4169 6.47631 17.4722 6.54658 18.5671C6.61242 19.5934 7.27359 20.3655 8.18428 20.7382C9.38712 21.2304 10.7028 20.89 11.9007 20.5632C12.1585 20.4929 12.0489 20.0828 11.7906 20.1536C10.7747 20.4306 9.68036 20.7382 8.6341 20.4448C7.77265 20.2035 7.03568 19.5521 6.96375 18.5948C6.88795 17.586 7.39918 16.6163 7.89492 15.7825C8.44875 14.8508 9.04132 13.9428 9.66929 13.062C10.3869 12.056 11.1532 11.0869 11.9615 10.1557C12.1386 9.95178 11.8459 9.65044 11.6683 9.85549Z" fill="black"/>
<path d="M3.3547 13.2446C1.94826 15.2452 0.577787 17.3965 0.154528 19.8672C-0.231108 22.1171 0.211518 24.5578 1.91728 26.1455C2.74941 26.9203 3.80784 27.4233 4.93985 27.4647C5.20708 27.4743 5.20653 27.0495 4.93985 27.0398C3.00558 26.9702 1.37617 25.4187 0.770881 23.6017C0.0195267 21.345 0.597151 18.8885 1.62459 16.8284C2.2166 15.6417 2.95357 14.5389 3.71267 13.4593C3.86925 13.2367 3.50962 13.0243 3.3547 13.2446Z" fill="black"/>
<path d="M53.948 15.8014C55.1575 17.738 55.9199 20.0932 55.4562 22.3991C55.2465 23.4424 54.805 24.449 54.1123 25.251C53.5081 25.95 52.7297 26.5266 51.9042 26.9191C50.874 27.4091 49.7364 27.5592 48.6094 27.5105C48.3422 27.4986 48.3427 27.924 48.6094 27.9353C49.6783 27.9817 50.7622 27.8532 51.7598 27.4425C52.6461 27.0772 53.4617 26.5175 54.1439 25.8333C55.7766 24.1952 56.2712 21.7063 55.8651 19.4616C55.6145 18.0784 55.044 16.7677 54.3065 15.5873C54.1627 15.3573 53.8036 15.5703 53.948 15.8014Z" fill="black"/>
<path d="M22.3502 48.334C25.2245 49.1156 28.2366 49.1088 31.1867 48.9638C32.0099 48.9231 32.8393 48.8489 33.6299 48.594C33.8839 48.5118 33.7755 48.1017 33.5198 48.1844C32.836 48.4048 32.1267 48.4858 31.4135 48.5271C30.6937 48.5685 29.9717 48.5917 29.2507 48.6047C27.7934 48.6308 26.3311 48.5928 24.8831 48.4059C24.0665 48.3006 23.2565 48.1408 22.4609 47.9244C22.2025 47.8542 22.0918 48.2637 22.3502 48.334Z" fill="black"/>
<path d="M21.0414 41.995C21.4586 41.7509 21.9233 41.633 22.3908 41.5362C22.8689 41.4371 23.3491 41.3498 23.8305 41.2722C24.8159 41.1136 25.8084 41.0015 26.8038 40.9403C28.7834 40.8191 30.7885 40.8939 32.7433 41.2518C33.7259 41.4314 34.703 41.7067 35.5373 42.2867C35.7586 42.4408 35.9667 42.0726 35.747 41.9196C34.9785 41.3855 34.0822 41.0921 33.1787 40.9052C32.1916 40.7007 31.1836 40.5823 30.1794 40.5166C28.1333 40.3829 26.0784 40.5053 24.0518 40.8106C23.4791 40.8967 22.9087 40.9975 22.3416 41.1136C21.8182 41.2207 21.2992 41.3544 20.8322 41.6274C20.5999 41.7639 20.809 42.1309 21.0414 41.995Z" fill="black"/>
<path d="M35.5439 42.2756C36.0098 42.6251 35.4935 43.4073 35.2213 43.7024C34.7898 44.1708 34.1513 44.283 33.5515 44.3504C33.2212 44.3872 32.8887 44.4025 32.5562 44.4019C32.2441 44.4008 31.9299 44.3742 31.6189 44.411C31.0502 44.4778 30.6175 44.7911 30.322 45.2878C29.9779 45.8661 29.8141 46.5606 29.7516 47.2284C29.7262 47.5003 30.1411 47.4986 30.1666 47.2284C30.2241 46.6121 30.3873 45.9556 30.7226 45.4328C30.8809 45.1864 31.0983 44.9791 31.3777 44.8902C31.6831 44.7928 32.0106 44.8166 32.326 44.8234C32.9994 44.8386 33.6849 44.7996 34.3433 44.6449C34.953 44.5022 35.4421 44.1788 35.7901 43.6441C36.1343 43.115 36.3384 42.3475 35.753 41.9085C35.5378 41.7471 35.3303 42.1158 35.5439 42.2756Z" fill="black"/>
<path d="M20.7727 41.6768C19.6042 42.3576 20.4789 43.9866 21.3901 44.4352C22.022 44.7462 22.7894 44.804 23.4804 44.8233C24.1117 44.8408 24.8974 44.6635 25.3964 45.1625C25.906 45.6718 26.1041 46.5287 26.1694 47.2283C26.1943 47.4979 26.6098 47.5007 26.5843 47.2283C26.477 46.0756 26.0288 44.5633 24.717 44.4109C24.3839 44.3724 24.0476 44.403 23.7134 44.4018C23.3703 44.4007 23.0262 44.382 22.6854 44.3384C22.038 44.2563 21.3995 44.1033 20.9846 43.5471C20.6554 43.1059 20.3854 42.3905 20.9818 42.0427C21.2142 41.9084 21.0051 41.5408 20.7727 41.6768Z" fill="black"/>
<path d="M35.797 42.0054C34.3054 40.1821 33.2796 38.0065 32.6809 35.7153C32.3855 34.583 32.1896 33.4247 32.0856 32.2578C31.9783 31.0564 31.8571 29.714 32.3711 28.5885C32.6334 28.0147 33.0466 27.5169 33.6027 27.2263C34.1598 26.9351 34.8221 26.8666 35.413 27.0864C35.652 27.1753 35.755 26.785 35.5181 26.6972C34.395 26.2792 33.1296 26.7896 32.4214 27.7298C31.6214 28.7919 31.5633 30.1592 31.633 31.4456C31.7686 33.9356 32.2887 36.4137 33.3023 38.6884C33.8799 39.9855 34.624 41.1988 35.5181 42.292C35.6814 42.4908 35.9591 42.2037 35.797 42.0054Z" fill="#0A0A0A"/>
<path d="M20.6944 42.2907C22.2801 40.3524 23.3617 38.0402 23.9698 35.5955C24.2696 34.3879 24.4578 33.1514 24.5496 31.9093C24.6448 30.6252 24.6907 29.2437 24.0328 28.0933C23.3733 26.9395 21.9758 26.2195 20.6944 26.6965C20.4576 26.7848 20.5599 27.1751 20.7995 27.0856C21.8756 26.6851 23.0469 27.2459 23.6367 28.2026C24.2945 29.2697 24.2475 30.5821 24.164 31.7926C24.0024 34.1279 23.4884 36.4616 22.5224 38.5902C21.9663 39.8148 21.2637 40.9692 20.4161 42.0052C20.2534 42.2034 20.5311 42.4906 20.6944 42.2907Z" fill="#0A0A0A"/>
<path d="M31.8806 30.0905C33.619 29.9013 35.2263 28.7486 35.6805 26.9666C35.7447 26.7151 35.3646 26.6075 35.3004 26.8596C34.8932 28.4563 33.4452 29.5172 31.8806 29.6872C31.631 29.7138 31.6283 30.1176 31.8806 30.0905Z" fill="#0A0A0A"/>
<path d="M24.2853 29.6866C22.7207 29.5167 21.2727 28.4558 20.8655 26.859C20.8013 26.6075 20.4207 26.714 20.4854 26.9661C20.9402 28.748 22.5475 29.9013 24.2853 30.0899C24.5376 30.1176 24.536 29.7138 24.2853 29.6866Z" fill="#0A0A0A"/>
<path d="M29.99 47.4401C30.3374 47.3994 30.6417 47.2277 30.8869 46.9751C31.1375 46.7163 31.3118 46.3934 31.48 46.0756C31.5314 45.9782 31.5065 45.84 31.4053 45.7851C31.3085 45.7329 31.1768 45.7567 31.1214 45.8615C30.9743 46.1396 30.8238 46.4251 30.6224 46.6443C30.5743 46.6964 30.5233 46.7451 30.4691 46.7905C30.4652 46.7939 30.4298 46.8216 30.4531 46.8035C30.4393 46.8142 30.4249 46.8244 30.4105 46.8346C30.3817 46.855 30.3524 46.8737 30.3225 46.8918C30.2926 46.91 30.2622 46.9264 30.2307 46.9417C30.2213 46.9462 30.1875 46.9615 30.2141 46.9502C30.198 46.957 30.182 46.9632 30.1659 46.9689C30.1333 46.9808 30.1006 46.9904 30.0669 46.9989C30.0503 47.0029 30.0331 47.0068 30.0165 47.0102C30.0088 47.0119 29.9507 47.0199 29.9894 47.0153C29.8821 47.0278 29.7764 47.1037 29.7819 47.2277C29.7869 47.332 29.8743 47.4537 29.99 47.4401Z" fill="black"/>
<path d="M26.4456 47.0296C26.3233 46.9588 26.2055 46.8812 26.0932 46.7963C26.0799 46.7861 26.0666 46.7759 26.0533 46.7657C26.0362 46.7521 26.0677 46.7776 26.04 46.7549C26.0113 46.7311 25.983 46.7079 25.9548 46.683C25.9017 46.6365 25.8497 46.5884 25.7988 46.5386C25.7003 46.4417 25.6074 46.338 25.5211 46.2299C25.5105 46.2168 25.5 46.2032 25.4895 46.1896C25.4486 46.137 25.5122 46.2214 25.4729 46.1675C25.453 46.1404 25.4331 46.1126 25.4137 46.0848C25.3711 46.0237 25.3313 45.9608 25.2926 45.8968C25.2356 45.8022 25.1044 45.7575 25.0087 45.8203C24.9163 45.8815 24.8732 46.0095 24.934 46.1109C25.2544 46.6428 25.7036 47.0891 26.2353 47.3967C26.3299 47.4516 26.4666 47.4227 26.5192 47.3208C26.5717 47.2194 26.5463 47.088 26.4456 47.0296Z" fill="black"/>
<path d="M7.73242 23.7917C7.73242 23.7917 8.43454 23.9232 9.25229 23.8682" stroke="black" stroke-width="0.41496" stroke-miterlimit="10" stroke-linecap="round" stroke-linejoin="round"/>
<path d="M6.93262 22.4139C6.93262 22.4139 8.58084 22.7549 10.4786 22.5822" stroke="black" stroke-width="0.41496" stroke-miterlimit="10" stroke-linecap="round" stroke-linejoin="round"/>
<path d="M6.63818 24.8633C6.63818 24.8633 8.2864 25.2048 10.1842 25.0315" stroke="black" stroke-width="0.41496" stroke-miterlimit="10" stroke-linecap="round" stroke-linejoin="round"/>
<path d="M46.2825 23.7917C46.2825 23.7917 45.5804 23.9232 44.7627 23.8682" stroke="black" stroke-width="0.41496" stroke-miterlimit="10" stroke-linecap="round" stroke-linejoin="round"/>
<path d="M47.0826 22.4139C47.0826 22.4139 45.4344 22.7549 43.5366 22.5822" stroke="black" stroke-width="0.41496" stroke-miterlimit="10" stroke-linecap="round" stroke-linejoin="round"/>
<path d="M47.377 24.8633C47.377 24.8633 45.7288 25.2048 43.8311 25.0315" stroke="black" stroke-width="0.41496" stroke-miterlimit="10" stroke-linecap="round" stroke-linejoin="round"/>
<path d="M40.4807 5.50891C40.4807 5.50891 47.1168 13.6983 48.2239 15.6943C49.331 17.6898 49.0289 19.5494 47.8072 20.3611" stroke="black" stroke-width="0.41496" stroke-miterlimit="10" stroke-linecap="round" stroke-linejoin="round"/>
<defs>
<linearGradient id="paint0_linear_58_601" x1="10.7085" y1="28.1532" x2="45.1993" y2="28.1532" gradientUnits="userSpaceOnUse">
<stop stop-color="#C1AB75"/>
<stop offset="1" stop-color="#E6E1B3"/>
</linearGradient>
<linearGradient id="paint1_linear_58_601" x1="5.33518" y1="28.1534" x2="50.4671" y2="28.1534" gradientUnits="userSpaceOnUse">
<stop stop-color="#C1AB75"/>
<stop offset="1" stop-color="#E6E1B3"/>
</linearGradient>
<linearGradient id="paint2_linear_58_601" x1="0.396979" y1="28.1533" x2="55.4047" y2="28.1533" gradientUnits="userSpaceOnUse">
<stop stop-color="#C1AB75"/>
<stop offset="1" stop-color="#E6E1B3"/>
</linearGradient>
<linearGradient id="paint3_linear_58_601" x1="42.7514" y1="43.9413" x2="42.6225" y2="50.6754" gradientUnits="userSpaceOnUse">
<stop stop-color="#C19566"/>
<stop offset="1" stop-color="#E6E1B3"/>
</linearGradient>
<linearGradient id="paint4_linear_58_601" x1="45.6716" y1="41.4919" x2="45.6069" y2="44.8741" gradientUnits="userSpaceOnUse">
<stop stop-color="#C19566"/>
<stop offset="1" stop-color="#E6E1B3"/>
</linearGradient>
<linearGradient id="paint5_linear_58_601" x1="17.501" y1="6.98605" x2="17.4362" y2="10.3682" gradientUnits="userSpaceOnUse">
<stop stop-color="#C19566"/>
<stop offset="1" stop-color="#E6E1B3"/>
</linearGradient>
<linearGradient id="paint6_linear_58_601" x1="38.2677" y1="7.72333" x2="31.4524" y2="5.45061" gradientUnits="userSpaceOnUse">
<stop stop-color="#C19566"/>
<stop offset="1" stop-color="#E6E1B3"/>
</linearGradient>
<linearGradient id="paint7_linear_58_601" x1="38.3343" y1="7.5257" x2="31.5189" y2="5.25299" gradientUnits="userSpaceOnUse">
<stop stop-color="#C19566"/>
<stop offset="1" stop-color="#E6E1B3"/>
</linearGradient>
<linearGradient id="paint8_linear_58_601" x1="38.3293" y1="7.53771" x2="31.5139" y2="5.265" gradientUnits="userSpaceOnUse">
<stop stop-color="#C19566"/>
<stop offset="1" stop-color="#E6E1B3"/>
</linearGradient>
<linearGradient id="paint9_linear_58_601" x1="38.2633" y1="7.73748" x2="31.448" y2="5.46481" gradientUnits="userSpaceOnUse">
<stop stop-color="#C19566"/>
<stop offset="1" stop-color="#E6E1B3"/>
</linearGradient>
<linearGradient id="paint10_linear_58_601" x1="7.78604" y1="38.3358" x2="12.0587" y2="44.2292" gradientUnits="userSpaceOnUse">
<stop stop-color="#C19566"/>
<stop offset="1" stop-color="#E6E1B3"/>
</linearGradient>
<linearGradient id="paint11_linear_58_601" x1="7.61862" y1="38.4566" x2="11.8912" y2="44.3499" gradientUnits="userSpaceOnUse">
<stop stop-color="#C19566"/>
<stop offset="1" stop-color="#E6E1B3"/>
</linearGradient>
<linearGradient id="paint12_linear_58_601" x1="7.62945" y1="38.4494" x2="11.9021" y2="44.3427" gradientUnits="userSpaceOnUse">
<stop stop-color="#C19566"/>
<stop offset="1" stop-color="#E6E1B3"/>
</linearGradient>
<linearGradient id="paint13_linear_58_601" x1="7.79723" y1="38.3273" x2="12.0699" y2="44.2208" gradientUnits="userSpaceOnUse">
<stop stop-color="#C19566"/>
<stop offset="1" stop-color="#E6E1B3"/>
</linearGradient>
<linearGradient id="paint14_linear_58_601" x1="0.000867703" y1="28.1533" x2="55.7712" y2="28.1533" gradientUnits="userSpaceOnUse">
<stop stop-color="#C1AB75"/>
<stop offset="1" stop-color="#E6E1B3"/>
</linearGradient>
<linearGradient id="paint15_linear_58_601" x1="-0.000783116" y1="27.8142" x2="55.7723" y2="27.8142" gradientUnits="userSpaceOnUse">
<stop stop-color="#C1AB75"/>
<stop offset="1" stop-color="#E6E1B3"/>
</linearGradient>
</defs>
</svg>
