<svg width="120" height="120" viewBox="0 0 120 120" fill="none" xmlns="http://www.w3.org/2000/svg">
<g clip-path="url(#clip0_61_1935)">
<rect width="120" height="120" rx="60" fill="black" fill-opacity="0.08"/>
<g clip-path="url(#clip1_61_1935)">
<path fill-rule="evenodd" clip-rule="evenodd" d="M58.6667 46.6667C56.8986 46.6667 55.2029 47.3691 53.9527 48.6194C52.7025 49.8696 52.0001 51.5653 52.0001 53.3334C52.0001 55.1015 52.7025 56.7972 53.9527 58.0475C55.2029 59.2977 56.8986 60.0001 58.6667 60.0001C60.4349 60.0001 62.1305 59.2977 63.3808 58.0475C64.631 56.7972 65.3334 55.1015 65.3334 53.3334C65.3334 51.5653 64.631 49.8696 63.3808 48.6194C62.1305 47.3691 60.4349 46.6667 58.6667 46.6667ZM54.6667 53.3334C54.6667 52.8081 54.7702 52.288 54.9712 51.8027C55.1722 51.3174 55.4669 50.8764 55.8383 50.505C56.2098 50.1336 56.6507 49.8389 57.136 49.6379C57.6213 49.4369 58.1415 49.3334 58.6667 49.3334C59.192 49.3334 59.7122 49.4369 60.1975 49.6379C60.6828 49.8389 61.1237 50.1336 61.4952 50.505C61.8666 50.8764 62.1612 51.3174 62.3623 51.8027C62.5633 52.288 62.6667 52.8081 62.6667 53.3334C62.6667 54.3943 62.2453 55.4117 61.4952 56.1618C60.745 56.912 59.7276 57.3334 58.6667 57.3334C57.6059 57.3334 56.5885 56.912 55.8383 56.1618C55.0882 55.4117 54.6667 54.3943 54.6667 53.3334ZM49.3334 68.6667C49.3334 68.4267 49.4534 68.0147 49.8841 67.4681C50.3054 66.9347 50.9561 66.3641 51.8187 65.8387C53.5427 64.7854 55.9694 64.0001 58.6667 64.0001C59.1667 64.0001 59.6587 64.0267 60.1401 64.0787C60.4919 64.1161 60.8442 64.0121 61.1194 63.7896C61.3946 63.5672 61.5701 63.2446 61.6074 62.8927C61.6447 62.5409 61.5407 62.1886 61.3183 61.9135C61.0959 61.6383 60.7733 61.4627 60.4214 61.4254C59.8494 61.3667 59.2627 61.3334 58.6667 61.3334C55.4734 61.3334 52.5667 62.2587 50.4294 63.5627C49.3627 64.2134 48.4507 64.9814 47.7921 65.8161C47.1441 66.6347 46.6667 67.6174 46.6667 68.6667C46.6667 69.7934 47.2147 70.6814 48.0041 71.3147C48.7507 71.9147 49.7361 72.3121 50.7827 72.5894C52.8867 73.1454 55.6947 73.3334 58.6667 73.3334L59.5801 73.3267C59.7552 73.3244 59.9281 73.2876 60.089 73.2184C60.2498 73.1492 60.3955 73.049 60.5176 72.9235C60.6398 72.798 60.736 72.6497 60.8008 72.487C60.8656 72.3244 60.8978 72.1505 60.8954 71.9754C60.8931 71.8003 60.8562 71.6274 60.787 71.4665C60.7178 71.3057 60.6176 71.16 60.4922 71.0379C60.3667 70.9157 60.2184 70.8195 60.0557 70.7547C59.893 70.6899 59.7192 70.6577 59.5441 70.6601L58.6667 70.6667C55.7467 70.6667 53.2227 70.4761 51.4667 70.0107C50.5827 69.7774 50.0054 69.5014 49.6734 69.2347C49.3827 69.0014 49.3334 68.8294 49.3334 68.6667ZM68.0001 62.6667C68.3537 62.6667 68.6928 62.8072 68.9429 63.0573C69.1929 63.3073 69.3334 63.6465 69.3334 64.0001V66.6667H72.0001C72.3537 66.6667 72.6928 66.8072 72.9429 67.0573C73.1929 67.3073 73.3334 67.6465 73.3334 68.0001C73.3334 68.3537 73.1929 68.6928 72.9429 68.9429C72.6928 69.1929 72.3537 69.3334 72.0001 69.3334H69.3334V72.0001C69.3334 72.3537 69.1929 72.6928 68.9429 72.9429C68.6928 73.1929 68.3537 73.3334 68.0001 73.3334C67.6465 73.3334 67.3073 73.1929 67.0573 72.9429C66.8072 72.6928 66.6667 72.3537 66.6667 72.0001V69.3334H64.0001C63.6465 69.3334 63.3073 69.1929 63.0573 68.9429C62.8072 68.6928 62.6667 68.3537 62.6667 68.0001C62.6667 67.6465 62.8072 67.3073 63.0573 67.0573C63.3073 66.8072 63.6465 66.6667 64.0001 66.6667H66.6667V64.0001C66.6667 63.6465 66.8072 63.3073 67.0573 63.0573C67.3073 62.8072 67.6465 62.6667 68.0001 62.6667Z" fill="#C2D1F3"/>
</g>
<g filter="url(#filter0_f_61_1935)">
<circle cx="80" cy="80" r="40" fill="#8087FF"/>
</g>
</g>
<rect x="1" y="1" width="118" height="118" rx="59" stroke="#C2D1F3" stroke-opacity="0.2" stroke-width="2" stroke-dasharray="4 4"/>
<defs>
<filter id="filter0_f_61_1935" x="-148" y="-148" width="456" height="456" filterUnits="userSpaceOnUse" color-interpolation-filters="sRGB">
<feFlood flood-opacity="0" result="BackgroundImageFix"/>
<feBlend mode="normal" in="SourceGraphic" in2="BackgroundImageFix" result="shape"/>
<feGaussianBlur stdDeviation="94" result="effect1_foregroundBlur_61_1935"/>
</filter>
<clipPath id="clip0_61_1935">
<rect width="120" height="120" rx="60" fill="white"/>
</clipPath>
<clipPath id="clip1_61_1935">
<rect width="32" height="32" fill="white" transform="translate(44 44)"/>
</clipPath>
</defs>
</svg>
