<svg width="56" height="56" viewBox="0 0 56 56" fill="none" xmlns="http://www.w3.org/2000/svg">
<path d="M27.7331 45.1116C37.3017 45.1116 45.0586 37.3546 45.0586 27.786C45.0586 18.2174 37.3017 10.4604 27.7331 10.4604C18.1644 10.4604 10.4075 18.2174 10.4075 27.786C10.4075 37.3546 18.1644 45.1116 27.7331 45.1116Z" stroke="url(#paint0_linear_58_1136)" stroke-width="0.194183" stroke-linecap="round" stroke-linejoin="round" stroke-dasharray="0.2 2.52"/>
<path d="M27.7861 50.4564C40.3066 50.4564 50.4564 40.3066 50.4564 27.7861C50.4564 15.2656 40.3066 5.11572 27.7861 5.11572C15.2656 5.11572 5.11575 15.2656 5.11575 27.7861C5.11575 40.3066 15.2656 50.4564 27.7861 50.4564Z" stroke="url(#paint1_linear_58_1136)" stroke-width="0.254104" stroke-linecap="round" stroke-linejoin="round"/>
<path d="M27.786 55.4171C43.0462 55.4171 55.4171 43.0463 55.4171 27.786C55.4171 12.5258 43.0462 0.154907 27.786 0.154907C12.5257 0.154907 0.154846 12.5258 0.154846 27.786C0.154846 43.0463 12.5257 55.4171 27.786 55.4171Z" stroke="url(#paint2_linear_58_1136)" stroke-width="0.30972" stroke-linecap="round" stroke-linejoin="round"/>
<path d="M13.3272 11.1442L13.0063 12.9882C12.9896 13.0838 12.8537 13.0866 12.8331 12.9921L12.4278 11.1492C12.42 11.1135 12.3909 11.0861 12.3546 11.081L10.7247 10.8412C10.6291 10.8273 10.6218 10.6926 10.7152 10.668L12.4071 10.2297C12.4401 10.2214 12.4653 10.194 12.472 10.1604L12.7733 8.55845C12.7911 8.46398 12.9253 8.46175 12.9465 8.5551L13.3082 10.1453C13.316 10.1789 13.3417 10.2046 13.3753 10.2119L14.9063 10.5523C14.9979 10.5724 14.9985 10.7037 14.9068 10.725L13.396 11.0738C13.3596 11.081 13.3333 11.109 13.3272 11.1442Z" fill="url(#paint3_linear_58_1136)"/>
<path d="M10.1062 14.0897L9.94464 15.0159C9.93625 15.064 9.86806 15.0657 9.85744 15.0182L9.65399 14.0925C9.65007 14.0746 9.63553 14.0607 9.61709 14.0584L8.79821 13.9382C8.75014 13.931 8.74679 13.8633 8.79374 13.8516L9.64336 13.6314C9.66013 13.6269 9.67243 13.6135 9.67579 13.5967L9.8267 12.7924C9.83564 12.7449 9.90328 12.7437 9.9139 12.7907L10.0956 13.5895C10.0995 13.6062 10.1123 13.6191 10.1291 13.623L10.8977 13.794C10.9441 13.8041 10.9441 13.8701 10.8982 13.8807L10.1392 14.0556C10.1224 14.0584 10.1095 14.0724 10.1062 14.0897Z" fill="url(#paint4_linear_58_1136)"/>
<path d="M38.5674 48.1411L38.4058 49.0673C38.3974 49.1154 38.3292 49.1171 38.3186 49.0695L38.1152 48.1439C38.1113 48.126 38.0967 48.112 38.0783 48.1098L37.2594 47.9896C37.2113 47.9824 37.208 47.9147 37.2549 47.903L38.1045 47.6828C38.1213 47.6783 38.1336 47.6649 38.137 47.6481L38.2884 46.8438C38.2974 46.7963 38.3645 46.7951 38.3751 46.8421L38.5568 47.6408C38.5607 47.6576 38.5735 47.6705 38.5903 47.6744L39.3594 47.8454C39.4053 47.8555 39.4058 47.9214 39.36 47.9321L38.6009 48.107C38.5836 48.1092 38.5702 48.1232 38.5674 48.1411Z" fill="url(#paint5_linear_58_1136)"/>
<path d="M17.8154 49.0488C17.3682 48.8532 17.1636 48.3322 17.3593 47.8851C17.5549 47.4379 18.0759 47.2333 18.5236 47.4289C18.9708 47.6246 19.1753 48.1455 18.9797 48.5927C18.7841 49.0404 18.2631 49.2445 17.8154 49.0488Z" fill="url(#paint6_linear_58_1136)"/>
<path d="M20.3297 49.7971C20.0402 49.6702 19.9077 49.3331 20.0346 49.043C20.1615 48.7535 20.4985 48.621 20.7886 48.7479C21.0782 48.8748 21.2107 49.2118 21.0838 49.5019C20.9574 49.7915 20.6198 49.9239 20.3297 49.7971Z" fill="url(#paint7_linear_58_1136)"/>
<path d="M22.1016 50.2427C21.8825 50.1472 21.7824 49.8912 21.878 49.672C21.9736 49.4529 22.2296 49.3529 22.4487 49.4485C22.6678 49.5446 22.7679 49.8 22.6723 50.0192C22.5767 50.2383 22.3212 50.3383 22.1016 50.2427Z" fill="url(#paint8_linear_58_1136)"/>
<path d="M23.665 50.4098C23.5157 50.3444 23.4475 50.1711 23.5129 50.0219C23.5783 49.8726 23.7516 49.805 23.9008 49.8698C24.0501 49.9352 24.1183 50.1085 24.0529 50.2577C23.988 50.407 23.8142 50.4752 23.665 50.4098Z" fill="url(#paint9_linear_58_1136)"/>
<path d="M48.3467 16.5499C48.5948 16.9702 48.4551 17.5124 48.0348 17.7606C47.6144 18.0088 47.0722 17.869 46.8241 17.4487C46.5759 17.0283 46.7156 16.4861 47.136 16.238C47.5563 15.9898 48.0985 16.129 48.3467 16.5499Z" fill="url(#paint10_linear_58_1136)"/>
<path d="M46.746 14.4704C46.9065 14.7426 46.8165 15.0936 46.5437 15.2546C46.2715 15.4156 45.9204 15.3251 45.7595 15.0523C45.5985 14.7801 45.689 14.429 45.9618 14.2681C46.2346 14.1076 46.5856 14.1976 46.746 14.4704Z" fill="url(#paint11_linear_58_1136)"/>
<path d="M45.5705 13.072C45.6924 13.2782 45.6236 13.5437 45.4174 13.6656C45.2111 13.7874 44.9456 13.7187 44.8237 13.5124C44.7019 13.3062 44.7707 13.0407 44.9769 12.9188C45.1832 12.797 45.4492 12.8657 45.5705 13.072Z" fill="url(#paint12_linear_58_1136)"/>
<path d="M44.4018 12.0206C44.4845 12.1609 44.4381 12.3414 44.2978 12.4241C44.1575 12.5069 43.9769 12.4605 43.8942 12.3202C43.8115 12.1799 43.8579 11.9993 43.9982 11.9166C44.1385 11.8339 44.319 11.8803 44.4018 12.0206Z" fill="url(#paint13_linear_58_1136)"/>
<path d="M37.0356 13.0619C35.3934 9.61423 31.7087 7.23921 27.8904 7.1671C24.0722 7.09499 20.3003 9.32916 18.5289 12.7125C17.8867 12.7953 17.0158 13.4286 16.7565 14.0222C16.4971 14.6153 16.5726 15.3425 16.9476 15.8701C16.1802 15.9003 15.3797 16.4011 15.0494 17.0942C14.7191 17.7874 14.8051 18.6605 15.264 19.2759C14.4194 19.4374 13.3574 19.5509 12.5128 19.7124C11.5833 19.8902 10.5023 20.1892 10.1719 21.0763C9.81809 22.0265 10.5542 23.0053 11.2395 23.7531C10.6789 24.6715 10.9058 26.0203 11.448 26.9499C11.9902 27.8794 13.064 28.4719 14.1394 28.4361C13.3971 28.4764 12.9578 29.2846 12.808 30.0124C12.6582 30.7402 13.05 31.5451 13.7157 31.8754C13.358 32.5993 13.5995 33.5892 14.1478 34.1817C14.6961 34.7747 15.4295 35.156 16.0784 35.6372C17.515 36.702 18.5491 38.2979 18.9336 40.0441C17.7615 39.7663 16.2903 40.0357 15.131 40.3632C17.4703 45.1301 22.6446 48.4005 27.9547 48.3821C33.2643 48.3636 38.4324 45.1055 40.7387 40.3224C39.0272 40.2554 37.4369 40.0212 35.7254 39.9546C35.7606 38.6975 36.4749 37.7775 37.4419 36.9731C38.4089 36.1688 39.523 35.531 40.3675 34.5987C41.2121 33.6663 41.7521 32.3019 41.268 31.1404C41.9472 31.1577 42.9801 30.6122 43.064 29.9386C43.1478 29.2645 42.6587 28.5675 41.9964 28.4177C43.0103 28.1203 43.8968 27.2657 44.3373 26.3054C44.7783 25.3451 44.7817 24.1936 44.3462 23.2305C45.1707 22.846 45.7028 21.5827 45.4094 20.7213C45.1159 19.86 44.2808 19.2518 43.3876 19.0758C42.4944 18.9002 41.5598 19.1093 40.7365 19.4961C41.0573 18.6079 40.9036 17.8846 40.8544 16.9417C40.8052 15.9987 40.2837 15.0143 39.3882 14.7147C39.5565 14.1625 39.3055 13.4856 38.8522 13.1279C38.3994 12.769 37.5336 12.7696 37.0356 13.0619Z" fill="url(#paint14_linear_58_1136)"/>
<path d="M12.4316 24.1673C14.8491 23.8867 17.1889 23.1036 19.3034 21.9008C21.4124 20.7012 23.2966 19.0925 24.7947 17.1826C25.6376 16.1077 26.3603 14.9434 26.9349 13.7036C27.0478 13.4604 26.6862 13.2475 26.5727 13.4917C25.5727 15.6505 24.125 17.5805 22.3621 19.1753C20.6091 20.761 18.546 22.0142 16.323 22.8208C15.0671 23.2764 13.7585 23.5938 12.431 23.7481C12.1666 23.7789 12.1638 24.1986 12.4316 24.1673Z" fill="black"/>
<path d="M26.5728 13.7034C27.9411 15.7397 29.7074 17.4803 31.7085 18.894C33.7319 20.3232 35.9929 21.4166 38.3562 22.1549C39.6737 22.5663 41.023 22.8609 42.3908 23.0431C42.5037 23.0582 42.5993 22.9358 42.6004 22.8335C42.6015 22.7078 42.5026 22.639 42.3908 22.6239C40.0113 22.307 37.6743 21.6172 35.4994 20.6033C33.3116 19.5832 31.2709 18.2327 29.5269 16.5609C28.5577 15.6319 27.684 14.6067 26.935 13.4922C26.7852 13.2691 26.4219 13.4787 26.5728 13.7034Z" fill="black"/>
<path d="M18.8899 13.0512C19.8228 12.9847 20.7579 13.1552 21.6478 13.4268C22.6036 13.7186 23.5237 14.1384 24.3666 14.6756C24.8031 14.9534 25.2168 15.2658 25.5902 15.6247C25.7847 15.8114 26.0815 15.5157 25.8864 15.3284C25.1765 14.6465 24.3291 14.111 23.4449 13.6851C22.5086 13.234 21.5103 12.8886 20.4829 12.7214C19.9564 12.6359 19.4226 12.594 18.8893 12.632C18.6221 12.651 18.6199 13.0708 18.8899 13.0512Z" fill="black"/>
<path d="M28.6101 15.5829C28.8896 15.1056 29.3821 14.8306 29.8734 14.6131C30.453 14.356 31.0595 14.1531 31.671 13.9888C32.9153 13.6551 34.2009 13.5081 35.4881 13.545C35.7581 13.5528 35.7576 13.1336 35.4881 13.1257C34.1232 13.0866 32.7515 13.2515 31.4357 13.6182C30.7968 13.7959 30.1641 14.0173 29.562 14.2956C29.0394 14.5371 28.5442 14.8641 28.2479 15.3711C28.1115 15.6047 28.4738 15.816 28.6101 15.5829Z" fill="black"/>
<path d="M21.1809 12.5984C22.433 11.4894 23.9959 10.7583 25.6448 10.4867C27.2814 10.2167 28.993 10.4425 30.5133 11.1021C31.3769 11.4766 32.1802 11.9847 32.8839 12.6102C33.0851 12.789 33.3825 12.4933 33.1801 12.3139C31.8643 11.1434 30.2188 10.3542 28.4782 10.0764C26.7482 9.79971 24.9779 10.0311 23.3692 10.7225C22.4615 11.1127 21.6236 11.6482 20.8841 12.3033C20.6818 12.481 20.9791 12.7767 21.1809 12.5984Z" fill="black"/>
<path d="M14.7045 27.943C16.5088 27.1811 18.2092 26.0263 19.4763 24.5216C19.8257 24.1068 20.1415 23.6647 20.4104 23.1935C20.5445 22.9587 20.1823 22.7474 20.0482 22.9822C19.1013 24.6401 17.5831 25.9307 15.9392 26.8675C15.4714 27.1342 14.9884 27.3723 14.4926 27.5813C14.3875 27.6255 14.3669 27.7792 14.4177 27.8681C14.4792 27.9765 14.6005 27.9871 14.7045 27.943Z" fill="black"/>
<path d="M20.5973 20.8359C19.7326 23.5474 19.3827 26.4898 20.0121 29.2908C20.5297 31.5954 21.7717 33.7524 23.6174 35.2465C24.6191 36.0576 25.7795 36.6607 27.0377 36.953C27.3004 37.0139 27.4122 36.6098 27.1489 36.5489C24.9824 36.0447 23.1484 34.5959 21.9299 32.7614C20.5118 30.6278 19.9993 28.0555 20.1306 25.5206C20.2111 23.965 20.5286 22.4295 21.0015 20.9472C21.0842 20.69 20.6795 20.5794 20.5973 20.8359Z" fill="black"/>
<path d="M27.1492 36.9535C29.347 36.0983 31.1066 34.3739 32.3151 32.3778C33.6862 30.1129 34.2597 27.4936 34.3922 24.8715C34.4732 23.2651 34.3933 21.6547 34.248 20.0538C34.2239 19.7872 33.8042 19.785 33.8288 20.0538C34.078 22.7989 34.1418 25.6088 33.5045 28.3091C32.9618 30.6076 31.8562 32.7668 30.1771 34.4448C29.2805 35.3409 28.2229 36.0876 27.0379 36.5493C26.7892 36.646 26.8971 37.0518 27.1492 36.9535Z" fill="black"/>
<path d="M22.9644 34.9485C22.9963 35.9428 23.0287 37.0138 22.4837 37.8914C21.9919 38.6829 21.1612 39.1893 20.386 39.6655C20.1562 39.8064 20.367 40.1692 20.5973 40.0277C21.4363 39.5118 22.3144 38.959 22.8459 38.1032C23.4312 37.1614 23.4178 36.0183 23.3837 34.9485C23.3753 34.679 22.9555 34.6779 22.9644 34.9485Z" fill="black"/>
<path d="M30.0967 34.6143C30.0665 35.1258 30.1531 35.6462 30.2616 36.1448C30.3723 36.6501 30.5181 37.1498 30.7009 37.6344C31.0799 38.6383 31.8423 39.4214 32.8909 39.7154C33.1514 39.7886 33.2621 39.3839 33.0022 39.3113C32.5315 39.1794 32.1061 38.9289 31.7624 38.5807C31.427 38.2414 31.2174 37.8367 31.0575 37.3924C30.7451 36.5243 30.4611 35.5461 30.5165 34.6143C30.5316 34.3449 30.1123 34.3455 30.0967 34.6143Z" fill="black"/>
<path d="M29.6224 47.0771C30.8052 45.351 32.3826 43.905 34.1998 42.8681C34.7129 42.5752 35.2445 42.3142 35.7911 42.0906C36.0377 41.9894 35.9298 41.5842 35.6799 41.6865C33.6671 42.5104 31.8505 43.7842 30.4011 45.408C29.9897 45.8686 29.6096 46.3566 29.2608 46.8658C29.1076 47.0883 29.4704 47.2984 29.6224 47.0771Z" fill="black"/>
<path d="M19.7103 42.033C21.5856 43.0151 23.0953 44.6064 23.9824 46.5281C24.0953 46.773 24.457 46.56 24.3446 46.3163C23.4307 44.3359 21.8539 42.6819 19.9221 41.6708C19.6834 41.5461 19.471 41.9078 19.7103 42.033Z" fill="black"/>
<path d="M14.8961 32.0999C16.587 32.276 18.1739 31.1927 18.6562 29.5706C18.7334 29.3112 18.3287 29.2006 18.2521 29.4594C17.8189 30.9166 16.4025 31.8372 14.8961 31.6807C14.6278 31.6527 14.63 32.072 14.8961 32.0999Z" fill="black"/>
<path d="M35.7618 24.5837C36.1218 25.2282 36.5739 25.8202 37.0971 26.3411C37.2883 26.5317 37.5851 26.2355 37.3934 26.0449C36.8942 25.5479 36.4672 24.9879 36.124 24.3724C35.9921 24.1366 35.6299 24.3479 35.7618 24.5837Z" fill="black"/>
<path d="M35.4758 29.3461C36.2695 29.7743 37.0805 30.1812 37.8581 30.6378C38.1839 30.829 38.5126 31.0537 38.7244 31.3746C38.9195 31.6697 38.9944 32.0135 38.9782 32.3639C38.8994 34.0179 37.194 34.8301 36.0364 35.6914C35.3522 36.2006 34.7335 36.797 34.4137 37.6036C34.3142 37.8546 34.7195 37.963 34.8179 37.7149C35.4338 36.1615 37.2415 35.5746 38.3634 34.4746C38.9262 33.9229 39.3387 33.2147 39.3946 32.4165C39.4511 31.6138 39.0581 30.9553 38.4187 30.4992C38.0291 30.2214 37.5909 30.0107 37.1705 29.7838C36.6764 29.5171 36.1823 29.2505 35.6876 28.9839C35.4495 28.8559 35.2376 29.2181 35.4758 29.3461Z" fill="black"/>
<path d="M30.8355 17.3312C31.049 16.9863 31.3934 16.7342 31.7349 16.5263C32.1401 16.2786 32.5772 16.083 33.0272 15.9326C34.0674 15.5839 35.2038 15.5738 36.2899 15.6286C37.0305 15.666 37.7655 15.7638 38.4911 15.9176C38.7543 15.9735 38.8667 15.5693 38.6023 15.5134C37.2496 15.2278 35.86 15.1277 34.4811 15.2323C33.4626 15.31 32.4917 15.5973 31.6063 16.1149C31.172 16.3686 30.7422 16.6867 30.4733 17.1199C30.3308 17.3496 30.6935 17.5603 30.8355 17.3312Z" fill="black"/>
<path d="M40.2549 19.3055C39.3561 19.6258 38.3969 19.7655 37.4467 19.8119C36.4327 19.8611 35.4037 19.8063 34.4087 19.5973C33.9068 19.4922 33.4082 19.3485 32.942 19.1328C32.6989 19.0199 32.4859 19.3815 32.7302 19.495C33.6279 19.9108 34.6128 20.1026 35.5932 20.1926C36.6552 20.2904 37.7312 20.2585 38.7848 20.0964C39.322 20.0137 39.8541 19.893 40.3662 19.7102C40.6188 19.6196 40.5098 19.2144 40.2549 19.3055Z" fill="black"/>
<path d="M18.4516 19.5526C19.9675 19.6773 21.5426 19.6007 22.9971 19.1239C23.2525 19.04 23.143 18.6354 22.8858 18.7198C21.4638 19.1859 19.9345 19.2552 18.4521 19.1334C18.1827 19.111 18.1838 19.5302 18.4516 19.5526Z" fill="black"/>
<path d="M22.6744 40.2291C24.1663 40.5057 25.5732 41.1592 26.7364 42.1357C26.823 42.2083 26.9471 42.2218 27.0326 42.1357C28.0242 41.1396 29.3847 40.5611 30.7905 40.5404C31.0599 40.5365 31.0611 40.1173 30.7905 40.1212C29.2763 40.143 27.8051 40.7657 26.7364 41.8389C26.8353 41.8389 26.9343 41.8389 27.0326 41.8389C25.8152 40.8165 24.3502 40.1145 22.7857 39.8244C22.5218 39.7757 22.4089 40.1799 22.6744 40.2291Z" fill="black"/>
<path d="M23.4848 25.6105C24.0242 25.6105 24.0253 24.7721 23.4848 24.7721C22.9454 24.7721 22.9443 25.6105 23.4848 25.6105Z" fill="#0A0A0A"/>
<path d="M30.9586 25.8638C31.498 25.8638 31.4991 25.0254 30.9586 25.0254C30.4192 25.0254 30.4186 25.8638 30.9586 25.8638Z" fill="#0A0A0A"/>
<path d="M22.6312 22.1445C22.6396 22.1406 22.7084 22.111 22.6614 22.1294C22.6832 22.1205 22.7056 22.1126 22.7274 22.1054C22.7721 22.0908 22.8174 22.0791 22.8637 22.0702C22.8755 22.0679 22.8867 22.0663 22.8984 22.064C22.8716 22.0674 22.8705 22.0674 22.895 22.0646C22.9185 22.0623 22.942 22.0601 22.9655 22.059C23.0124 22.0568 23.0594 22.0573 23.1069 22.0612C23.117 22.0618 23.1919 22.073 23.1388 22.064C23.1617 22.0679 23.1851 22.0718 23.2081 22.0769C23.2539 22.0869 23.2992 22.0998 23.3433 22.1154C23.3523 22.1188 23.4205 22.1484 23.3752 22.1272C23.3964 22.1372 23.4177 22.1473 23.4384 22.1579C23.4797 22.1797 23.52 22.2049 23.558 22.2323C23.648 22.2954 23.795 22.2513 23.8447 22.1574C23.9017 22.0495 23.8654 21.9383 23.7693 21.8706C23.3763 21.5934 22.8447 21.5716 22.4188 21.7829C22.3204 21.8315 22.2852 21.9791 22.3434 22.0696C22.4099 22.1702 22.5261 22.1965 22.6312 22.1445Z" fill="black"/>
<path d="M30.2948 22.5644C30.3065 22.5588 30.3177 22.5538 30.3294 22.5482C30.3087 22.5571 30.3098 22.5565 30.3322 22.5476C30.3562 22.5392 30.3803 22.5303 30.4043 22.5224C30.4468 22.509 30.4904 22.4984 30.534 22.49C30.5424 22.4883 30.6206 22.4777 30.5726 22.4828C30.5977 22.48 30.6234 22.4777 30.6486 22.4761C30.6961 22.4733 30.7442 22.4733 30.7922 22.4761C30.8146 22.4772 30.8364 22.4794 30.8588 22.4816C30.8839 22.4844 30.8839 22.4844 30.8599 22.4816C30.8727 22.4833 30.885 22.4856 30.8979 22.4878C30.9448 22.4967 30.9912 22.5079 31.0371 22.5219C31.0583 22.5286 31.0795 22.5353 31.1002 22.5431C31.112 22.5476 31.1243 22.5521 31.136 22.5571C31.1153 22.5482 31.1164 22.5487 31.1388 22.5582C31.1846 22.5806 31.2299 22.6041 31.2735 22.6309C31.3669 22.6885 31.5083 22.6544 31.5603 22.556C31.6145 22.4537 31.5848 22.3307 31.4848 22.2692C31.0611 22.0088 30.5295 21.9931 30.0829 22.2027C29.9834 22.2497 29.9504 22.4 30.008 22.4895C30.074 22.5918 30.188 22.6147 30.2948 22.5644Z" fill="black"/>
<path d="M26.317 23.0309C26.449 24.269 26.3316 25.5222 25.9582 26.7106C25.7966 27.2242 25.4942 27.781 25.7089 28.3248C25.8911 28.7877 26.4629 29.0124 26.862 28.6658C27.0661 28.4886 26.7687 28.1929 26.5658 28.3696C26.4283 28.4892 26.2231 28.3869 26.1393 28.2555C26.0202 28.0688 26.0426 27.8262 26.0946 27.6228C26.1561 27.3819 26.2561 27.151 26.3327 26.9151C26.416 26.6591 26.4881 26.3992 26.5485 26.1371C26.7827 25.1209 26.8464 24.0684 26.7357 23.0315C26.7077 22.7654 26.2885 22.7626 26.317 23.0309Z" fill="black"/>
<path d="M24.9331 31.1314C25.378 31.7731 25.9549 32.5171 26.8274 32.4724C27.7056 32.4277 28.2729 31.6993 28.7424 31.0437C28.8995 30.824 28.5362 30.6144 28.3802 30.8324C28.0057 31.3561 27.5351 32.0123 26.8274 32.0537C26.1192 32.0951 25.6519 31.4344 25.2953 30.9201C25.1422 30.6993 24.7788 30.909 24.9331 31.1314Z" fill="black"/>
<path d="M15.3341 19.3284C15.2334 18.8488 15.1339 18.3597 15.1775 17.8673C15.2184 17.405 15.4347 17.0037 15.7622 16.6817C16.3581 16.0965 17.2507 15.6454 18.0886 15.5688C18.4799 15.5331 19.0031 15.58 19.1948 15.9842C19.339 16.2888 19.2429 16.6862 19.0238 16.9305C18.7443 17.2418 18.2904 17.2675 17.9159 17.1339C17.495 16.9836 17.2222 16.6348 17.0344 16.2441C16.8114 15.7796 16.7264 15.262 16.8444 14.7578C16.9679 14.2273 17.2334 13.7668 17.6292 13.3928C17.8259 13.2072 17.5285 12.911 17.3329 13.0966C16.4995 13.8847 16.139 15.0898 16.5543 16.1787C16.7443 16.6773 17.0462 17.1563 17.5274 17.4162C17.9807 17.661 18.5458 17.7169 19.0109 17.4693C19.4178 17.2524 19.6638 16.7935 19.68 16.3408C19.6979 15.8355 19.3949 15.4151 18.926 15.2407C18.4318 15.0568 17.8589 15.1446 17.3681 15.2938C16.8449 15.4531 16.3374 15.7008 15.8969 16.0255C15.4023 16.3894 14.9786 16.8528 14.8243 17.4626C14.6594 18.1149 14.7947 18.7957 14.9299 19.4402C14.9853 19.7035 15.3894 19.5917 15.3341 19.3284Z" fill="black"/>
<path d="M43.787 19.411C44.508 19.6983 45.0446 20.4306 45.0882 21.2075C45.1335 22.0163 44.674 22.7944 43.9641 23.1723C43.726 23.2991 43.9373 23.6608 44.176 23.5345C45.0223 23.0845 45.5807 22.1208 45.5046 21.1572C45.4286 20.1963 44.7881 19.3607 43.8993 19.0063C43.6478 18.9068 43.5388 19.3121 43.787 19.411Z" fill="black"/>
<path d="M43.8556 26.2728C43.4654 27.0235 42.8176 27.6071 42.0445 27.948C41.3212 28.2666 40.3721 28.4114 39.6164 28.1129C39.3012 27.9883 38.8763 27.5674 39.1597 27.2074C39.4292 26.8653 40.0407 27.1789 40.3369 27.3158C41.1675 27.7004 42.0362 28.246 42.2894 29.1861C42.4123 29.6422 42.3536 30.1481 42.0155 30.498C41.7181 30.806 41.2838 30.9564 40.8746 30.7971C40.6231 30.6992 40.5141 31.1045 40.7634 31.2012C41.2195 31.3789 41.7332 31.256 42.1144 30.9664C42.5292 30.6517 42.7589 30.1783 42.769 29.6584C42.7919 28.4483 41.8075 27.5819 40.8137 27.0811C40.3598 26.8519 39.807 26.5534 39.281 26.6697C38.7495 26.7871 38.5482 27.3628 38.7388 27.8362C38.9479 28.3566 39.5102 28.5685 40.0267 28.6417C40.5393 28.7144 41.0613 28.6819 41.5627 28.5539C42.6829 28.2683 43.6817 27.5132 44.2172 26.4836C44.3424 26.2454 43.9808 26.033 43.8556 26.2728Z" fill="black"/>
<path d="M14.8887 40.7283C16.2649 42.366 17.7484 43.93 19.4409 45.2458C21.1262 46.556 23.0205 47.6175 25.0942 48.1653C27.2803 48.7421 29.6084 48.7628 31.8079 48.243C33.8448 47.7611 35.7408 46.7992 37.3467 45.4599C38.8726 44.1871 40.1286 42.5779 40.9754 40.7797C41.0822 40.5533 41.1811 40.3236 41.2762 40.0922C41.3784 39.8429 40.9726 39.7339 40.872 39.981C40.1381 41.7741 38.995 43.3912 37.5736 44.7047C36.1007 46.0658 34.3277 47.0853 32.4032 47.6521C30.2881 48.2754 28.0165 48.371 25.8578 47.9165C23.8053 47.4845 21.9109 46.5409 20.2212 45.3129C18.5343 44.0876 17.053 42.5947 15.6891 41.0234C15.5198 40.8284 15.3521 40.631 15.1855 40.4332C15.0117 40.2252 14.716 40.5232 14.8887 40.7283Z" fill="black"/>
<path d="M10.9662 23.9034C10.5487 24.9565 10.6303 26.1918 11.1976 27.1755C11.7108 28.0654 12.5945 28.7205 13.59 28.9642C13.8521 29.0285 13.9639 28.6244 13.7012 28.5601C12.8074 28.341 12.0193 27.7641 11.5593 26.9643C11.0439 26.0688 10.9919 24.9699 11.3704 24.0152C11.4698 23.7636 11.0646 23.6552 10.9662 23.9034Z" fill="black"/>
<path d="M12.5613 30.6246C12.6172 31.2584 12.9705 31.8269 13.5294 32.1382C13.5043 32.0426 13.4791 31.9471 13.4545 31.8515C13.203 32.435 13.2885 33.0605 13.5758 33.6167C13.8793 34.2042 14.3919 34.6312 14.9207 35.0085C15.4618 35.3942 16.0157 35.7491 16.4919 36.217C16.9464 36.663 17.3349 37.1711 17.649 37.725C18.0045 38.3516 18.2549 39.0297 18.3991 39.7351C18.4528 39.9995 18.8569 39.8877 18.8032 39.6238C18.5562 38.4126 17.9905 37.2796 17.1845 36.3439C16.7809 35.8749 16.3147 35.4741 15.8106 35.118C15.2846 34.7463 14.7211 34.4076 14.2891 33.9213C13.8609 33.4395 13.5428 32.6972 13.8162 32.0639C13.8603 31.9616 13.8497 31.8375 13.7413 31.7771C13.3176 31.5413 13.0236 31.112 12.9805 30.6251C12.9571 30.3579 12.5378 30.3557 12.5613 30.6246Z" fill="black"/>
<path d="M27.7116 7.37492C29.2119 7.38946 30.6898 7.74831 32.0224 8.44031C33.3437 9.12615 34.4918 10.1004 35.4561 11.229C36.0189 11.888 36.5153 12.6006 36.9574 13.3452C37.0949 13.5772 37.4577 13.3664 37.3196 13.1339C35.7394 10.4727 33.3734 8.17983 30.3354 7.3235C29.4824 7.08315 28.597 6.96409 27.7116 6.9557C27.4417 6.95291 27.4417 7.37213 27.7116 7.37492Z" fill="black"/>
<defs>
<linearGradient id="paint0_linear_58_1136" x1="45.1557" y1="27.786" x2="10.3107" y2="27.786" gradientUnits="userSpaceOnUse">
<stop stop-color="#C1AB75"/>
<stop offset="1" stop-color="#E6E1B3"/>
</linearGradient>
<linearGradient id="paint1_linear_58_1136" x1="50.584" y1="27.7861" x2="4.9887" y2="27.7861" gradientUnits="userSpaceOnUse">
<stop stop-color="#C1AB75"/>
<stop offset="1" stop-color="#E6E1B3"/>
</linearGradient>
<linearGradient id="paint2_linear_58_1136" x1="55.5725" y1="27.786" x2="-4.07497e-05" y2="27.786" gradientUnits="userSpaceOnUse">
<stop stop-color="#C1AB75"/>
<stop offset="1" stop-color="#E6E1B3"/>
</linearGradient>
<linearGradient id="paint3_linear_58_1136" x1="12.7828" y1="12.2058" x2="12.907" y2="5.56046" gradientUnits="userSpaceOnUse">
<stop stop-color="#C19566"/>
<stop offset="1" stop-color="#E6E1B3"/>
</linearGradient>
<linearGradient id="paint4_linear_58_1136" x1="9.83285" y1="14.6231" x2="9.89523" y2="11.2854" gradientUnits="userSpaceOnUse">
<stop stop-color="#C19566"/>
<stop offset="1" stop-color="#E6E1B3"/>
</linearGradient>
<linearGradient id="paint5_linear_58_1136" x1="38.2937" y1="48.6741" x2="38.3561" y2="45.3365" gradientUnits="userSpaceOnUse">
<stop stop-color="#C19566"/>
<stop offset="1" stop-color="#E6E1B3"/>
</linearGradient>
<linearGradient id="paint6_linear_58_1136" x1="17.3129" y1="47.9465" x2="24.1653" y2="50.2858" gradientUnits="userSpaceOnUse">
<stop stop-color="#C19566"/>
<stop offset="1" stop-color="#E6E1B3"/>
</linearGradient>
<linearGradient id="paint7_linear_58_1136" x1="17.2458" y1="48.1414" x2="24.0984" y2="50.4808" gradientUnits="userSpaceOnUse">
<stop stop-color="#C19566"/>
<stop offset="1" stop-color="#E6E1B3"/>
</linearGradient>
<linearGradient id="paint8_linear_58_1136" x1="17.2499" y1="48.1298" x2="24.1023" y2="50.4691" gradientUnits="userSpaceOnUse">
<stop stop-color="#C19566"/>
<stop offset="1" stop-color="#E6E1B3"/>
</linearGradient>
<linearGradient id="paint9_linear_58_1136" x1="17.3169" y1="47.9326" x2="24.1696" y2="50.272" gradientUnits="userSpaceOnUse">
<stop stop-color="#C19566"/>
<stop offset="1" stop-color="#E6E1B3"/>
</linearGradient>
<linearGradient id="paint10_linear_58_1136" x1="48.1084" y1="17.7377" x2="43.9239" y2="11.8288" gradientUnits="userSpaceOnUse">
<stop stop-color="#C19566"/>
<stop offset="1" stop-color="#E6E1B3"/>
</linearGradient>
<linearGradient id="paint11_linear_58_1136" x1="48.2765" y1="17.6183" x2="44.0919" y2="11.7093" gradientUnits="userSpaceOnUse">
<stop stop-color="#C19566"/>
<stop offset="1" stop-color="#E6E1B3"/>
</linearGradient>
<linearGradient id="paint12_linear_58_1136" x1="48.2663" y1="17.6254" x2="44.0818" y2="11.7165" gradientUnits="userSpaceOnUse">
<stop stop-color="#C19566"/>
<stop offset="1" stop-color="#E6E1B3"/>
</linearGradient>
<linearGradient id="paint13_linear_58_1136" x1="48.0965" y1="17.7457" x2="43.9119" y2="11.8367" gradientUnits="userSpaceOnUse">
<stop stop-color="#C19566"/>
<stop offset="1" stop-color="#E6E1B3"/>
</linearGradient>
<linearGradient id="paint14_linear_58_1136" x1="10.0807" y1="27.7731" x2="45.4916" y2="27.7731" gradientUnits="userSpaceOnUse">
<stop stop-color="#C1AB75"/>
<stop offset="1" stop-color="#E6E1B3"/>
</linearGradient>
</defs>
</svg>
