<svg width="80" height="80" viewBox="0 0 80 80" fill="none" xmlns="http://www.w3.org/2000/svg">
<rect width="80" height="80" rx="40" fill="#C2D1F3" fill-opacity="0.08"/>
<rect x="0.25" y="0.25" width="79.5" height="79.5" rx="39.75" stroke="#C2D1F3" stroke-opacity="0.16" stroke-width="0.5"/>
<g clip-path="url(#clip0_35_25707)">
<path d="M30.6667 33.3334H32C32.7072 33.3334 33.3855 33.0524 33.8856 32.5523C34.3857 32.0522 34.6667 31.374 34.6667 30.6667C34.6667 30.3131 34.8071 29.9739 35.0572 29.7239C35.3072 29.4739 35.6464 29.3334 36 29.3334H44C44.3536 29.3334 44.6928 29.4739 44.9428 29.7239C45.1929 29.9739 45.3333 30.3131 45.3333 30.6667C45.3333 31.374 45.6143 32.0522 46.1144 32.5523C46.6145 33.0524 47.2928 33.3334 48 33.3334H49.3333C50.0406 33.3334 50.7189 33.6143 51.219 34.1144C51.719 34.6145 52 35.2928 52 36V48C52 48.7073 51.719 49.3856 51.219 49.8857C50.7189 50.3858 50.0406 50.6667 49.3333 50.6667H30.6667C29.9594 50.6667 29.2811 50.3858 28.781 49.8857C28.281 49.3856 28 48.7073 28 48V36C28 35.2928 28.281 34.6145 28.781 34.1144C29.2811 33.6143 29.9594 33.3334 30.6667 33.3334Z" stroke="#C2D1F3" stroke-width="2.66667" stroke-linecap="round" stroke-linejoin="round"/>
<path d="M36 41.3334C36 42.3942 36.4214 43.4117 37.1716 44.1618C37.9217 44.9119 38.9391 45.3334 40 45.3334C41.0609 45.3334 42.0783 44.9119 42.8284 44.1618C43.5786 43.4117 44 42.3942 44 41.3334C44 40.2725 43.5786 39.2551 42.8284 38.5049C42.0783 37.7548 41.0609 37.3334 40 37.3334C38.9391 37.3334 37.9217 37.7548 37.1716 38.5049C36.4214 39.2551 36 40.2725 36 41.3334Z" stroke="#C2D1F3" stroke-width="2.66667" stroke-linecap="round" stroke-linejoin="round"/>
</g>
<defs>
<clipPath id="clip0_35_25707">
<rect width="32" height="32" fill="white" transform="translate(24 24)"/>
</clipPath>
</defs>
</svg>
