<svg width="208" height="208" viewBox="0 0 208 208" fill="none" xmlns="http://www.w3.org/2000/svg">
<path d="M83.665 29.0426C88.1237 27.848 92.9511 28.7276 97.8902 31.4133C102.833 34.1008 107.859 38.5842 112.678 44.536C122.316 56.4385 131.061 74.1422 136.604 94.8278C142.146 115.513 143.424 135.218 141.029 150.344C139.832 157.908 137.72 164.304 134.784 169.102C131.849 173.897 128.108 177.073 123.65 178.268C119.191 179.462 114.364 178.583 109.424 175.897C104.482 173.21 99.4549 168.727 94.6358 162.776C84.9985 150.873 76.253 133.169 70.7103 112.484C65.1677 91.7983 63.8896 72.0937 66.2845 56.9671C67.4821 49.4031 69.5944 43.0069 72.5309 38.2083C75.4655 33.413 79.2063 30.2373 83.665 29.0426Z" stroke="#C2D1F3" stroke-opacity="0.2"/>
<path d="M123.646 29.0425C128.105 30.2373 131.846 33.4128 134.78 38.2082C137.717 43.0068 139.828 49.4027 141.026 56.9667C143.421 72.0933 142.143 91.7979 136.6 112.483C131.057 133.169 122.312 150.873 112.675 162.775C107.856 168.727 102.829 173.21 97.8869 175.897C92.9478 178.583 88.1203 179.462 83.6616 178.268C79.2029 177.073 75.4622 173.897 72.5275 169.102C69.5911 164.303 67.4785 157.908 66.2809 150.344C63.886 135.218 65.1641 115.513 70.7067 94.8274C76.2494 74.1418 84.9949 56.4381 94.6322 44.5356C99.4513 38.5838 104.479 34.1006 109.421 31.4132C114.36 28.7276 119.188 27.8478 123.646 29.0425Z" stroke="#C2D1F3" stroke-opacity="0.2"/>
<path d="M29.0421 83.6621C30.2369 79.2035 33.4124 75.4626 38.2078 72.528C43.0064 69.5915 49.4024 67.4802 56.9663 66.2826C72.0929 63.8877 91.7975 65.1657 112.483 70.7084C133.169 76.2511 150.872 84.9965 162.775 94.6339C168.726 99.4528 173.209 104.479 175.897 109.422C178.582 114.361 179.462 119.188 178.267 123.647C177.073 128.106 173.897 131.846 169.102 134.781C164.303 137.717 157.908 139.83 150.344 141.028C135.217 143.422 115.513 142.144 94.827 136.602C74.1415 131.059 56.4378 122.314 44.5352 112.676C38.5834 107.857 34.1002 102.83 31.4128 97.8873C28.7273 92.9483 27.8474 88.1207 29.0421 83.6621Z" stroke="#C2D1F3" stroke-opacity="0.2"/>
<path d="M49.037 49.0335C52.3011 45.7696 56.9216 44.1177 62.5418 43.974C68.1657 43.8302 74.7605 45.1997 81.9099 47.9445C96.2074 53.4338 112.633 64.3929 127.776 79.5358C142.919 94.6786 153.878 111.104 159.367 125.402C162.112 132.551 163.481 139.145 163.337 144.769C163.193 150.389 161.541 155.01 158.277 158.274C155.013 161.538 150.393 163.19 144.773 163.333C139.149 163.477 132.554 162.109 125.405 159.364C111.107 153.875 94.6815 142.916 79.5386 127.773C64.3957 112.63 53.4366 96.2045 47.9474 81.9071C45.2025 74.7577 43.8337 68.1622 43.9775 62.5383C44.1213 56.9181 45.7731 52.2975 49.037 49.0335Z" stroke="#C2D1F3" stroke-opacity="0.2"/>
<path d="M49.0353 158.273C45.7714 155.009 44.1195 150.389 43.9758 144.768C43.832 139.144 45.2015 132.55 47.9464 125.4C53.4356 111.103 64.3947 94.6772 79.5376 79.5343C94.6805 64.3915 111.106 53.4323 125.404 47.9431C132.553 45.1984 139.147 43.8295 144.771 43.9732C150.391 44.1169 155.012 45.7689 158.276 49.0328C161.54 52.2968 163.192 56.9173 163.335 62.5375C163.479 68.1614 162.111 74.7564 159.366 81.9056C153.877 96.2031 142.918 112.629 127.775 127.772C112.632 142.914 96.2063 153.874 81.9089 159.363C74.7595 162.108 68.1641 163.477 62.5401 163.333C56.92 163.189 52.2993 161.537 49.0353 158.273Z" stroke="#C2D1F3" stroke-opacity="0.2"/>
<path d="M29.041 123.646C27.8464 119.187 28.7261 114.36 31.4117 109.421C34.0992 104.478 38.5826 99.4518 44.5344 94.6327C56.4369 84.9954 74.1406 76.2499 94.8262 70.7073C115.512 65.1646 135.216 63.8865 150.343 66.2814C157.907 67.479 164.302 69.5907 169.1 72.5271C173.896 75.4617 177.071 79.2025 178.266 83.6612C179.461 88.1199 178.581 92.9473 175.895 97.8864C173.208 102.829 168.726 107.856 162.774 112.675C150.872 122.312 133.168 131.058 112.482 136.601C91.7967 142.143 72.0921 143.421 56.9655 141.026C49.4016 139.829 43.0053 137.717 38.2067 134.78C33.4114 131.845 30.2357 128.105 29.041 123.646Z" stroke="#C2D1F3" stroke-opacity="0.2"/>
<g filter="url(#filter0_d_812_1128)">
<path d="M104.519 34.0841C108.666 34.0842 112.655 35.971 116.325 39.4581C119.998 42.9479 123.329 48.0209 126.137 54.3282C131.752 66.9415 135.237 84.4016 135.237 103.714C135.237 123.027 131.752 140.487 126.137 153.101C123.329 159.408 119.998 164.481 116.325 167.971C112.655 171.458 108.666 173.345 104.519 173.345C100.371 173.345 96.3812 171.458 92.7109 167.971C89.0381 164.481 85.7072 159.408 82.8994 153.101C77.2844 140.487 73.7988 123.027 73.7988 103.714C73.7989 84.4016 77.2845 66.9415 82.8994 54.3282C85.7072 48.0209 89.0381 42.9479 92.7109 39.4581C96.3812 35.9709 100.37 34.0841 104.519 34.0841Z" stroke="#C2D1F3"/>
<path d="M139.336 43.4112C142.928 45.4852 145.439 49.1135 146.874 53.9685C148.31 58.8272 148.658 64.886 147.936 71.7522C146.492 85.4831 140.78 102.347 131.124 119.072C121.468 135.797 109.719 149.176 98.5495 157.292C92.9642 161.35 87.5431 164.078 82.6174 165.264C77.6954 166.449 73.2978 166.088 69.7055 164.015C66.1132 161.94 63.6018 158.312 62.1668 153.457C60.7309 148.598 60.3828 142.539 61.1049 135.673C62.5488 121.942 68.2606 105.078 77.9169 88.3525C87.5731 71.6275 99.3218 58.2495 110.491 50.1335C116.076 46.0751 121.498 43.3472 126.423 42.1614C131.345 40.9765 135.744 41.3371 139.336 43.4112Z" stroke="#C2D1F3"/>
<path d="M44.2167 68.9001C46.2908 65.3079 49.9191 62.7971 54.7741 61.3622C59.6327 59.9263 65.6916 59.5782 72.5577 60.3002C86.2886 61.7442 103.152 67.4556 119.877 77.1118C136.603 86.7681 149.981 98.5171 158.097 109.686C162.156 115.272 164.884 120.693 166.069 125.619C167.254 130.541 166.894 134.938 164.82 138.53C162.746 142.123 159.117 144.634 154.262 146.069C149.404 147.505 143.345 147.853 136.479 147.131C122.748 145.687 105.883 139.975 89.1581 130.319C72.4331 120.663 59.055 108.914 50.9391 97.7449C46.8807 92.1596 44.1527 86.7385 42.9669 81.8128C41.782 76.8906 42.1427 72.4924 44.2167 68.9001Z" stroke="#C2D1F3"/>
<path d="M69.707 43.4119C73.2992 41.3381 77.6969 40.9778 82.6189 42.1626C87.5445 43.3484 92.9657 46.0764 98.5509 50.1348C109.72 58.2507 121.469 71.6287 131.125 88.3538C140.781 105.079 146.493 121.943 147.937 135.674C148.659 142.54 148.311 148.599 146.875 153.458C145.44 158.313 142.929 161.941 139.337 164.015C135.745 166.089 131.347 166.45 126.425 165.265C121.499 164.079 116.078 161.351 110.493 157.293C99.3232 149.177 87.5742 135.798 77.9179 119.073C68.2617 102.348 62.5503 85.4843 61.1063 71.7534C60.3843 64.8872 60.7324 58.8284 62.1683 53.9697C63.6032 49.1145 66.1147 45.4859 69.707 43.4119Z" stroke="#C2D1F3"/>
<path d="M44.2177 138.529C42.1438 134.937 41.7835 130.539 42.9684 125.617C44.1542 120.691 46.8821 115.27 50.9405 109.685C59.0565 98.5157 72.4345 86.7671 89.1595 77.1108C105.885 67.4545 122.749 61.7427 136.48 60.2988C143.346 59.5767 149.405 59.9248 154.264 61.3607C159.119 62.7956 162.747 65.3065 164.821 68.8986C166.895 72.4909 167.256 76.8891 166.071 81.8113C164.885 86.737 162.157 92.1581 158.099 97.7434C149.983 108.913 136.604 120.662 119.879 130.318C103.154 139.974 86.2901 145.686 72.5592 147.13C65.693 147.852 59.6342 147.504 54.7755 146.068C49.9203 144.633 46.2917 142.121 44.2177 138.529Z" stroke="#C2D1F3"/>
<path d="M34.8887 103.713C34.8888 99.5646 36.7756 95.576 40.2627 91.9059C43.7524 88.233 48.8255 84.9021 55.1328 82.0944C67.7461 76.4794 85.2061 72.9938 104.519 72.9938C123.831 72.9938 141.292 76.4794 153.905 82.0944C160.213 84.9021 165.286 88.233 168.775 91.9059C172.262 95.576 174.149 99.5647 174.149 103.713C174.149 107.861 172.263 111.85 168.775 115.52C165.286 119.193 160.213 122.524 153.905 125.332C141.292 130.947 123.831 134.432 104.519 134.432C85.2062 134.432 67.7461 130.947 55.1328 125.332C48.8255 122.524 43.7524 119.193 40.2627 115.52C36.7754 111.85 34.8887 107.861 34.8887 103.713Z" stroke="#C2D1F3"/>
</g>
<rect x="56" y="56" width="97" height="96" rx="48" fill="#151723"/>
<rect x="56.5" y="56.5" width="96" height="95" rx="47.5" stroke="#C2D1F3" stroke-opacity="0.8"/>
<g filter="url(#filter1_d_812_1128)">
<path d="M106.857 91.3333C108.084 91.0118 109.28 90.5855 110.432 90.0593C112.579 89.0373 113.954 87.691 114.998 85.5513C115.486 84.5527 115.899 83.386 116.288 82C116.677 83.3883 117.09 84.555 117.578 85.549C118.622 87.691 119.997 89.0373 122.144 90.0593C123.149 90.5377 124.325 90.946 125.719 91.3333C124.492 91.6556 123.296 92.0827 122.144 92.6097C119.997 93.6317 118.622 94.978 117.578 97.1177C117.041 98.26 116.609 99.4478 116.288 100.667C115.899 99.2807 115.486 98.1117 114.998 97.1177C113.954 94.9757 112.579 93.6317 110.432 92.6097C109.281 92.0793 108.085 91.6521 106.857 91.3333Z" fill="#7DD3FC"/>
<path d="M106.857 91.3333C108.084 91.0118 109.28 90.5855 110.432 90.0593C112.579 89.0373 113.954 87.691 114.998 85.5513C115.486 84.5527 115.899 83.386 116.288 82C116.677 83.3883 117.09 84.555 117.578 85.549C118.622 87.691 119.997 89.0373 122.144 90.0593C123.149 90.5377 124.325 90.946 125.719 91.3333C124.492 91.6556 123.296 92.0827 122.144 92.6097C119.997 93.6317 118.622 94.978 117.578 97.1177C117.041 98.26 116.609 99.4478 116.288 100.667C115.899 99.2807 115.486 98.1117 114.998 97.1177C113.954 94.9757 112.579 93.6317 110.432 92.6097C109.281 92.0793 108.085 91.6521 106.857 91.3333Z" stroke="#7DD3FC" stroke-width="1.5" stroke-linecap="round" stroke-linejoin="round"/>
</g>
<g filter="url(#filter2_d_812_1128)">
<path d="M83 108.98C84.315 108.619 85.6144 108.205 86.8948 107.738C92.8879 105.515 95.9788 102.516 98.2492 96.5245C98.7241 95.2505 99.1426 93.9566 99.5035 92.6465C99.8643 93.9566 100.283 95.2505 100.758 96.5245C103.028 102.514 106.121 105.515 112.112 107.738C113.291 108.174 114.589 108.588 116.007 108.98C114.692 109.34 113.393 109.754 112.112 110.221C106.119 112.445 103.026 115.443 100.758 121.435C100.283 122.709 99.8643 124.003 99.5035 125.313C99.1426 124.003 98.7241 122.709 98.2492 121.435C95.9788 115.443 92.8856 112.445 86.8948 110.221C85.6144 109.754 84.315 109.34 83 108.98Z" fill="#7DD3FC"/>
<path d="M83 108.98C84.315 108.619 85.6144 108.205 86.8948 107.738C92.8879 105.515 95.9788 102.516 98.2492 96.5245C98.7241 95.2505 99.1426 93.9566 99.5035 92.6465C99.8643 93.9566 100.283 95.2505 100.758 96.5245C103.028 102.514 106.121 105.515 112.112 107.738C113.291 108.174 114.589 108.588 116.007 108.98C114.692 109.34 113.393 109.754 112.112 110.221C106.119 112.445 103.026 115.443 100.758 121.435C100.283 122.709 99.8643 124.003 99.5035 125.313C99.1426 124.003 98.7241 122.709 98.2492 121.435C95.9788 115.443 92.8856 112.445 86.8948 110.221C85.6144 109.754 84.315 109.34 83 108.98Z" stroke="#7DD3FC" stroke-width="1.5" stroke-linecap="round" stroke-linejoin="round"/>
</g>
<defs>
<filter id="filter0_d_812_1128" x="14.3887" y="13.5841" width="180.261" height="180.261" filterUnits="userSpaceOnUse" color-interpolation-filters="sRGB">
<feFlood flood-opacity="0" result="BackgroundImageFix"/>
<feColorMatrix in="SourceAlpha" type="matrix" values="0 0 0 0 0 0 0 0 0 0 0 0 0 0 0 0 0 0 127 0" result="hardAlpha"/>
<feOffset/>
<feGaussianBlur stdDeviation="10"/>
<feComposite in2="hardAlpha" operator="out"/>
<feColorMatrix type="matrix" values="0 0 0 0 0.985577 0 0 0 0 0.788461 0 0 0 0 0 0 0 0 0.8 0"/>
<feBlend mode="normal" in2="BackgroundImageFix" result="effect1_dropShadow_812_1128"/>
<feBlend mode="normal" in="SourceGraphic" in2="effect1_dropShadow_812_1128" result="shape"/>
</filter>
<filter id="filter1_d_812_1128" x="102.774" y="77.9167" width="27.028" height="26.8334" filterUnits="userSpaceOnUse" color-interpolation-filters="sRGB">
<feFlood flood-opacity="0" result="BackgroundImageFix"/>
<feColorMatrix in="SourceAlpha" type="matrix" values="0 0 0 0 0 0 0 0 0 0 0 0 0 0 0 0 0 0 127 0" result="hardAlpha"/>
<feOffset/>
<feGaussianBlur stdDeviation="1.66667"/>
<feComposite in2="hardAlpha" operator="out"/>
<feColorMatrix type="matrix" values="0 0 0 0 1 0 0 0 0 1 0 0 0 0 1 0 0 0 0.25 0"/>
<feBlend mode="normal" in2="BackgroundImageFix" result="effect1_dropShadow_812_1128"/>
<feBlend mode="normal" in="SourceGraphic" in2="effect1_dropShadow_812_1128" result="shape"/>
</filter>
<filter id="filter2_d_812_1128" x="78.9167" y="88.5632" width="41.1735" height="40.8334" filterUnits="userSpaceOnUse" color-interpolation-filters="sRGB">
<feFlood flood-opacity="0" result="BackgroundImageFix"/>
<feColorMatrix in="SourceAlpha" type="matrix" values="0 0 0 0 0 0 0 0 0 0 0 0 0 0 0 0 0 0 127 0" result="hardAlpha"/>
<feOffset/>
<feGaussianBlur stdDeviation="1.66667"/>
<feComposite in2="hardAlpha" operator="out"/>
<feColorMatrix type="matrix" values="0 0 0 0 1 0 0 0 0 1 0 0 0 0 1 0 0 0 0.25 0"/>
<feBlend mode="normal" in2="BackgroundImageFix" result="effect1_dropShadow_812_1128"/>
<feBlend mode="normal" in="SourceGraphic" in2="effect1_dropShadow_812_1128" result="shape"/>
</filter>
</defs>
</svg>
