<svg width="40" height="40" viewBox="0 0 40 40" fill="none" xmlns="http://www.w3.org/2000/svg">
<rect width="40" height="40" rx="20" fill="#DDC560"/>
<g clip-path="url(#clip0_41_928)">
<path d="M18 22L29 11" stroke="black" stroke-width="2" stroke-linecap="round" stroke-linejoin="round"/>
<path d="M29.0001 11L22.5001 29C22.4562 29.0957 22.3858 29.1769 22.2971 29.2338C22.2085 29.2906 22.1054 29.3209 22.0001 29.3209C21.8948 29.3209 21.7917 29.2906 21.703 29.2338C21.6144 29.1769 21.5439 29.0957 21.5001 29L18.0001 22L11.0001 18.5C10.9043 18.4561 10.8232 18.3857 10.7663 18.2971C10.7094 18.2084 10.6792 18.1053 10.6792 18C10.6792 17.8947 10.7094 17.7916 10.7663 17.7029C10.8232 17.6143 10.9043 17.5439 11.0001 17.5L29.0001 11Z" stroke="black" stroke-width="2" stroke-linecap="round" stroke-linejoin="round"/>
</g>
<defs>
<clipPath id="clip0_41_928">
<rect width="24" height="24" fill="white" transform="translate(8 8)"/>
</clipPath>
</defs>
</svg>
