<svg width="40" height="40" viewBox="0 0 40 40" fill="none" xmlns="http://www.w3.org/2000/svg">
<rect width="40" height="40" rx="20" fill="#8087FF" fill-opacity="0.08"/>
<rect x="0.25" y="0.25" width="39.5" height="39.5" rx="19.75" stroke="#8087FF" stroke-opacity="0.16" stroke-width="0.5"/>
<path d="M18.2394 13.5C18.2394 13.1022 18.0814 12.7206 17.8001 12.4393C17.5188 12.158 17.1373 12 16.7394 12C16.3416 12 15.9601 12.158 15.6788 12.4393C15.3975 12.7206 15.2394 13.1022 15.2394 13.5V21L13.7694 19.53C13.475 19.2359 13.0907 19.0486 12.6776 18.9978C12.2645 18.9471 11.8463 19.0359 11.4894 19.25C11.1544 19.4509 10.9109 19.7745 10.8108 20.1522C10.7107 20.5298 10.7619 20.9315 10.9534 21.272C12.8324 24.612 13.9274 26.521 14.2394 27C14.3045 27.1002 14.3699 27.2002 14.4354 27.3C14.982 28.1299 15.726 28.811 16.6008 29.2823C17.4756 29.7535 18.4538 30.0002 19.4474 30H19.2394H21.2394C22.8307 30 24.3569 29.3679 25.4821 28.2426C26.6073 27.1174 27.2394 25.5913 27.2394 24V15.5C27.2394 15.1022 27.0814 14.7206 26.8001 14.4393C26.5188 14.158 26.1373 14 25.7394 14C25.3416 14 24.9601 14.158 24.6788 14.4393C24.3975 14.7206 24.2394 15.1022 24.2394 15.5M18.2394 13.5V20M18.2394 13.5V11.5C18.2394 11.303 18.2782 11.108 18.3536 10.926C18.429 10.744 18.5395 10.5786 18.6788 10.4393C18.8181 10.3001 18.9834 10.1896 19.1654 10.1142C19.3474 10.0388 19.5425 10 19.7394 10C19.9364 10 20.1315 10.0388 20.3135 10.1142C20.4955 10.1896 20.6608 10.3001 20.8001 10.4393C20.9394 10.5786 21.0499 10.744 21.1253 10.926C21.2006 11.108 21.2394 11.303 21.2394 11.5V20M21.2394 13.5C21.2394 13.1022 21.3975 12.7206 21.6788 12.4393C21.9601 12.158 22.3416 12 22.7394 12C23.1373 12 23.5188 12.158 23.8001 12.4393C24.0814 12.7206 24.2394 13.1022 24.2394 13.5V20" stroke="#8087FF" stroke-width="2" stroke-linecap="round" stroke-linejoin="round"/>
</svg>
