<svg width="48" height="48" viewBox="0 0 48 48" fill="none" xmlns="http://www.w3.org/2000/svg">
<rect width="48" height="48" rx="24" fill="url(#paint0_radial_7_1464)"/>
<rect x="0.3" y="0.3" width="47.4" height="47.4" rx="23.7" stroke="#31D282" stroke-opacity="0.26" stroke-width="0.6"/>
<path d="M23.9904 34.3968C22.1664 34.3968 20.7072 34.1088 19.6128 33.5328C18.5376 32.9376 18 32.1792 18 31.2576C18 30.4128 18.4704 29.712 19.4112 29.1552C20.352 28.5984 21.6096 28.2624 23.184 28.1472V13.2H24.7968V17.4048L27.8784 14.3232L28.9152 15.36L24.7968 19.4496L28.9152 23.5392L27.8784 24.576L24.7968 21.5232V28.1472C26.3904 28.2624 27.648 28.608 28.5696 29.184C29.5104 29.7408 29.9808 30.432 29.9808 31.2576C29.9808 32.1408 29.4336 32.8896 28.3392 33.504C27.264 34.0992 25.8144 34.3968 23.9904 34.3968ZM23.9904 32.784C24.6624 32.784 25.2384 32.7456 25.7184 32.6688C26.2176 32.592 26.6304 32.4864 26.9568 32.352C27.6288 32.064 27.9648 31.6992 27.9648 31.2576C27.9648 30.7776 27.6192 30.4128 26.928 30.1632C26.1792 29.8944 25.2 29.76 23.9904 29.76C23.2992 29.76 22.704 29.7984 22.2048 29.8752C21.7056 29.9328 21.2928 30.0384 20.9664 30.192C20.3328 30.4992 20.016 30.8544 20.016 31.2576C20.016 31.4688 20.1024 31.6704 20.2752 31.8624C20.448 32.0352 20.6976 32.1984 21.024 32.352C21.696 32.64 22.6848 32.784 23.9904 32.784Z" fill="white"/>
<defs>
<radialGradient id="paint0_radial_7_1464" cx="0" cy="0" r="1" gradientUnits="userSpaceOnUse" gradientTransform="translate(24 24) rotate(90) scale(24)">
<stop stop-color="#D6FFEB"/>
<stop offset="1" stop-color="#2EC67B" stop-opacity="0.56"/>
</radialGradient>
</defs>
</svg>
