<svg width="20" height="20" viewBox="0 0 20 20" fill="none" xmlns="http://www.w3.org/2000/svg">
<g clip-path="url(#clip0_7_1602)">
<path d="M5 3.33335V16.6667C4.99996 16.815 5.03948 16.9606 5.11448 17.0885C5.18949 17.2164 5.29726 17.3219 5.42669 17.3943C5.55611 17.4667 5.70249 17.5032 5.85074 17.5001C5.99898 17.497 6.14371 17.4544 6.27 17.3767L17.1033 10.71C17.2247 10.6355 17.3249 10.5311 17.3944 10.4068C17.4639 10.2825 17.5004 10.1424 17.5004 10C17.5004 9.85761 17.4639 9.71758 17.3944 9.59328C17.3249 9.46899 17.2247 9.36458 17.1033 9.29002L6.27 2.62335C6.14371 2.54566 5.99898 2.50306 5.85074 2.49997C5.70249 2.49687 5.55611 2.53338 5.42669 2.60574C5.29726 2.67809 5.18949 2.78367 5.11448 2.91157C5.03948 3.03948 4.99996 3.18508 5 3.33335Z" fill="#C2D1F3" fill-opacity="0.56"/>
</g>
<defs>
<clipPath id="clip0_7_1602">
<rect width="20" height="20" fill="white"/>
</clipPath>
</defs>
</svg>
