<svg width="48" height="48" viewBox="0 0 48 48" fill="none" xmlns="http://www.w3.org/2000/svg">
<rect width="48" height="48" rx="24" fill="url(#paint0_radial_7_1434)"/>
<rect x="0.3" y="0.3" width="47.4" height="47.4" rx="23.7" stroke="#F98800" stroke-opacity="0.26" stroke-width="0.6"/>
<path d="M30.2017 34.7328V29.376H15.7441V27.5328H17.1265C18.3553 27.5328 19.4497 27.36 20.4097 27.0144C21.3889 26.6688 22.2241 26.1888 22.9153 25.5744C23.6065 24.96 24.1345 24.2304 24.4993 23.3856C24.8641 22.5408 25.0465 21.6288 25.0465 20.6496C25.0465 19.2096 24.6913 18.1152 23.9809 17.3664C23.2897 16.6176 22.4065 16.2432 21.3313 16.2432C20.2753 16.2432 19.3921 16.608 18.6817 17.3376C17.9713 18.048 17.6161 19.0368 17.6161 20.304H15.6001C15.6001 19.152 15.8305 18.1344 16.2913 17.2512C16.7521 16.368 17.4145 15.6768 18.2785 15.1776C19.1425 14.6592 20.1601 14.4 21.3313 14.4C22.5409 14.4 23.5681 14.6592 24.4129 15.1776C25.2769 15.6768 25.9297 16.3872 26.3713 17.3088C26.8321 18.2112 27.0625 19.2672 27.0625 20.4768C27.0625 21.3024 26.9377 22.1568 26.6881 23.04C26.4385 23.904 26.0257 24.7296 25.4497 25.5168C24.8929 26.2848 24.1153 26.9568 23.1169 27.5328H30.2017V14.7456H32.2177V34.7328H30.2017Z" fill="white"/>
<defs>
<radialGradient id="paint0_radial_7_1434" cx="0" cy="0" r="1" gradientUnits="userSpaceOnUse" gradientTransform="translate(24 24) rotate(90) scale(24)">
<stop stop-color="#FFECD6"/>
<stop offset="1" stop-color="#CC8228" stop-opacity="0.56"/>
</radialGradient>
</defs>
</svg>
