<svg width="48" height="48" viewBox="0 0 48 48" fill="none" xmlns="http://www.w3.org/2000/svg">
<rect width="48" height="48" rx="24" fill="url(#paint0_radial_7_1428)"/>
<rect x="0.3" y="0.3" width="47.4" height="47.4" rx="23.7" stroke="#D95B58" stroke-opacity="0.26" stroke-width="0.6"/>
<path d="M22.5889 33.5424C21.3345 33.5424 20.1697 33.2288 19.0945 32.6016C18.0417 31.9744 17.1905 31.1344 16.5409 30.0816C15.9137 29.0064 15.6001 27.8304 15.6001 26.5536C15.6001 25.2992 15.9137 24.1568 16.5409 23.1264C17.1905 22.0736 18.0417 21.2336 19.0945 20.6064C20.1697 19.9792 21.3345 19.6656 22.5889 19.6656C23.3505 19.6656 24.0785 19.7888 24.7729 20.0352C25.4673 20.2592 26.1281 20.5952 26.7553 21.0432L29.8801 17.5488L27.2257 16.2384L32.8705 15.6L32.9041 21.2784L31.2577 18.7584L28.0657 22.32C28.5809 22.9472 28.9617 23.6192 29.2081 24.336C29.4545 25.0304 29.5777 25.7696 29.5777 26.5536C29.5777 27.8304 29.2641 29.0064 28.6369 30.0816C28.0097 31.1344 27.1585 31.9744 26.0833 32.6016C25.0305 33.2288 23.8657 33.5424 22.5889 33.5424ZM22.5889 31.8624C23.5521 31.8624 24.4369 31.6272 25.2433 31.1568C26.0497 30.664 26.6881 30.0144 27.1585 29.208C27.6513 28.4016 27.8977 27.5168 27.8977 26.5536C27.8977 25.6128 27.6513 24.7504 27.1585 23.9664C26.6881 23.16 26.0497 22.5216 25.2433 22.0512C24.4369 21.5808 23.5521 21.3456 22.5889 21.3456C21.6257 21.3456 20.7409 21.5808 19.9345 22.0512C19.1281 22.5216 18.4785 23.16 17.9857 23.9664C17.5153 24.7504 17.2801 25.6128 17.2801 26.5536C17.2801 27.5168 17.5153 28.4016 17.9857 29.208C18.4785 30.0144 19.1281 30.664 19.9345 31.1568C20.7409 31.6272 21.6257 31.8624 22.5889 31.8624Z" fill="white"/>
<defs>
<radialGradient id="paint0_radial_7_1428" cx="0" cy="0" r="1" gradientUnits="userSpaceOnUse" gradientTransform="translate(24 24) rotate(90) scale(24)">
<stop stop-color="#FFD7D6"/>
<stop offset="1" stop-color="#CC2C28" stop-opacity="0.56"/>
</radialGradient>
</defs>
</svg>
