<svg width="48" height="48" viewBox="0 0 48 48" fill="none" xmlns="http://www.w3.org/2000/svg">
<rect width="48" height="48" rx="24" fill="url(#paint0_radial_7_1416)"/>
<rect x="0.3" y="0.3" width="47.4" height="47.4" rx="23.7" stroke="#549DF9" stroke-opacity="0.26" stroke-width="0.6"/>
<path d="M23.2128 35.4144V32.304H19.8144V30.9504H23.2128V28.416C22.2336 28.2816 21.3504 27.936 20.5632 27.3792C19.776 26.8224 19.152 26.1216 18.6912 25.2768C18.2304 24.4128 18 23.472 18 22.4544C18 21.3792 18.288 20.3808 18.864 19.4592C19.44 18.5184 20.1984 17.7888 21.1392 17.2704C20.1792 16.7328 19.4112 15.9936 18.8352 15.0528C18.2784 14.112 18 13.0944 18 12H19.44C19.44 12.8256 19.6416 13.584 20.0448 14.2752C20.4672 14.9664 21.024 15.5232 21.7152 15.9456C22.4064 16.3488 23.1648 16.5504 23.9904 16.5504C24.8352 16.5504 25.6032 16.3488 26.2944 15.9456C26.9856 15.5232 27.5328 14.9664 27.936 14.2752C28.3392 13.584 28.5408 12.8256 28.5408 12H29.9808C29.9808 13.1136 29.6928 14.1408 29.1168 15.0816C28.56 16.0224 27.8016 16.752 26.8416 17.2704C27.8016 17.7888 28.56 18.5088 29.1168 19.4304C29.6928 20.352 29.9808 21.36 29.9808 22.4544C29.9808 23.4528 29.7504 24.384 29.2896 25.248C28.8288 26.0928 28.2048 26.8032 27.4176 27.3792C26.6496 27.936 25.7664 28.2816 24.768 28.416V30.9504H28.1664V32.304H24.768V35.4144H23.2128ZM23.9904 27.0048C24.816 27.0048 25.5744 26.8032 26.2656 26.4C26.9568 25.9776 27.504 25.4208 27.9072 24.7296C28.3296 24.0384 28.5408 23.28 28.5408 22.4544C28.5408 21.648 28.3296 20.9088 27.9072 20.2368C27.504 19.5648 26.9568 19.0272 26.2656 18.624C25.5744 18.2016 24.816 17.9904 23.9904 17.9904C23.1648 17.9904 22.4064 18.192 21.7152 18.5952C21.024 18.9984 20.4672 19.536 20.0448 20.208C19.6416 20.88 19.44 21.6288 19.44 22.4544C19.44 23.2608 19.6416 24.0096 20.0448 24.7008C20.4672 25.392 21.024 25.9488 21.7152 26.3712C22.4064 26.7936 23.1648 27.0048 23.9904 27.0048Z" fill="white"/>
<defs>
<radialGradient id="paint0_radial_7_1416" cx="0" cy="0" r="1" gradientUnits="userSpaceOnUse" gradientTransform="translate(24 24) rotate(90) scale(24)">
<stop stop-color="#D6E8FF"/>
<stop offset="1" stop-color="#2971CC" stop-opacity="0.56"/>
</radialGradient>
</defs>
</svg>
