<svg width="40" height="40" viewBox="0 0 40 40" fill="none" xmlns="http://www.w3.org/2000/svg">
<rect width="40" height="40" rx="20" fill="#94A3B8" fill-opacity="0.08"/>
<rect x="0.25" y="0.25" width="39.5" height="39.5" rx="19.75" stroke="#94A3B8" stroke-opacity="0.16" stroke-width="0.5"/>
<g clip-path="url(#clip0_7_1525)">
<path d="M20 9.992C18.1897 9.99234 16.4135 10.4841 14.8607 11.4148C13.308 12.3455 12.037 13.6802 11.1834 15.2766C10.3298 16.873 9.9255 18.6712 10.0137 20.4793C10.1019 22.2874 10.6793 24.0377 11.6843 25.5434C12.6893 27.0492 14.0841 28.2538 15.7201 29.029C17.356 29.8041 19.1717 30.1206 20.9734 29.9447C22.7752 29.7688 24.4954 29.1071 25.9505 28.0302C27.4057 26.9534 28.5412 25.5017 29.236 23.83C29.577 23.01 28.76 22.186 27.938 22.52C26.5292 23.0907 24.9649 23.1496 23.5172 22.6864C22.0694 22.2233 20.8298 21.2674 20.0137 19.985C19.1977 18.7026 18.8569 17.1748 19.0506 15.6672C19.2443 14.1595 19.9603 12.7675 21.074 11.733L21.151 11.653C21.702 11.023 21.264 10 20.393 10H20.127L20.059 9.994L19.999 9.992H20Z" fill="#94A3B8"/>
</g>
<defs>
<clipPath id="clip0_7_1525">
<rect width="24" height="24" fill="white" transform="translate(8 8)"/>
</clipPath>
</defs>
</svg>
