<svg width="64" height="64" viewBox="0 0 64 64" fill="none" xmlns="http://www.w3.org/2000/svg">
<rect width="64" height="64" rx="32" fill="#94A3B8" fill-opacity="0.08"/>
<rect x="0.4" y="0.4" width="63.2" height="63.2" rx="31.6" stroke="#94A3B8" stroke-opacity="0.16" stroke-width="0.8"/>
<g clip-path="url(#clip0_7_1573)">
<path d="M31.9998 18.6559C29.586 18.6564 27.2177 19.312 25.1474 20.553C23.0771 21.7939 21.3825 23.5735 20.2443 25.7021C19.1061 27.8306 18.5671 30.2282 18.6847 32.639C18.8023 35.0499 19.5722 37.3836 20.9122 39.3912C22.2521 41.3988 24.1119 43.0051 26.2932 44.0386C28.4745 45.0721 30.8954 45.494 33.2977 45.2595C35.7 45.025 37.9936 44.1428 39.9338 42.7069C41.874 41.2711 43.3881 39.3355 44.3144 37.1066C44.7691 36.0133 43.6798 34.9146 42.5838 35.3599C40.7053 36.1208 38.6196 36.1994 36.6893 35.5819C34.759 34.9643 33.1061 33.6898 32.0181 31.98C30.9301 30.2701 30.4757 28.233 30.734 26.2228C30.9922 24.2126 31.9468 22.3566 33.4318 20.9773L33.5344 20.8706C34.2691 20.0306 33.6851 18.6666 32.5238 18.6666H32.1691L32.0784 18.6586L31.9984 18.6559H31.9998Z" fill="#94A3B8"/>
</g>
<defs>
<clipPath id="clip0_7_1573">
<rect width="32" height="32" fill="white" transform="translate(15.9998 16)"/>
</clipPath>
</defs>
</svg>
