<svg width="48" height="48" viewBox="0 0 48 48" fill="none" xmlns="http://www.w3.org/2000/svg">
<rect width="48" height="48" rx="24" fill="url(#paint0_radial_7_1452)"/>
<rect x="0.3" y="0.3" width="47.4" height="47.4" rx="23.7" stroke="#8087FF" stroke-opacity="0.26" stroke-width="0.6"/>
<path d="M22.6464 35.0016V31.8912H19.248V30.5376H22.6464V28.2336C20.3424 28.0992 18.576 27.2928 17.3472 25.8144C16.1376 24.3168 15.5328 22.2144 15.5328 19.5072V18.0672L13.2 18.4416L16.2528 15.0432L19.3056 18.4416L16.9728 18.0672V19.5072C16.9728 21.7152 17.4624 23.4432 18.4416 24.6912C19.44 25.9392 20.8416 26.64 22.6464 26.7936V16.224L20.3136 16.5984L23.424 13.2L26.5344 16.5984L24.2016 16.224V26.7936C26.0064 26.64 27.3983 25.9392 28.3776 24.6912C29.3759 23.4432 29.8752 21.7152 29.8752 19.5072V18.0672L27.5424 18.4416L30.5952 15.0432L33.6479 18.4416L31.3151 18.0672V19.5072C31.3151 22.2144 30.7008 24.3168 29.472 25.8144C28.2624 27.2928 26.5056 28.0992 24.2016 28.2336V30.5376H27.6V31.8912H24.2016V35.0016H22.6464Z" fill="white"/>
<defs>
<radialGradient id="paint0_radial_7_1452" cx="0" cy="0" r="1" gradientUnits="userSpaceOnUse" gradientTransform="translate(24 24) rotate(90) scale(24)">
<stop stop-color="#D6D8FF"/>
<stop offset="1" stop-color="#2831CC" stop-opacity="0.56"/>
</radialGradient>
</defs>
</svg>
