<svg width="40" height="40" viewBox="0 0 40 40" fill="none" xmlns="http://www.w3.org/2000/svg">
<rect width="40" height="40" rx="20" fill="#60A5FA" fill-opacity="0.08"/>
<rect x="0.25" y="0.25" width="39.5" height="39.5" rx="19.75" stroke="#60A5FA" stroke-opacity="0.16" stroke-width="0.5"/>
<g clip-path="url(#clip0_7_1581)">
<path d="M25 11.34C26.5083 12.2109 27.7629 13.4605 28.6398 14.9653C29.5167 16.4701 29.9854 18.1778 29.9994 19.9194C30.0135 21.6609 29.5725 23.376 28.72 24.8947C27.8676 26.4135 26.6332 27.6832 25.1392 28.5783C23.6452 29.4734 21.9434 29.9628 20.2021 29.9981C18.4608 30.0333 16.7406 29.6132 15.2116 28.7793C13.6826 27.9453 12.3979 26.7265 11.4847 25.2435C10.5715 23.7605 10.0614 22.0647 10.005 20.324L10 20L10.005 19.676C10.061 17.949 10.5635 16.266 11.4636 14.791C12.3637 13.316 13.6307 12.0995 15.1409 11.2599C16.6511 10.4203 18.3531 9.98641 20.081 10.0005C21.8089 10.0145 23.5036 10.476 25 11.34ZM23.707 17.293C23.5348 17.1208 23.3057 17.0174 23.0627 17.0021C22.8197 16.9868 22.5794 17.0608 22.387 17.21L22.293 17.293L19 20.585L17.707 19.293L17.613 19.21C17.4206 19.0609 17.1804 18.987 16.9374 19.0024C16.6944 19.0177 16.4654 19.1211 16.2933 19.2933C16.1211 19.4654 16.0177 19.6945 16.0024 19.9374C15.987 20.1804 16.0609 20.4206 16.21 20.613L16.293 20.707L18.293 22.707L18.387 22.79C18.5624 22.9261 18.778 22.9999 19 22.9999C19.222 22.9999 19.4376 22.9261 19.613 22.79L19.707 22.707L23.707 18.707L23.79 18.613C23.9393 18.4206 24.0132 18.1804 23.9979 17.9373C23.9826 17.6943 23.8792 17.4652 23.707 17.293Z" fill="#7DD3FC"/>
</g>
<defs>
<clipPath id="clip0_7_1581">
<rect width="24" height="24" fill="white" transform="translate(8 8)"/>
</clipPath>
</defs>
</svg>
