<svg width="40" height="40" viewBox="0 0 40 40" fill="none" xmlns="http://www.w3.org/2000/svg">
<rect width="40" height="40" rx="20" fill="#6EE7B7" fill-opacity="0.08"/>
<rect x="0.25" y="0.25" width="39.5" height="39.5" rx="19.75" stroke="#6EE7B7" stroke-opacity="0.16" stroke-width="0.5"/>
<g clip-path="url(#clip0_7_1537)">
<path d="M16.243 15.34L9.863 16.265L9.75 16.288C9.57894 16.3334 9.42299 16.4234 9.29809 16.5488C9.17319 16.6742 9.0838 16.8305 9.03906 17.0017C8.99432 17.1729 8.99583 17.353 9.04343 17.5235C9.09103 17.6939 9.18302 17.8487 9.31 17.972L13.932 22.471L12.842 28.826L12.829 28.936C12.8185 29.1129 12.8553 29.2894 12.9354 29.4475C13.0156 29.6055 13.1364 29.7395 13.2853 29.8355C13.4343 29.9315 13.6061 29.9863 13.7831 29.9941C13.9602 30.0019 14.1362 29.9625 14.293 29.88L19.999 26.88L25.692 29.88L25.792 29.926C25.9571 29.991 26.1364 30.0109 26.3118 29.9837C26.4871 29.9566 26.652 29.8832 26.7896 29.7712C26.9272 29.6593 27.0326 29.5127 27.0948 29.3466C27.1571 29.1805 27.1741 29.0008 27.144 28.826L26.053 22.471L30.677 17.971L30.755 17.886C30.8664 17.7488 30.9395 17.5844 30.9667 17.4098C30.994 17.2351 30.9744 17.0564 30.9101 16.8917C30.8458 16.7271 30.7389 16.5824 30.6005 16.4725C30.462 16.3626 30.2969 16.2913 30.122 16.266L23.742 15.34L20.89 9.55998C20.8075 9.39252 20.6797 9.2515 20.5212 9.15289C20.3627 9.05428 20.1797 9.00201 19.993 9.00201C19.8063 9.00201 19.6233 9.05428 19.4648 9.15289C19.3063 9.2515 19.1785 9.39252 19.096 9.55998L16.243 15.34Z" fill="#6EE7B7"/>
</g>
<defs>
<clipPath id="clip0_7_1537">
<rect width="24" height="24" fill="white" transform="translate(8 8)"/>
</clipPath>
</defs>
</svg>
