<svg width="48" height="48" viewBox="0 0 48 48" fill="none" xmlns="http://www.w3.org/2000/svg">
<rect width="48" height="48" rx="24" fill="url(#paint0_radial_7_1440)"/>
<rect x="0.3" y="0.3" width="47.4" height="47.4" rx="23.7" stroke="#BE7BFF" stroke-opacity="0.26" stroke-width="0.6"/>
<path d="M18.9888 35.088V17.5776H16.8V16.0224H18.9888V13.2H21.0048V16.0224H26.3328V17.5776H21.0048V20.1984C21.0048 20.6208 20.9856 21.0048 20.9472 21.3504C20.928 21.696 20.8992 22.0224 20.8608 22.3296H21.0336C21.5136 21.5616 22.176 20.976 23.0208 20.5728C23.8656 20.1504 24.816 19.9392 25.872 19.9392C27.7344 19.9392 29.088 20.4096 29.9328 21.3504C30.7776 22.272 31.2 23.6064 31.2 25.3536C31.2 25.7952 31.1232 26.2944 30.9697 26.8512C30.8352 27.408 30.624 28.0224 30.336 28.6944C30.0288 29.3664 29.7984 29.9424 29.6448 30.4224C29.5104 30.9024 29.4432 31.2864 29.4432 31.5744C29.4432 32.1696 29.5584 32.8032 29.7888 33.4752C30.0192 34.128 30.2688 34.6656 30.5376 35.088H28.3488C28.08 34.6656 27.84 34.1088 27.6288 33.4176C27.4368 32.7264 27.3408 32.0736 27.3408 31.4592C27.3408 31.0752 27.408 30.624 27.5424 30.1056C27.696 29.5872 27.9168 29.0016 28.2048 28.3488C28.512 27.6384 28.7328 27.0432 28.8672 26.5632C29.0208 26.064 29.0976 25.6608 29.0976 25.3536C29.0976 24.048 28.8 23.1168 28.2048 22.56C27.6096 21.984 26.7168 21.696 25.5264 21.696C24.528 21.696 23.6928 21.9072 23.0208 22.3296C22.3488 22.752 21.84 23.4048 21.4944 24.288C21.168 25.152 21.0048 26.2752 21.0048 27.6576V35.088H18.9888Z" fill="white"/>
<defs>
<radialGradient id="paint0_radial_7_1440" cx="0" cy="0" r="1" gradientUnits="userSpaceOnUse" gradientTransform="translate(24 24) rotate(90) scale(24)">
<stop stop-color="#EBD6FF"/>
<stop offset="1" stop-color="#7C28CC" stop-opacity="0.56"/>
</radialGradient>
</defs>
</svg>
