<svg width="48" height="48" viewBox="0 0 48 48" fill="none" xmlns="http://www.w3.org/2000/svg">
<rect width="48" height="48" rx="24" fill="url(#paint0_radial_7_1446)"/>
<rect x="0.3" y="0.3" width="47.4" height="47.4" rx="23.7" stroke="#21D4F4" stroke-opacity="0.26" stroke-width="0.6"/>
<path d="M24.0479 34.08C23.3759 34.08 22.7615 33.9168 22.2047 33.5904C21.6671 33.264 21.2351 32.832 20.9087 32.2944C20.5823 31.7376 20.4191 31.1232 20.4191 30.4512C20.4191 29.6256 20.6687 28.8864 21.1679 28.2336C21.6671 27.5808 22.3007 27.1584 23.0687 26.9664V21.3792H19.0943V27.9744H14.3999V26.0736H17.0783V15.1008H14.3999V13.2H19.0943V19.5648H23.0687V13.2H24.9407V19.5648H28.9151V13.2H33.6095V15.1008H30.9311V26.0736H33.6095V27.9744H28.9151V21.3792H24.9407V26.9376C25.7471 27.1488 26.3999 27.5904 26.8991 28.2624C27.4175 28.9152 27.6767 29.6448 27.6767 30.4512C27.6767 31.104 27.5135 31.7088 27.1871 32.2656C26.8799 32.8032 26.4479 33.2448 25.8911 33.5904C25.3535 33.9168 24.7391 34.08 24.0479 34.08ZM24.0479 32.3232C24.5855 32.3232 25.0271 32.1504 25.3727 31.8048C25.7375 31.44 25.9199 30.9888 25.9199 30.4512C25.9199 29.9328 25.7375 29.4912 25.3727 29.1264C25.0079 28.7616 24.5663 28.5792 24.0479 28.5792C23.5103 28.5792 23.0591 28.7616 22.6943 29.1264C22.3487 29.472 22.1759 29.9136 22.1759 30.4512C22.1759 30.9888 22.3487 31.44 22.6943 31.8048C23.0591 32.1504 23.5103 32.3232 24.0479 32.3232Z" fill="white"/>
<defs>
<radialGradient id="paint0_radial_7_1446" cx="0" cy="0" r="1" gradientUnits="userSpaceOnUse" gradientTransform="translate(24 24) rotate(90) scale(24)">
<stop stop-color="#D6F9FF"/>
<stop offset="1" stop-color="#28B4CC" stop-opacity="0.56"/>
</radialGradient>
</defs>
</svg>
