<svg width="48" height="48" viewBox="0 0 48 48" fill="none" xmlns="http://www.w3.org/2000/svg">
<rect width="48" height="48" rx="24" fill="url(#paint0_radial_7_1422)"/>
<rect x="0.3" y="0.3" width="47.4" height="47.4" rx="23.7" stroke="#CE4491" stroke-opacity="0.26" stroke-width="0.6"/>
<path d="M22.8816 35.208V31.5792H18.9168V30H22.8816V27.0432C21.7392 26.8864 20.7088 26.4832 19.7904 25.8336C18.872 25.184 18.144 24.3552 17.6064 23.3472C17.0688 22.3392 16.8 21.2528 16.8 20.088C16.8 18.8336 17.1136 17.6912 17.7408 16.6608C18.3904 15.608 19.2416 14.768 20.2944 14.1408C21.3696 13.5136 22.5344 13.2 23.7888 13.2C25.0656 13.2 26.2304 13.5136 27.2832 14.1408C28.3584 14.768 29.2096 15.608 29.8368 16.6608C30.464 17.6912 30.7776 18.8336 30.7776 20.088C30.7776 21.2304 30.5088 22.3056 29.9712 23.3136C29.4336 24.3216 28.7056 25.1616 27.7872 25.8336C26.8912 26.4832 25.8609 26.8864 24.696 27.0432V30H28.4256V31.5792H24.696V35.208H22.8816ZM23.7888 25.3968C24.752 25.3968 25.6368 25.1616 26.4432 24.6912C27.2496 24.1984 27.888 23.5488 28.3584 22.7424C28.8512 21.936 29.0976 21.0512 29.0976 20.088C29.0976 19.1472 28.8512 18.2848 28.3584 17.5008C27.888 16.7168 27.2496 16.0896 26.4432 15.6192C25.6368 15.1264 24.752 14.88 23.7888 14.88C22.8256 14.88 21.9408 15.1264 21.1344 15.6192C20.328 16.0896 19.6784 16.7168 19.1856 17.5008C18.7152 18.2848 18.48 19.1472 18.48 20.088C18.48 21.0512 18.7152 21.936 19.1856 22.7424C19.6784 23.5488 20.328 24.1984 21.1344 24.6912C21.9408 25.1616 22.8256 25.3968 23.7888 25.3968Z" fill="white"/>
<defs>
<radialGradient id="paint0_radial_7_1422" cx="0" cy="0" r="1" gradientUnits="userSpaceOnUse" gradientTransform="translate(24 24) rotate(90) scale(24)">
<stop stop-color="#FFD6D6"/>
<stop offset="1" stop-color="#CC2884" stop-opacity="0.56"/>
</radialGradient>
</defs>
</svg>
