<svg width="24" height="24" viewBox="0 0 24 24" fill="none" xmlns="http://www.w3.org/2000/svg">
<g clip-path="url(#clip0_7_1234)">
<path d="M17.964 2.733C18.12 3.296 18.276 3.733 18.448 4.086C18.79 4.796 19.206 5.211 19.918 5.553C20.271 5.723 20.708 5.879 21.27 6.037C22.25 6.313 22.24 7.705 21.257 7.967C20.7974 8.08866 20.3491 8.24958 19.917 8.448C19.207 8.79 18.79 9.205 18.454 9.901C18.2518 10.3362 18.0891 10.7887 17.968 11.253C17.71 12.241 16.31 12.253 16.036 11.268C15.88 10.703 15.724 10.266 15.552 9.914C15.21 9.204 14.794 8.79 14.094 8.454C13.652 8.24745 13.1921 8.08176 12.72 7.959C12.6995 7.95393 12.6794 7.94724 12.66 7.939L12.616 7.922L12.571 7.902L12.522 7.877L12.487 7.857C12.47 7.84819 12.4536 7.83816 12.438 7.827L12.406 7.804L12.363 7.77L12.33 7.742L12.294 7.707L12.26 7.672L12.232 7.639L12.197 7.596L12.175 7.564C12.1632 7.54847 12.1525 7.53209 12.143 7.515L12.123 7.48L12.098 7.43L12.078 7.386L12.061 7.343C12.0528 7.32356 12.0461 7.3035 12.041 7.283L12.031 7.249C12.0211 7.21708 12.0144 7.18425 12.011 7.151L12.005 7.086L12 7.051V7.001C11.998 6.97264 11.999 6.94415 12.003 6.916C12.0044 6.88466 12.0088 6.85352 12.016 6.823C12.0203 6.78791 12.0284 6.75339 12.04 6.72C12.0451 6.6995 12.0518 6.67944 12.06 6.66L12.077 6.616L12.097 6.571L12.122 6.522L12.142 6.487C12.1508 6.46997 12.1608 6.45359 12.172 6.438L12.195 6.406L12.229 6.363L12.257 6.33L12.292 6.294L12.327 6.26C12.337 6.25 12.348 6.24067 12.36 6.232L12.403 6.197L12.435 6.175C12.4505 6.16315 12.4669 6.15246 12.484 6.143L12.519 6.123L12.569 6.098L12.613 6.078L12.656 6.061C12.6754 6.05276 12.6955 6.04607 12.716 6.041L12.743 6.033C13.2022 5.91161 13.6502 5.75102 14.082 5.553C14.792 5.211 15.209 4.796 15.552 4.087C15.722 3.733 15.879 3.295 16.035 2.732C16.307 1.756 17.692 1.756 17.963 2.732" fill="#C2D1F3"/>
<path d="M10.965 6.737C11.111 7.271 11.2787 7.79566 11.468 8.311C12.324 10.591 13.413 11.674 15.698 12.531C16.17 12.7077 16.6937 12.8763 17.269 13.037C18.245 13.309 18.243 14.693 17.267 14.964C16.735 15.1113 16.2123 15.2793 15.699 15.468C13.411 16.326 12.323 17.408 11.47 19.684C11.2788 20.2027 11.1103 20.7296 10.965 21.263C10.697 22.246 9.303 22.246 9.035 21.263C8.89024 20.7313 8.72241 20.2061 8.532 19.689C7.676 17.408 6.588 16.326 4.306 15.47C3.78206 15.2768 3.25026 15.1057 2.712 14.957C2.6936 14.9523 2.67555 14.9463 2.658 14.939L2.614 14.922L2.571 14.902C2.55432 14.8954 2.53825 14.8874 2.523 14.878L2.487 14.858C2.47031 14.8491 2.45427 14.8391 2.439 14.828L2.407 14.804L2.363 14.77L2.33 14.741L2.293 14.707L2.259 14.67L2.229 14.637L2.196 14.593L2.173 14.561C2.16188 14.5457 2.15185 14.5297 2.143 14.513L2.122 14.477C2.11258 14.4617 2.10455 14.4457 2.098 14.429L2.078 14.386L2.061 14.342C2.05373 14.3244 2.04771 14.3064 2.043 14.288C2.03836 14.2754 2.03501 14.2623 2.033 14.249C2.02685 14.2297 2.02217 14.21 2.019 14.19L2.012 14.15L2.005 14.094L2.002 14.05L2 14V13.95C2 13.9347 2.00133 13.92 2.004 13.906C2.00467 13.886 2.007 13.867 2.011 13.849L2.018 13.809C2.02118 13.7832 2.02687 13.7577 2.035 13.733L2.042 13.712C2.04671 13.6936 2.05273 13.6755 2.06 13.658L2.077 13.614L2.097 13.571C2.10355 13.5543 2.11158 13.5382 2.121 13.523L2.141 13.487C2.14985 13.4703 2.15988 13.4543 2.171 13.439L2.195 13.407L2.229 13.363L2.258 13.33L2.292 13.293L2.329 13.259L2.362 13.229L2.406 13.196L2.438 13.173C2.45327 13.1619 2.46931 13.1519 2.486 13.143L2.522 13.122C2.53725 13.1126 2.55332 13.1045 2.57 13.098L2.613 13.078L2.657 13.061C2.67455 13.0537 2.6926 13.0477 2.711 13.043L2.732 13.036C3.26137 12.8896 3.78448 12.7215 4.3 12.532C6.587 11.674 7.675 10.592 8.529 8.316C8.72023 7.79726 8.88872 7.27043 9.034 6.737C9.302 5.754 10.696 5.754 10.964 6.737" fill="#C2D1F3"/>
</g>
<defs>
<clipPath id="clip0_7_1234">
<rect width="24" height="24" fill="white"/>
</clipPath>
</defs>
</svg>
