<svg width="56" height="56" viewBox="0 0 56 56" fill="none" xmlns="http://www.w3.org/2000/svg">
<g clip-path="url(#clip0_869_1941)">
<path d="M41.9164 6.37684C42.2804 7.6905 42.6444 8.71017 43.0457 9.53384C43.8437 11.1905 44.8144 12.1588 46.4757 12.9568C47.2994 13.3535 48.3191 13.7175 49.6304 14.0862C51.9171 14.7302 51.8937 17.9782 49.6001 18.5895C48.5276 18.8734 47.4816 19.2489 46.4734 19.7118C44.8167 20.5098 43.8437 21.4782 43.0597 23.1022C42.5879 24.1176 42.2084 25.1734 41.9257 26.2568C41.3237 28.5622 38.0571 28.5902 37.4177 26.2918C37.0537 24.9735 36.6897 23.9538 36.2884 23.1325C35.4904 21.4758 34.5197 20.5098 32.8864 19.7258C31.8552 19.2439 30.7821 18.8573 29.6804 18.5708C29.6326 18.559 29.5858 18.5434 29.5404 18.5242L29.4377 18.4845L29.3327 18.4378L29.2184 18.3795L29.1367 18.3328C29.097 18.3123 29.0588 18.2889 29.0224 18.2628L28.9477 18.2092L28.8474 18.1298L28.7704 18.0645L28.6864 17.9828L28.6071 17.9012L28.5417 17.8242L28.4601 17.7238L28.4087 17.6492C28.3811 17.6129 28.3561 17.5747 28.3341 17.5348L28.2874 17.4532L28.2291 17.3365L28.1824 17.2338L28.1427 17.1335C28.1235 17.0881 28.1079 17.0413 28.0961 16.9935L28.0727 16.9142C28.0496 16.8397 28.034 16.7631 28.0261 16.6855L28.0121 16.5338L28.0004 16.4522V16.3355C27.9957 16.2693 27.998 16.2028 28.0074 16.1372C28.0107 16.064 28.0209 15.9914 28.0377 15.9202C28.0479 15.8383 28.0666 15.7577 28.0937 15.6798C28.1056 15.632 28.1212 15.5852 28.1404 15.5398L28.1801 15.4372L28.2267 15.3322L28.2851 15.2178L28.3317 15.1362C28.3523 15.0964 28.3757 15.0582 28.4017 15.0218L28.4554 14.9472L28.5347 14.8468L28.6001 14.7698L28.6817 14.6858L28.7634 14.6065C28.7867 14.5832 28.8124 14.5614 28.8404 14.5412L28.9407 14.4595L29.0154 14.4082C29.0517 14.3805 29.0899 14.3556 29.1297 14.3335L29.2114 14.2868L29.3281 14.2285L29.4307 14.1818L29.5311 14.1422C29.5764 14.1229 29.6233 14.1073 29.6711 14.0955L29.7341 14.0768C30.8057 13.7936 31.8509 13.4189 32.8584 12.9568C34.5151 12.1588 35.4881 11.1905 36.2884 9.53617C36.6851 8.71017 37.0514 7.68817 37.4154 6.3745C38.0501 4.09717 41.2817 4.09717 41.9141 6.3745" fill="url(#paint0_radial_869_1941)"/>
<path d="M25.5843 15.7202C25.925 16.9662 26.3162 18.1905 26.758 19.3929C28.7553 24.7129 31.2963 27.2399 36.628 29.2396C37.7293 29.6518 38.9512 30.0454 40.2937 30.4202C42.571 31.0549 42.5663 34.2842 40.289 34.9166C39.0477 35.2604 37.8281 35.6524 36.6303 36.0926C31.2917 38.0946 28.753 40.6192 26.7627 45.9299C26.3165 47.1403 25.9233 48.3696 25.5843 49.6143C24.959 51.9079 21.7063 51.9079 21.081 49.6143C20.7432 48.3736 20.3516 47.1482 19.9073 45.9416C17.91 40.6192 15.3713 38.0946 10.0467 36.0972C8.82416 35.6465 7.58329 35.2472 6.32735 34.9002C6.2844 34.8893 6.2423 34.8752 6.20135 34.8582L6.09868 34.8186L5.99835 34.7719C5.95942 34.7566 5.92193 34.7379 5.88635 34.7159L5.80235 34.6692C5.76341 34.6486 5.72598 34.6252 5.69035 34.5992L5.61568 34.5432L5.51302 34.4639L5.43602 34.3962L5.34968 34.3169L5.27035 34.2306L5.20035 34.1536L5.12335 34.0509L5.06968 33.9762C5.04373 33.9406 5.02034 33.9032 4.99968 33.8642L4.95068 33.7802C4.92871 33.7447 4.90997 33.7072 4.89468 33.6682L4.84802 33.5679L4.80835 33.4652C4.79137 33.4243 4.77734 33.3822 4.76635 33.3392C4.75553 33.3098 4.74771 33.2793 4.74302 33.2482C4.72866 33.2033 4.71774 33.1572 4.71035 33.1106L4.69402 33.0172L4.67768 32.8866L4.67068 32.7839L4.66602 32.6672V32.5506C4.66602 32.5148 4.66913 32.4806 4.67535 32.4479C4.6769 32.4012 4.68235 32.3569 4.69168 32.3149L4.70802 32.2216C4.71544 32.1613 4.72872 32.1019 4.74768 32.0442L4.76402 31.9952C4.77501 31.9523 4.78904 31.9102 4.80602 31.8692L4.84568 31.7666L4.89235 31.6663C4.90763 31.6273 4.92637 31.5898 4.94835 31.5542L4.99502 31.4703C5.01567 31.4313 5.03907 31.3939 5.06502 31.3582L5.12102 31.2836L5.20035 31.1809L5.26802 31.1039L5.34735 31.0176L5.43368 30.9382L5.51068 30.8682L5.61335 30.7913L5.68802 30.7376C5.72365 30.7116 5.76108 30.6882 5.80002 30.6676L5.88402 30.6186C5.9196 30.5966 5.95708 30.5779 5.99602 30.5626L6.09635 30.5159L6.19902 30.4762C6.23997 30.4593 6.28207 30.4452 6.32502 30.4342L6.37402 30.4179C7.6092 30.0763 8.82979 29.684 10.0327 29.2419C15.369 27.2399 17.9077 24.7153 19.9003 19.4046C20.3465 18.1942 20.7397 16.9649 21.0787 15.7202C21.704 13.4266 24.9567 13.4266 25.582 15.7202" fill="url(#paint1_radial_869_1941)"/>
</g>
<defs>
<radialGradient id="paint0_radial_869_1941" cx="0" cy="0" r="1" gradientUnits="userSpaceOnUse" gradientTransform="translate(39.6655 16.3336) rotate(90) scale(11.6671 11.6674)">
<stop stop-color="#E6FFFA"/>
<stop offset="0.35" stop-color="#A6FFF0"/>
<stop offset="0.75" stop-color="#3DE0C7"/>
<stop offset="1" stop-color="#2FB5FF"/>
</radialGradient>
<radialGradient id="paint1_radial_869_1941" cx="0" cy="0" r="1" gradientUnits="userSpaceOnUse" gradientTransform="translate(23.3327 32.6672) rotate(90) scale(18.6672 18.6667)">
<stop stop-color="#E6FFFA"/>
<stop offset="0.35" stop-color="#A6FFF0"/>
<stop offset="0.75" stop-color="#3DE0C7"/>
<stop offset="1" stop-color="#2FB5FF"/>
</radialGradient>
<clipPath id="clip0_869_1941">
<rect width="56" height="56" fill="white"/>
</clipPath>
</defs>
</svg>
