<svg width="40" height="40" viewBox="0 0 40 40" fill="none" xmlns="http://www.w3.org/2000/svg">
<path d="M0 20C0 8.95431 8.95431 0 20 0C31.0457 0 40 8.95431 40 20C40 31.0457 31.0457 40 20 40C8.95431 40 0 31.0457 0 20Z" fill="white" fill-opacity="0.24"/>
<path d="M19.6716 13.4495C19.7039 13.3907 19.7515 13.3417 19.8093 13.3075C19.8671 13.2734 19.933 13.2554 20.0001 13.2554C20.0672 13.2554 20.1331 13.2734 20.1909 13.3075C20.2486 13.3417 20.2962 13.3907 20.3286 13.4495L22.5426 17.6525C22.5954 17.7498 22.6691 17.8343 22.7584 17.8997C22.8476 17.9652 22.9503 18.0101 23.059 18.0311C23.1677 18.0522 23.2797 18.049 23.387 18.0216C23.4943 17.9943 23.5942 17.9435 23.6796 17.873L26.8873 15.125C26.9489 15.0749 27.0248 15.0457 27.104 15.0415C27.1833 15.0372 27.2619 15.0583 27.3284 15.1016C27.3949 15.1448 27.446 15.2081 27.4743 15.2823C27.5026 15.3564 27.5066 15.4377 27.4858 15.5143L25.3603 23.1988C25.3169 23.356 25.2235 23.4948 25.0941 23.5942C24.9647 23.6935 24.8064 23.748 24.6433 23.7493H15.3576C15.1943 23.7481 15.0359 23.6937 14.9064 23.5944C14.7768 23.495 14.6832 23.3561 14.6398 23.1988L12.5151 15.515C12.4943 15.4384 12.4983 15.3572 12.5266 15.283C12.5549 15.2089 12.606 15.1456 12.6725 15.1023C12.739 15.059 12.8176 15.038 12.8969 15.0422C12.9761 15.0464 13.052 15.0757 13.1136 15.1258L16.3206 17.8738C16.4059 17.9443 16.5058 17.995 16.6131 18.0224C16.7204 18.0497 16.8324 18.053 16.9411 18.0319C17.0498 18.0108 17.1525 17.9659 17.2418 17.9005C17.3311 17.835 17.4048 17.7506 17.4576 17.6533L19.6716 13.4495Z" stroke="#292929" stroke-width="1.5" stroke-linecap="round" stroke-linejoin="round"/>
<path d="M14.75 26.75H25.25" stroke="#292929" stroke-width="1.5" stroke-linecap="round" stroke-linejoin="round"/>
</svg>
