<svg width="32" height="32" viewBox="0 0 32 32" fill="none" xmlns="http://www.w3.org/2000/svg">
<g clip-path="url(#clip0_682_464)">
<path d="M6.66663 6.66671C6.66663 6.31309 6.8071 5.97395 7.05715 5.7239C7.3072 5.47385 7.64634 5.33337 7.99996 5.33337H10.6666C11.0202 5.33337 11.3594 5.47385 11.6094 5.7239C11.8595 5.97395 12 6.31309 12 6.66671V25.3334C12 25.687 11.8595 26.0261 11.6094 26.2762C11.3594 26.5262 11.0202 26.6667 10.6666 26.6667H7.99996C7.64634 26.6667 7.3072 26.5262 7.05715 26.2762C6.8071 26.0261 6.66663 25.687 6.66663 25.3334V6.66671Z" stroke="white" stroke-width="2" stroke-linecap="round" stroke-linejoin="round"/>
<path d="M12 6.66671C12 6.31309 12.1405 5.97395 12.3905 5.7239C12.6406 5.47385 12.9797 5.33337 13.3333 5.33337H16C16.3536 5.33337 16.6928 5.47385 16.9428 5.7239C17.1929 5.97395 17.3333 6.31309 17.3333 6.66671V25.3334C17.3333 25.687 17.1929 26.0261 16.9428 26.2762C16.6928 26.5262 16.3536 26.6667 16 26.6667H13.3333C12.9797 26.6667 12.6406 26.5262 12.3905 26.2762C12.1405 26.0261 12 25.687 12 25.3334V6.66671Z" stroke="white" stroke-width="2" stroke-linecap="round" stroke-linejoin="round"/>
<path d="M18.4041 6.08002L21.3161 5.37335C22.0654 5.19335 22.8268 5.62668 23.0254 6.34935L27.9521 24.24C28.039 24.5676 28.0005 24.9157 27.8442 25.2164C27.6878 25.517 27.4248 25.7484 27.1068 25.8653L26.9294 25.92L24.0174 26.6267C23.2681 26.8067 22.5068 26.3734 22.3081 25.6507L17.3814 7.76002C17.2945 7.43248 17.333 7.0843 17.4894 6.78366C17.6457 6.48302 17.9087 6.25159 18.2268 6.13468L18.4041 6.08002Z" stroke="white" stroke-width="2" stroke-linecap="round" stroke-linejoin="round"/>
</g>
<defs>
<clipPath id="clip0_682_464">
<rect width="32" height="32" fill="white"/>
</clipPath>
</defs>
</svg>
