<svg width="32" height="32" viewBox="0 0 32 32" fill="none" xmlns="http://www.w3.org/2000/svg">
<g clip-path="url(#clip0_682_455)">
<path d="M25.3334 11.6133L18.2227 6.08264C17.5987 5.59719 16.8306 5.33362 16.04 5.33362C15.2494 5.33362 14.4814 5.59719 13.8574 6.08264L6.74535 11.6133C6.31794 11.9457 5.97214 12.3713 5.73436 12.8578C5.49658 13.3442 5.3731 13.8785 5.37335 14.42V24.02C5.37335 24.7272 5.6543 25.4055 6.1544 25.9056C6.6545 26.4057 7.33278 26.6866 8.04002 26.6866H24.04C24.7473 26.6866 25.4255 26.4057 25.9256 25.9056C26.4257 25.4055 26.7067 24.7272 26.7067 24.02V14.42C26.7067 13.3226 26.2 12.2866 25.3334 11.6133Z" stroke="white" stroke-width="2" stroke-linecap="round" stroke-linejoin="round"/>
<path d="M21.3334 20C18.4999 20 13.9999 20 10.6667 20" stroke="white" stroke-width="2" stroke-linecap="round" stroke-linejoin="round"/>
</g>
<defs>
<clipPath id="clip0_682_455">
<rect width="32" height="32" fill="white"/>
</clipPath>
</defs>
</svg>
