<svg width="32" height="32" viewBox="0 0 32 32" fill="none" xmlns="http://www.w3.org/2000/svg">
<g clip-path="url(#clip0_452_1346)">
<path d="M25.3334 11.6132L18.2227 6.08252C17.5987 5.59707 16.8306 5.3335 16.04 5.3335C15.2494 5.3335 14.4814 5.59707 13.8574 6.08252L6.74537 11.6132C6.31796 11.9456 5.97216 12.3712 5.73438 12.8577C5.49659 13.3441 5.37312 13.8784 5.37337 14.4199V24.0199C5.37337 24.7271 5.65432 25.4054 6.15442 25.9055C6.65452 26.4056 7.33279 26.6865 8.04004 26.6865H24.04C24.7473 26.6865 25.4256 26.4056 25.9257 25.9055C26.4258 25.4054 26.7067 24.7271 26.7067 24.0199V14.4199C26.7067 13.3225 26.2 12.2865 25.3334 11.6132Z" stroke="#7D7D82" stroke-width="2" stroke-linecap="round" stroke-linejoin="round"/>
<path d="M21.3333 20C18.4999 20 13.9999 20 10.6667 20" stroke="#7D7D82" stroke-width="2" stroke-linecap="round" stroke-linejoin="round"/>
</g>
<defs>
<clipPath id="clip0_452_1346">
<rect width="32" height="32" fill="white"/>
</clipPath>
</defs>
</svg>
