<svg width="32" height="32" viewBox="0 0 32 32" fill="none" xmlns="http://www.w3.org/2000/svg">
<g clip-path="url(#clip0_601_8479)">
<path d="M6.66667 6.66659C6.66667 6.31296 6.80715 5.97383 7.0572 5.72378C7.30724 5.47373 7.64638 5.33325 8.00001 5.33325H10.6667C11.0203 5.33325 11.3594 5.47373 11.6095 5.72378C11.8595 5.97383 12 6.31296 12 6.66659V25.3333C12 25.6869 11.8595 26.026 11.6095 26.2761C11.3594 26.5261 11.0203 26.6666 10.6667 26.6666H8.00001C7.64638 26.6666 7.30724 26.5261 7.0572 26.2761C6.80715 26.026 6.66667 25.6869 6.66667 25.3333V6.66659Z" stroke="#7B7B80" stroke-width="2" stroke-linecap="round" stroke-linejoin="round"/>
<path d="M12 6.66659C12 6.31296 12.1405 5.97383 12.3905 5.72378C12.6406 5.47373 12.9797 5.33325 13.3333 5.33325H16C16.3536 5.33325 16.6928 5.47373 16.9428 5.72378C17.1929 5.97383 17.3333 6.31296 17.3333 6.66659V25.3333C17.3333 25.6869 17.1929 26.026 16.9428 26.2761C16.6928 26.5261 16.3536 26.6666 16 26.6666H13.3333C12.9797 26.6666 12.6406 26.5261 12.3905 26.2761C12.1405 26.026 12 25.6869 12 25.3333V6.66659Z" stroke="#7B7B80" stroke-width="2" stroke-linecap="round" stroke-linejoin="round"/>
<path d="M18.4041 6.07989L21.3161 5.37323C22.0654 5.19323 22.8268 5.62656 23.0254 6.34923L27.9521 24.2399C28.039 24.5674 28.0005 24.9156 27.8442 25.2163C27.6878 25.5169 27.4248 25.7483 27.1068 25.8652L26.9294 25.9199L24.0174 26.6266C23.2681 26.8066 22.5068 26.3732 22.3081 25.6506L17.3814 7.75989C17.2945 7.43236 17.333 7.08418 17.4894 6.78354C17.6457 6.4829 17.9087 6.25146 18.2268 6.13456L18.4041 6.07989Z" stroke="#7B7B80" stroke-width="2" stroke-linecap="round" stroke-linejoin="round"/>
</g>
<defs>
<clipPath id="clip0_601_8479">
<rect width="32" height="32" fill="white"/>
</clipPath>
</defs>
</svg>
