<svg width="16" height="16" viewBox="0 0 16 16" fill="none" xmlns="http://www.w3.org/2000/svg">
<path d="M7.51793 0.153838C7.81835 -0.0658871 8.23571 -0.0502187 8.51951 0.200713C10.2325 1.71622 12.4684 2.50529 14.7532 2.40075C15.1213 2.3839 15.4531 2.62073 15.5571 2.97419C15.9502 4.31149 16.0707 5.71455 15.911 7.09926C15.7513 8.48389 15.3146 9.82261 14.6274 11.0353C13.9402 12.2478 13.0167 13.3103 11.911 14.1587C10.8052 15.0073 9.53979 15.6244 8.1906 15.9744C8.05892 16.0085 7.92071 16.0085 7.78903 15.9744C6.43986 15.6244 5.17444 15.0072 4.06866 14.1587C2.96288 13.3102 2.03862 12.2479 1.35143 11.0353C0.664267 9.82262 0.228313 8.48388 0.0685963 7.09926C-0.0910968 5.71455 0.0286071 4.31149 0.421727 2.97419L0.470946 2.84763C0.609108 2.56552 0.904202 2.386 1.22643 2.40075C3.51104 2.50522 5.74645 1.7161 7.45934 0.200713L7.51793 0.153838ZM7.98903 1.83668C6.21699 3.20684 4.04944 3.96893 1.80925 4.0078C1.5985 4.96081 1.54555 5.94328 1.65768 6.91566C1.79281 8.08734 2.16216 9.22004 2.74364 10.2462C3.32511 11.2723 4.1072 12.1712 5.04289 12.8892C5.92308 13.5646 6.92327 14.0644 7.98903 14.3681C9.05531 14.0644 10.0562 13.5649 10.9367 12.8892C11.8724 12.1712 12.6545 11.2723 13.236 10.2462C13.8174 9.22006 14.186 8.08731 14.3212 6.91566C14.4333 5.94292 14.3798 4.96037 14.1688 4.00702C11.9287 3.96786 9.76087 3.20697 7.98903 1.83668Z" fill="#6287FF"/>
<path d="M6.38966 7.20004C6.38966 6.77569 6.55835 6.36883 6.85841 6.06877C7.15848 5.76871 7.56533 5.60002 7.98968 5.60002C8.41403 5.60002 8.82089 5.76871 9.12095 6.06877C9.42101 6.36883 9.5897 6.77569 9.5897 7.20004C9.5897 7.62439 9.42101 8.03125 9.12095 8.33131C8.82089 8.63137 8.41403 8.80007 7.98968 8.80007C7.56533 8.80007 7.15848 8.63137 6.85841 8.33131C6.55835 8.03125 6.38966 7.62439 6.38966 7.20004Z" fill="#6287FF"/>
<path d="M7.18967 10.0001V8.00005C7.18967 7.55822 7.54785 7.20004 7.98968 7.20004C8.43151 7.20004 8.78969 7.55822 8.78969 8.00005V10.0001C8.78969 10.4419 8.43151 10.8001 7.98968 10.8001C7.54785 10.8001 7.18967 10.4419 7.18967 10.0001Z" fill="#6287FF"/>
</svg>
