<svg width="52" height="52" viewBox="0 0 52 52" fill="none" xmlns="http://www.w3.org/2000/svg">
<rect x="5.98706" y="5.99991" width="40" height="40" rx="20" fill="white" fill-opacity="0.34"/>
<g filter="url(#filter0_d_1267_1845)">
<path d="M25.3973 16.1923C25.7728 15.9176 26.2945 15.9372 26.6492 16.2509C28.7904 18.1452 31.5853 19.1316 34.4412 19.0009C34.9013 18.9798 35.3161 19.2759 35.4461 19.7177C35.9375 21.3893 36.0881 23.1431 35.8885 24.8739C35.6888 26.6047 35.1429 28.2781 34.284 29.7939C33.425 31.3095 32.2706 32.6376 30.8885 33.6982C29.5063 34.7588 27.9246 35.5302 26.2381 35.9677C26.0735 36.0104 25.9007 36.0103 25.7361 35.9677C24.0497 35.5303 22.468 34.7588 21.0857 33.6982C19.7035 32.6375 18.5482 31.3096 17.6893 29.7939C16.8303 28.2781 16.2854 26.6047 16.0857 24.8739C15.8861 23.1431 16.0358 21.3893 16.5272 19.7177L16.5887 19.5595C16.7614 19.2068 17.1302 18.9825 17.533 19.0009C20.3887 19.1315 23.183 18.1451 25.324 16.2509L25.3973 16.1923ZM25.9861 18.2958C23.7711 20.0085 21.0617 20.9611 18.2615 21.0097C17.9981 22.2009 17.9319 23.429 18.0721 24.6444C18.241 26.109 18.7027 27.5249 19.4295 28.8075C20.1563 30.0902 21.1339 31.2137 22.3035 32.1112C23.4037 32.9554 24.654 33.5802 25.9861 33.9599C27.319 33.5803 28.57 32.9558 29.6707 32.1112C30.8403 31.2137 31.8179 30.0902 32.5447 28.8075C33.2715 27.5249 33.7323 26.109 33.9012 24.6444C34.0414 23.4285 33.9744 22.2004 33.7107 21.0087C30.9107 20.9598 28.2009 20.0086 25.9861 18.2958Z" fill="white"/>
<path d="M23.9869 24.9999C23.9869 24.4695 24.1978 23.9609 24.5729 23.5858C24.948 23.2108 25.4565 22.9999 25.9869 22.9999C26.5174 22.9999 27.0259 23.2108 27.401 23.5858C27.7761 23.9609 27.9869 24.4695 27.9869 24.9999C27.9869 25.5303 27.7761 26.0389 27.401 26.414C27.0259 26.789 26.5174 26.9999 25.9869 26.9999C25.4565 26.9999 24.948 26.789 24.5729 26.414C24.1978 26.0389 23.9869 25.5303 23.9869 24.9999Z" fill="white"/>
<path d="M24.9869 28.4999V25.9999C24.9869 25.4476 25.4347 24.9999 25.9869 24.9999C26.5392 24.9999 26.9869 25.4476 26.9869 25.9999V28.4999C26.9869 29.0522 26.5392 29.4999 25.9869 29.4999C25.4347 29.4999 24.9869 29.0522 24.9869 28.4999Z" fill="white"/>
</g>
<defs>
<filter id="filter0_d_1267_1845" x="0" y="0" width="51.9741" height="51.9997" filterUnits="userSpaceOnUse" color-interpolation-filters="sRGB">
<feFlood flood-opacity="0" result="BackgroundImageFix"/>
<feColorMatrix in="SourceAlpha" type="matrix" values="0 0 0 0 0 0 0 0 0 0 0 0 0 0 0 0 0 0 127 0" result="hardAlpha"/>
<feOffset/>
<feGaussianBlur stdDeviation="8"/>
<feComposite in2="hardAlpha" operator="out"/>
<feColorMatrix type="matrix" values="0 0 0 0 1 0 0 0 0 1 0 0 0 0 1 0 0 0 1 0"/>
<feBlend mode="normal" in2="BackgroundImageFix" result="effect1_dropShadow_1267_1845"/>
<feBlend mode="normal" in="SourceGraphic" in2="effect1_dropShadow_1267_1845" result="shape"/>
</filter>
</defs>
</svg>
