<svg width="32" height="32" viewBox="0 0 32 32" fill="none" xmlns="http://www.w3.org/2000/svg">
<path d="M14.6667 7.33341C14.6667 6.80298 14.456 6.29427 14.0809 5.9192C13.7058 5.54413 13.1971 5.33341 12.6667 5.33341C12.1362 5.33341 11.6275 5.54413 11.2525 5.9192C10.8774 6.29427 10.6667 6.80298 10.6667 7.33341V17.3334L8.70667 15.3734C8.31405 14.9812 7.80166 14.7315 7.25088 14.6639C6.7001 14.5962 6.1425 14.7146 5.66667 15.0001C5.21993 15.2679 4.89531 15.6995 4.76184 16.2029C4.62838 16.7064 4.6966 17.2421 4.952 17.6961C7.45733 22.1494 8.91733 24.6947 9.33333 25.3334C9.4201 25.467 9.50721 25.6003 9.59467 25.7334C10.3234 26.8399 11.3154 27.7481 12.4818 28.3765C13.6482 29.0048 14.9524 29.3336 16.2773 29.3334H16H18.6667C20.7884 29.3334 22.8232 28.4906 24.3235 26.9903C25.8238 25.49 26.6667 23.4551 26.6667 21.3334V10.0001C26.6667 9.46965 26.456 8.96094 26.0809 8.58587C25.7058 8.21079 25.1971 8.00008 24.6667 8.00008C24.1362 8.00008 23.6275 8.21079 23.2525 8.58587C22.8774 8.96094 22.6667 9.46965 22.6667 10.0001M14.6667 7.33341V16.0001M14.6667 7.33341V4.66675C14.6667 4.4041 14.7184 4.14403 14.8189 3.90138C14.9194 3.65873 15.0667 3.43825 15.2525 3.25253C15.4382 3.06682 15.6586 2.9195 15.9013 2.81899C16.144 2.71848 16.404 2.66675 16.6667 2.66675C16.9293 2.66675 17.1894 2.71848 17.432 2.81899C17.6747 2.9195 17.8952 3.06682 18.0809 3.25253C18.2666 3.43825 18.4139 3.65873 18.5144 3.90138C18.6149 4.14403 18.6667 4.4041 18.6667 4.66675V16.0001M18.6667 7.33341C18.6667 6.80298 18.8774 6.29427 19.2525 5.9192C19.6275 5.54413 20.1362 5.33341 20.6667 5.33341C21.1971 5.33341 21.7058 5.54413 22.0809 5.9192C22.456 6.29427 22.6667 6.80298 22.6667 7.33341V16.0001" stroke="#C2D1F3" stroke-opacity="0.56" stroke-width="2.66667" stroke-linecap="round" stroke-linejoin="round"/>
</svg>
