<svg width="32" height="32" viewBox="0 0 32 32" fill="none" xmlns="http://www.w3.org/2000/svg">
<path d="M16.0397 5.33325C16.8301 5.33325 17.5984 5.59702 18.2223 6.08228L25.3337 11.6135C26.2001 12.2869 26.7067 13.323 26.7067 14.4202V24.0198C26.7067 24.727 26.4256 25.4054 25.9255 25.9055C25.4254 26.4055 24.7469 26.6868 24.0397 26.6868H8.03971C7.33273 26.6867 6.65492 26.4054 6.15495 25.9055C5.65485 25.4054 5.3737 24.727 5.3737 24.0198V14.4202C5.37344 13.8788 5.49632 13.344 5.73405 12.8577C5.97183 12.3712 6.31836 11.9459 6.74577 11.6135L13.8571 6.08228C14.481 5.5969 15.2492 5.33334 16.0397 5.33325ZM11.3561 18.8586C10.7258 18.4781 9.9057 18.6805 9.52506 19.3108C9.14474 19.9411 9.34704 20.7613 9.97721 21.1418C11.7041 22.1843 13.8872 22.6662 15.9987 22.6663C18.1104 22.6663 20.2941 22.1841 22.0221 21.1418C22.6524 20.7616 22.8552 19.9422 22.4753 19.3118C22.0949 18.6812 21.2748 18.4783 20.6442 18.8586C19.4256 19.5935 17.7473 20.0002 15.9987 20.0002C14.25 20.0002 12.5731 19.5932 11.3561 18.8586Z" fill="url(#paint0_linear_1346_5824)"/>
<defs>
<linearGradient id="paint0_linear_1346_5824" x1="5.3737" y1="16.01" x2="26.7067" y2="16.01" gradientUnits="userSpaceOnUse">
<stop stop-color="#EEDF9B"/>
<stop offset="1" stop-color="#DDC560"/>
</linearGradient>
</defs>
</svg>
