<svg width="32" height="32" viewBox="0 0 32 32" fill="none" xmlns="http://www.w3.org/2000/svg">
<path d="M10.6667 17.3332V7.33317C10.6667 6.80274 10.8774 6.29403 11.2525 5.91896C11.6275 5.54388 12.1362 5.33317 12.6667 5.33317C13.1971 5.33317 13.7058 5.54388 14.0809 5.91896C14.456 6.29403 14.6667 15.4694 14.6667 15.9998" fill="url(#paint0_linear_1364_230)"/>
<path d="M14.6667 15.9998V4.6665C14.6667 4.40386 14.7184 4.14379 14.8189 3.90114C14.9194 3.65849 15.0667 3.43801 15.2525 3.25229C15.4382 3.06657 15.6586 2.91925 15.9013 2.81874C16.144 2.71824 16.404 2.6665 16.6667 2.6665C16.9293 2.6665 17.1894 2.71824 17.432 2.81874C17.6747 2.91925 17.8952 3.06657 18.0809 3.25229C18.2666 3.43801 18.4139 3.65849 18.5144 3.90114C18.6149 4.14379 18.6667 4.40386 18.6667 4.6665V15.9998" fill="url(#paint1_linear_1364_230)"/>
<path d="M18.6667 13.5C18.6667 12.9696 18.8774 6.29403 19.2525 5.91896C19.6275 5.54388 20.1362 5.33317 20.6667 5.33317C21.1971 5.33317 21.7058 5.54388 22.0809 5.91896C22.4559 6.29403 22.6667 6.80274 22.6667 7.33317V15.9998" fill="url(#paint2_linear_1364_230)"/>
<path d="M22.6667 11.6665C22.6667 11.1361 22.8774 8.9607 23.2525 8.58562C23.6275 8.21055 24.1362 7.99984 24.6667 7.99984C25.1971 7.99984 25.7058 8.21055 26.0809 8.58562C26.4559 8.9607 26.6667 9.4694 26.6667 9.99984V21.3332C26.6667 23.4549 25.8238 25.4897 24.3235 26.99C22.8232 28.4903 20.7884 29.3332 18.6667 29.3332H16H16.2773C14.9524 29.3334 13.6482 29.0046 12.4818 28.3762C11.3154 27.7479 10.3234 26.8397 9.59467 25.7332C9.50721 25.6001 9.4201 25.4667 9.33333 25.3332C8.91733 24.6945 7.45733 22.1492 4.952 17.6958C4.6966 17.2419 4.62838 16.7062 4.76184 16.2027C4.89531 15.6992 5.21993 15.2677 5.66667 14.9998C6.1425 14.7143 6.7001 14.596 7.25088 14.6636C7.80166 14.7313 8.31405 14.981 8.70667 15.3732L10.6667 17.3332" fill="url(#paint3_linear_1364_230)"/>
<defs>
<linearGradient id="paint0_linear_1364_230" x1="4.69507" y1="15.9998" x2="26.6667" y2="15.9998" gradientUnits="userSpaceOnUse">
<stop stop-color="#EEDF9B"/>
<stop offset="1" stop-color="#DDC560"/>
</linearGradient>
<linearGradient id="paint1_linear_1364_230" x1="4.69507" y1="15.9998" x2="26.6667" y2="15.9998" gradientUnits="userSpaceOnUse">
<stop stop-color="#EEDF9B"/>
<stop offset="1" stop-color="#DDC560"/>
</linearGradient>
<linearGradient id="paint2_linear_1364_230" x1="4.69507" y1="15.9998" x2="26.6667" y2="15.9998" gradientUnits="userSpaceOnUse">
<stop stop-color="#EEDF9B"/>
<stop offset="1" stop-color="#DDC560"/>
</linearGradient>
<linearGradient id="paint3_linear_1364_230" x1="4.69507" y1="15.9998" x2="26.6667" y2="15.9998" gradientUnits="userSpaceOnUse">
<stop stop-color="#EEDF9B"/>
<stop offset="1" stop-color="#DDC560"/>
</linearGradient>
</defs>
</svg>
