<svg width="32" height="32" viewBox="0 0 32 32" fill="none" xmlns="http://www.w3.org/2000/svg">
<g clip-path="url(#clip0_1366_270)">
<path d="M25.3333 11.6134L18.2227 6.08277C17.5987 5.59731 16.8306 5.33374 16.04 5.33374C15.2494 5.33374 14.4813 5.59731 13.8573 6.08277L6.74533 11.6134C6.31792 11.9458 5.97212 12.3715 5.73434 12.8579C5.49655 13.3443 5.37308 13.8787 5.37333 14.4201V24.0201C5.37333 24.7273 5.65428 25.4056 6.15438 25.9057C6.65448 26.4058 7.33275 26.6868 8.04 26.6868H24.04C24.7472 26.6868 25.4255 26.4058 25.9256 25.9057C26.4257 25.4056 26.7067 24.7273 26.7067 24.0201V14.4201C26.7067 13.3228 26.2 12.2868 25.3333 11.6134Z" stroke="#C2D1F3" stroke-opacity="0.56" stroke-width="2.66667" stroke-linecap="round" stroke-linejoin="round"/>
<path d="M21.3333 20C18.3867 21.7773 13.6107 21.7773 10.6667 20" stroke="#C2D1F3" stroke-opacity="0.56" stroke-width="2.66667" stroke-linecap="round" stroke-linejoin="round"/>
</g>
<defs>
<clipPath id="clip0_1366_270">
<rect width="32" height="32" fill="white"/>
</clipPath>
</defs>
</svg>
