<svg width="32" height="32" viewBox="0 0 32 32" fill="none" xmlns="http://www.w3.org/2000/svg">
<g clip-path="url(#clip0_1366_1233)">
<path d="M17.3333 9.33333C18.0269 9.1496 18.7032 8.90602 19.3547 8.60533C20.5693 8.02133 21.3467 7.252 21.9373 6.02933C22.2133 5.45867 22.4467 4.792 22.6667 4C22.8867 4.79333 23.12 5.46 23.396 6.028C23.9867 7.252 24.764 8.02133 25.9787 8.60533C26.5467 8.87867 27.212 9.112 28 9.33333C27.3064 9.51749 26.6301 9.76152 25.9787 10.0627C24.764 10.6467 23.9867 11.416 23.396 12.6387C23.0926 13.2914 22.8485 13.9702 22.6667 14.6667C22.4467 13.8747 22.2133 13.2067 21.9373 12.6387C21.3467 11.4147 20.5693 10.6467 19.3547 10.0627C18.7041 9.7596 18.0276 9.51551 17.3333 9.33333Z" stroke="#C2D1F3" stroke-opacity="0.56" stroke-width="2.66667" stroke-linecap="round" stroke-linejoin="round"/>
<path d="M4 18.6668C4.74368 18.4608 5.47853 18.2242 6.20267 17.9575C9.592 16.6868 11.34 14.9735 12.624 11.5495C12.8926 10.8215 13.1292 10.0821 13.3333 9.3335C13.5374 10.0821 13.7741 10.8215 14.0427 11.5495C15.3267 14.9722 17.076 16.6868 20.464 17.9575C21.1307 18.2064 21.8649 18.4428 22.6667 18.6668C21.923 18.8728 21.1881 19.1095 20.464 19.3762C17.0747 20.6468 15.3253 22.3602 14.0427 25.7842C13.7741 26.5122 13.5374 27.2515 13.3333 28.0002C13.1292 27.2515 12.8926 26.5122 12.624 25.7842C11.34 22.3602 9.59067 20.6468 6.20267 19.3762C5.47853 19.1095 4.74368 18.8728 4 18.6668Z" stroke="#C2D1F3" stroke-opacity="0.56" stroke-width="2.66667" stroke-linecap="round" stroke-linejoin="round"/>
</g>
<defs>
<clipPath id="clip0_1366_1233">
<rect width="32" height="32" fill="white"/>
</clipPath>
</defs>
</svg>
