<svg width="32" height="32" viewBox="0 0 32 32" fill="none" xmlns="http://www.w3.org/2000/svg">
<path d="M23.2751 4L27.9988 4.00447L28.0013 8.70197L20.7121 15.9893L24.4832 19.7609L26.3696 17.8761L28.2553 19.7617L24.9555 23.0616L28.7267 26.8328L26.8411 28.7184L23.0699 24.9472L19.77 28.2471L17.8844 26.3615L19.7692 24.4749L15.9975 20.704L12.2271 24.4744L14.1132 26.3615L12.2275 28.2471L8.92819 24.9467L5.15646 28.7184L3.27083 26.8328L7.04257 23.0611L3.74225 19.7617L5.62786 17.8761L7.51303 19.7603L11.2828 15.9893L4.00242 8.70824L3.99877 4L8.72675 4.00447L15.9975 11.276L23.2751 4ZM13.1682 17.8747L9.39743 21.6453L10.3414 22.588L14.1108 18.8173L13.1682 17.8747ZM25.3335 6.668H24.3775L17.8828 13.16L18.8255 14.1027L25.3335 7.59733V6.668ZM6.66677 6.668V7.60133L21.6548 22.5893L22.5976 21.6465L7.6201 6.66933L6.66677 6.668Z" fill="#FF3E41"/>
</svg>
