<svg width="32" height="32" viewBox="0 0 32 32" fill="none" xmlns="http://www.w3.org/2000/svg">
<path d="M16 2.66663C23.3637 2.66663 29.3333 8.63616 29.3333 16C29.3333 23.3637 23.3637 29.3333 16 29.3333C8.6362 29.3333 2.66667 23.3637 2.66667 16C2.66667 8.63616 8.6362 2.66663 16 2.66663ZM16 5.33329C10.109 5.33329 5.33334 10.1089 5.33334 16C5.33334 21.891 10.109 26.6666 16 26.6666C21.8911 26.6666 26.6667 21.891 26.6667 16C26.6667 10.1089 21.8911 5.33329 16 5.33329ZM16 14.6666C18.6667 14.6666 20.8889 15.111 22.6667 16C22.6667 19.6818 19.6819 22.6666 16 22.6666C12.3181 22.6666 9.33334 19.6818 9.33334 16C11.1111 15.111 13.3333 14.6666 16 14.6666ZM11.3333 9.33329C12.9462 9.33329 14.2916 10.4789 14.6001 12.0007H8.06652C8.37508 10.4789 9.72043 9.33329 11.3333 9.33329ZM20.6667 9.33329C22.2796 9.33329 23.6249 10.4789 23.9335 12.0007H17.3999C17.7084 10.4789 19.0537 9.33329 20.6667 9.33329Z" fill="#FFD33E"/>
</svg>
