<svg width="32" height="32" viewBox="0 0 32 32" fill="none" xmlns="http://www.w3.org/2000/svg">
<path d="M16.0001 2.66667C23.3638 2.66667 29.3334 8.6362 29.3334 16C29.3334 16.9688 29.2301 17.9135 29.0338 18.8236L26.6575 16.4473C26.6637 16.2989 26.6667 16.1499 26.6667 16C26.6667 10.109 21.8911 5.33334 16.0001 5.33334C10.109 5.33334 5.33341 10.109 5.33341 16C5.33341 21.8911 10.109 26.6667 16.0001 26.6667C17.7365 26.6667 19.3759 26.2517 20.8249 25.5157C21.0314 25.8437 21.2774 26.1532 21.5622 26.4379C21.9653 26.8409 22.4167 27.166 22.8979 27.4131C20.8857 28.6316 18.5249 29.3333 16.0001 29.3333C8.63628 29.3333 2.66675 23.3637 2.66675 16C2.66675 8.6362 8.63628 2.66667 16.0001 2.66667ZM25.3334 18.8955L27.219 20.7811C28.2605 21.8224 28.2605 23.5109 27.219 24.5523C26.1777 25.5937 24.4891 25.5937 23.4478 24.5523C22.4537 23.5583 22.4086 21.9747 23.3122 20.9269L23.4478 20.7811L25.3334 18.8955ZM16.0001 20C17.9553 20 19.7138 20.8416 20.9333 22.1824L19.6733 23.3281C18.6201 22.91 17.3574 22.6667 16.0001 22.6667C14.6427 22.6667 13.3801 22.91 12.3268 23.3281L11.0669 22.1824C12.2863 20.8416 14.0449 20 16.0001 20ZM11.3334 13.3333C12.438 13.3333 13.3334 14.2288 13.3334 15.3333C13.3334 16.4379 12.438 17.3333 11.3334 17.3333C10.2288 17.3333 9.33341 16.4379 9.33341 15.3333C9.33341 14.2288 10.2288 13.3333 11.3334 13.3333ZM20.6667 13.3333C21.7713 13.3333 22.6667 14.2288 22.6667 15.3333C22.6667 16.4379 21.7713 17.3333 20.6667 17.3333C19.5622 17.3333 18.6667 16.4379 18.6667 15.3333C18.6667 14.2288 19.5622 13.3333 20.6667 13.3333Z" fill="#FF983E"/>
</svg>
