<svg width="32" height="32" viewBox="0 0 32 32" fill="none" xmlns="http://www.w3.org/2000/svg">
<path d="M20.2647 13.2591C19.6864 12.7114 19.3144 11.9814 19.2112 11.1916L18.674 7.08169L15.0332 9.06284C14.3336 9.4435 13.5243 9.57169 12.7414 9.42582L8.66656 8.66672L9.42566 12.7415C9.57153 13.5245 9.44334 14.3338 9.06268 15.0333L7.08153 18.6741L11.1915 19.2113C11.9812 19.3146 12.7113 19.6866 13.259 20.2648L16.1094 23.2741L17.8903 19.5313C18.2326 18.8121 18.8119 18.2328 19.5311 17.8905L23.2739 16.1096L20.2647 13.2591ZM20.2983 20.677L17.348 26.8773C17.1582 27.2763 16.6809 27.4457 16.2819 27.2558C16.193 27.2136 16.1126 27.1552 16.0448 27.0837L11.323 22.0986C11.1966 21.9652 11.0281 21.8793 10.8458 21.8556L4.03746 20.9656C3.59936 20.9084 3.29064 20.5068 3.3479 20.0686C3.36066 19.9711 3.39137 19.8765 3.43845 19.79L6.72033 13.7588C6.80818 13.5973 6.83777 13.4105 6.8041 13.2299L5.54658 6.47973C5.46566 6.04537 5.75218 5.62766 6.18654 5.54674C6.28338 5.5287 6.38273 5.5287 6.47957 5.54674L13.2297 6.80426C13.4104 6.83792 13.5972 6.80834 13.7586 6.72049L19.7898 3.43861C20.1779 3.22742 20.6638 3.37085 20.8749 3.75893C20.9221 3.84546 20.9527 3.93994 20.9654 4.03762L21.8554 10.846C21.8792 11.0282 21.9651 11.1967 22.0984 11.3231L27.0835 16.0449C27.4043 16.3488 27.418 16.8552 27.1142 17.176C27.0464 17.2474 26.966 17.3058 26.8771 17.3481L20.677 20.2985C20.511 20.3774 20.3772 20.5112 20.2983 20.677ZM21.3607 23.2465L23.2463 21.3609L28.9032 27.0177L27.0177 28.9033L21.3607 23.2465Z" fill="#3EA4FF"/>
</svg>
