<svg width="15" height="22" viewBox="0 0 15 22" fill="none" xmlns="http://www.w3.org/2000/svg">
<path d="M7.5 21.5C11.6421 21.5 15 18.1421 15 14C15 13.1345 14.7697 12.3032 14.5 11.5296C12.8333 13.1765 11.5667 14 10.7 14C14.6954 7 12.5 4 6.5 0C7 4.99951 3.70403 7.27375 2.36179 8.5366C0.90786 9.9045 0 11.8462 0 14C0 18.1421 3.35786 21.5 7.5 21.5ZM8.2094 3.73498C11.4511 6.48528 11.4666 8.6223 8.963 13.0086C8.202 14.3419 9.1648 16 10.7 16C11.3884 16 12.0841 15.7992 12.8189 15.4051C12.1979 17.762 10.0519 19.5 7.5 19.5C4.46243 19.5 2 17.0376 2 14C2 12.4608 2.63279 11.0276 3.73225 9.9932C3.85826 9.8747 4.49749 9.3081 4.52477 9.2836C4.94862 8.9021 5.2978 8.5663 5.6429 8.19677C6.8733 6.87932 7.7571 5.41631 8.2094 3.73498Z" fill="#FF823E"/>
</svg>
