<svg width="32" height="32" viewBox="0 0 32 32" fill="none" xmlns="http://www.w3.org/2000/svg">
<path d="M16 2.66663C23.3637 2.66663 29.3333 8.63616 29.3333 16V21.0185C29.3333 22.0286 28.7627 22.952 27.8592 23.4037L24 25.3333V26.6666C24 28.7969 22.3348 30.5382 20.2351 30.6598L19.9332 30.6672C19.9624 30.5234 19.9824 30.3764 19.9924 30.2266L20 30V29.3333C20 27.9274 18.9121 26.7757 17.5324 26.674L17.3333 26.6666H14.6667C13.2609 26.6666 12.1091 27.7545 12.0073 29.1342L12 29.3333V30C12 30.2285 12.023 30.4516 12.0668 30.6672L12 30.6666C9.79087 30.6666 8 28.8758 8 26.6666V25.3333L4.14077 23.4037C3.23734 22.952 2.66667 22.0286 2.66667 21.0185V16C2.66667 8.63616 8.6362 2.66663 16 2.66663ZM16 5.33329C10.2201 5.33329 5.51395 9.93041 5.33842 15.6677L5.33334 16V21.0185L10.6667 23.6852V25.8066L10.7672 25.6948C11.6856 24.7113 12.9704 24.0778 14.3975 24.0066L14.6667 24L17.4313 24.0017L17.7285 24.0145C19.0596 24.1128 20.2491 24.6958 21.1269 25.5845L21.3333 25.8066V23.6852L26.6667 21.0185V16C26.6667 10.1089 21.8911 5.33329 16 5.33329ZM10.6667 14.6666C12.1394 14.6666 13.3333 15.8605 13.3333 17.3333C13.3333 18.8061 12.1394 20 10.6667 20C9.19391 20 8 18.8061 8 17.3333C8 15.8605 9.19391 14.6666 10.6667 14.6666ZM21.3333 14.6666C22.8061 14.6666 24 15.8605 24 17.3333C24 18.8061 22.8061 20 21.3333 20C19.8605 20 18.6667 18.8061 18.6667 17.3333C18.6667 15.8605 19.8605 14.6666 21.3333 14.6666Z" fill="#F93EFF"/>
</svg>
