<svg width="32" height="32" viewBox="0 0 32 32" fill="none" xmlns="http://www.w3.org/2000/svg">
<path d="M16 25.3333C17.1045 25.3333 18 26.2288 18 27.3333C18 28.4379 17.1045 29.3333 16 29.3333C14.8955 29.3333 14 28.4379 14 27.3333C14 26.2288 14.8955 25.3333 16 25.3333ZM16 2.66666C20.4183 2.66666 24 6.24838 24 10.6667C24 13.5528 22.9965 15.0543 20.4345 17.2308C17.8648 19.4139 17.3333 20.3959 17.3333 22.6667H14.6667C14.6667 19.368 15.716 17.7403 18.708 15.1985C20.7305 13.4803 21.3333 12.5783 21.3333 10.6667C21.3333 7.72114 18.9455 5.33332 16 5.33332C13.0545 5.33332 10.6667 7.72114 10.6667 10.6667V12H8V10.6667C8 6.24838 11.5817 2.66666 16 2.66666Z" fill="#3EFFAB"/>
</svg>
