<svg width="32" height="32" viewBox="0 0 32 32" fill="none" xmlns="http://www.w3.org/2000/svg">
<path d="M16.0013 6.03804C19.1333 3.22667 23.9733 3.32 26.9901 6.34315C30.0071 9.36629 30.1107 14.1827 27.3048 17.324L15.9999 28.6467L4.69517 17.324C1.8894 14.1827 1.99428 9.35868 5.00981 6.34315C8.02876 3.3242 12.8603 3.22249 16.0013 6.03804ZM25.1027 8.2268C23.1039 6.22392 19.8768 6.14268 17.7827 8.02249L16.0025 9.62032L14.2215 8.02375C12.1213 6.14129 8.90008 6.22411 6.89543 8.22876C4.90911 10.2151 4.80939 13.3964 6.63991 15.4976L15.9999 24.8724L25.3601 15.4976C27.1913 13.3956 27.092 10.2203 25.1027 8.2268Z" fill="#FF3E91"/>
</svg>
